<?xml version="1.0" encoding="utf-8"?>
<!-- Generator: Adobe Illustrator 24.1.1, SVG Export Plug-In . SVG Version: 6.00 Build 0)  -->
<svg version="1.1" id="Layer_1" xmlns="http://www.w3.org/2000/svg" xmlns:xlink="http://www.w3.org/1999/xlink" x="0px" y="0px"
	 viewBox="0 0 210 95" style="enable-background:new 0 0 210 95;" xml:space="preserve">
<style type="text/css">
	.st0{fill:#19B9DF;}
	.st1{fill:#1A2C4E;}
</style>
<polygon class="st0" points="157.4,84.4 186.5,55.3 157.4,55.3 "/>
<g>
	<path class="st1" d="M55.7,26.9c-0.6-4.3-4-6.6-8.6-6.6c-7.2,0-10,6.4-10,12.7c0,6.4,2.8,12.7,10,12.7c5.2,0,8.2-3,8.6-7.9h11.2
		c-0.6,11-8.7,17.5-19.5,17.5C34.4,55.3,26,45.4,26,33c0-12.4,8.4-22.3,21.3-22.3c9.2,0,19.2,5.9,19.5,16.2H55.7z"/>
	<path class="st1" d="M98.2,26.9c-0.6-4.3-4-6.6-8.6-6.6c-7.2,0-10,6.4-10,12.7c0,6.4,2.8,12.7,10,12.7c5.2,0,8.2-3,8.6-7.9h11.2
		c-0.6,11-8.7,17.5-19.5,17.5c-12.9,0-21.3-9.9-21.3-22.3c0-12.4,8.4-22.3,21.3-22.3c9.2,0,19.2,5.9,19.5,16.2H98.2z"/>
	<path class="st1" d="M122.5,40c0.2,5,3.4,6.7,8.1,6.7c3.4,0,6.8-1.2,6.8-4.4c0-3.8-6.1-4.5-12.3-6.2c-6.1-1.7-12.5-4.5-12.5-12.3
		c0-9.4,9.4-13,17.4-13c8.5,0,17.1,4.1,17.1,13.8H136c0.2-3.9-3.5-5.2-6.9-5.2c-2.4,0-5.4,0.8-5.4,3.7c0,3.3,6.2,3.9,12.4,5.6
		c6.2,1.7,12.4,4.6,12.4,12.3c0,10.9-9.2,14.3-18.6,14.3c-9.8,0-18.5-4.3-18.6-15.3H122.5z"/>
</g>
<g>
	<path class="st0" d="M37.1,67.8c0,2.8-1.8,5.1-4.8,5.1c-3,0-4.8-2.2-4.8-5.1c0-2.9,1.8-5.2,4.8-5.2C35.2,62.6,37.1,64.9,37.1,67.8z
		 M32.3,71.1c1.8,0,2.7-1.5,2.7-3.3c0-1.9-0.8-3.4-2.7-3.4c-1.8,0-2.6,1.5-2.6,3.4C29.6,69.6,30.5,71.1,32.3,71.1z"/>
	<path class="st0" d="M45.4,62.9v1.8h-4.7v2.3h4.1v1.7h-4.1v4h-2.1v-9.8H45.4z"/>
	<path class="st0" d="M53.5,62.9v1.8h-4.7v2.3h4.1v1.7h-4.1v4h-2.1v-9.8H53.5z"/>
	<path class="st0" d="M56.9,62.9v9.8h-2.1v-9.8H56.9z"/>
	<path class="st0" d="M67.4,66.2h-2.1c-0.2-1-1.1-1.7-2.1-1.7c-1.8,0-2.7,1.4-2.7,3.4c0,1.8,0.9,3.3,2.7,3.3c1.2,0,2-0.8,2.2-2.2
		h2.1c-0.2,2.5-1.9,4-4.3,4c-3,0-4.8-2.2-4.8-5.1c0-2.9,1.8-5.2,4.8-5.2C65.4,62.6,67.2,64,67.4,66.2z"/>
	<path class="st0" d="M76.3,62.9v1.8h-5.2v2.1h4.7v1.7h-4.7v2.4h5.3v1.8H69v-9.8H76.3z"/>
	<path class="st0" d="M88.9,65.8h-2.1c-0.1-1-0.6-1.5-1.9-1.5c-0.8,0-1.5,0.3-1.5,1.1c0,0.7,0.4,0.8,2.6,1.4c0.5,0.1,1,0.2,1.4,0.4
		c1,0.4,1.8,1.2,1.8,2.5c0,1.8-1.5,3.1-4.1,3.1c-2,0-4.2-1-4.2-3.4v-0.1h2.1c0,1.4,1.1,1.8,2.1,1.8c1,0,1.9-0.3,1.9-1.2
		c0-0.6-0.5-1-1.7-1.3c-0.7-0.2-1.3-0.3-2-0.5c-1.5-0.5-2.1-1.3-2.1-2.6c0-2,1.9-2.9,3.7-2.9C87.1,62.6,88.9,63.6,88.9,65.8z"/>
	<path class="st0" d="M92.6,62.9V69c0,1.4,0.6,2.1,2,2.1c1.5,0,2-0.6,2-2.1v-6.1h2.1V69c0,2.4-1.4,3.9-4.2,3.9
		c-2.8,0-4.2-1.5-4.2-3.9v-6.1H92.6z"/>
	<path class="st0" d="M105.1,62.9c2.3,0,3.4,1.4,3.4,3.1c0,1.8-1.1,3.1-3.4,3.1h-2.3v3.5h-2.1v-9.8H105.1z M104.5,67.5
		c1.2,0,1.8-0.4,1.8-1.5c0-1-0.6-1.5-1.8-1.5h-1.7v2.9H104.5z"/>
	<path class="st0" d="M114.2,62.9c2.3,0,3.4,1.4,3.4,3.1c0,1.8-1.1,3.1-3.4,3.1H112v3.5h-2.1v-9.8H114.2z M113.7,67.5
		c1.2,0,1.8-0.4,1.8-1.5c0-1-0.6-1.5-1.8-1.5H112v2.9H113.7z"/>
	<path class="st0" d="M121.1,62.9v8h4.8v1.8h-6.9v-9.8H121.1z"/>
	<path class="st0" d="M129.2,62.9v9.8h-2.1v-9.8H129.2z"/>
	<path class="st0" d="M138.4,62.9v1.8h-5.2v2.1h4.7v1.7h-4.7v2.4h5.3v1.8h-7.4v-9.8H138.4z"/>
	<path class="st0" d="M147.3,65.8h-2.1c-0.1-1-0.6-1.5-1.9-1.5c-0.8,0-1.5,0.3-1.5,1.1c0,0.7,0.4,0.8,2.6,1.4c0.5,0.1,1,0.2,1.4,0.4
		c1,0.4,1.8,1.2,1.8,2.5c0,1.8-1.5,3.1-4.1,3.1c-2,0-4.2-1-4.2-3.4v-0.1h2.1c0,1.4,1.1,1.8,2.1,1.8c1,0,1.9-0.3,1.9-1.2
		c0-0.6-0.5-1-1.7-1.3c-0.7-0.2-1.3-0.3-2-0.5c-1.5-0.5-2.1-1.3-2.1-2.6c0-2,1.9-2.9,3.7-2.9C145.4,62.6,147.3,63.6,147.3,65.8z"/>
</g>
</svg>
