<svg xmlns="http://www.w3.org/2000/svg" width="100" height="55" viewBox="0 0 100 55">
    <g fill="#231F20" fill-rule="evenodd">
        <path d="M0 42.979h99.848V6.016H0v36.963zm1.701-1.695h96.446V7.711H1.7v33.573z"/>
        <path d="M26.727 15.679v17.608l1.384.182V34.5h-6.857V33.47l1.476-.182V25.27h-8.763v8.016l1.353.182V34.5H8.587V33.47l1.353-.182V15.679l-1.353-.182v-1.002h6.733v1.002l-1.353.182v7.528h8.763V15.68l-1.476-.182v-1.002h6.857v1.002zM36.075 33.408l1.29.182v.91h-6.302v-.91l1.292-.182V21.355l-1.292-.181v-.911h5.012zM40.103 33.617l1.26-.177V15.555l-1.26-.177v-.883h5.012V33.44l1.291.177v.884h-6.303zM54.062 20.263h3.382v1.335h-3.382v8.47c0 2.186.46 2.885 2.458 2.885.74 0 1.386 0 2-.153v.972c-1.814.638-3.352.91-4.643.91-2.89 0-3.566-1.304-3.566-3.795v-9.289h-2.644v-1.335h2.737v-2.975l3.658-1.094v4.069zM74.387 27.518c0 4.433-3.012 7.407-7.748 7.407-4.583 0-7.504-1.943-7.504-7.407 0-4.584 3.014-7.65 7.75-7.65 4.674 0 7.502 2.763 7.502 7.65m-4.12-.09c0-4.494-1.353-6.468-3.537-6.468-2.12 0-3.475 1.883-3.475 6.468 0 4.523 1.354 6.405 3.475 6.405 2.277 0 3.537-1.79 3.537-6.405M91.482 33.59v.91h-6.303v-.91l1.261-.182v-8.106c0-2.247-.83-3.248-2.553-3.248-.8 0-2.06.546-2.982 1.183v10.171l1.291.181v.911h-6.332v-.91l1.29-.182V21.446l-1.29-.181v-1.002h5.041v1.974c1.567-1.245 3.075-2.248 5.196-2.248 2.829 0 4.09 1.64 4.09 4.857v8.562l1.291.181zM36.257 16.498c0 1.107-.909 2.004-2.03 2.004-1.12 0-2.029-.897-2.029-2.004 0-1.106.908-2.003 2.03-2.003 1.12 0 2.029.897 2.029 2.003M98.279 45.514h.302c.202 0 .27-.057.27-.2 0-.144-.068-.198-.27-.198h-.302v.398zm.82-.215c0 .194-.079.316-.255.366l.305.452h-.276l-.277-.416c-.022 0-.044.003-.076.003h-.241v.413h-.245v-1.22h.54c.37 0 .525.126.525.402zm-1.561.22c0 .555.457 1.01 1.014 1.01.555 0 1.015-.455 1.015-1.01 0-.557-.46-1.012-1.015-1.012-.557 0-1.014.455-1.014 1.011zm2.31.003c0 .714-.58 1.29-1.296 1.29a1.292 1.292 0 1 1 0-2.582c.716 0 1.295.578 1.295 1.292z"/>
    </g>
</svg>
