<svg xmlns="http://www.w3.org/2000/svg" xmlns:xlink="http://www.w3.org/1999/xlink" width="996" height="804.922" viewBox="0 0 996 804.922">
  <defs>
    <linearGradient id="linear-gradient" x1="0.932" y1="0.058" x2="0.036" y2="0.533" gradientUnits="objectBoundingBox">
      <stop offset="0" stop-color="#575757"/>
      <stop offset="1"/>
    </linearGradient>
    <linearGradient id="linear-gradient-2" x1="0.893" y1="0.14" x2="0" y2="0.742" xlink:href="#linear-gradient"/>
    <clipPath id="clip-path">
      <path id="Path_87" data-name="Path 87" d="M996,0H0V689.016c0,8.517,18.992,15.421,42.419,15.421H996Z" transform="translate(0 172.078)" fill="url(#linear-gradient)"/>
    </clipPath>
    <linearGradient id="linear-gradient-3" x1="0.5" x2="0.5" y2="1" gradientUnits="objectBoundingBox">
      <stop offset="0" stop-color="#c93237"/>
      <stop offset="1" stop-color="#7e1518"/>
    </linearGradient>
  </defs>
  <g id="How_it_works_bg_without-shadow" data-name="How it works bg_without-shadow" transform="translate(-1073 -1452.078)">
    <g id="How_it_works_bg" data-name="How it works/bg" transform="translate(1264 1544)" stroke="#707070" stroke-width="1" fill="url(#linear-gradient-2)">
      <path d="M50,0H745a0,0,0,0,1,0,0V614a0,0,0,0,1,0,0H50A50,50,0,0,1,0,564V50A50,50,0,0,1,50,0Z" stroke="none"/>
      <path d="M50,.5H744a.5.5,0,0,1,.5.5V613a.5.5,0,0,1-.5.5H50A49.5,49.5,0,0,1,.5,564V50A49.5,49.5,0,0,1,50,.5Z" fill="none"/>
    </g>
    <g id="How_it_works_pattern" data-name="How it works/pattern" transform="translate(1073 1280)">
      <g id="Mask_Group_1" data-name="Mask Group 1" clip-path="url(#clip-path)">
        <g id="Group_24" data-name="Group 24" transform="translate(117.019 160)">
          <g id="Group_16" data-name="Group 16" transform="translate(189.59)" opacity="0.75">
            <g id="Group_12" data-name="Group 12" transform="translate(0 4.796)" opacity="0.25">
              <g id="Group_10" data-name="Group 10" transform="translate(5.762)">
                <path id="Path_22" data-name="Path 22" d="M473.672,5.087l-.007-.028L378.143-49.523l-.252-.147L498.1,127.916l.189.28Zm-.126.06,24.482,122.412L378.332-49.26Z" transform="translate(-274.17 49.67)" fill="#fff"/>
                <path id="Path_23" data-name="Path 23" d="M426.013,4.3l.018-.053L368.553-34.067,393.185,89.1Zm-.151,0L393.227,88.611,368.749-33.773Z" transform="translate(-169.216 88.691)" fill="#fff"/>
                <path id="Path_24" data-name="Path 24" d="M489.816,57.271,383.407,79.1l-.027-.134L489.789,57.137Z" transform="translate(-284.911 316.781)" fill="#fff"/>
                <path id="Path_25" data-name="Path 25" d="M344.106,1.084l-.1-.077L324.9,197.571l-.007.095,204.721-49.131.136-.032Zm.014.186L529.443,148.436l-204.4,49.054Z" transform="translate(-120.074 176.407)" fill="#fff"/>
                <path id="Path_26" data-name="Path 26" d="M324.955,92.277l-.112.028,54.645,60.107.042.046L529.641,43.289l.276-.2Zm204.329-48.9L379.548,152.275,325.1,92.382" transform="translate(-120.08 281.642)" fill="#fff"/>
                <path id="Path_27" data-name="Path 27" d="M383.605,33.064l-.287-.119,98.459,106.661,106.448-21.835.217-.046Zm.235.245,204.136,84.375-106.15,21.772Z" transform="translate(-383.318 256.28)" fill="#fff"/>
                <path id="Path_28" data-name="Path 28" d="M481.757-49.542l-.077-.112L377.956,239.673l-.056.161L601.851,127.862Zm-.038.186,119.93,177.166L378.142,239.561Z" transform="translate(-377.76 49.71)" fill="#fff"/>
                <path id="Path_29" data-name="Path 29" d="M601.868,1.135l.014-.123L378.042,112.925l-.136.067,204.77,84.637.088.035Zm-.147.109L582.645,197.468l-204.41-84.487Z" transform="translate(-377.811 176.42)" fill="#fff"/>
              </g>
              <g id="Group_11" data-name="Group 11" transform="translate(0 49.8)">
                <path id="Path_30" data-name="Path 30" d="M452.162,37.3a6.023,6.023,0,1,1-6.025-6.022A6.024,6.024,0,0,1,452.162,37.3Z" transform="translate(-440.115 202.309)" fill="#fff"/>
                <path id="Path_31" data-name="Path 31" d="M424.1,67.692a6.021,6.021,0,1,1-6.021-6.022A6.022,6.022,0,0,1,424.1,67.692Z" transform="translate(-313.835 278.318)" fill="#fff"/>
                <path id="Path_32" data-name="Path 32" d="M393.707,61.458a6.021,6.021,0,1,1-6.021-6.021A6.021,6.021,0,0,1,393.707,61.458Z" transform="translate(-177.03 262.728)" fill="#fff"/>
                <path id="Path_33" data-name="Path 33" d="M384.543,3.8a3.858,3.858,0,1,1-3.858-3.861A3.854,3.854,0,0,1,384.543,3.8Z" transform="translate(-150.932 123.944)" fill="#fff"/>
                <path id="Path_34" data-name="Path 34" d="M393.465-30.474a4.968,4.968,0,0,1-4.971,4.971,4.968,4.968,0,0,1-4.971-4.971,4.97,4.97,0,0,1,4.971-4.971A4.972,4.972,0,0,1,393.465-30.474Z" transform="translate(-183.297 35.445)" fill="#fff"/>
                <path id="Path_35" data-name="Path 35" d="M376.409-19.85a4.567,4.567,0,0,1-4.569,4.565,4.569,4.569,0,0,1-4.569-4.565,4.57,4.57,0,0,1,4.569-4.569A4.567,4.567,0,0,1,376.409-19.85Z" transform="translate(-109.348 63.02)" fill="#fff"/>
                <path id="Path_36" data-name="Path 36" d="M373.949,76.864a3.588,3.588,0,1,1-3.588-3.588A3.589,3.589,0,0,1,373.949,76.864Z" transform="translate(-105.137 307.344)" fill="#fff"/>
              </g>
            </g>
            <g id="Group_15" data-name="Group 15" transform="translate(364.247 427.133)" opacity="0.25">
              <g id="Group_13" data-name="Group 13" transform="translate(4.49 5.846)">
                <path id="Path_37" data-name="Path 37" d="M314.883,216.823l-.018.025,32.719,105.04.088.28L380.7,110.278l.053-.333Zm.133.042L380.51,110.593,347.626,321.566Z" transform="translate(-298.953 20.666)" fill="#fff"/>
                <path id="Path_38" data-name="Path 38" d="M314.9,149.687l-.049.021,15.957,67.213L396.7,109.99Zm.109.1,81.336-39.465-65.48,106.252Z" transform="translate(-314.848 20.778)" fill="#fff"/>
                <path id="Path_39" data-name="Path 39" d="M246.238,72.671,338.991,129.2l-.071.116L246.167,72.787Z" transform="translate(-16.692 -72.553)" fill="#fff"/>
                <path id="Path_40" data-name="Path 40" d="M338.384,274.183l.13.28.62-145.154L246.346,72.756l-.189-.119Zm-.007-.34L246.465,72.987l92.528,56.4Z" transform="translate(-16.8 -72.637)" fill="#fff"/>
                <path id="Path_41" data-name="Path 41" d="M246.322,321.689l-.021.133L519.37,180.744l.154-.077-240.21-70.655Zm.154-.112,32.95-211.39L519.156,180.7Z" transform="translate(-197.695 20.834)" fill="#fff"/>
                <path id="Path_42" data-name="Path 42" d="M246.413,203.476l-.095.081,240.091,70.62.144.042-92.2-201.479-.035-.084Zm.182.017L394.269,72.879,486.3,274Z" transform="translate(-164.783 -72.592)" fill="#fff"/>
              </g>
              <g id="Group_14" data-name="Group 14" transform="translate(0 0)">
                <path id="Path_43" data-name="Path 43" d="M246.247,130.4a6.022,6.022,0,1,1,.3,8.511A6.025,6.025,0,0,1,246.247,130.4Z" transform="translate(75.48 72.863)" fill="#fff"/>
                <path id="Path_44" data-name="Path 44" d="M246.07,89.036a6.022,6.022,0,1,1,.3,8.511A6.017,6.017,0,0,1,246.07,89.036Z" transform="translate(76.275 -30.582)" fill="#fff"/>
                <path id="Path_45" data-name="Path 45" d="M272.566,72.885a6.022,6.022,0,1,1,.3,8.511A6.024,6.024,0,0,1,272.566,72.885Z" transform="translate(-42.972 -70.967)" fill="#fff"/>
                <path id="Path_46" data-name="Path 46" d="M314.832,110.164a3.859,3.859,0,1,1,.2,5.454A3.861,3.861,0,0,1,314.832,110.164Z" transform="translate(-231.491 23.986)" fill="#fff"/>
                <path id="Path_47" data-name="Path 47" d="M333.577,140.647a4.973,4.973,0,1,1,.248,7.026A4.973,4.973,0,0,1,333.577,140.647Z" transform="translate(-316.739 99.334)" fill="#fff"/>
                <path id="Path_48" data-name="Path 48" d="M338.126,121.5a4.568,4.568,0,1,1,.231,6.456A4.573,4.573,0,0,1,338.126,121.5Z" transform="translate(-336.902 51.762)" fill="#fff"/>
              </g>
            </g>
            <path id="Path_49" data-name="Path 49" d="M334.184,46.955a5.37,5.37,0,1,1-5.367-5.37A5.366,5.366,0,0,1,334.184,46.955Z" transform="translate(86.318 282.684)" fill="#fff"/>
            <path id="Path_50" data-name="Path 50" d="M421.409-45.67a5.368,5.368,0,0,1-5.367,5.37,5.371,5.371,0,0,1-5.37-5.37,5.371,5.371,0,0,1,5.37-5.37A5.366,5.366,0,0,1,421.409-45.67Z" transform="translate(-306.286 51.04)" fill="#fff"/>
          </g>
          <g id="Group_23" data-name="Group 23" transform="translate(0 51.403)">
            <g id="Group_19" data-name="Group 19" transform="translate(363.428)" opacity="0.75">
              <g id="Group_17" data-name="Group 17" transform="translate(5.925 5.423)">
                <path id="Path_51" data-name="Path 51" d="M228.163,203.062l-.091.042,36.71,44.325.053.063,134.5-127.11Zm.158.1,170.174-82.2-133.646,126.3Z" transform="translate(175.286 422.92)" fill="#c93237"/>
                <rect id="Rectangle_6" data-name="Rectangle 6" width="124.409" height="0.156" transform="matrix(-0.101, -0.995, 0.995, -0.101, 96.6, 364.7)" fill="#c93237"/>
                <path id="Path_52" data-name="Path 52" d="M357.895,120.572l-.018-.154L223.688,247.231l-.143.136L374,246.52h.091Zm-.133.172,16.146,125.619-149.967.847Z" transform="translate(216.383 423.01)" fill="#c93237"/>
                <path id="Path_53" data-name="Path 53" d="M194.933,120.739l-.2-.4,16.234,126.3,0,.028L311.652,349.588l.357.364Zm.066.473,116.4,227.9L211.114,246.6Z" transform="translate(379.338 422.815)" fill="#c93237"/>
                <path id="Path_54" data-name="Path 54" d="M436.687-34.416l-.025-.392-68.53,201.577-.025.067,84.252,39.329.119.056Zm-.13.4,15.75,239.982L368.3,166.755Z" transform="translate(-368.108 34.808)" fill="#c93237"/>
                <path id="Path_55" data-name="Path 55" d="M321.937,34.129l-.165-.2L334.063,157.99l.007.046L484.178,229.5Zm.042.3L483.607,229.055l-149.39-71.124Z" transform="translate(-237.59 206.721)" fill="#c93237"/>
                <path id="Path_56" data-name="Path 56" d="M277.041,89.717l-.126.095,126.41,196.336.028.046,30.822-6.295.129-.028Zm126.385,196.3L277.755,90.827,434.017,279.773" transform="translate(-30.677 346.23)" fill="#c93237"/>
                <path id="Path_57" data-name="Path 57" d="M228.391,89.77l-.259-.084L385.483,279.948l.042.049L556.3,197.51l.175-.084ZM228.6,90,556.056,197.45,385.567,279.8Z" transform="translate(17.938 346.153)" fill="#c93237"/>
              </g>
              <g id="Group_18" data-name="Group 18" transform="translate(0)">
                <path id="Path_58" data-name="Path 58" d="M229.484,119.554a3.545,3.545,0,1,0,4.439,2.335A3.547,3.547,0,0,0,229.484,119.554Z" transform="translate(350.25 425.87)" fill="#c93237"/>
                <path id="Path_59" data-name="Path 59" d="M225.9,155.073a5.581,5.581,0,1,0,6.984,3.676A5.58,5.58,0,0,0,225.9,155.073Z" transform="translate(368.747 514.471)" fill="#c93237"/>
                <path id="Path_60" data-name="Path 60" d="M268.666,155.407a5.205,5.205,0,1,0,6.515,3.427A5.2,5.2,0,0,0,268.666,155.407Z" transform="translate(175.843 515.345)" fill="#c93237"/>
                <path id="Path_61" data-name="Path 61" d="M278.382,143.2a3.409,3.409,0,1,0,4.264,2.244A3.41,3.41,0,0,0,278.382,143.2Z" transform="translate(130.016 485.021)" fill="#c93237"/>
                <path id="Path_62" data-name="Path 62" d="M287.637,144.726A4.526,4.526,0,1,0,293.3,147.7,4.525,4.525,0,0,0,287.637,144.726Z" transform="translate(89.659 488.711)" fill="#c93237"/>
                <path id="Path_63" data-name="Path 63" d="M366.928,68.043a5.506,5.506,0,1,0,6.893,3.623A5.5,5.5,0,0,0,366.928,68.043Z" transform="translate(-266.084 296.826)" fill="#c93237"/>
                <path id="Path_64" data-name="Path 64" d="M369.853,33.015A4.111,4.111,0,1,0,375,35.724,4.114,4.114,0,0,0,369.853,33.015Z" transform="translate(-280.859 209.383)" fill="#c93237"/>
                <path id="Path_65" data-name="Path 65" d="M375.075-36.094a5.82,5.82,0,0,0-3.833,7.282,5.823,5.823,0,0,0,7.285,3.833,5.824,5.824,0,0,0,3.83-7.285A5.819,5.819,0,0,0,375.075-36.094Z" transform="translate(-302.374 36.357)" fill="#c93237"/>
                <path id="Path_66" data-name="Path 66" d="M394.7,21.331a6.021,6.021,0,1,0,7.534,3.963A6.023,6.023,0,0,0,394.7,21.331Z" transform="translate(-390.46 179.946)" fill="#c93237"/>
                <path id="Path_67" data-name="Path 67" d="M324.6,88.13a5.9,5.9,0,1,0,7.387,3.886A5.9,5.9,0,0,0,324.6,88.13Z" transform="translate(-75.101 347.017)" fill="#c93237"/>
              </g>
            </g>
            <g id="Group_22" data-name="Group 22" transform="translate(0 124.863)" opacity="0.26">
              <g id="Group_20" data-name="Group 20" transform="translate(0 0)">
                <path id="Path_68" data-name="Path 68" d="M609.245,91.725l.112-.056-46.051-55.6-.067-.081L394.508,195.449Zm-.2-.123L395.562,194.721,563.222,36.274Z" transform="translate(-248.056 92.418)" fill="#c93237"/>
                <path id="Path_69" data-name="Path 69" d="M280.144,145.551l.2-.02,15.389,155.31-.2.02Z" transform="translate(465.947 366.375)" fill="#c93237"/>
                <path id="Path_70" data-name="Path 70" d="M427.921,195.065l.025.193L596.281,36.171l.182-.172L407.72,37.063l-.109,0Zm.168-.214L407.833,37.259,595.966,36.2Z" transform="translate(-281.038 92.448)" fill="#c93237"/>
                <path id="Path_71" data-name="Path 71" d="M534.155,128.8l.031.032,188.533-1.064.494,0L407.98-.438l-.437-.179Zm.112-.168L408.34-.078,722.226,127.575Z" transform="translate(-407.542 0.876)" fill="#c93237"/>
                <path id="Path_72" data-name="Path 72" d="M602.552,286.858l.256.5-20.368-158.45,0-.031L456.127-.229l-.448-.462Zm-.084-.592L456.439.366l125.811,128.6Z" transform="translate(-455.658 0.691)" fill="#c93237"/>
                <path id="Path_73" data-name="Path 73" d="M269.78,491.73l.035.49L355.787,239.34l.028-.084-105.7-49.334-.151-.07Zm.165-.5L250.186,190.167,355.57,239.361Z" transform="translate(511.501 477.217)" fill="#c93237"/>
                <path id="Path_74" data-name="Path 74" d="M483.669,365l.207.245L468.454,209.614l-.007-.056L280.135,119.907Zm-.053-.371L280.856,120.467l187.409,89.22Z" transform="translate(277.832 302.292)" fill="#c93237"/>
                <path id="Path_75" data-name="Path 75" d="M535.491,296.076l.158-.116L377.069,49.66l-.035-.06-38.667,7.895-.161.035Zm-.9-1.393L338.567,57.656l38.377-7.835" transform="translate(22.759 126.463)" fill="#c93237"/>
                <path id="Path_76" data-name="Path 76" d="M749.724,290.486l.322.105L552.649,51.908l-.049-.06L338.367,155.331l-.221.105Zm-.259-.291L338.668,155.4,552.547,52.093Z" transform="translate(-191.428 132.085)" fill="#c93237"/>
              </g>
              <g id="Group_21" data-name="Group 21" transform="translate(119.682 122.015)">
                <path id="Path_77" data-name="Path 77" d="M460.462,88.932A4.449,4.449,0,1,0,454.9,86,4.444,4.444,0,0,0,460.462,88.932Z" transform="translate(-432.673 81.061)" fill="#c93237"/>
                <path id="Path_78" data-name="Path 78" d="M468.6,48.019a7,7,0,1,0-8.763-4.607A7,7,0,0,0,468.6,48.019Z" transform="translate(-459.524 -33.738)" fill="#c93237"/>
                <path id="Path_79" data-name="Path 79" d="M414.287,46.93a6.531,6.531,0,1,0-8.175-4.3A6.528,6.528,0,0,0,414.287,46.93Z" transform="translate(-216.855 -34.162)" fill="#c93237"/>
                <path id="Path_80" data-name="Path 80" d="M398.875,59.019a4.274,4.274,0,1,0-5.353-2.815A4.274,4.274,0,0,0,398.875,59.019Z" transform="translate(-156.143 7.103)" fill="#c93237"/>
                <path id="Path_81" data-name="Path 81" d="M389.268,59.113a5.678,5.678,0,1,0-7.107-3.739A5.682,5.682,0,0,0,389.268,59.113Z" transform="translate(-107.518 0.47)" fill="#c93237"/>
                <path id="Path_82" data-name="Path 82" d="M291.55,157.067a6.908,6.908,0,1,0-8.644-4.548A6.9,6.9,0,0,0,291.55,157.067Z" transform="translate(337.004 239.43)" fill="#c93237"/>
                <path id="Path_83" data-name="Path 83" d="M285.387,198.508a5.158,5.158,0,1,0-6.456-3.4A5.163,5.163,0,0,0,285.387,198.508Z" transform="translate(358.039 351.629)" fill="#c93237"/>
                <path id="Path_84" data-name="Path 84" d="M281.9,288.265a7.3,7.3,0,1,0-9.137-4.807A7.3,7.3,0,0,0,281.9,288.265Z" transform="translate(381.966 565.629)" fill="#c93237"/>
                <path id="Path_85" data-name="Path 85" d="M257.642,216.587a7.552,7.552,0,1,0-9.452-4.971A7.551,7.551,0,0,0,257.642,216.587Z" transform="translate(492.11 385.136)" fill="#c93237"/>
                <path id="Path_86" data-name="Path 86" d="M345.363,132.575A7.4,7.4,0,1,0,336.1,127.7,7.4,7.4,0,0,0,345.363,132.575Z" transform="translate(96.703 175.759)" fill="#c93237"/>
              </g>
            </g>
          </g>
        </g>
      </g>
    </g>
    <path id="How_it_works_circle" data-name="How it works/circle" d="M226.5,0C351.592,0,453,101.408,453,226.5S351.592,453,226.5,453,0,351.592,0,226.5,101.408,0,226.5,0Z" transform="translate(1073 1804)" fill="url(#linear-gradient-3)"/>
  </g>
</svg>
