<svg xmlns="http://www.w3.org/2000/svg" viewBox="0 0 60 73">
  <g id="Group_2643" data-name="Group 2643" transform="translate(-140 -1771)">
    <g id="Path_143" data-name="Path 143" transform="translate(140 1784)" fill="none">
      <path d="M30,0A30,30,0,1,1,0,30,30,30,0,0,1,30,0Z" stroke="#000"/>
      <path d="M 30 1 C 26.08457946777344 1 22.28681945800781 1.766620635986328 18.71220016479492 3.278549194335938 C 15.2590217590332 4.739128112792969 12.15753936767578 6.830268859863281 9.493900299072266 9.493900299072266 C 6.830268859863281 12.15753936767578 4.739128112792969 15.2590217590332 3.278549194335938 18.71220016479492 C 1.766620635986328 22.28681945800781 1 26.08457946777344 1 30 C 1 33.91542053222656 1.766620635986328 37.71318054199219 3.278549194335938 41.28779983520508 C 4.739128112792969 44.74098205566406 6.830268859863281 47.84246063232422 9.493900299072266 50.50609970092773 C 12.15753936767578 53.16973114013672 15.2590217590332 55.26087188720703 18.71220016479492 56.72145080566406 C 22.28681945800781 58.23337936401367 26.08457946777344 59 30 59 C 33.91542053222656 59 37.71318054199219 58.23337936401367 41.28779983520508 56.72145080566406 C 44.74098205566406 55.26087188720703 47.84246063232422 53.16973114013672 50.50609970092773 50.50609970092773 C 53.16973114013672 47.84246063232422 55.26087188720703 44.74098205566406 56.72145080566406 41.28779983520508 C 58.23337936401367 37.71318054199219 59 33.91542053222656 59 30 C 59 26.08457946777344 58.23337936401367 22.28681945800781 56.72145080566406 18.71220016479492 C 55.26087188720703 15.2590217590332 53.16973114013672 12.15753936767578 50.50609970092773 9.493900299072266 C 47.84246063232422 6.830268859863281 44.74098205566406 4.739128112792969 41.28779983520508 3.278549194335938 C 37.71318054199219 1.766620635986328 33.91542053222656 1 30 1 M 30 0 C 46.56853866577148 0 60 13.43146133422852 60 30 C 60 46.56853866577148 46.56853866577148 60 30 60 C 13.43146133422852 60 0 46.56853866577148 0 30 C 0 13.43146133422852 13.43146133422852 0 30 0 Z" stroke="none" fill="#fff"/>
    </g>
    <g id="Group_54" data-name="Group 54" transform="translate(-662.534 1492.822)">
      <g id="Group_40" data-name="Group 40">
        <path id="Path_144" data-name="Path 144" d="M842.088,301.656h0v-.142C842.087,301.563,842.087,301.607,842.088,301.656Z" fill="#c97c7b"/>
      </g>
      <g id="Group_41" data-name="Group 41">
        <path id="Path_145" data-name="Path 145" d="M842.089,302.28v0Z" fill="#c97c7b"/>
      </g>
      <g id="Group_42" data-name="Group 42">
        <path id="Path_146" data-name="Path 146" d="M820.745,321.377l-1.082-.886-5.052-2.937a.3.3,0,0,1-.038-.024q1.938,1.586,3.875,3.174l1.55,1.268.775.634,1.549,1.27c.465.382,1.086.89,1.551,1.27l.775.636c.464.382,1.086.889,1.55,1.27q1.937,1.588,3.875,3.173a.282.282,0,0,0,.045.032l4.844,2.816c-1.555-1.266-3.422-2.746-4.991-4.03C829.611,328.747,823.111,323.316,820.745,321.377Z" fill="#515151"/>
      </g>
      <g id="Group_44" data-name="Group 44">
        <path id="Path_148" data-name="Path 148" d="M827.858,315.761l-.074-26.244-5.051-2.934.073,26.24Z" fill="#515151"/>
      </g>
      <g id="Group_45" data-name="Group 45">
        <path id="Path_149" data-name="Path 149" d="M842.515,307.3l8.037-4.641-5.051-2.935c-.1-.06-.3,0-.551.14l-2.453,1.417v.176Q842.508,304.378,842.515,307.3Z" fill="#515151"/>
      </g>
      <g id="Group_46" data-name="Group 46">
        <path id="Path_150" data-name="Path 150" d="M827.859,315.761l-5.052-2.937c-.073-.042-.11-.064-.13-.078l-.021-.011-8.054,4.649c-.09.053-.094.11.009.171l5.052,2.937Z" fill="#515151"/>
      </g>
      <g id="Group_47" data-name="Group 47">
        <path id="Path_151" data-name="Path 151" d="M842.29,281.142l-5.051-2.934a.414.414,0,0,0-.408.056l-14.25,8.227c-7.125,4.113.049.031.154.092l5.051,2.934Z" fill="#515151"/>
      </g>
      <g id="Group_48" data-name="Group 48">
        <path id="Path_152" data-name="Path 152" d="M849.025,306.2c-.171.337-.36.71-.563,1.115Q848.742,306.76,849.025,306.2Z" fill="#e39f9f"/>
      </g>
      <g id="Group_49" data-name="Group 49">
        <path id="Path_153" data-name="Path 153" d="M827.858,315.76l-8.2,4.731,1.082.886-.009-.006c1.119-.647,4.769-2.865,8.264-4.881,0-1.773-.01-3.5-.015-5.213-.005-1.914-.009-3.069-.017-6.012q-.009-4.059-.022-7.875c-.008-2.831-.02-7.142-.02-7.142l2.811-1.624,2.78-1.6,4.578-2.643c.953-.549,2.941-1.621,2.941-1.621v3.554c0,.829.006,1.761.008,2.764v.237c0,.95.005,1.963.009,3v.85c.006,1.644.009,3.344.014,5l.005,1.86v1.5l.005,2.263c.006,1.324.009,2.675.013,4.033V309c.857-.494,1.534-.959,2.286-1.393q1.487-.863,2.627-1.517l.761-.441c.65-.374,1.766-.984,2.122-1.187-.009.016-.022.041-.031.06.2-.39.394-.783.591-1.173l-.011.018c.184-.364.233-.626.1-.7l-8.037,4.641q-.008-2.924-.017-5.844v-.176q-.011-3.373-.02-6.744-.018-6.507-.037-13.013c0,.027-.015.064-.016.1.015-.224-.019-.406-.136-.475l-14.5,8.375Z" fill="#fff"/>
      </g>
      <g id="Group_50" data-name="Group 50">
        <path id="Path_154" data-name="Path 154" d="M849.74,304.777c-.163.327-.4.8-.71,1.414C849.267,305.719,849.5,305.251,849.74,304.777Z" fill="#e39f9f"/>
      </g>
      <g id="Group_51" data-name="Group 51">
        <path id="Path_155" data-name="Path 155" d="M835.383,333.175l-.055.026A.344.344,0,0,0,835.383,333.175Z" fill="#e39f9f"/>
      </g>
      <g id="Group_52" data-name="Group 52">
        <path id="Path_156" data-name="Path 156" d="M840.172,323.772a.173.173,0,0,1-.015.031q4.146-8.225,8.289-16.455C845.831,312.542,840.719,322.692,840.172,323.772Z" fill="#e39f9f"/>
      </g>
      <g id="Group_53" data-name="Group 53">
        <path id="Path_157" data-name="Path 157" d="M848.446,307.348l.016-.031c.2-.406.392-.778.563-1.115v-.012c.307-.611.547-1.086.71-1.414.052-.1.1-.191.133-.26.009-.019.021-.043.031-.06-.356.2-1.472.812-2.122,1.187l-.761.441q-1.138.655-2.627,1.517c-.752.433-1.429.9-2.286,1.393V307.81c0-1.216-.009-3.189-.016-5.522v-.633h0v-1.637c0-.609,0-1.232-.005-1.86,0-1.653-.008-3.352-.014-5v-.85c0-1.04,0-2.053-.009-3v-.237c0-1-.005-1.935-.008-2.764v-3.554s-1.988,1.072-2.941,1.621l-4.578,2.643-2.78,1.6-2.811,1.624s.013,4.311.02,7.142q.011,3.818.022,7.875c.008,2.943.012,4.1.017,6.012,0,1.711.01,3.44.015,5.213-3.495,2.016-7.144,4.234-8.264,4.881l.009.006c2.365,1.938,8.866,7.37,9.226,7.667,1.569,1.284,3.435,2.763,4.991,4.03.025.018.053.044.078.064a.317.317,0,0,0,.287.063c.019-.008.037-.017.055-.026a.33.33,0,0,0,.15-.141c1.388-2.778,3.206-6.414,4.623-9.23a.172.172,0,0,0,.015-.031C840.718,322.691,845.832,312.542,848.446,307.348Z" fill="#f2f2f5"/>
      </g>
    </g>
  </g>
</svg>
