<svg xmlns="http://www.w3.org/2000/svg" xmlns:xlink="http://www.w3.org/1999/xlink" viewBox="0 0 109.695 89.911">
  <defs>
    <linearGradient id="linear-gradient" x1="-0.31" y1="0.562" x2="0.78" y2="0.375" gradientUnits="objectBoundingBox">
      <stop offset="0.464" stop-color="#1d1e20"/>
      <stop offset="1" stop-color="#484f55"/>
    </linearGradient>
    <linearGradient id="linear-gradient-2" x1="0.105" y1="0.437" x2="1.388" y2="0.529" gradientUnits="objectBoundingBox">
      <stop offset="0" stop-color="#484f55"/>
      <stop offset="0.018" stop-color="#454c52"/>
      <stop offset="0.199" stop-color="#353b41"/>
      <stop offset="0.393" stop-color="#2b3036"/>
      <stop offset="0.615" stop-color="#282d33"/>
      <stop offset="1" stop-color="#1d1e20"/>
    </linearGradient>
    <linearGradient id="linear-gradient-3" x1="0.521" y1="1.004" x2="0.485" y2="0.137" gradientUnits="objectBoundingBox">
      <stop offset="0" stop-color="#1d1e20"/>
      <stop offset="0.425" stop-color="#282d33"/>
      <stop offset="0.641" stop-color="#2a3036"/>
      <stop offset="0.813" stop-color="#343a40"/>
      <stop offset="0.971" stop-color="#444a50"/>
      <stop offset="1" stop-color="#484f55"/>
    </linearGradient>
    <linearGradient id="linear-gradient-4" x1="0.058" y1="0.5" x2="1.077" y2="0.5" gradientUnits="objectBoundingBox">
      <stop offset="0" stop-color="#0e0f14"/>
      <stop offset="0.732" stop-color="#2f313a"/>
      <stop offset="0.833" stop-color="#32343d"/>
      <stop offset="0.913" stop-color="#3b3e47"/>
      <stop offset="0.986" stop-color="#4c4e57"/>
      <stop offset="1" stop-color="#50535c"/>
    </linearGradient>
    <linearGradient id="linear-gradient-5" x1="0" y1="0.5" x2="1" y2="0.5" xlink:href="#linear-gradient-4"/>
    <linearGradient id="linear-gradient-9" x1="0.055" y1="0.5" x2="0.878" y2="0.5" gradientUnits="objectBoundingBox">
      <stop offset="0" stop-color="#535353"/>
      <stop offset="0.17" stop-color="#8d8d8d"/>
      <stop offset="0.394" stop-color="#545454"/>
      <stop offset="0.552" stop-color="#9a9a9a"/>
      <stop offset="0.63" stop-color="#8d8d8d"/>
      <stop offset="0.7" stop-color="#6f6f6f"/>
      <stop offset="0.782" stop-color="#545454"/>
      <stop offset="0.855" stop-color="#434343"/>
      <stop offset="0.909" stop-color="#3d3d3d"/>
    </linearGradient>
    <linearGradient id="linear-gradient-10" x1="0.057" y1="0.5" x2="0.879" y2="0.5" gradientUnits="objectBoundingBox">
      <stop offset="0" stop-color="#787a7c"/>
      <stop offset="0.139" stop-color="#a1a4a6"/>
      <stop offset="0.17" stop-color="#a5a8aa"/>
      <stop offset="0.285" stop-color="#8c8e91"/>
      <stop offset="0.394" stop-color="#858689"/>
      <stop offset="0.448" stop-color="#97999b"/>
      <stop offset="0.552" stop-color="#b8babc"/>
      <stop offset="0.576" stop-color="#b8babc"/>
      <stop offset="0.63" stop-color="#acaeb0"/>
      <stop offset="0.64" stop-color="#a6a9ab"/>
      <stop offset="0.679" stop-color="#96989a"/>
      <stop offset="0.709" stop-color="#909395"/>
      <stop offset="0.873" stop-color="#7a7c7e"/>
      <stop offset="0.909" stop-color="#757678"/>
      <stop offset="1" stop-color="#4a4a4a"/>
    </linearGradient>
    <linearGradient id="linear-gradient-11" x1="0.059" y1="0.5" x2="0.881" y2="0.5" gradientUnits="objectBoundingBox">
      <stop offset="0" stop-color="#7e8082"/>
      <stop offset="0.139" stop-color="#adb0b2"/>
      <stop offset="0.17" stop-color="#adafb1"/>
      <stop offset="0.285" stop-color="#919396"/>
      <stop offset="0.394" stop-color="#97999b"/>
      <stop offset="0.448" stop-color="#a8aaad"/>
      <stop offset="0.552" stop-color="#c9cacc"/>
      <stop offset="0.576" stop-color="#cbccce"/>
      <stop offset="0.63" stop-color="#babdbe"/>
      <stop offset="0.643" stop-color="#b2b5b7"/>
      <stop offset="0.681" stop-color="#a2a5a6"/>
      <stop offset="0.709" stop-color="#9c9fa1"/>
      <stop offset="0.873" stop-color="#929396"/>
      <stop offset="0.909" stop-color="#898a8c"/>
      <stop offset="1" stop-color="#585858"/>
    </linearGradient>
    <linearGradient id="linear-gradient-12" x1="0.061" y1="0.5" x2="0.883" y2="0.5" gradientUnits="objectBoundingBox">
      <stop offset="0" stop-color="#838588"/>
      <stop offset="0.139" stop-color="#b9bbbd"/>
      <stop offset="0.17" stop-color="#b4b7b9"/>
      <stop offset="0.285" stop-color="#96989b"/>
      <stop offset="0.394" stop-color="#a9abad"/>
      <stop offset="0.448" stop-color="#babcbe"/>
      <stop offset="0.552" stop-color="#d9dadc"/>
      <stop offset="0.576" stop-color="#dddedf"/>
      <stop offset="0.63" stop-color="#c9cbcc"/>
      <stop offset="0.646" stop-color="#bec0c2"/>
      <stop offset="0.682" stop-color="#aeb0b2"/>
      <stop offset="0.709" stop-color="#a8aaad"/>
      <stop offset="0.873" stop-color="#a9abad"/>
      <stop offset="0.909" stop-color="#9d9fa1"/>
      <stop offset="1" stop-color="#656565"/>
    </linearGradient>
    <linearGradient id="linear-gradient-13" x1="0.062" y1="0.5" x2="0.885" y2="0.5" gradientUnits="objectBoundingBox">
      <stop offset="0" stop-color="#727272"/>
      <stop offset="0.139" stop-color="#bebebe"/>
      <stop offset="0.285" stop-color="#8a8a8a"/>
      <stop offset="0.448" stop-color="#c5c5c5"/>
      <stop offset="0.576" stop-color="#f1f1f1"/>
      <stop offset="0.709" stop-color="#a9a9a9"/>
      <stop offset="0.873" stop-color="#b8b8b8"/>
      <stop offset="1" stop-color="#727272"/>
    </linearGradient>
    <linearGradient id="linear-gradient-14" x1="0.5" y1="1.307" x2="0.5" y2="-0.094" gradientUnits="objectBoundingBox">
      <stop offset="0" stop-color="#1d1e20"/>
      <stop offset="0.435" stop-color="#282d33"/>
      <stop offset="0.647" stop-color="#2a3036"/>
      <stop offset="0.817" stop-color="#343a40"/>
      <stop offset="0.971" stop-color="#444a50"/>
      <stop offset="1" stop-color="#484f55"/>
    </linearGradient>
  </defs>
  <g id="Browse_brands_Education_icon" data-name="Browse brands/Education icon" transform="translate(-34.775 -1068.415)">
    <g id="Group_1713" data-name="Group 1713" transform="translate(58.131 1089.122)">
      <path id="Path_4193" data-name="Path 4193" d="M647.8,1347.053c-6.264,3.569-14.449,11.065-22.633,11.033-.209,0-.418-.01-.627-.018v-66.994c6.171.056,12.4,3.821,17.1,6.539,4.006,2.313,6.248,5.259,6.726,8.281l6.811,20.068,1.335,3.932C658.827,1335.906,655.919,1342.431,647.8,1347.053Z" transform="translate(-593.048 -1291.074)" fill="url(#linear-gradient)"/>
      <path id="Path_4194" data-name="Path 4194" d="M317.406,1291.074,317.67,1348l-.264,10.071c-8.046-.4-16.044-7.7-22.165-11.285-7.9-4.622-10.774-11.01-8.651-16.9l1.467-4.1,6.679-18.659c0-3.442,2.274-6.885,6.824-9.513,4.238-2.446,9.706-6.367,15.259-6.533C317.015,1291.074,317.21,1291.074,317.406,1291.074Z" transform="translate(-285.914 -1291.074)" fill="url(#linear-gradient-2)"/>
    </g>
    <path id="Path_4195" data-name="Path 4195" d="M368.952,1325.962a21.3,21.3,0,0,1-7.382,6.518c-6.264,3.567-14.449,11.065-22.633,11.033-.209,0-.418-.01-.627-.021-8.046-.4-16.044-7.7-22.165-11.282a21.455,21.455,0,0,1-7.184-6.425l6.679-18.659c0-3.442,2.274-6.885,6.824-9.513,4.238-2.446,9.706-6.367,15.259-6.533.2-.005.391-.005.587-.005,6.171.056,12.4,3.821,17.1,6.539,4.006,2.313,6.248,5.259,6.726,8.281Z" transform="translate(-248.688 -201.952)" fill="gray" style="mix-blend-mode: multiply;isolation: isolate"/>
    <g id="Group_1714" data-name="Group 1714" transform="translate(34.775 1068.415)">
      <path id="Path_4196" data-name="Path 4196" d="M89.623,1442.764,34.775,1411.1l109.7-2.175v2.176Z" transform="translate(-34.775 -1377.255)" fill="#0a0b0d"/>
      <path id="Path_4197" data-name="Path 4197" d="M89.623,1131.748l-54.848-31.667,54.847-31.666,54.848,31.667Z" transform="translate(-34.775 -1068.415)" fill="url(#linear-gradient-3)"/>
      <path id="Path_4198" data-name="Path 4198" d="M34.775,1408.912v2.176l54.848,31.667v-2.177Z" transform="translate(-34.775 -1377.246)" fill="#20242b"/>
      <path id="Path_4199" data-name="Path 4199" d="M144.47,1408.913l-13.661,8-13.682,7.967-27.4,15.875-.1.061-.1-.061-27.4-15.875-13.683-7.968-13.661-8.006,13.763,7.828,13.741,7.866L89.728,1440.4h-.209l27.448-15.791,13.741-7.866Z" transform="translate(-34.775 -1377.246)" fill="#485261"/>
    </g>
    <ellipse id="Ellipse_23" data-name="Ellipse 23" cx="1.851" cy="1.069" rx="1.851" ry="1.069" transform="translate(88.732 1094.608)" fill="gray" style="mix-blend-mode: multiply;isolation: isolate"/>
    <g id="Group_1747" data-name="Group 1747" transform="translate(89.822 1094.751)">
      <path id="Path_4200" data-name="Path 4200" d="M896.9,1786.137c-.023,0-.037.026-.056.037a1.384,1.384,0,0,1-.677.177h-.021a.054.054,0,0,0-.01.016.442.442,0,0,1,.048.053.361.361,0,0,1,.079.341.554.554,0,0,1-.27.307c-.019.011-.04.024-.061.034a1.592,1.592,0,0,1-.928.122l-.952.595c-.037.024-.077.048-.114.069s-.058.034-.087.05c-.193.111-.389.211-.587.307a.39.39,0,0,1-.114.286.715.715,0,0,1-.172.138,1.64,1.64,0,0,1-1.021.148.583.583,0,0,1-.251.265,1.553,1.553,0,0,1-1.415.018l-.016-.011s0,0-.005,0a.881.881,0,0,1-.122.058,1.569,1.569,0,0,1-1.269-.05.574.574,0,0,1-.272-.28c-.061-.01-.122-.021-.182-.034l-.034-.008a1.053,1.053,0,0,1-.132.032,1.533,1.533,0,0,1-1.021-.124.525.525,0,0,1-.288-.341,1.627,1.627,0,0,1-.5-.082,1.135,1.135,0,0,1-.172-.077.506.506,0,0,1-.3-.389l-.526-.28.024-.013a3.163,3.163,0,0,1-.65-.5,3.02,3.02,0,0,1-.6-.83,3.23,3.23,0,0,1-.293-1.948c-.219-.217,4.249-19.426,4.984-19.864a2.261,2.261,0,0,1,.862-.3,1.966,1.966,0,0,1,.277-.021,2.283,2.283,0,0,1,.537.056,2.172,2.172,0,0,1,.336.106,1.861,1.861,0,0,1,.275.13l.317.177S898.677,1786.137,896.9,1786.137Z" transform="translate(-859.975 -1725.685)" fill="url(#linear-gradient-4)"/>
      <path id="Path_4201" data-name="Path 4201" d="M955.743,1748.245a1.592,1.592,0,0,1-.928.122l-.952.595c-.037.024-.077.048-.114.069a.1.1,0,0,0,0-.013l-3.337-23.778-.569-4.04.9,4.146Z" transform="translate(-919.789 -1686.827)" fill="#2f313a"/>
      <path id="Path_4202" data-name="Path 4202" d="M919.092,1721.206l-1.036,27.5a1.058,1.058,0,1,1-2.115-.08c0-.027,0-.055.006-.081Z" transform="translate(-889.039 -1686.833)" fill="#2f313a"/>
      <path id="Path_4203" data-name="Path 4203" d="M879.917,1721.206l-5.072,25.423a1.058,1.058,0,0,1-2.076-.414c.006-.028.013-.057.02-.084Z" transform="translate(-849.864 -1686.833)" fill="#2f313a"/>
      <path id="Path_4204" data-name="Path 4204" d="M932.806,1750.233a.889.889,0,0,1-.122.058,1.569,1.569,0,0,1-1.269-.05.574.574,0,0,1-.272-.281c-.061-.01-.122-.021-.182-.034l-.034-.008a1.053,1.053,0,0,1-.132.032l1.526-24.745.246-4.006.032,3.985.008.806Z" transform="translate(-902.512 -1686.827)" fill="url(#linear-gradient-5)"/>
      <path id="Path_4205" data-name="Path 4205" d="M966.272,1841.112c-.193.111-.389.212-.587.307a.39.39,0,0,1-.114.286l-1.827-19.037Z" transform="translate(-932.398 -1778.859)" fill="#50535c"/>
      <path id="Path_4206" data-name="Path 4206" d="M1016,2004.68a.361.361,0,0,1,.079.341Z" transform="translate(-979.794 -1943.945)" fill="#50535c"/>
      <path id="Path_4207" data-name="Path 4207" d="M969.32,1798.672c-.018.013-.037.026-.055.037a1.39,1.39,0,0,1-.677.177l-4.844-21.025Z" transform="translate(-932.398 -1738.219)" fill="#50535c"/>
      <path id="Path_4208" data-name="Path 4208" d="M892.185,1767.484l-4.093,22.643a3.022,3.022,0,0,1-.6-.83Z" transform="translate(-863.239 -1728.808)" fill="url(#linear-gradient-5)"/>
      <path id="Path_4209" data-name="Path 4209" d="M914.893,1788.494c-.01.976-.09,1.949-.148,2.922l-.2,2.919-.418,5.838-.806,10.79-.034-.008a1.568,1.568,0,0,1-1.153-.093.527.527,0,0,1-.288-.341,1.62,1.62,0,0,1-.5-.082l1.729-10.391.944-5.774.46-2.888C914.626,1790.424,914.795,1789.462,914.893,1788.494Z" transform="translate(-884.874 -1747.864)" fill="url(#linear-gradient-5)"/>
      <path id="Path_4210" data-name="Path 4210" d="M952.14,1794.051a1.478,1.478,0,0,1-.217-.024.581.581,0,0,1-.251.264,1.553,1.553,0,0,1-1.415.019l-.016-.01s0,0-.005,0a.842.842,0,0,1-.122.058l-.1-24.573.024.272Z" transform="translate(-919.943 -1730.896)" fill="url(#linear-gradient-5)"/>
      <g id="Group_1721" data-name="Group 1721" transform="translate(23.235 38.933)">
        <g id="Group_1715" data-name="Group 1715" transform="translate(7.336 0.826)">
          <path id="Path_4211" data-name="Path 4211" d="M959.545,1801.613a.264.264,0,0,1-.26-.219l-.016-.088a.265.265,0,0,0-.092-.521l-.046-.261a.264.264,0,1,1,.521-.091l.046.26a.264.264,0,0,0,.092.521l.016.088a.265.265,0,0,1-.214.306A.272.272,0,0,1,959.545,1801.613Zm-.245-1.391a.265.265,0,0,1-.26-.218l-.046-.26a.264.264,0,0,1,.521-.092l.046.26a.264.264,0,0,1-.214.306A.248.248,0,0,1,959.3,1800.222Zm-.138-.781a.265.265,0,0,1-.26-.219l-.046-.26a.264.264,0,0,0-.092-.521l-.046-.261a.264.264,0,1,1,.521-.091l.046.26a.265.265,0,0,0,.092.521l.046.26a.265.265,0,0,1-.214.306A.272.272,0,0,1,959.162,1799.441Zm-.275-1.562a.264.264,0,0,1-.26-.218l-.046-.26a.264.264,0,1,1,.521-.092l.046.26a.264.264,0,0,1-.215.306A.247.247,0,0,1,958.887,1797.879Zm-.138-.781a.265.265,0,0,1-.26-.219l-.046-.26a.264.264,0,1,1,.521-.091l.046.26a.264.264,0,0,1-.214.306A.269.269,0,0,1,958.75,1797.1Zm-.138-.781a.264.264,0,0,1-.26-.219l-.046-.26a.264.264,0,1,1,.521-.092l.046.26a.264.264,0,0,1-.215.306A.27.27,0,0,1,958.612,1796.317Zm-.138-.781a.265.265,0,0,1-.26-.219l-.046-.261a.264.264,0,1,1,.521-.091l.046.261a.264.264,0,0,1-.214.306A.272.272,0,0,1,958.474,1795.536Zm-.137-.781a.265.265,0,0,1-.26-.218l-.046-.26a.264.264,0,0,1,.521-.092l.046.26a.264.264,0,0,1-.215.306A.246.246,0,0,1,958.337,1794.754Zm-.138-.781a.264.264,0,0,1-.26-.219l-.046-.26a.264.264,0,1,1,.521-.092l.046.26a.264.264,0,0,1-.215.306A.272.272,0,0,1,958.2,1793.973Zm-.137-.781a.264.264,0,0,1-.26-.218l-.046-.26a.264.264,0,0,1,.521-.092l.046.26a.264.264,0,0,1-.214.306A.247.247,0,0,1,958.062,1793.192Zm-.138-.781a.264.264,0,0,1-.26-.219l-.046-.26a.265.265,0,0,0-.092-.521l-.046-.26a.264.264,0,0,1,.521-.092l.046.26a.264.264,0,0,0,.092.521l.046.261a.264.264,0,0,1-.214.306A.272.272,0,0,1,957.924,1792.411Zm-.275-1.562a.265.265,0,0,1-.26-.219l-.046-.26a.264.264,0,1,1,.521-.091l.046.26a.264.264,0,0,1-.215.306A.272.272,0,0,1,957.649,1790.848Zm-.138-.781a.264.264,0,0,1-.26-.218l-.046-.26a.264.264,0,0,1,.521-.092l.046.26a.265.265,0,0,1-.215.306A.247.247,0,0,1,957.512,1790.067Zm-.137-.781a.264.264,0,0,1-.26-.218l-.046-.26a.265.265,0,0,0-.092-.521l-.046-.26a.264.264,0,0,1,.521-.092l.046.26a.264.264,0,0,0,.092.521l.046.26a.264.264,0,0,1-.214.306A.248.248,0,0,1,957.374,1789.286Zm-.275-1.562a.264.264,0,0,1-.26-.219l-.046-.26a.264.264,0,0,1,.521-.092l.046.26a.265.265,0,0,1-.215.306A.271.271,0,0,1,957.1,1787.724Zm-.137-.781a.265.265,0,0,1-.26-.219l-.046-.26a.264.264,0,1,1,.521-.091l.046.26a.265.265,0,0,1-.215.306A.3.3,0,0,1,956.962,1786.943Zm-.138-.781a.265.265,0,0,1-.26-.218l-.046-.26a.264.264,0,0,1,.521-.092l.046.26a.264.264,0,0,1-.215.306A.248.248,0,0,1,956.824,1786.161Zm-.137-.781a.264.264,0,0,1-.26-.219l-.046-.26a.264.264,0,1,1,.521-.091l.046.26a.264.264,0,0,1-.214.306A.272.272,0,0,1,956.686,1785.38Zm-.137-.781a.265.265,0,0,1-.26-.219l-.046-.26a.264.264,0,0,1,.521-.092l.046.26a.264.264,0,0,1-.214.306A.248.248,0,0,1,956.549,1784.6Zm-.138-.781a.265.265,0,0,1-.26-.219l-.046-.26a.264.264,0,1,1,.521-.092l.046.26a.265.265,0,0,1-.215.306A.3.3,0,0,1,956.411,1783.818Zm-.137-.781a.264.264,0,0,1-.26-.219l-.046-.26a.264.264,0,1,1,.521-.092l.046.26a.264.264,0,0,1-.215.306A.272.272,0,0,1,956.274,1783.036Zm-.138-.781a.264.264,0,0,1-.26-.219l-.046-.26a.264.264,0,1,1,.521-.091l.046.26a.264.264,0,0,1-.215.306A.271.271,0,0,1,956.136,1782.255Zm-.137-.781a.264.264,0,0,1-.26-.219l-.046-.26a.265.265,0,0,1,.521-.092l.046.26a.264.264,0,0,1-.215.306A.271.271,0,0,1,956,1781.474Zm-.137-.781a.265.265,0,0,1-.26-.219l-.046-.261a.264.264,0,0,1,.521-.092l.046.26a.264.264,0,0,1-.214.306A.271.271,0,0,1,955.861,1780.693Zm-.138-.781a.264.264,0,0,1-.26-.219l-.046-.26a.264.264,0,0,1,.521-.092l.046.26a.265.265,0,0,1-.215.306A.268.268,0,0,1,955.724,1779.912Z" transform="translate(-955.414 -1779.122)" fill="#494a4e"/>
        </g>
        <g id="Group_1716" data-name="Group 1716" transform="translate(1.801 0.562)">
          <path id="Path_4212" data-name="Path 4212" d="M896.427,1798.4a.53.53,0,0,1-.521-.625l.048-.26a.529.529,0,0,0,.192-1.04l.048-.26a.529.529,0,0,1,1.04.192l-.048.26a.529.529,0,0,0-.192,1.04l-.048.26A.529.529,0,0,1,896.427,1798.4Zm.479-2.6a.518.518,0,0,1-.1-.009.529.529,0,0,1-.424-.616l.048-.26a.529.529,0,0,0,.192-1.04l.048-.26a.529.529,0,0,0,.192-1.04l.048-.26a.529.529,0,0,0,.192-1.04l.048-.26a.529.529,0,0,0,.192-1.04l.048-.26a.529.529,0,0,0,.192-1.04l.048-.26a.529.529,0,1,1,1.04.192l-.048.26a.529.529,0,0,0-.192,1.04l-.048.26a.529.529,0,0,0-.192,1.04l-.048.26a.529.529,0,0,0-.192,1.04l-.048.26a.529.529,0,0,0-.192,1.04l-.048.26a.529.529,0,0,0-.192,1.04l-.048.26A.529.529,0,0,1,896.907,1795.8Zm1.438-7.8a.536.536,0,0,1-.1-.009.529.529,0,0,1-.424-.616l.048-.26a.529.529,0,0,0,.192-1.04l.048-.26a.529.529,0,0,0,.192-1.04l.048-.26a.529.529,0,0,0,.192-1.04l.048-.26a.529.529,0,0,0,.192-1.04l.048-.26a.529.529,0,0,0,.192-1.04l.048-.26a.529.529,0,0,1,1.04.192l-.048.26a.529.529,0,0,0-.192,1.04l-.048.26a.529.529,0,0,0-.192,1.04l-.048.26a.529.529,0,0,0-.192,1.04l-.048.26a.529.529,0,0,0-.192,1.04l-.048.26a.529.529,0,0,0-.192,1.04l-.048.26A.529.529,0,0,1,898.345,1788Zm1.438-7.8a.53.53,0,0,1-.521-.625l.048-.26a.529.529,0,0,0,.192-1.04l.048-.26a.529.529,0,0,0,.192-1.04l.048-.26a.529.529,0,1,1,1.04.192l-.048.26a.529.529,0,0,0-.192,1.041l-.048.26a.529.529,0,0,0-.192,1.04l-.048.26A.529.529,0,0,1,899.783,1780.2Z" transform="translate(-895.898 -1776.283)" fill="#0d0e12"/>
        </g>
        <g id="Group_1717" data-name="Group 1717" transform="translate(6.576 0.463)">
          <path id="Path_4213" data-name="Path 4213" d="M948.253,1799.007a.529.529,0,0,1-.528-.517l-.006-.264a.529.529,0,0,1,.514-.54h-.008a.529.529,0,0,1-.528-.517l-.006-.265a.529.529,0,0,1,.514-.54H948.2a.529.529,0,0,1-.528-.517l-.006-.264a.529.529,0,0,1,.515-.54.536.536,0,0,1-.537-.518l-.005-.264a.529.529,0,0,0-.023-1.057l-.006-.264a.529.529,0,0,0-.023-1.057l-.005-.264a.529.529,0,0,0-.023-1.057l-.006-.265a.529.529,0,0,1,.514-.54h-.009a.529.529,0,0,1-.528-.517l-.006-.265a.529.529,0,0,1,.514-.54h-.008a.529.529,0,0,1-.529-.517l-.006-.264a.529.529,0,1,1,1.057-.023l.006.264a.529.529,0,0,0,.023,1.057l.006.265a.529.529,0,0,1-.514.54h.008a.529.529,0,0,1,.528.517l.006.265a.529.529,0,0,0,.022,1.057l.005.264a.528.528,0,0,1-.514.54h.009a.529.529,0,0,1,.528.518l.006.265a.529.529,0,0,0,.023,1.057l.006.265a.529.529,0,0,0,.023,1.057l.006.264a.529.529,0,0,1-.514.54h.008a.529.529,0,0,1,.528.517l.006.264a.529.529,0,0,0,.023,1.057l.006.264a.529.529,0,0,1-.517.54Zm-.253-11.9a.529.529,0,0,1-.529-.518l-.005-.264a.529.529,0,0,1,.514-.54h-.009a.529.529,0,0,1-.528-.518l-.006-.265a.529.529,0,0,0-.022-1.057l-.006-.264a.529.529,0,0,0-.022-1.057l-.006-.264a.528.528,0,0,1,.514-.54h-.008a.529.529,0,0,1-.528-.518l-.006-.264a.529.529,0,0,1,.514-.54.534.534,0,0,1-.537-.517l-.006-.264a.529.529,0,1,1,1.057-.023l.006.264a.529.529,0,0,0,.022,1.057l.006.264a.529.529,0,0,1-.514.54.535.535,0,0,1,.537.517l.006.264a.529.529,0,0,0,.022,1.057l.006.264a.529.529,0,0,1-.514.54h.008a.529.529,0,0,1,.528.517l.006.264a.529.529,0,0,0,.023,1.057l.006.264a.529.529,0,0,1-.518.54Zm-.169-7.93a.529.529,0,0,1-.528-.518l-.006-.264a.529.529,0,0,1,.514-.54.535.535,0,0,1-.537-.518l-.006-.264a.529.529,0,0,1,.514-.54h-.008a.529.529,0,0,1-.529-.517l-.006-.265a.529.529,0,0,1,1.057-.023l.006.265a.529.529,0,0,0,.022,1.057l.006.264a.529.529,0,0,1-.514.54.534.534,0,0,1,.537.518l.006.264a.529.529,0,0,1-.518.54Z" transform="translate(-947.241 -1775.216)" fill="#495458"/>
        </g>
        <g id="Group_1718" data-name="Group 1718" transform="translate(0 0.066)">
          <path id="Path_4214" data-name="Path 4214" d="M876.924,1791.131a.407.407,0,0,1-.1-.014.4.4,0,0,1-.278-.487l.07-.255a.4.4,0,0,1,.765.209l-.07.255A.4.4,0,0,1,876.924,1791.131Zm.348-1.276a.4.4,0,0,1-.383-.5l.069-.255a.4.4,0,0,1,.765.209l-.069.255A.4.4,0,0,1,877.272,1789.856Zm.348-1.275a.4.4,0,0,1-.383-.5l.07-.255a.4.4,0,0,1,.765.209l-.07.255A.4.4,0,0,1,877.62,1788.58Zm.348-1.276a.4.4,0,0,1-.1-.014.4.4,0,0,1-.278-.487l.07-.255a.4.4,0,0,1,.765.209l-.07.255A.4.4,0,0,1,877.967,1787.3Zm.348-1.276a.4.4,0,0,1-.383-.5l.069-.255a.4.4,0,1,1,.765.208l-.069.255A.4.4,0,0,1,878.315,1786.029Zm.348-1.275a.391.391,0,0,1-.1-.014.4.4,0,0,1-.278-.487l.07-.255a.4.4,0,1,1,.765.208l-.07.255A.4.4,0,0,1,878.663,1784.754Zm.348-1.276a.39.39,0,0,1-.1-.014.4.4,0,0,1-.278-.487l.069-.255a.4.4,0,1,1,.765.208l-.07.255A.4.4,0,0,1,879.011,1783.479Zm.348-1.275a.4.4,0,0,1-.383-.5l.069-.255a.4.4,0,0,1,.765.209l-.069.255A.4.4,0,0,1,879.359,1782.2Zm.348-1.276a.4.4,0,0,1-.383-.5l.07-.255a.4.4,0,1,1,.765.208l-.07.255A.4.4,0,0,1,879.707,1780.928Zm.348-1.276a.4.4,0,0,1-.383-.5l.07-.255a.4.4,0,1,1,.765.209l-.07.255A.4.4,0,0,1,880.055,1779.652Zm.348-1.275a.392.392,0,0,1-.1-.014.4.4,0,0,1-.278-.487l.069-.255a.4.4,0,0,1,.765.209l-.069.255A.4.4,0,0,1,880.4,1778.377Zm.348-1.276a.391.391,0,0,1-.1-.014.4.4,0,0,1-.278-.487l.07-.255a.4.4,0,1,1,.765.209l-.07.255A.4.4,0,0,1,880.75,1777.1Zm.348-1.275a.391.391,0,0,1-.1-.014.4.4,0,0,1-.278-.487l.07-.255a.4.4,0,1,1,.765.209l-.07.255A.4.4,0,0,1,881.1,1775.826Zm.348-1.276a.4.4,0,0,1-.383-.5l.07-.255a.4.4,0,1,1,.765.209l-.07.255A.4.4,0,0,1,881.446,1774.551Zm.348-1.275a.4.4,0,0,1-.383-.5l.069-.255a.4.4,0,0,1,.765.208l-.07.255A.4.4,0,0,1,881.794,1773.276Zm.348-1.276a.392.392,0,0,1-.1-.014.4.4,0,0,1-.278-.487l.07-.255a.4.4,0,1,1,.765.208l-.07.255A.4.4,0,0,1,882.142,1772Z" transform="translate(-876.527 -1770.951)" fill="#0d0e12"/>
        </g>
        <g id="Group_1719" data-name="Group 1719" transform="translate(4.164 0.793)">
          <path id="Path_4215" data-name="Path 4215" d="M921.562,1801.837h-.025a.264.264,0,0,1-.238-.288l.016-.164a.26.26,0,0,1,.288-.238.264.264,0,0,1,.239.288l-.016.165A.264.264,0,0,1,921.562,1801.837Zm.114-1.217h-.025a.264.264,0,0,1-.239-.288l.025-.263a.264.264,0,1,1,.526.049l-.025.263A.264.264,0,0,1,921.676,1800.619Zm.123-1.316h-.025a.264.264,0,0,1-.239-.288l.025-.263a.264.264,0,1,1,.526.049l-.025.263A.264.264,0,0,1,921.8,1799.3Zm.123-1.316H921.9a.264.264,0,0,1-.239-.288l.025-.263a.259.259,0,0,1,.288-.238.264.264,0,0,1,.238.288l-.025.263A.265.265,0,0,1,921.923,1797.987Zm.124-1.316h-.025a.265.265,0,0,1-.238-.288l.025-.263a.264.264,0,1,1,.526.05l-.025.263A.264.264,0,0,1,922.047,1796.671Zm.124-1.316h-.025a.265.265,0,0,1-.239-.288l.025-.263a.264.264,0,1,1,.527.049l-.025.263A.264.264,0,0,1,922.17,1795.354Zm.124-1.316h-.025a.265.265,0,0,1-.239-.288l.025-.263a.264.264,0,0,1,.526.049l-.025.263A.265.265,0,0,1,922.294,1794.038Zm.123-1.316h-.025a.265.265,0,0,1-.238-.288l.025-.263a.26.26,0,0,1,.288-.238.264.264,0,0,1,.238.288l-.025.263A.264.264,0,0,1,922.417,1792.722Zm.124-1.316h-.025a.264.264,0,0,1-.238-.288l.025-.263a.264.264,0,1,1,.527.049l-.025.264A.264.264,0,0,1,922.541,1791.406Zm.123-1.316h-.025a.265.265,0,0,1-.239-.288l.025-.263a.264.264,0,1,1,.526.049l-.025.263A.264.264,0,0,1,922.664,1790.089Zm.124-1.316h-.025a.264.264,0,0,1-.238-.288l.025-.264a.264.264,0,1,1,.526.049l-.025.263A.264.264,0,0,1,922.788,1788.774Zm.124-1.316h-.025a.265.265,0,0,1-.238-.288l.025-.263a.26.26,0,0,1,.288-.238.264.264,0,0,1,.238.288l-.025.263A.265.265,0,0,1,922.911,1787.457Zm.123-1.316h-.025a.264.264,0,0,1-.239-.288l.025-.263a.264.264,0,0,1,.527.049l-.025.264A.265.265,0,0,1,923.035,1786.141Zm.124-1.316h-.025a.264.264,0,0,1-.239-.288l.025-.263a.264.264,0,1,1,.526.049l-.025.263A.265.265,0,0,1,923.159,1784.825Zm.123-1.316h-.025a.264.264,0,0,1-.238-.288l.025-.263a.26.26,0,0,1,.288-.238.264.264,0,0,1,.239.288l-.025.263A.265.265,0,0,1,923.282,1783.509Zm.124-1.316h-.025a.264.264,0,0,1-.238-.288l.025-.263a.26.26,0,0,1,.288-.238.264.264,0,0,1,.238.288l-.025.263A.265.265,0,0,1,923.406,1782.192Zm.123-1.316H923.5a.264.264,0,0,1-.239-.288l.025-.263a.264.264,0,1,1,.526.049l-.025.263A.264.264,0,0,1,923.529,1780.876Zm.124-1.316h-.025a.264.264,0,0,1-.239-.288l.025-.263a.264.264,0,1,1,.526.049l-.025.263A.265.265,0,0,1,923.653,1779.56Z" transform="translate(-921.297 -1778.768)" fill="#0d0e12"/>
        </g>
        <g id="Group_1720" data-name="Group 1720" transform="translate(7.931)">
          <path id="Path_4216" data-name="Path 4216" d="M967.958,1791.456a.265.265,0,0,1-.254-.192l-.025-.09a.264.264,0,0,0-.145-.508l-.072-.254a.264.264,0,0,1,.509-.145l.072.254a.265.265,0,0,0,.145.509l.025.089a.265.265,0,0,1-.255.337Zm-.387-1.361a.265.265,0,0,1-.254-.192l-.072-.254a.264.264,0,0,1,.509-.145l.072.254a.264.264,0,0,1-.182.327A.252.252,0,0,1,967.571,1790.095Zm-.217-.763a.265.265,0,0,1-.254-.192l-.072-.254a.264.264,0,1,1,.509-.145l.072.254a.265.265,0,0,1-.182.327A.261.261,0,0,1,967.354,1789.332Zm-.217-.763a.265.265,0,0,1-.254-.192l-.072-.254a.264.264,0,1,1,.509-.145l.072.254a.264.264,0,0,1-.182.326A.253.253,0,0,1,967.137,1788.569Zm-.217-.763a.265.265,0,0,1-.254-.192l-.072-.254a.264.264,0,1,1,.509-.145l.072.254a.264.264,0,0,1-.182.326A.256.256,0,0,1,966.92,1787.806Zm-.217-.763a.264.264,0,0,1-.254-.192l-.072-.254a.264.264,0,1,1,.509-.145l.072.254a.265.265,0,0,1-.182.327A.258.258,0,0,1,966.7,1787.043Zm-.217-.763a.264.264,0,0,1-.254-.192l-.072-.254a.264.264,0,1,1,.509-.145l.072.254a.264.264,0,0,1-.254.337Zm-.217-.763a.264.264,0,0,1-.254-.192l-.072-.254a.264.264,0,0,1,.509-.145l.072.254a.264.264,0,0,1-.255.337Zm-.217-.762a.265.265,0,0,1-.254-.192l-.072-.254a.264.264,0,1,1,.509-.145l.072.254a.265.265,0,0,1-.255.337Zm-.217-.763a.265.265,0,0,1-.254-.192l-.072-.254a.264.264,0,0,1,.509-.144l.072.254a.264.264,0,0,1-.182.326A.256.256,0,0,1,965.835,1783.991Zm-.217-.763a.264.264,0,0,1-.254-.192l-.073-.254a.264.264,0,1,1,.509-.144l.072.254a.264.264,0,0,1-.254.337Zm-.217-.763a.264.264,0,0,1-.254-.192l-.072-.254a.264.264,0,1,1,.509-.144l.072.254a.264.264,0,0,1-.182.327A.261.261,0,0,1,965.4,1782.465Zm-.217-.763a.264.264,0,0,1-.254-.192l-.072-.254a.264.264,0,0,1,.509-.145l.072.254a.264.264,0,0,1-.254.337Zm-.217-.763a.264.264,0,0,1-.254-.192l-.072-.254a.264.264,0,1,1,.509-.145l.072.254a.264.264,0,0,1-.182.326A.26.26,0,0,1,964.967,1780.939Zm-.217-.763a.264.264,0,0,1-.254-.192l-.072-.254a.264.264,0,0,0-.145-.508l-.072-.254a.264.264,0,0,1,.509-.145l.072.254a.264.264,0,0,0,.145.508l.072.254a.264.264,0,0,1-.182.327A.26.26,0,0,1,964.75,1780.176Zm-.434-1.526a.265.265,0,0,1-.254-.192l-.072-.254a.264.264,0,1,1,.509-.145l.072.254a.265.265,0,0,1-.182.327A.26.26,0,0,1,964.317,1778.651Zm-.217-.763a.264.264,0,0,1-.254-.192l-.072-.254a.264.264,0,1,1,.509-.145l.072.254a.264.264,0,0,1-.182.327A.26.26,0,0,1,964.1,1777.888Zm-.217-.763a.264.264,0,0,1-.254-.192l-.072-.254a.264.264,0,1,1,.509-.145l.072.254a.264.264,0,0,1-.182.327A.26.26,0,0,1,963.883,1777.125Zm-.217-.763a.265.265,0,0,1-.254-.192l-.072-.254a.264.264,0,1,1,.509-.144l.072.254a.264.264,0,0,1-.254.336Zm-.217-.763a.265.265,0,0,1-.254-.192l-.072-.254a.264.264,0,1,1,.509-.144l.072.254a.264.264,0,0,1-.254.337Zm-.217-.763a.264.264,0,0,1-.254-.192l-.072-.254a.264.264,0,0,1,.509-.145l.072.254a.264.264,0,0,1-.254.337Zm-.217-.763a.265.265,0,0,1-.254-.192l-.072-.254a.264.264,0,0,0-.145-.509l-.072-.254a.264.264,0,1,1,.509-.144l.072.254a.264.264,0,0,0,.145.508l.072.254a.264.264,0,0,1-.255.337Zm-.434-1.526a.264.264,0,0,1-.254-.192l-.072-.254a.264.264,0,1,1,.509-.144l.072.254a.264.264,0,0,1-.254.336Zm-.217-.763a.265.265,0,0,1-.254-.192l-.072-.254a.264.264,0,1,1,.509-.145l.072.254a.264.264,0,0,1-.182.327A.262.262,0,0,1,962.364,1771.784Zm-.217-.763a.264.264,0,0,1-.254-.192l-.072-.254a.264.264,0,1,1,.509-.145l.072.254a.264.264,0,0,1-.182.327A.261.261,0,0,1,962.147,1771.021Z" transform="translate(-961.811 -1770.238)" fill="#797a82"/>
        </g>
      </g>
      <g id="Group_1722" data-name="Group 1722" transform="translate(28.004 32.225)">
        <path id="Path_4217" data-name="Path 4217" d="M934.513,1741.184l.219.136.005,0a.05.05,0,0,1-.05.086l-.24-.127a.059.059,0,1,1,.056-.1l0,0Z" transform="translate(-933.801 -1737.166)" fill="#1d1e20"/>
        <path id="Path_4218" data-name="Path 4218" d="M942.583,1744.848l.255.056h0a.028.028,0,0,1-.011.054l-.263-.049a.032.032,0,1,1,.012-.063h0Z" transform="translate(-941.171 -1740.5)" fill="#1d1e20"/>
        <path id="Path_4219" data-name="Path 4219" d="M951.115,1745.665l.261-.02h0a.028.028,0,0,1,0,.056h0l-.267.013a.024.024,0,0,1,0-.049Z" transform="translate(-948.925 -1741.224)" fill="#1d1e20"/>
        <path id="Path_4220" data-name="Path 4220" d="M959.336,1743.4l.241-.1.005,0a.053.053,0,1,1,.04.1h0l-.257.08a.043.043,0,0,1-.029-.081Z" transform="translate(-956.376 -1739.094)" fill="#1d1e20"/>
        <path id="Path_4221" data-name="Path 4221" d="M966.559,1738.335l.182-.175.01-.01a.1.1,0,0,1,.139.145l-.01.008-.224.164a.082.082,0,0,1-.105-.125Z" transform="translate(-962.925 -1734.402)" fill="#1d1e20"/>
        <path id="Path_4222" data-name="Path 4222" d="M971.171,1730a.64.64,0,0,0,0-.212.182.182,0,1,1,.361-.053.17.17,0,0,1,0,.043v.011a.971.971,0,0,1-.082.307.15.15,0,0,1-.285-.089Z" transform="translate(-967.135 -1726.654)" fill="#1d1e20"/>
        <path id="Path_4223" data-name="Path 4223" d="M967.232,1721.245l-.146-.18-.017-.021a.276.276,0,1,1,.429-.347.3.3,0,0,1,.034.054l.129.271a.241.241,0,0,1-.4.255Z" transform="translate(-963.363 -1718.504)" fill="#1d1e20"/>
        <path id="Path_4224" data-name="Path 4224" d="M960.934,1714.243l-.2-.187a.354.354,0,1,1,.478-.521.364.364,0,0,1,.042.046l0,.006.153.2.011.014a.329.329,0,0,1-.484.441Z" transform="translate(-957.564 -1712.016)" fill="#1d1e20"/>
        <path id="Path_4225" data-name="Path 4225" d="M955.047,1707.624l-.18-.2a.392.392,0,1,1,.578-.531l.018.021.164.2h0a.384.384,0,0,1-.581.5Z" transform="translate(-952.257 -1705.965)" fill="#1d1e20"/>
        <path id="Path_4226" data-name="Path 4226" d="M949.631,1701.275l-.169-.206a.39.39,0,0,1,.6-.5l.174.2a.394.394,0,1,1-.594.519Z" transform="translate(-947.367 -1700.216)" fill="#1d1e20"/>
        <path id="Path_4227" data-name="Path 4227" d="M945.048,1698.744l-.178.2a.367.367,0,0,1-.563-.47l.16-.21a.378.378,0,0,1,.6.459Z" transform="translate(-942.705 -1698.112)" fill="#1d1e20"/>
        <path id="Path_4228" data-name="Path 4228" d="M940.033,1705.59l-.184.191a.321.321,0,0,1-.49-.412l.156-.213a.338.338,0,0,1,.546.4A.378.378,0,0,1,940.033,1705.59Z" transform="translate(-938.229 -1704.375)" fill="#1d1e20"/>
        <path id="Path_4229" data-name="Path 4229" d="M935.1,1712.647l-.189.188a.256.256,0,0,1-.389-.331h0l.154-.215a.278.278,0,1,1,.454.323A.336.336,0,0,1,935.1,1712.647Z" transform="translate(-933.857 -1710.864)" fill="#1d1e20"/>
        <path id="Path_4230" data-name="Path 4230" d="M930.3,1719.735l-.16.188-.014.017a.185.185,0,0,1-.3-.213l.144-.247a.21.21,0,1,1,.363.212.213.213,0,0,1-.02.029Z" transform="translate(-929.616 -1717.398)" fill="#1d1e20"/>
        <path id="Path_4231" data-name="Path 4231" d="M928.1,1727.814l-.048.229-.007.032a.12.12,0,0,1-.237-.032l.018-.3a.142.142,0,0,1,.282.018.16.16,0,0,1,0,.02Z" transform="translate(-927.807 -1724.87)" fill="#1d1e20"/>
        <path id="Path_4232" data-name="Path 4232" d="M929.842,1736.57l.146.2.01.013a.074.074,0,0,1-.114.094l-.19-.209a.088.088,0,1,1,.131-.119l.006.007Z" transform="translate(-929.497 -1732.946)" fill="#1d1e20"/>
      </g>
      <g id="Group_1723" data-name="Group 1723" transform="translate(28.044 32.358)">
        <path id="Path_4233" data-name="Path 4233" d="M934.716,1741.406l.222.135,0,0a.033.033,0,0,1-.033.057l-.236-.128a.039.039,0,1,1,.038-.069h0Z" transform="translate(-934.055 -1737.505)" fill="#414347"/>
        <path id="Path_4234" data-name="Path 4234" d="M942.692,1744.964l.257.055h0a.018.018,0,0,1,.014.022.019.019,0,0,1-.022.014l-.261-.05a.021.021,0,1,1,.008-.042h0Z" transform="translate(-941.323 -1740.739)" fill="#414347"/>
        <path id="Path_4235" data-name="Path 4235" d="M951.2,1745.766l.262-.019h0a.019.019,0,1,1,0,.037h0l-.266.015a.016.016,0,0,1-.017-.015.017.017,0,0,1,.015-.017Z" transform="translate(-949.047 -1741.45)" fill="#414347"/>
        <path id="Path_4236" data-name="Path 4236" d="M959.478,1743.593l.244-.094h0a.036.036,0,1,1,.026.066h0l-.255.083a.029.029,0,0,1-.019-.054Z" transform="translate(-956.554 -1739.408)" fill="#414347"/>
        <path id="Path_4237" data-name="Path 4237" d="M966.833,1738.724l.189-.173.007-.006a.067.067,0,1,1,.09.1l0,0-.217.166a.055.055,0,0,1-.07-.084Z" transform="translate(-963.223 -1734.901)" fill="#414347"/>
        <path id="Path_4238" data-name="Path 4238" d="M971.684,1730.773a.7.7,0,0,0,.017-.228.121.121,0,0,1,.241-.021.131.131,0,0,1,0,.018v0a.919.919,0,0,1-.069.291.1.1,0,0,1-.189-.062Z" transform="translate(-967.641 -1727.543)" fill="#414347"/>
        <path id="Path_4239" data-name="Path 4239" d="M968.327,1722.282l-.143-.2-.012-.017a.183.183,0,0,1,.3-.216.2.2,0,0,1,.015.024l.132.256a.161.161,0,0,1-.272.169Z" transform="translate(-964.427 -1719.711)" fill="#414347"/>
        <path id="Path_4240" data-name="Path 4240" d="M962.287,1715.456l-.2-.19a.235.235,0,1,1,.328-.338l.018.02,0,.005.161.2.007.009a.219.219,0,0,1-.323.295Z" transform="translate(-958.878 -1713.437)" fill="#414347"/>
        <path id="Path_4241" data-name="Path 4241" d="M956.492,1708.9l-.176-.2a.26.26,0,1,1,.389-.345l.006.007.168.2a.256.256,0,0,1-.387.334Z" transform="translate(-953.645 -1707.456)" fill="#414347"/>
        <path id="Path_4242" data-name="Path 4242" d="M950.982,1702.436l-.17-.2a.26.26,0,0,1,.4-.336l.173.2a.263.263,0,0,1-.4.344Z" transform="translate(-948.659 -1701.594)" fill="#414347"/>
        <path id="Path_4243" data-name="Path 4243" d="M946.089,1699.961l-.175.2a.245.245,0,0,1-.375-.313l.163-.207a.252.252,0,1,1,.4.312Z" transform="translate(-943.883 -1699.542)" fill="#414347"/>
        <path id="Path_4244" data-name="Path 4244" d="M940.955,1706.719l-.18.194a.21.21,0,0,1-.322-.271l.16-.21a.224.224,0,0,1,.357.27Z" transform="translate(-939.279 -1705.711)" fill="#414347"/>
        <path id="Path_4245" data-name="Path 4245" d="M935.794,1713.611l-.182.193a.17.17,0,0,1-.258-.221l.161-.21a.184.184,0,0,1,.293.223Z" transform="translate(-934.66 -1712.021)" fill="#414347"/>
        <path id="Path_4246" data-name="Path 4246" d="M930.824,1720.478l-.157.2-.009.011a.123.123,0,0,1-.2-.141l.147-.237a.14.14,0,1,1,.237.147l-.009.013Z" transform="translate(-930.234 -1718.317)" fill="#414347"/>
        <path id="Path_4247" data-name="Path 4247" d="M928.449,1728.366l-.043.24,0,.021a.08.08,0,0,1-.159-.021l.023-.285a.094.094,0,0,1,.187.015.083.083,0,0,1,0,.009Z" transform="translate(-928.243 -1725.566)" fill="#414347"/>
        <path id="Path_4248" data-name="Path 4248" d="M930.141,1736.921l.154.2.007.009a.049.049,0,0,1-.076.063l-.183-.208a.059.059,0,1,1,.088-.078l0,0Z" transform="translate(-929.861 -1733.414)" fill="#414347"/>
      </g>
      <g id="Group_1724" data-name="Group 1724" transform="translate(28.399 35.885)">
        <ellipse id="Ellipse_24" data-name="Ellipse 24" cx="1.778" cy="1.026" rx="1.778" ry="1.026" transform="matrix(1, -0.013, 0.013, 1, 0.013, 2.003)" fill="url(#linear-gradient-9)"/>
        <path id="Path_4249" data-name="Path 4249" d="M932.8,1755.2a2.779,2.779,0,0,0,2.514-.032.766.766,0,0,0-.019-1.452,2.779,2.779,0,0,0-2.514.032A.766.766,0,0,0,932.8,1755.2Z" transform="translate(-932.246 -1751.947)" fill="url(#linear-gradient-10)"/>
        <ellipse id="Ellipse_25" data-name="Ellipse 25" cx="1.778" cy="1.026" rx="1.778" ry="1.026" transform="translate(0 1.013) rotate(-0.734)" fill="url(#linear-gradient-11)"/>
        <path id="Path_4250" data-name="Path 4250" d="M932.659,1744.557a2.778,2.778,0,0,0,2.514-.032.766.766,0,0,0-.018-1.451,2.778,2.778,0,0,0-2.514.032A.766.766,0,0,0,932.659,1744.557Z" transform="translate(-932.122 -1742.293)" fill="url(#linear-gradient-12)"/>
        <path id="Path_4251" data-name="Path 4251" d="M932.59,1739.235a2.779,2.779,0,0,0,2.514-.032.766.766,0,0,0-.018-1.451,2.778,2.778,0,0,0-2.514.032A.766.766,0,0,0,932.59,1739.235Z" transform="translate(-932.06 -1737.467)" fill="url(#linear-gradient-13)"/>
      </g>
      <ellipse id="Ellipse_26" data-name="Ellipse 26" cx="2.148" cy="1.822" rx="2.148" ry="1.822" transform="translate(27.995 34.263) rotate(-0.734)" fill="url(#linear-gradient-14)"/>
      <g id="Group_1737" data-name="Group 1737" transform="translate(0 0)">
        <g id="Group_1730" data-name="Group 1730">
          <g id="Group_1725" data-name="Group 1725" transform="translate(29.795 31.601)">
            <path id="Path_4252" data-name="Path 4252" d="M947.6,1692.6a.529.529,0,0,1-.529-.529v-.132a.529.529,0,1,1,1.058,0v.132A.529.529,0,0,1,947.6,1692.6Z" transform="translate(-947.068 -1691.406)" fill="#1d1e20"/>
          </g>
          <g id="Group_1726" data-name="Group 1726" transform="translate(29.795 20.093)">
            <path id="Path_4253" data-name="Path 4253" d="M947.6,1579.2a.529.529,0,0,1-.529-.529v-.256a.529.529,0,0,0,0-1.023v-.256a.529.529,0,0,0,0-1.023v-.256a.529.529,0,0,0,0-1.023v-.255a.529.529,0,0,0,0-1.023v-.256a.529.529,0,0,0,0-1.023v-.256a.529.529,0,0,0,0-1.023v-.256a.529.529,0,0,0,0-1.023v-.256a.529.529,0,0,0,0-1.023v-.256a.529.529,0,1,1,1.058,0v.256a.529.529,0,0,0,0,1.023v.256a.529.529,0,0,0,0,1.023V1571a.529.529,0,0,0,0,1.023v.256a.529.529,0,0,0,0,1.023v.256a.529.529,0,0,0,0,1.023v.255a.529.529,0,0,0,0,1.023v.256a.529.529,0,0,0,0,1.023v.256a.529.529,0,0,0,0,1.023v.256A.529.529,0,0,1,947.6,1579.2Z" transform="translate(-947.068 -1567.661)" fill="#1d1e20"/>
          </g>
          <g id="Group_1727" data-name="Group 1727" transform="translate(29.684 18.867)">
            <path id="Path_4254" data-name="Path 4254" d="M946.509,1555.736a.62.62,0,1,1,.172-1.178l.356.227v.422A.529.529,0,0,1,946.509,1555.736Z" transform="translate(-945.868 -1554.475)" fill="#1d1e20"/>
          </g>
          <g id="Group_1728" data-name="Group 1728" transform="translate(0.994 0.632)">
            <path id="Path_4255" data-name="Path 4255" d="M665.713,1377.129a.528.528,0,0,1-.283-.082l-.221-.14a.529.529,0,0,0-.883-.561l-.221-.141a.529.529,0,0,0-.882-.561l-.221-.14a.529.529,0,0,0-.883-.561l-.221-.14a.529.529,0,0,0-.883-.561l-.221-.14a.529.529,0,0,0-.883-.561l-.221-.141a.528.528,0,0,0-.882-.561l-.221-.14a.529.529,0,0,0-.883-.561l-.221-.14a.529.529,0,0,0-.883-.561l-.221-.141a.529.529,0,0,0-.882-.561l-.221-.14a.529.529,0,0,0-.883-.561l-.221-.14a.529.529,0,0,0-.883-.561l-.221-.14a.529.529,0,0,0-.883-.561l-.221-.141a.529.529,0,0,0-.882-.561l-.221-.14a.529.529,0,0,0-.883-.561l-.221-.14a.529.529,0,0,0-.883-.561l-.221-.141a.529.529,0,0,0-.882-.561l-.221-.14a.529.529,0,0,0-.883-.561l-.221-.14a.529.529,0,0,0-.883-.561l-.221-.14a.529.529,0,0,0-.883-.561l-.221-.141a.529.529,0,0,0-.882-.561l-.221-.14a.529.529,0,0,0-.883-.561l-.221-.14a.529.529,0,0,0-.883-.561l-.221-.14a.529.529,0,0,0-.883-.561l-.221-.14a.529.529,0,0,0-.883-.561l-.221-.14a.529.529,0,0,0-.883-.561l-.221-.14a.529.529,0,0,1,.567-.893l.221.14a.529.529,0,0,0,.883.561l.221.14a.529.529,0,0,0,.883.561l.221.14a.529.529,0,0,0,.883.561l.221.14a.529.529,0,0,0,.883.561l.221.14a.529.529,0,0,0,.883.561l.221.14a.529.529,0,0,0,.883.561l.221.141a.529.529,0,0,0,.882.561l.221.14a.529.529,0,0,0,.883.561l.221.14a.529.529,0,0,0,.883.561l.221.14a.529.529,0,0,0,.883.561l.221.141a.529.529,0,0,0,.882.561l.221.14a.529.529,0,0,0,.883.561l.221.14a.529.529,0,0,0,.883.561l.221.14a.529.529,0,0,0,.882.561l.221.14a.529.529,0,0,0,.883.561l.22.14a.529.529,0,0,0,.883.561l.22.14a.529.529,0,0,0,.883.561l.221.14a.529.529,0,0,0,.882.561l.221.14a.529.529,0,0,0,.883.561l.221.14a.529.529,0,0,0,.883.561l.221.14a.529.529,0,0,0,.882.561l.221.14a.529.529,0,0,0,.883.561l.221.14a.529.529,0,0,0,.883.561l.221.14a.529.529,0,0,0,.883.561l.221.141a.528.528,0,0,0,.882.561l.221.14a.529.529,0,0,1-.284.975Z" transform="translate(-637.378 -1358.397)" fill="#1d1e20"/>
          </g>
          <g id="Group_1729" data-name="Group 1729">
            <path id="Path_4256" data-name="Path 4256" d="M627.326,1352.731a.528.528,0,0,1-.284-.083l-.112-.071a.529.529,0,0,1,.568-.892l.112.071a.529.529,0,0,1-.284.975Z" transform="translate(-626.686 -1351.602)" fill="#1d1e20"/>
          </g>
        </g>
        <g id="Group_1736" data-name="Group 1736" transform="translate(1.025 0.595)">
          <g id="Group_1731" data-name="Group 1731" transform="translate(28.873 31.497)">
            <path id="Path_4257" data-name="Path 4257" d="M948.431,1697.339h0a.265.265,0,0,1-.263-.266v-.132a.264.264,0,0,1,.264-.263h0a.264.264,0,0,1,.263.266v.132A.264.264,0,0,1,948.431,1697.339Z" transform="translate(-948.166 -1696.678)" fill="#414347"/>
          </g>
          <g id="Group_1732" data-name="Group 1732" transform="translate(28.878 19.826)">
            <path id="Path_4258" data-name="Path 4258" d="M948.49,1582.349h0a.264.264,0,0,1-.263-.266v-.259a.264.264,0,0,1,.264-.263h0a.264.264,0,0,1,.263.266v.259A.264.264,0,0,1,948.49,1582.349Zm.006-1.3h0a.265.265,0,0,1-.263-.266v-.259a.264.264,0,0,1,.264-.263h0a.265.265,0,0,1,.263.266v.259A.265.265,0,0,1,948.5,1581.052Zm.006-1.3h0a.264.264,0,0,1-.263-.266v-.259a.264.264,0,0,1,.264-.263h0a.264.264,0,0,1,.263.266v.259A.264.264,0,0,1,948.5,1579.755Zm.006-1.3h0a.265.265,0,0,1-.263-.266v-.259a.265.265,0,0,1,.264-.263h0a.264.264,0,0,1,.263.266v.26A.264.264,0,0,1,948.509,1578.459Zm.006-1.3h0a.264.264,0,0,1-.263-.266v-.26a.264.264,0,0,1,.264-.263h0a.264.264,0,0,1,.263.266v.26A.264.264,0,0,1,948.515,1577.162Zm.006-1.3h0a.264.264,0,0,1-.263-.266v-.26a.264.264,0,0,1,.264-.263h0a.265.265,0,0,1,.263.266v.26A.264.264,0,0,1,948.522,1575.865Zm.006-1.3h0a.264.264,0,0,1-.263-.266v-.259a.275.275,0,0,1,.266-.263.264.264,0,0,1,.263.266v.26A.264.264,0,0,1,948.528,1574.569Zm.006-1.3h0a.264.264,0,0,1-.263-.266v-.26a.264.264,0,0,1,.264-.263h0a.264.264,0,0,1,.263.266v.259A.264.264,0,0,1,948.534,1573.272Zm.006-1.3h0a.265.265,0,0,1-.263-.266v-.26a.264.264,0,0,1,.264-.263h0a.264.264,0,0,1,.263.266v.26A.264.264,0,0,1,948.541,1571.975Z" transform="translate(-948.226 -1571.187)" fill="#414347"/>
          </g>
          <g id="Group_1733" data-name="Group 1733" transform="translate(28.824 18.585)">
            <path id="Path_4259" data-name="Path 4259" d="M948.019,1558.577h0a.36.36,0,1,1,.034-.691l.233.15v.277A.264.264,0,0,1,948.019,1558.577Z" transform="translate(-947.644 -1557.844)" fill="#414347"/>
          </g>
          <g id="Group_1734" data-name="Group 1734" transform="translate(1.001 0.646)">
            <path id="Path_4260" data-name="Path 4260" d="M675.668,1382.839a.263.263,0,0,1-.143-.042l-.223-.143a.265.265,0,0,1,.287-.445l.223.144a.265.265,0,0,1-.143.487Zm-1.113-.718a.265.265,0,0,1-.143-.042l-.223-.144a.264.264,0,0,1,.287-.445l.223.144a.264.264,0,0,1-.144.487Zm-1.113-.718a.265.265,0,0,1-.143-.042l-.223-.144a.265.265,0,0,1,.287-.445l.223.144a.264.264,0,0,1-.143.487Zm-1.113-.717a.264.264,0,0,1-.143-.042l-.223-.144a.264.264,0,0,1,.287-.445l.222.144a.264.264,0,0,1-.143.487Zm-1.113-.718a.264.264,0,0,1-.143-.042l-.223-.144a.264.264,0,0,1,.287-.445l.222.144a.264.264,0,0,1-.143.487Zm-1.113-.718a.264.264,0,0,1-.143-.042l-.223-.143a.264.264,0,0,1,.286-.445l.223.143a.264.264,0,0,1-.144.487Zm-1.113-.718a.263.263,0,0,1-.143-.042l-.223-.143a.264.264,0,0,1,.286-.445l.223.143a.264.264,0,0,1-.144.487Zm-1.113-.718a.265.265,0,0,1-.143-.042l-.223-.144a.264.264,0,0,1,.287-.445l.223.144a.264.264,0,0,1-.144.487Zm-1.113-.717a.266.266,0,0,1-.143-.042l-.223-.144a.264.264,0,0,1,.287-.445l.223.144a.264.264,0,0,1-.144.487Zm-1.113-.718a.262.262,0,0,1-.143-.042l-.223-.143a.265.265,0,0,1,.287-.445l.223.143a.265.265,0,0,1-.144.487Zm-1.113-.718a.265.265,0,0,1-.143-.042l-.223-.144a.264.264,0,0,1,.287-.445l.223.144a.264.264,0,0,1-.143.487Zm-1.113-.717a.264.264,0,0,1-.143-.042l-.222-.144a.264.264,0,0,1,.287-.445l.223.144a.265.265,0,0,1-.144.487Zm-1.113-.718a.265.265,0,0,1-.143-.042l-.223-.144a.264.264,0,0,1,.287-.445l.223.143a.264.264,0,0,1-.143.487Zm-1.113-.717a.265.265,0,0,1-.143-.042l-.223-.144a.264.264,0,0,1,.287-.445l.223.144a.265.265,0,0,1-.144.487Zm-1.113-.718a.263.263,0,0,1-.143-.042l-.223-.143a.264.264,0,0,1,.286-.445l.223.143a.265.265,0,0,1-.143.487Zm-1.113-.718a.264.264,0,0,1-.143-.042l-.223-.143a.264.264,0,0,1,.286-.444l.222.143a.264.264,0,0,1-.143.487Zm-1.113-.717a.266.266,0,0,1-.143-.042l-.223-.144a.265.265,0,0,1,.287-.445l.223.144a.264.264,0,0,1-.144.487Zm-1.113-.718a.264.264,0,0,1-.143-.042l-.223-.143a.265.265,0,0,1,.287-.445l.223.144a.265.265,0,0,1-.144.487Zm-1.113-.718a.264.264,0,0,1-.143-.042l-.223-.144a.264.264,0,0,1,.287-.444l.222.144a.264.264,0,0,1-.143.487Zm-1.113-.718a.266.266,0,0,1-.143-.042l-.223-.144a.265.265,0,0,1,.286-.445l.223.144a.264.264,0,0,1-.144.487Zm-1.113-.718a.264.264,0,0,1-.143-.042l-.223-.143a.265.265,0,0,1,.287-.445l.222.144a.264.264,0,0,1-.143.487Zm-1.113-.718a.264.264,0,0,1-.143-.042l-.223-.144a.264.264,0,0,1,.286-.445l.223.144a.264.264,0,0,1-.144.487Zm-1.113-.717a.265.265,0,0,1-.143-.042l-.223-.144a.265.265,0,0,1,.287-.445l.223.144a.265.265,0,0,1-.143.487Zm-1.113-.718a.262.262,0,0,1-.143-.042l-.223-.143a.264.264,0,0,1,.286-.445l.223.143a.264.264,0,0,1-.143.487Zm-1.113-.717a.265.265,0,0,1-.143-.042l-.223-.143a.264.264,0,0,1,.286-.445l.222.143a.264.264,0,0,1-.143.487Z" transform="translate(-648.472 -1364.946)" fill="#414347"/>
          </g>
          <g id="Group_1735" data-name="Group 1735">
            <path id="Path_4261" data-name="Path 4261" d="M638.079,1358.6a.263.263,0,0,1-.143-.042l-.111-.071a.264.264,0,0,1,.286-.445l.111.072a.264.264,0,0,1-.143.487Z" transform="translate(-637.704 -1357.998)" fill="#414347"/>
          </g>
        </g>
      </g>
      <g id="Group_1738" data-name="Group 1738" transform="translate(28.487 37.214)">
        <path id="Path_4262" data-name="Path 4262" d="M933,1772.975a1.663,1.663,0,0,0,.792.484,3.141,3.141,0,0,0,.92.123,3.058,3.058,0,0,0,.918-.137,1.526,1.526,0,0,0,.781-.495,1.3,1.3,0,0,1-.727.64,2.541,2.541,0,0,1-.971.19,2.6,2.6,0,0,1-.974-.177A1.388,1.388,0,0,1,933,1772.975Z" transform="translate(-933.004 -1770.98)" fill="#4d4d4d"/>
        <path id="Path_4263" data-name="Path 4263" d="M933,1767.911a1.667,1.667,0,0,0,.792.484,3.145,3.145,0,0,0,.92.123,3.055,3.055,0,0,0,.918-.137,1.525,1.525,0,0,0,.781-.495,1.3,1.3,0,0,1-.727.64,2.546,2.546,0,0,1-.971.19,2.6,2.6,0,0,1-.974-.177A1.388,1.388,0,0,1,933,1767.911Z" transform="translate(-933.004 -1766.387)" fill="#4d4d4d"/>
        <path id="Path_4264" data-name="Path 4264" d="M933,1762.847a1.664,1.664,0,0,0,.792.484,3.154,3.154,0,0,0,.92.124,3.059,3.059,0,0,0,.918-.137,1.527,1.527,0,0,0,.781-.495,1.3,1.3,0,0,1-.727.64,2.546,2.546,0,0,1-.971.19,2.6,2.6,0,0,1-.974-.177A1.387,1.387,0,0,1,933,1762.847Z" transform="translate(-933.004 -1761.794)" fill="#4d4d4d"/>
        <path id="Path_4265" data-name="Path 4265" d="M933,1757.65a1.664,1.664,0,0,0,.792.484,3.145,3.145,0,0,0,.92.123,3.058,3.058,0,0,0,.918-.137,1.529,1.529,0,0,0,.781-.495,1.3,1.3,0,0,1-.727.64,2.546,2.546,0,0,1-.971.19,2.6,2.6,0,0,1-.974-.176A1.388,1.388,0,0,1,933,1757.65Z" transform="translate(-933.004 -1757.081)" fill="#4d4d4d"/>
        <path id="Path_4266" data-name="Path 4266" d="M933,1751.786a1.663,1.663,0,0,0,.792.484,3.146,3.146,0,0,0,.92.124,3.07,3.07,0,0,0,.918-.137,1.528,1.528,0,0,0,.781-.495,1.3,1.3,0,0,1-.727.64,2.542,2.542,0,0,1-.971.19,2.594,2.594,0,0,1-.974-.176A1.388,1.388,0,0,1,933,1751.786Z" transform="translate(-933.004 -1751.762)" fill="#4d4d4d"/>
      </g>
      <g id="Group_1746" data-name="Group 1746" transform="translate(28.304 34.166)">
        <g id="Group_1739" data-name="Group 1739" transform="translate(0.828 0.11)">
          <path id="Path_4267" data-name="Path 4267" d="M948.31,1720.168c-.047.077-.1.151-.144.223l0,0a.042.042,0,0,1-.069-.046l.007-.008C948.171,1720.28,948.24,1720.223,948.31,1720.168Z" transform="translate(-947.329 -1720.168)" fill="#484f55"/>
          <path id="Path_4268" data-name="Path 4268" d="M944.629,1723.949c-.039.078-.075.156-.115.231l0,.007a.094.094,0,1,1-.166-.088l.006-.01c.052-.075.108-.147.162-.219a.071.071,0,0,1,.12.074Z" transform="translate(-943.923 -1723.5)" fill="#484f55"/>
          <path id="Path_4269" data-name="Path 4269" d="M942.039,1728.5l-.084.24,0,.01a.122.122,0,0,1-.23-.081l0-.009.112-.251a.111.111,0,0,1,.206.081Z" transform="translate(-941.548 -1727.579)" fill="#484f55"/>
          <path id="Path_4270" data-name="Path 4270" d="M940.544,1733.642l-.048.248,0,.011a.132.132,0,0,1-.259-.05v0l.059-.27a.128.128,0,0,1,.251.052Z" transform="translate(-940.204 -1732.24)" fill="#484f55"/>
          <path id="Path_4271" data-name="Path 4271" d="M940.192,1739.19c0,.084-.006.169-.013.253v.011a.123.123,0,0,1-.245-.007c0-.092,0-.184,0-.275a.129.129,0,0,1,.258,0v.015Z" transform="translate(-939.932 -1737.289)" fill="#484f55"/>
          <path id="Path_4272" data-name="Path 4272" d="M940.434,1744.965l.021.255v.008a.1.1,0,0,1-.188.028l-.057-.268a.113.113,0,0,1,.221-.047.11.11,0,0,1,0,.014Z" transform="translate(-940.182 -1742.557)" fill="#484f55"/>
          <path id="Path_4273" data-name="Path 4273" d="M941.839,1750.953c.02.084.036.169.054.256v0a.044.044,0,0,1-.083.027c-.037-.081-.077-.163-.112-.247a.074.074,0,1,1,.136-.057.066.066,0,0,1,0,.01Z" transform="translate(-941.529 -1748.034)" fill="#484f55"/>
          <path id="Path_4274" data-name="Path 4274" d="M944.494,1757.035l.007.024-.015-.021a0,0,0,0,1,0-.006,0,0,0,0,1,.006,0Z" transform="translate(-944.063 -1753.604)" fill="#484f55"/>
        </g>
        <g id="Group_1740" data-name="Group 1740" transform="translate(0 0.137)">
          <path id="Path_4275" data-name="Path 4275" d="M943.907,1720.455c-.086.029-.17.055-.251.077l-.008,0a.037.037,0,0,1-.019-.072h.007C943.729,1720.456,943.819,1720.454,943.907,1720.455Z" transform="translate(-942.433 -1720.455)" fill="#1d1e20"/>
          <path id="Path_4276" data-name="Path 4276" d="M938.305,1721.355l-.2.156-.013.01a.091.091,0,1,1-.113-.142l.013-.009.246-.134a.067.067,0,0,1,.074.111Z" transform="translate(-937.306 -1721.156)" fill="#1d1e20"/>
          <path id="Path_4277" data-name="Path 4277" d="M934.309,1724.5c-.044.07-.091.137-.137.2l-.011.016a.118.118,0,0,1-.2-.134l.005-.007c.059-.074.117-.15.179-.221a.106.106,0,0,1,.17.125Z" transform="translate(-933.674 -1723.963)" fill="#1d1e20"/>
          <path id="Path_4278" data-name="Path 4278" d="M932.029,1729.033l-.074.234-.005.017a.13.13,0,0,1-.248-.078v0l.092-.267a.127.127,0,0,1,.241.079Z" transform="translate(-931.633 -1728.069)" fill="#1d1e20"/>
          <path id="Path_4279" data-name="Path 4279" d="M931.309,1734.441l-.021.249v.013a.127.127,0,0,1-.254-.018l.016-.277a.131.131,0,1,1,.261.015v.018Z" transform="translate(-931.033 -1732.999)" fill="#1d1e20"/>
          <path id="Path_4280" data-name="Path 4280" d="M931.441,1740.187l.02.254v.006a.108.108,0,0,1-.213.03c-.018-.09-.03-.18-.045-.271a.12.12,0,0,1,.236-.039s0,.007,0,.01Z" transform="translate(-931.186 -1738.242)" fill="#1d1e20"/>
          <path id="Path_4281" data-name="Path 4281" d="M932.636,1745.981l.074.239,0,.014a.068.068,0,0,1-.126.051l-.127-.25a.092.092,0,0,1,.164-.083.08.08,0,0,1,.005.014Z" transform="translate(-932.319 -1743.536)" fill="#1d1e20"/>
          <path id="Path_4282" data-name="Path 4282" d="M935.862,1751.541a.762.762,0,0,0,.191.173,0,0,0,0,1,0,0h0a.592.592,0,0,1-.244-.123.039.039,0,0,1,.048-.061Z" transform="translate(-935.35 -1748.636)" fill="#1d1e20"/>
        </g>
        <g id="Group_1741" data-name="Group 1741" transform="translate(2.033)">
          <path id="Path_4283" data-name="Path 4283" d="M952.888,1718.985c.086.016.175.037.265.06a.043.043,0,0,1-.021.083l-.011,0-.007,0C953.04,1719.078,952.965,1719.033,952.888,1718.985Z" transform="translate(-952.888 -1718.985)" fill="#2f3640"/>
          <path id="Path_4284" data-name="Path 4284" d="M957.291,1720.781c.074.054.15.107.224.165a.1.1,0,1,1-.119.15l-.007-.006-.01-.01c-.059-.058-.115-.121-.174-.183l-.008-.009a.072.072,0,0,1,.095-.108Z" transform="translate(-956.778 -1720.601)" fill="#2f3640"/>
          <path id="Path_4285" data-name="Path 4285" d="M960.9,1724.38l.16.23a.124.124,0,0,1-.2.142l-.005-.008-.008-.014-.125-.216-.008-.013a.112.112,0,0,1,.189-.121Z" transform="translate(-959.966 -1723.835)" fill="#2f3640"/>
          <path id="Path_4286" data-name="Path 4286" d="M963.512,1729.166c.03.088.068.176.089.266a.132.132,0,0,1-.255.067c-.022-.081-.05-.157-.075-.237l-.005-.017a.129.129,0,0,1,.245-.079Z" transform="translate(-962.296 -1728.139)" fill="#2f3640"/>
          <path id="Path_4287" data-name="Path 4287" d="M964.995,1734.689c.009.092.014.184.02.276a.119.119,0,0,1-.237.025l0-.012c-.013-.084-.025-.167-.034-.251v-.012a.128.128,0,0,1,.254-.026Z" transform="translate(-963.638 -1733.124)" fill="#2f3640"/>
          <path id="Path_4288" data-name="Path 4288" d="M965.507,1740.517l-.037.269a.088.088,0,0,1-.175-.011v-.006l0-.257v-.008a.107.107,0,0,1,.214,0A.1.1,0,0,1,965.507,1740.517Z" transform="translate(-964.14 -1738.405)" fill="#2f3640"/>
          <path id="Path_4289" data-name="Path 4289" d="M965.2,1746.643c-.027.086-.054.172-.085.256a.027.027,0,0,1-.052-.01h0c0-.089.009-.177.016-.264v0a.062.062,0,0,1,.124.009A.06.06,0,0,1,965.2,1746.643Z" transform="translate(-963.929 -1743.998)" fill="#2f3640"/>
        </g>
        <g id="Group_1742" data-name="Group 1742" transform="translate(1.99 0.059)">
          <path id="Path_4290" data-name="Path 4290" d="M952.426,1719.616c.064.063.126.127.187.194a.041.041,0,0,1-.061.056l-.006-.009,0,0C952.5,1719.777,952.464,1719.7,952.426,1719.616Z" transform="translate(-952.426 -1719.616)" fill="#495458"/>
          <path id="Path_4291" data-name="Path 4291" d="M954.914,1723.683c.047.077.1.154.14.232a.094.094,0,0,1-.163.093l0-.01,0-.007c-.033-.079-.062-.16-.094-.241l0-.005a.071.071,0,0,1,.126-.062Z" transform="translate(-954.563 -1723.274)" fill="#495458"/>
          <path id="Path_4292" data-name="Path 4292" d="M956.868,1728.445l.093.257a.122.122,0,1,1-.23.083l0-.009,0-.009-.067-.247,0-.008a.111.111,0,0,1,.211-.067Z" transform="translate(-956.259 -1727.557)" fill="#495458"/>
          <path id="Path_4293" data-name="Path 4293" d="M958.237,1733.733l.048.27a.132.132,0,1,1-.26.046v0l0-.01-.038-.253v-.009a.128.128,0,0,1,.253-.042Z" transform="translate(-957.466 -1732.324)" fill="#495458"/>
          <path id="Path_4294" data-name="Path 4294" d="M958.95,1739.358c0,.092,0,.183,0,.274a.123.123,0,0,1-.245.005v-.01c-.006-.085-.007-.17-.01-.256v-.009a.129.129,0,1,1,.258-.009Z" transform="translate(-958.109 -1737.405)" fill="#495458"/>
          <path id="Path_4295" data-name="Path 4295" d="M958.817,1745.173l-.053.268a.1.1,0,0,1-.189-.025v-.008l.017-.257v-.008a.113.113,0,1,1,.225.015A.138.138,0,0,1,958.817,1745.173Z" transform="translate(-958.004 -1742.674)" fill="#495458"/>
          <path id="Path_4296" data-name="Path 4296" d="M957.94,1751.2c-.032.085-.069.168-.1.25a.044.044,0,0,1-.057.024.044.044,0,0,1-.026-.048v0c.015-.087.028-.173.045-.258v-.005a.073.073,0,1,1,.14.041Z" transform="translate(-957.257 -1748.17)" fill="#495458"/>
          <path id="Path_4297" data-name="Path 4297" d="M957.119,1757.321l-.012.018.005-.021a0,0,0,0,1,0,0,0,0,0,0,1,0,0Z" transform="translate(-956.672 -1753.809)" fill="#495458"/>
        </g>
        <g id="Group_1743" data-name="Group 1743" transform="translate(0.499 0.864)">
          <path id="Path_4298" data-name="Path 4298" d="M938.889,1728.271c-.009.092-.023.18-.04.265v0a.058.058,0,1,1-.114-.022.06.06,0,0,1,.007-.018A2.48,2.48,0,0,1,938.889,1728.271Z" transform="translate(-938.516 -1728.271)"/>
          <path id="Path_4299" data-name="Path 4299" d="M937.1,1732.817c-.007.086-.012.171-.024.255v.01a.117.117,0,0,1-.232-.033s0-.006,0-.01c.02-.089.048-.177.072-.265a.094.094,0,0,1,.184.033Z" transform="translate(-936.798 -1732.293)"/>
          <path id="Path_4300" data-name="Path 4300" d="M936.662,1738.016c0,.085,0,.169,0,.254v.012a.13.13,0,0,1-.26,0c0-.092,0-.184,0-.276a.129.129,0,0,1,.257,0Z" transform="translate(-936.399 -1736.984)"/>
          <path id="Path_4301" data-name="Path 4301" d="M936.928,1743.64c.008.084.018.169.022.255v.01a.1.1,0,0,1-.2.032c-.025-.088-.043-.178-.063-.268a.123.123,0,1,1,.24-.054.14.14,0,0,1,0,.015Z" transform="translate(-936.656 -1742.101)"/>
          <path id="Path_4302" data-name="Path 4302" d="M938.5,1749.691q.024.127.04.262v0a.022.022,0,0,1-.019.025.023.023,0,0,1-.021-.01c-.048-.077-.093-.156-.135-.237a.072.072,0,1,1,.128-.067.074.074,0,0,1,.007.02Z" transform="translate(-938.178 -1747.641)"/>
        </g>
        <g id="Group_1744" data-name="Group 1744" transform="translate(2.234 1.568)">
          <path id="Path_4303" data-name="Path 4303" d="M955.475,1735.841a2.034,2.034,0,0,1,.129.243.069.069,0,1,1-.124.059.067.067,0,0,1-.007-.027v-.005A2.242,2.242,0,0,1,955.475,1735.841Z" transform="translate(-955.432 -1735.841)" fill="#1b1c1e"/>
          <path id="Path_4304" data-name="Path 4304" d="M955.723,1740.445c.018.089.03.18.043.271a.127.127,0,1,1-.252.037.164.164,0,0,1,0-.016v-.01c0-.085,0-.17,0-.256v-.009a.106.106,0,0,1,.21-.016Z" transform="translate(-955.468 -1739.94)" fill="#1b1c1e"/>
          <path id="Path_4305" data-name="Path 4305" d="M955.645,1745.724c-.01.091-.016.183-.032.273a.121.121,0,0,1-.239-.018v-.01c0-.086.006-.17.01-.255v-.01a.131.131,0,1,1,.262.012S955.645,1745.721,955.645,1745.724Z" transform="translate(-955.344 -1744.672)" fill="#1b1c1e"/>
          <path id="Path_4306" data-name="Path 4306" d="M955.256,1751.663c-.034.086-.07.17-.111.251a.047.047,0,0,1-.089-.021v0c0-.09.007-.177.015-.263v-.007a.1.1,0,1,1,.19.018A.092.092,0,0,1,955.256,1751.663Z" transform="translate(-955.057 -1750.073)" fill="#1b1c1e"/>
        </g>
        <g id="Group_1745" data-name="Group 1745" transform="translate(1.525 0.473)">
          <path id="Path_4307" data-name="Path 4307" d="M950.16,1724.066c0,.09-.006.179-.014.267v0a.048.048,0,1,1-.1-.009.05.05,0,0,1,0-.013Q950.1,1724.188,950.16,1724.066Z" transform="translate(-949.806 -1724.066)" fill="#737574"/>
          <path id="Path_4308" data-name="Path 4308" d="M948.66,1728.925c0,.088-.011.175-.018.261v0a.105.105,0,1,1-.21-.016.1.1,0,0,1,0-.017c.021-.087.041-.175.066-.261a.082.082,0,0,1,.16.025Z" transform="translate(-948.338 -1728.393)" fill="#737574"/>
          <path id="Path_4309" data-name="Path 4309" d="M947.872,1734.138c0,.087-.007.173-.014.26v0a.129.129,0,1,1-.257-.021v0c.008-.089.018-.179.032-.267a.12.12,0,0,1,.24.021Z" transform="translate(-947.585 -1733.086)" fill="#737574"/>
          <path id="Path_4310" data-name="Path 4310" d="M947.7,1739.606l-.008.26v0a.127.127,0,0,1-.254,0v-.269a.132.132,0,0,1,.263,0v.009Z" transform="translate(-947.433 -1738.034)" fill="#737574"/>
          <path id="Path_4311" data-name="Path 4311" d="M947.856,1745.425c0,.086,0,.174,0,.261v0a.1.1,0,0,1-.193.011c-.012-.089-.026-.177-.035-.267a.116.116,0,1,1,.23-.021v.012Z" transform="translate(-947.607 -1743.332)" fill="#737574"/>
          <path id="Path_4312" data-name="Path 4312" d="M948.681,1751.492c0,.088,0,.176,0,.266a.031.031,0,0,1-.031.03.033.033,0,0,1-.029-.021c-.028-.085-.05-.172-.074-.259a.07.07,0,0,1,.135-.037.08.08,0,0,1,0,.018Z" transform="translate(-948.438 -1748.875)" fill="#737574"/>
        </g>
      </g>
    </g>
  </g>
</svg>
