<svg xmlns="http://www.w3.org/2000/svg" xmlns:xlink="http://www.w3.org/1999/xlink" viewBox="0 0 74.253 93.292">
  <defs>
    <linearGradient id="linear-gradient" x1="238.094" y1="-197.256" x2="238.023" y2="-199.803" gradientUnits="objectBoundingBox">
      <stop offset="0" stop-color="#ae3e16"/>
      <stop offset="1" stop-color="#641102"/>
    </linearGradient>
    <linearGradient id="linear-gradient-2" x1="811.202" y1="-736.152" x2="807.144" y2="-736.747" gradientUnits="objectBoundingBox">
      <stop offset="0" stop-color="#eacd8f"/>
      <stop offset="1" stop-color="#ca8d4a"/>
    </linearGradient>
    <radialGradient id="radial-gradient" cx="0.495" cy="0.57" r="0.33" gradientTransform="matrix(1.379, -0.414, -1.358, -1.968, -86.642, -186.534)" gradientUnits="objectBoundingBox">
      <stop offset="0" stop-color="#fbd871"/>
      <stop offset="1" stop-color="#b42b03"/>
    </radialGradient>
    <linearGradient id="linear-gradient-3" x1="360.547" y1="-611.661" x2="349.942" y2="-602.808" gradientUnits="objectBoundingBox">
      <stop offset="0" stop-color="#e5a450"/>
      <stop offset="1" stop-color="#91431a"/>
    </linearGradient>
    <linearGradient id="linear-gradient-4" x1="500.316" y1="-463.195" x2="495.534" y2="-463.738" gradientUnits="objectBoundingBox">
      <stop offset="0" stop-color="#d57c37"/>
      <stop offset="1" stop-color="#bb7738"/>
    </linearGradient>
    <linearGradient id="linear-gradient-5" x1="624.76" y1="-2192.694" x2="640.052" y2="-2197.703" gradientUnits="objectBoundingBox">
      <stop offset="0" stop-color="#eccf92"/>
      <stop offset="1" stop-color="#cf6e2d"/>
    </linearGradient>
    <linearGradient id="linear-gradient-6" x1="240.138" y1="-303.08" x2="242.21" y2="-298.917" gradientUnits="objectBoundingBox">
      <stop offset="0" stop-color="#8e1201"/>
      <stop offset="1" stop-color="#c75a21"/>
    </linearGradient>
    <linearGradient id="linear-gradient-7" x1="349.173" y1="-1161.361" x2="349.314" y2="-1148.673" gradientUnits="objectBoundingBox">
      <stop offset="0" stop-color="#891402"/>
      <stop offset="1" stop-color="#de9144"/>
    </linearGradient>
    <linearGradient id="linear-gradient-8" x1="1856.765" y1="-816.171" x2="1875.9" y2="-816.171" xlink:href="#linear-gradient-6"/>
    <linearGradient id="linear-gradient-9" x1="917.075" y1="-1001.01" x2="907.837" y2="-988.127" gradientUnits="objectBoundingBox">
      <stop offset="0" stop-color="#e7c889"/>
      <stop offset="1" stop-color="#cb6226"/>
    </linearGradient>
    <linearGradient id="linear-gradient-10" x1="294.772" y1="-415.429" x2="287.552" y2="-417.454" gradientUnits="objectBoundingBox">
      <stop offset="0" stop-color="#a6300f"/>
      <stop offset="1" stop-color="#e7a651"/>
    </linearGradient>
    <linearGradient id="linear-gradient-11" x1="2029.912" y1="-1030.997" x2="2043.415" y2="-1033.966" gradientUnits="objectBoundingBox">
      <stop offset="0" stop-color="#661202"/>
      <stop offset="1" stop-color="#c75a21"/>
    </linearGradient>
    <linearGradient id="linear-gradient-12" x1="359.516" y1="-892.311" x2="356.599" y2="-882.149" xlink:href="#linear-gradient-6"/>
    <linearGradient id="linear-gradient-13" x1="636.045" y1="-1388.443" x2="646.167" y2="-1399.415" gradientUnits="objectBoundingBox">
      <stop offset="0" stop-color="#b64417"/>
      <stop offset="1" stop-color="#8e1201"/>
    </linearGradient>
    <linearGradient id="linear-gradient-14" x1="387.38" y1="-957.218" x2="377.682" y2="-949.197" gradientUnits="objectBoundingBox">
      <stop offset="0" stop-color="#a93612"/>
      <stop offset="1" stop-color="#da893e"/>
    </linearGradient>
    <linearGradient id="linear-gradient-15" x1="521.397" y1="-2060.004" x2="519.84" y2="-2069.144" gradientUnits="objectBoundingBox">
      <stop offset="0" stop-color="#a6300f"/>
      <stop offset="1" stop-color="#d0712f"/>
    </linearGradient>
    <linearGradient id="linear-gradient-16" x1="390.96" y1="-1165.53" x2="380.055" y2="-1157.48" gradientUnits="objectBoundingBox">
      <stop offset="0" stop-color="#88270c"/>
      <stop offset="1" stop-color="#c36229"/>
    </linearGradient>
    <radialGradient id="radial-gradient-2" cx="0.229" cy="0.703" r="0.398" gradientTransform="matrix(0.677, -0.918, -0.886, -0.223, -318.741, -565.368)" xlink:href="#radial-gradient"/>
    <radialGradient id="radial-gradient-3" cx="0.666" cy="0.132" r="0.298" gradientTransform="matrix(-1.123, -0.477, -3.106, 4.481, -986.567, -1016.397)" gradientUnits="objectBoundingBox">
      <stop offset="0" stop-color="#fde9b0"/>
      <stop offset="1" stop-color="#b17528"/>
    </radialGradient>
    <radialGradient id="radial-gradient-4" cx="0.854" cy="0.26" r="0.835" gradientTransform="matrix(-0.432, 0.462, 0.235, 0.925, 147.955, -51.772)" gradientUnits="objectBoundingBox">
      <stop offset="0" stop-color="#bc6029"/>
      <stop offset="1" stop-color="#d7ad66"/>
    </radialGradient>
    <linearGradient id="linear-gradient-17" x1="1845.294" y1="-2178.942" x2="1832.64" y2="-2174.197" gradientUnits="objectBoundingBox">
      <stop offset="0" stop-color="#bf6930"/>
      <stop offset="1" stop-color="#cfa158"/>
    </linearGradient>
    <linearGradient id="linear-gradient-18" x1="1108.266" y1="-4074.368" x2="1124.448" y2="-4089.344" gradientUnits="objectBoundingBox">
      <stop offset="0" stop-color="#d8b16f"/>
      <stop offset="1" stop-color="#c98b48"/>
    </linearGradient>
    <linearGradient id="linear-gradient-19" x1="1713.348" y1="-2070.059" x2="1724.178" y2="-2074.619" gradientUnits="objectBoundingBox">
      <stop offset="0" stop-color="#b95c1a"/>
      <stop offset="1" stop-color="#dcb675"/>
    </linearGradient>
    <linearGradient id="linear-gradient-20" x1="1222.22" y1="-1558.141" x2="1227.281" y2="-1560.354" gradientUnits="objectBoundingBox">
      <stop offset="0" stop-color="#fcf0d1"/>
      <stop offset="1" stop-color="#cfa35e"/>
    </linearGradient>
    <linearGradient id="linear-gradient-21" x1="464.641" y1="-973.457" x2="470.778" y2="-979.527" gradientUnits="objectBoundingBox">
      <stop offset="0" stop-color="#8e1201"/>
      <stop offset="1" stop-color="#ba3a0d"/>
    </linearGradient>
    <linearGradient id="linear-gradient-22" x1="1523.115" y1="-4827.998" x2="1545.293" y2="-4834.054" gradientUnits="objectBoundingBox">
      <stop offset="0" stop-color="#bd4611"/>
      <stop offset="1" stop-color="#a52707"/>
    </linearGradient>
    <linearGradient id="linear-gradient-23" x1="1965.33" y1="-5218.938" x2="1969.105" y2="-5227.397" gradientUnits="objectBoundingBox">
      <stop offset="0" stop-color="#641102"/>
      <stop offset="1" stop-color="#9f2206"/>
    </linearGradient>
    <linearGradient id="linear-gradient-24" x1="1668.201" y1="-5067.204" x2="1680.749" y2="-5070.767" xlink:href="#linear-gradient-23"/>
    <linearGradient id="linear-gradient-25" x1="-127.542" y1="-216.159" x2="-135.51" y2="-200.791" gradientUnits="objectBoundingBox">
      <stop offset="0" stop-color="#f1f0ea"/>
      <stop offset="1" stop-color="#bdb89c"/>
    </linearGradient>
    <linearGradient id="linear-gradient-26" x1="-256.119" y1="-226.726" x2="-241.251" y2="-242.387" gradientUnits="objectBoundingBox">
      <stop offset="0" stop-color="#dddacc"/>
      <stop offset="1" stop-color="#dfdbcd"/>
    </linearGradient>
    <linearGradient id="linear-gradient-27" x1="223.401" y1="-216.159" x2="215.433" y2="-200.791" gradientUnits="objectBoundingBox">
      <stop offset="0" stop-color="#f1f0ea"/>
      <stop offset="1" stop-color="#f3f2ed"/>
    </linearGradient>
    <radialGradient id="radial-gradient-5" cx="0.498" cy="0.846" r="0.796" gradientTransform="matrix(0.018, -1, -1.818, -0.029, -219.637, -215.402)" gradientUnits="objectBoundingBox">
      <stop offset="0" stop-color="#eae5e0"/>
      <stop offset="1" stop-color="#d5d1be"/>
    </radialGradient>
    <linearGradient id="linear-gradient-28" x1="45.886" y1="-193.438" x2="46.841" y2="-208.573" gradientUnits="objectBoundingBox">
      <stop offset="0" stop-color="#c43438"/>
      <stop offset="1" stop-color="#7e1518"/>
    </linearGradient>
    <linearGradient id="linear-gradient-29" x1="401.208" y1="-226.726" x2="416.076" y2="-242.387" gradientUnits="objectBoundingBox">
      <stop offset="0" stop-color="#fbfaf9"/>
      <stop offset="1" stop-color="#f8f8f5"/>
    </linearGradient>
  </defs>
  <g id="Browse_brands_Food_Drink_icon" data-name="Browse brands/Food &amp; Drink icon" transform="translate(-325.017 -73.589)">
    <g id="g6463" transform="translate(346.268 75.243)">
      <path id="path6375" d="M337.883,88.535c-.406,1.555.11,1.383-.4,2.252.459,1.027-.657,3.6-.454,4.619.055,2.188-.344,4.337-.487,6.5-1.478,1.679-1.185,3.613-.977,5.686,1.33,1.681,1.33,4.019,1.464,6.173,1.645,4.022,4.065,4.062,7.652,4.062a9.88,9.88,0,0,0,11.719-.812c.719-4.158,3.427-9.066-.033-11.657-1.5-4.953-6.482-10.119-10.546-13.364a21.59,21.59,0,0,1-2.443-9.586c.888-2.1.239-4.2,0-6.336-1.161-2.071-1.834-1.607-3.418-1.464-1.837-.721-3.074-.141-4.394.65-1.87.112-1.894,2.037-1.318,3.379a5.612,5.612,0,0,0,1.794,4.507C337.231,84.889,337.336,86.515,337.883,88.535Z" transform="translate(-333.916 -74.282)" fill="url(#linear-gradient)"/>
      <path id="path6377" d="M338.392,74.282a5.356,5.356,0,0,0-2.828.977c-1.87.112-1.894,2.037-1.318,3.379a5.612,5.612,0,0,0,1.794,4.507c1.192,1.743,1.3,3.37,1.844,5.39-.406,1.555.11,1.383-.4,2.252a5.017,5.017,0,0,1-.181,2.546c1.1,1.5,2.348,1.282,4.01,1.672a15.748,15.748,0,0,1,4.927,3.5c1.077-.167,5.49,8.557,5.961,9.027-3.035-10.685-4.54-9.844-4.85-10.776a8.366,8.366,0,0,1-.948-4.265c-.189-.167-.38-.332-.58-.492a21.6,21.6,0,0,1-2.443-9.586c.888-2.1.239-4.2,0-6.336-1.161-2.071-1.834-1.607-3.418-1.464a4.385,4.385,0,0,0-1.567-.327Z" transform="translate(-333.916 -74.281)" fill="#ca8d4a"/>
      <path id="path6382" d="M335.015,77.37c1.2.752,2.125.368,3.179.158v2.066c.592,1.294,1.235,2.6,1.908,3.814.537,1.989,1.294,3.924,1.906,5.88a4.773,4.773,0,0,1-2.223-1.271,14.96,14.96,0,0,0-1.908-.478,22.3,22.3,0,0,0,.16-4.132C337.064,81.241,336.52,78.872,335.015,77.37Z" transform="translate(-332.389 -69.994)" fill="url(#linear-gradient-2)"/>
      <path id="path6393" d="M334.54,77.11c-.487-1.5.974-.647,1.43-.953.561.277.958-.213,1.431-.318,1.423.191,1.046.208,1.588,1.431-1.791-.148-.451.79-.635,1.113C334.38,78.905,335.813,78.385,334.54,77.11Z" transform="translate(-333.185 -72.119)" fill="#d4b36b"/>
      <path id="path6405" d="M334.35,76.033c.824,1.717,2.558.475,4.609.475.184-.915,1.07-.97,1.748-1.271C338.369,73.893,336.506,74.738,334.35,76.033Z" transform="translate(-333.312 -73.901)" fill="#dfb878"/>
      <path id="path6407" d="M338.693,74.9c-.946.158-.635.884-.635,1.834.222.47-.136,1.01-.353,1.411.661,1.3.736,2.579-.845,2.894a3.058,3.058,0,0,1,1.411,1.13c.325,1.278.3,2.77.635,3.952.48,1.5,1.051,2.83,1.481,4.375a3.48,3.48,0,0,0,.282,1.693,35,35,0,0,0,2.541,4.237,18.507,18.507,0,0,1-.845-4.306,23.353,23.353,0,0,0-1.624-3.176,34.422,34.422,0,0,1-1.624-7.551C339.5,79.2,339.739,77,338.693,74.9Z" transform="translate(-329.829 -73.417)" fill="#b2692f"/>
      <path id="path6409" d="M334.435,77.818c.716,1.211,2.8.521,3.953.635.074-.8,1.356-.8,2.047-1.058a3.124,3.124,0,0,0,1.411-.423,2.164,2.164,0,0,1-.7,1.552c-.4.757-.193.564-1.2.564a13.841,13.841,0,0,0-2.257.353C336.551,79.144,334.877,78.79,334.435,77.818Z" transform="translate(-333.194 -70.545)" fill="#b2692f"/>
      <path id="path6412" d="M335.529,80.166c.229-.37.905-.492,1.268-.69.045-1.333.492-1.325,1.266-1.844a27.519,27.519,0,0,0-3.167-1.555C333.12,78.284,334.2,78.394,335.529,80.166Z" transform="translate(-333.847 -71.789)" fill="#dfb878"/>
      <path id="path6422" d="M336.624,82c1.512.093,2.436.97,3.446,1.531,1.419.822,2.856,2.713,4.086,3.831-.736-.067-1.046-.695-1.531-1.02a12.4,12.4,0,0,0-6.641-2.682C335.774,82.9,336.4,82.585,336.624,82Z" transform="translate(-331.103 -63.564)" fill="#dfb878"/>
      <path id="path6424" d="M337.583,83.929l-.511.893.511,3.066.255.382c-.85.678-1.667.511-2.682.511a4.745,4.745,0,0,0,.255-2.3,18.873,18.873,0,0,1,1.022-4.215C336.8,82.842,337.216,83.38,337.583,83.929Z" transform="translate(-332.192 -63.193)" fill="#80220a"/>
    </g>
    <g id="g6437" transform="translate(325.017 73.991)">
      <g id="g6341">
        <g id="g6300">
          <path id="path6029" d="M341.767,91.6a10.063,10.063,0,0,1-1.058-3.582,24.77,24.77,0,0,1-1.357-3.9,39.227,39.227,0,0,1-1.6-5.462c-.346-3.609-1.6-4.581-4.64-4.277-1.447-.881-2.013-.494-2.563-.182-3.558-1.218-4.676,2.961-5.135,5.693-1.634,3.2,2.085,6.195,4.769,6.46,2.835,2.19,5.39,6.494,6.778,9.858a4.059,4.059,0,0,0,.721,2.825c-1.323,11.313,2.493,18.231,8.306,26.041a12.3,12.3,0,0,0,5.925,5.729,21.6,21.6,0,0,1,4.029-2.687c7.893-1.634,6.864-9.476,6.29-15.2-.958-3.955.654-4.175-2.52-6.773.065-5.025-4.97-6.966-10.217-9.166-2.486-.444-3.186-.239-5.994-1.6A12.731,12.731,0,0,1,341.767,91.6Z" transform="translate(-325.017 -73.65)" fill="url(#radial-gradient)"/>
          <path id="path6206" d="M325.051,81.064c.8-2.252,3.038-2.627,5.008-2.823h1.8c2.484-.22,1.431-.012,2.054-1.414.033-1.44.573-1.314,1.925-1.54-.43-1.137-1.576-.836-2.312-.9-1.459-.936-1.841-.743-3.081,0C326.682,73.236,324.748,77.714,325.051,81.064Z" transform="translate(-325.014 -73.757)" fill="#e7bf82"/>
          <g id="g6282" transform="translate(0.307 0.756)">
            <path id="path6133" d="M325.146,77.219c.052.37.119.855.2,1.388a6.554,6.554,0,0,0,4.664,3.045c2.835,2.19,5.39,6.493,6.778,9.858a4.059,4.059,0,0,0,.721,2.825c-.11.943-.184,1.853-.224,2.739.115.017.232.036.349.05a10.54,10.54,0,0,1,1.268-2.713c-.3-2.966-2.183-6.119-3.258-8.867,1.22,1.834,3.207,3.57,4.342,5.791-1.495-3.363-4.542-6.67-6.04-10.007-.657-1.029-.036-2.116-1.2-2.842a2.974,2.974,0,0,1-1.447,1.266C328.721,79.753,326.889,79.235,325.146,77.219Z" transform="translate(-325.146 -69.708)" fill="url(#linear-gradient-3)"/>
            <path id="path6156" d="M327.949,78.11a7.863,7.863,0,0,1,1.992,1.268c1.849,5.264,4.165,9.777,6.334,14.656.776.494,1.569.965,2.352,1.447a18.062,18.062,0,0,1-2.171-4.342c-.726-2.553-1.094-5.459-1.629-7.783a10.047,10.047,0,0,1-2.173-4.7c-.263-2.744-.537-3.508-2.713-4.16C331.467,77.086,330.177,77.121,327.949,78.11Z" transform="translate(-321.255 -73.494)" fill="url(#linear-gradient-4)"/>
            <path id="path6158" d="M331.261,76.306c.461,1.356,1.543,2.028,2.534,2.9a8.5,8.5,0,0,0-2.895,1.084c-2.66.857-4.478-.213-5.338-2.622C327.161,75.912,329.136,76.112,331.261,76.306Z" transform="translate(-324.567 -71.147)" fill="url(#linear-gradient-5)"/>
            <path id="path6168" d="M331.229,83.508c1.34,1.416,1.9,1.268,3.437,1.268a6.068,6.068,0,0,1,2.534.542,12.36,12.36,0,0,0-1.087,3.257,18.2,18.2,0,0,1,1.629,1.087,11.212,11.212,0,0,1,1.81,2.894,9.55,9.55,0,0,1-2.894.182c-1.244.917-.447,1.669-.724,2.713-.681.442-.767.874-1.268,1.447-.31,3.355,1.791,5.813,3.8,8.325.943,2.534.263,2.543,2.651,3.63,3.255-.014,8.433.888,11.645.53a4.588,4.588,0,0,1-2.534,4.707,11.487,11.487,0,0,1-5.607,3.437c-2.935-.6-5.178-4.332-5.973-5.791-2.835-3.071-4.347-6.477-5.971-10.133-3.007-2.04-2.534-5.292-2.534-8.686C329.727,89.581,330.436,86.672,331.229,83.508Z" transform="translate(-318.38 -60.978)" fill="url(#linear-gradient-6)"/>
            <path id="path6178" d="M332.744,90.934c1.724,3.353,4.9,3.914,7.783,5.065,2.751.6,5.223-.062,7.781-1.084a23.076,23.076,0,0,1-1.629,3.8,13.092,13.092,0,0,1-6.152,1.087c-1.321.368-2.247-.31-3.257-.545C333.962,94.984,331.586,92.279,332.744,90.934Z" transform="translate(-315.011 -50.669)" fill="url(#linear-gradient-7)"/>
            <path id="path6182" d="M330.981,83.508c-.623.568-.239,1.311-.361,1.992,1.529.7,0,1.7,0,1.989-1.323,2.037-.5,2.037.542,3.076-2.071,1.106,1.822,4.664.542,5.249.5-.934.633-5.97,1.087-6.878a15.079,15.079,0,0,0-1.81-5.428Z" transform="translate(-318.496 -60.978)" fill="url(#linear-gradient-8)"/>
            <path id="path6194" d="M329.768,79.417c.53,2.644,2.326,4.511,3.439,6.515a10.939,10.939,0,0,1,3.076,4.16c-.779-.119-1.569-.119-2.352-.182-1.113-.738-1.357-2.118-1.81-3.255C331.239,83.971,330,82.173,329.768,79.417Z" transform="translate(-318.73 -66.657)" fill="#e7c889"/>
            <path id="path6196" d="M328.4,77.447c1.552-.024,1.512.506,2.352,1.629,2.359,2.333,2.426,5.357,3.439,8.141-.924-1.051-1.493-2.183-2.352-3.257C330.589,81.765,329.534,79.48,328.4,77.447Z" transform="translate(-320.623 -69.392)" fill="url(#linear-gradient-9)"/>
            <path id="path6208" d="M325.356,78.057c.523-1.254,1.4-1.445,2.567-1.8.516-1.619.865-.361,1.54-.642.774-.115.965-.561,1.54-.9C328.16,72.906,325.643,75.194,325.356,78.057Z" transform="translate(-324.854 -74.074)" fill="#fcf0d1"/>
            <path id="path6210" d="M327.646,76.387A13.053,13.053,0,0,1,327,78.056c-.05.721.576.74.9,1.156-1.213.229-1.54-.385-2.5-.769C324.864,76.643,326.2,76.518,327.646,76.387Z" transform="translate(-324.962 -70.863)" fill="#fcf0d1"/>
            <path id="path6212" d="M326.125,76.675c1.734-1.9,5.139-1.12,6.806.129a21.3,21.3,0,0,1,1.153,4.237c.108-.693-1.06-1.808-1.153-1.925a5.06,5.06,0,0,0-7.575-.642A5.768,5.768,0,0,1,326.125,76.675Z" transform="translate(-324.854 -72.049)" fill="#c78343"/>
            <path id="path6216" d="M332.613,82.731c1.335,1.316,2.937,1.23,4.495,1.54,2.252-.427,3.394.626,5.135,1.669,3.85,1.036,6.431,3.523,7.191,7.317,2.856,3.183,2.309,8.043,2.309,12.454A17.591,17.591,0,0,1,349.433,107c-.781-1.5-1.586-3.167-2.312-4.621-.351-1.321-.413-2.668-.771-3.981a10.553,10.553,0,0,1-6.161-2.309,10.539,10.539,0,0,0-1.411-6.677A31.436,31.436,0,0,1,332.613,82.731Z" transform="translate(-314.78 -62.056)" fill="url(#linear-gradient-10)"/>
            <path id="path6226" d="M332.472,85.56c.583-.43.767.191,1.029.256,1.216.2.635.874,1.027,1.411a5.872,5.872,0,0,0-1.414,2.441,18.862,18.862,0,0,1-.256,5.519c-.8-3.931-.771-5.309-.9-5.777A7.334,7.334,0,0,1,332.472,85.56Z" transform="translate(-315.795 -58.338)" fill="url(#linear-gradient-11)"/>
            <path id="path6245" d="M335.438,87.032a5.659,5.659,0,0,0,3.6.513c3.164.081.867.793,1.54,1.411a5.556,5.556,0,0,1,2.567.9c.982.342.456.838.769,1.414,1.5.47,2.049,1.335,2.954,2.567a3.911,3.911,0,0,0,.129,1.282c-.418,1.691-.831.416-1.8.9-.571,1.464-1.268,1.154-2.7,1.154-.876-.139-1.1-.774-1.54-1.282-.141,1.8-.592,2.4-2.312,2.567-1.134-.22-1.681-1.431-2.183-2.183-1.027.707-1.514.492-2.694.384-1.256-1.158-1.581-2.732-2.056-4.237C331.483,90.015,332.763,87.3,335.438,87.032Z" transform="translate(-316.065 -56.086)" fill="url(#linear-gradient-12)"/>
            <path id="path6264" d="M336.481,88.443c-2.173.826-1.913,2.355-2.441,4.11a3.315,3.315,0,0,1-.513,1.925c1.108-.2,1.316.325,2.054.9.984-.253,1.278-1.242,1.927-2.054,1.5.069,2.321.8,3.85.642-.363-1.115.482-1.122.771-1.8a9.448,9.448,0,0,0-2.054-2.823C339.65,87.8,338.019,87.829,336.481,88.443Z" transform="translate(-313.512 -54.674)" fill="url(#linear-gradient-13)"/>
            <path id="path6280" d="M333.65,91.44c-.244,3.047.743.891,1.283,1.54.346.628,1.029.771,1.543,1.156a13.956,13.956,0,0,0,6.8-1.027c.148-.7.812-.272,1.156-.387a17.351,17.351,0,0,1-.642,2.054,15.485,15.485,0,0,1-4.495.258c-1.829.1-2.969.241-4.237-1.027C332.939,94.227,332.8,92.976,333.65,91.44Z" transform="translate(-314.02 -49.967)" fill="#e8aa54"/>
          </g>
        </g>
        <path id="path6321" d="M331.718,84.264c.7-.915,1.516-.267,2.293.119,2.529.229.941-.1,4.461,1.93,2.321-1.388,5.431,1.414,7.719,3.014a4.126,4.126,0,0,0,.845,3.136c-1.12,1.208-2.431,1.263-3.859,1.569-.934-2.137-2.436-2.293-4.342-2.293-1.046-.033-1.294-1-1.81-1.567-1.185-1.719-2.266-2.734-4.342-2.894A3.407,3.407,0,0,0,331.718,84.264Z" transform="translate(-315.716 -59.82)" fill="url(#linear-gradient-14)"/>
        <path id="path6331" d="M332.877,83.437c-.416,1.591.86,1.118,1.206,1.569a13.963,13.963,0,0,1,2.051,2.049c.6-.189,1.23-.325,1.808-.482,1.765-.227,3.434.633,4.824,1.328.5-.263.9.162,1.328.241-.3-1.3-1.168-1.474-1.93-1.93a6.2,6.2,0,0,0-2.894-1.569C337.063,84.416,335,83.65,332.877,83.437Z" transform="translate(-314.221 -60.321)" fill="url(#linear-gradient-15)"/>
      </g>
      <path id="path6426" d="M344.36,85.725c1.364,1.574,3.621,4.4,3.831,6.513-.877-1.094-3.064,1.087-4.724-3.32-2.059-.831-8.175-3.587-10.088-4.471l9.321,2.044C343.706,85.5,343.309,86.611,344.36,85.725Z" transform="translate(-313.41 -58.918)" fill="url(#linear-gradient-16)"/>
    </g>
    <g id="g5956" transform="translate(365.059 73.589)">
      <g id="g6000">
        <path id="path5822" d="M353.133,98.968c4.456-2.536,6.169-7.454,8.416-11.4.034-.115-.676-.3.222-.762.053-.27.306-.461.162-.817a1.909,1.909,0,0,1,.747-1.354,2.825,2.825,0,0,0,1.206-2.233,8.248,8.248,0,0,0-.521-1.966c-.021-.982.289-1.192,1.1-1.71a13.442,13.442,0,0,0,.568-1.29c-.552-1.435.757-2.419,1.786-3.119a1.794,1.794,0,0,1,3.05.282,4.685,4.685,0,0,0,2.476,1.282c2.677-1.013,4.743,2.135,2.589,3.778-.564,1.8-1.588,2.792-2.536,4.241-.279,1.082-1.419,1.474-2.285,1.968-2.431,5.261-6.365,12.407-5.6,18.59.05,3.585,1.161,8.232.2,11.6-.043,3.893-3.809,9.536-3.809,9.536-2.035,5.182-4.466,5.889-10.064,6.011a5.565,5.565,0,0,1-4.867-2.591c-3.04-2.868-2.837-5.182-3.7-8.965a15.63,15.63,0,0,1,2.661-12.834C346.489,103.591,351.1,99.106,353.133,98.968Z" transform="translate(-341.621 -73.569)" fill="url(#radial-gradient-2)"/>
        <path id="path5833" d="M361.1,73.6a2,2,0,0,0-1.483.716c-1.029.7-2.338,1.684-1.786,3.119a13.442,13.442,0,0,1-.568,1.29c-.81.518-1.12.728-1.1,1.71a8.249,8.249,0,0,1,.521,1.965,2.825,2.825,0,0,1-1.206,2.233,1.909,1.909,0,0,0-.747,1.354c.143.356-.11.547-.162.817-.9.463-.189.647-.222.762-2.039,3.582-3.64,7.965-7.25,10.639,1.684-.788,3.362-1.423,4.7-1.072.743,2.051,0,0,6.31-3.721.158-1.139-2.675,7.05-2.484,5.963.5-.127.845.65,1.12,1.746.475-5.35,4.074-10.728,6.164-15.253.867-.494,2.006-.886,2.285-1.968.948-1.45,1.973-2.441,2.536-4.241,2.154-1.643.088-4.791-2.589-3.778a4.67,4.67,0,0,1-2.474-1.282A1.726,1.726,0,0,0,361.1,73.6Z" transform="translate(-334.415 -73.57)" fill="url(#radial-gradient-3)"/>
        <path id="path5848" d="M355.339,73.848a2.911,2.911,0,0,0-2.947,1.954c.719.275,1.268.609,1.946.879l.029.934c-1.772-.258-1.906.222-3.09,1.142.33-.609.492-.879.8-1.426a10.194,10.194,0,0,1-.277-1.278C352.225,74.28,353.892,74.173,355.339,73.848Z" transform="translate(-328.605 -73.229)" fill="#f9e3a9"/>
        <path id="path5850" d="M351.841,75.363c1.306-2.106,2.582-2.051,3.819-1.3-.506.683,2.312,1.844,3.028,1.762C357.207,77.061,353.4,74.463,351.841,75.363Z" transform="translate(-327.822 -73.589)" fill="#bc8029"/>
        <path id="path5852" d="M358.873,75.215c2.541-.444,3.523,1.345,2.543,3.661.912-2.555-1.669-3.494-2.551-1.648-3.819-.339-4.987-2.52-7.014-2.46C353.531,72.865,356.234,75.3,358.873,75.215Z" transform="translate(-327.807 -72.965)" fill="url(#radial-gradient-4)"/>
        <path id="path5862" d="M358.1,75.161c-1.118-.189-2.391,1.153-2.543,2.121a5.989,5.989,0,0,1-.869,2.266c-.58.6-.948,2.971-.927,3.761.908.043,2.08-1.739,3.083-3.076a18.429,18.429,0,0,0,1.712-3.1C358.783,76.551,359.184,74.918,358.1,75.161Z" transform="translate(-325.156 -71.44)" fill="url(#linear-gradient-17)"/>
        <path id="path5881" d="M352.774,75.034a4.408,4.408,0,0,0,2.393.659,5.737,5.737,0,0,1,1.925.867c.974.186,1.376.418,1.963-.189.439-.1.547.205.822.308-.361.678-.74,1.125-1.036,1.679a2.2,2.2,0,0,0-.919,1.017,3.8,3.8,0,0,0-1.342-1.81,3.267,3.267,0,0,0-1.982-.537,3.064,3.064,0,0,0-3-.506,3,3,0,0,1,1.409-.5C353.111,75.59,352.939,75.407,352.774,75.034Z" transform="translate(-328.161 -71.583)" fill="url(#linear-gradient-18)"/>
        <path id="path5891" d="M352.4,76.312c-.184.583.416.96.647,1.235l1.151-.033c.654.239.487.461.439,1.111l.475-.014c.184.774-.322,1.144-.836,1.607a4.005,4.005,0,0,0-1.015.1,4.071,4.071,0,0,0-.962,1.877c.22,1.829-1.175,2.09-2.159,2.768-.592-.217-.014-.473-.017-.592.748-.373.248-.752.244-.931a2.244,2.244,0,0,1,.716-1.013c-.105-1.01-.021-1.328.759-1.87a2.15,2.15,0,0,0,.908-1.478C352.959,77.926,352.192,77.511,352.4,76.312Z" transform="translate(-330.55 -69.809)" fill="url(#linear-gradient-19)"/>
        <path id="path5893" d="M351.712,78.134a5.172,5.172,0,0,0-.919,1.015l-.279-.256C350.938,78.311,351.1,78.332,351.712,78.134Z" transform="translate(-329.666 -67.28)" fill="#d36c2e"/>
        <path id="path5903" d="M353.905,78.086c.26-.148.549.248.824.373.934.148,1.089-.525,1.392-1.1a3.3,3.3,0,0,1,.869-.423c.21.774-.27,1.266-.556,1.865-.2.545.06.755.236,1.115a3.7,3.7,0,0,1-.96,2.008A16.678,16.678,0,0,0,352,89.562c-.019-.683-.041-1.364-.06-2.044a5.479,5.479,0,0,1,.8-2.73,5.478,5.478,0,0,0,1.409-2.88,1.9,1.9,0,0,1,.862-.619C355.217,79.746,353.8,79.727,353.905,78.086Z" transform="translate(-327.701 -68.937)" fill="#b95c1a"/>
        <path id="path5905" d="M351.047,76.774c.31-.829,1.459-.695,1.942-.848a3.852,3.852,0,0,1,.7.573,2.056,2.056,0,0,1,1.574.416,1.536,1.536,0,0,0-1.282.236,1.357,1.357,0,0,0-.6.346c-.244-.158-.1-.435-.153-.654C352.585,76.845,352.989,75.926,351.047,76.774Z" transform="translate(-328.924 -70.345)" fill="#fcf0d1"/>
        <path id="path5907" d="M351.8,75.148c.2-.318-.084-.559.182-.8a3.913,3.913,0,0,1,1.514.814,5.561,5.561,0,0,1,1.512.616c.4.213.681.416,1.1.628a11.005,11.005,0,0,0-2.4-.724,5.447,5.447,0,0,1-.621-.377A2.08,2.08,0,0,1,351.8,75.148Z" transform="translate(-327.885 -72.533)" fill="#fcf0d1"/>
        <path id="path5909" d="M353.873,76.082a1.968,1.968,0,0,0-1.22,2.345c.37-.072.719.179.955.236a4.025,4.025,0,0,1,.513-1.07,3.154,3.154,0,0,1,1.072-.427c-.27-.055-.645-.189-.822-.241C354.306,76.509,354.1,76.457,353.873,76.082Z" transform="translate(-326.745 -70.128)" fill="#fcf0d1"/>
        <path id="path5911" d="M355.471,78.159c-.045.936-.745,1.509-1.225,2.149-1.536,3.028-2.515,7.208-4.681,9.441a11.413,11.413,0,0,0,2.448-2.183,2.846,2.846,0,0,0,1.3-2.016c.48-1.712,1.6-3.181,2.238-4.686.3-.91,1.025-1.548,1.421-2.484A3.489,3.489,0,0,0,355.471,78.159Z" transform="translate(-330.982 -67.245)" fill="url(#linear-gradient-20)"/>
        <path id="path5921" d="M357.918,78.638a47.221,47.221,0,0,1-2.6,5.068,6.875,6.875,0,0,1-1.091,2.211,10.139,10.139,0,0,0-1.612,4.265,7.6,7.6,0,0,0-.647,2.62c-.248.327-.4.5-.628.793a3.86,3.86,0,0,1-.461-.972,5.819,5.819,0,0,1-.177-1.12c.513-1.23,1.194-2.477,1.777-3.566a5.152,5.152,0,0,0,1.655-2.72,3.707,3.707,0,0,1,.939-2.56A9.179,9.179,0,0,1,357.918,78.638Z" transform="translate(-329.402 -66.58)" fill="#8f3005"/>
        <path id="path5933" d="M355.154,79.907a3.463,3.463,0,0,1-1.727,2.8,22.2,22.2,0,0,0-1.836,3.023c-.535,1.411-4.686,4.4-5.457,4.846.962.27,4.9-2.262,5.641-2.429.7-.186,1.139-1.342,1.311-1.579-.022-1.034.659-1.411,1.3-1.908.413-.451-.229-.884-.255-.984C355.352,82.513,355.355,81.414,355.154,79.907Z" transform="translate(-335.744 -64.818)" fill="#da873e"/>
        <path id="path5923" d="M359.186,82.271a4.522,4.522,0,0,0-1.631,2.247c-.642.444-.97.934-1.894.934-1.471.332-2.543.724-2.758,2.391,0,0-4.526,1.251-5.471,2.632-1.235.958-.912,1.722-2.171,2.868a5.33,5.33,0,0,0-1.156,3,28.413,28.413,0,0,1-1.734,2.582c-.038.509,1.216,1.727,1.473,2.281,1.612-3.418,3.274-7.315,5.015-8.519.236-.191.308-.8,1-.8,2.388-.11,2.775-.915,3.726-.64a5.178,5.178,0,0,0-1.361.351c-1.335.041-3.95.783-4.122,2.1-1.548,1.07-1.318,1.213-2.517,2.825a3.852,3.852,0,0,0-.382,2.431c1.529-1.579,2.309-3.358,5.092-3.778a8.769,8.769,0,0,1,4.819-1.459c1.3-.294,1.323-.263,1.192-1.8a3.936,3.936,0,0,0-2.407-.7,11.34,11.34,0,0,0,.776-.905,3.356,3.356,0,0,1,2.515.917,2.922,2.922,0,0,0,2.166.6c.346-.322.091-1.005,1.1-1.022a21.889,21.889,0,0,1-.408-2.41,4.01,4.01,0,0,1,1.058-2.45c-.545.014-.635-.337-1.693.048-.026-.931-.205-1.5.5-2.214C359.983,82.77,360.275,82.589,359.186,82.271Z" transform="translate(-340.97 -61.537)" fill="url(#linear-gradient-21)"/>
        <path id="path5935" d="M353.547,74.792c1.607-.069,2.455-.47,3.84-.11-.165.416-.518.456-.771.683A3.318,3.318,0,0,1,353.547,74.792Z" transform="translate(-325.454 -72.277)" fill="#f0d699"/>
        <path id="path5937" d="M354.352,77.208c1.144.6,2.221-.592,3.124-1.521a15.209,15.209,0,0,1-1.182,2.123,2.781,2.781,0,0,1-1.127.143c.141.595-.394.824-.533,1.115C354.519,78.455,354.436,77.824,354.352,77.208Z" transform="translate(-324.336 -70.677)" fill="#a9602c"/>
        <path id="path5939" d="M343.88,98.369a3.991,3.991,0,0,0,4.538.53c.939-1.435,1-.487,1.8-.382,1.309.432,1.684-.014,2.467-.731,1.8-.716,3.365-2.45,4.638-3.766a4.271,4.271,0,0,1,.081,2.749c-1.036.392-1.39,1.454-1.97,2.257-.418,2.625-2.985,3.057-5.45,3.129C348.078,105.366,342.138,102.011,343.88,98.369Z" transform="translate(-339.312 -45.227)" fill="#891402"/>
        <path id="path5944" d="M348.1,86.134c.072-1.3.707-.6,1.216-1.027a3.132,3.132,0,0,0,2.016-.607c.012-.64.511-.678.762-1.013a4,4,0,0,1-.623,1.889,20.79,20.79,0,0,0-5.144,1.908A6.4,6.4,0,0,0,348.1,86.134Z" transform="translate(-335.485 -59.847)" fill="url(#linear-gradient-22)"/>
        <path id="path5954" d="M344.877,87.846c2.46-1.213,2.094.1,1.851,1.485a4.977,4.977,0,0,0-1.982,1.817c1.438.019,1.072.189,1.5,1.058a8.9,8.9,0,0,0-.807,3.324c-.275,1.18-.943,1.526-1.746,2.25-.239,1.727-.1,2.185-1.156,3-.645-.755-.523-1.414-.631-2.293a9.089,9.089,0,0,1,.227-3.857c-.458-2.274.576-3,1.342-4.44A3,3,0,0,1,344.877,87.846Z" transform="translate(-341.784 -54.463)" fill="#8e1201"/>
        <path id="path5980" d="M352.453,75.471a4.383,4.383,0,0,1,1.576-.062l1.76,1.612a3.385,3.385,0,0,1,1.86.47l-2.281-.2C354.3,76.673,353.5,76.09,352.453,75.471Z" transform="translate(-326.972 -71.125)" fill="#c67d3b"/>
        <path id="path5982" d="M353.153,83.64a3,3,0,0,1-.234,1.946c-.306.635-.017,1.18-.026,1.81a4.034,4.034,0,0,1-.16,1.6,7.462,7.462,0,0,0,.05,2.481,8.85,8.85,0,0,1,.088,2.816l.26,2.343a3.543,3.543,0,0,0-.545,1.192,14.5,14.5,0,0,1-1.23-2.914,6.469,6.469,0,0,1-.236-3.138l-.607-.384a8.489,8.489,0,0,0,.42-3.324c.881-.258.943-1.053,1.266-1.837A4.754,4.754,0,0,1,353.153,83.64Z" transform="translate(-329.664 -59.636)" fill="#8e1201"/>
        <path id="path5984" d="M345.762,87.855a2.571,2.571,0,0,0,.836-1.392c.22-.7.621-.6,1.294-.578a2.192,2.192,0,0,0,1.433-.468c.363.193.3.475.346.891-.669.091-.638.272-.962.786-.294.779-.9.905-1.624.986a2.029,2.029,0,0,1-1.758.876C345.029,88.02,345.518,88.092,345.762,87.855Z" transform="translate(-336.994 -57.169)" fill="url(#linear-gradient-23)"/>
        <path id="path5994" d="M349.8,83.664a7.44,7.44,0,0,1-1.113.556c-.671,0-.807.327-1.087.8.048.437-.334.513-.475.733a7.847,7.847,0,0,0-1.827,1.378,5.292,5.292,0,0,1,1.746-1c.564-.225,1.216-.552,1.71-.747a5.029,5.029,0,0,1,1.311-1.013,1.64,1.64,0,0,0,.461-.855A2.265,2.265,0,0,0,349.8,83.664Z" transform="translate(-336.905 -59.808)" fill="url(#linear-gradient-24)"/>
        <path id="path5998" d="M351.86,85.305a10.894,10.894,0,0,0,.549,1.61,1.546,1.546,0,0,1-.026,1.982,13.43,13.43,0,0,0-.712,2.491,9.831,9.831,0,0,1-.53-2.539A11.031,11.031,0,0,1,351.86,85.305Z" transform="translate(-328.794 -57.325)" fill="#641102"/>
      </g>
    </g>
    <g id="g5800" transform="translate(329.659 107.544)">
      <g id="g18261" transform="translate(44.225 3.057)">
        <path id="path18255" d="M354.354,89.3l-.8-.215c-1.39,1.705-1.729,4.934-2.095,6.718l.967.43Z" transform="translate(-337.183 -89.087)" fill="#eceae1"/>
        <path id="path18257" d="M357.556,94.108l2.957,1.237c.774-4.313,1.622-5.693,2.185-6.228l-10.845,56.209h-6.374Z" transform="translate(-345.479 -89.045)" fill="url(#linear-gradient-25)"/>
        <path id="path18259" d="M356.284,91.61l.607.229-8.686,50.025h-.511Z" transform="translate(-342.404 -85.585)" fill="url(#linear-gradient-26)"/>
      </g>
      <path id="path18253" d="M326.981,89.3l.8-.215c1.387,1.705,1.729,4.934,2.094,6.718l-.967.43Z" transform="translate(-326.933 -86.03)" fill="#dbd7c7"/>
      <path id="path18229" d="M332.1,94.108l-2.957,1.237c-.776-4.313-1.624-5.693-2.185-6.228l10.845,56.209h6.374Z" transform="translate(-326.961 -85.988)" fill="url(#linear-gradient-27)"/>
      <path id="path18168" d="M333.687,87.807c-3.081,0-5.579,2.216-5.579,4.953a4.328,4.328,0,0,0,.093.874h-.093l8.753,53.51h38.29l8.753-53.51h-.088a4.5,4.5,0,0,0,.088-.874c0-2.737-2.5-4.953-5.579-4.953s-5.581,2.216-5.581,4.953a4.51,4.51,0,0,0,.093.874h-.182a4.326,4.326,0,0,0,.088-.874c0-2.737-2.5-4.953-5.579-4.953s-5.579,2.216-5.579,4.953a4.329,4.329,0,0,0,.091.874h-.181a4.333,4.333,0,0,0,.091-.874c0-2.737-2.5-4.953-5.581-4.953s-5.579,2.216-5.579,4.953a4.51,4.51,0,0,0,.093.874h-.182a4.5,4.5,0,0,0,.088-.874c0-2.737-2.5-4.953-5.579-4.953s-5.581,2.216-5.581,4.953a4.513,4.513,0,0,0,.093.874h-.181a4.326,4.326,0,0,0,.088-.874c0-2.737-2.5-4.953-5.579-4.953Z" transform="translate(-325.369 -87.807)" fill="url(#radial-gradient-5)"/>
      <path id="rect4478-8-5" d="M348.167,93.414a2.362,2.362,0,0,0-2.367,2.367v43.58h4.736V95.781A2.362,2.362,0,0,0,348.167,93.414Zm-6.023,8.031a2.362,2.362,0,0,0-2.367,2.367V139.36h4.736V103.812A2.362,2.362,0,0,0,342.144,101.445Zm12.046,0a2.362,2.362,0,0,0-2.367,2.367V139.36h4.736V103.812A2.362,2.362,0,0,0,354.19,101.445ZM336.121,114.16a2.362,2.362,0,0,0-2.367,2.367V139.36h4.736V116.527A2.362,2.362,0,0,0,336.121,114.16Zm24.092,0a2.362,2.362,0,0,0-2.367,2.367V139.36h4.736V116.527A2.362,2.362,0,0,0,360.213,114.16Z" transform="translate(-317.531 -80.023)" fill="url(#linear-gradient-28)"/>
      <path id="path18233" d="M328.712,91.61l-.607.229,8.686,50.025h.511Z" transform="translate(-325.373 -82.528)" fill="url(#linear-gradient-29)"/>
    </g>
  </g>
</svg>
