<svg xmlns="http://www.w3.org/2000/svg" xmlns:xlink="http://www.w3.org/1999/xlink" viewBox="0 0 120.664 93.107"><defs><linearGradient id="a" x1="-2.768" y1="11.874" x2="-4.812" y2="13.805" gradientUnits="objectBoundingBox"><stop offset="0" stop-color="#fff"/><stop offset="1" stop-color="#fd7765"/></linearGradient><linearGradient id="b" x1="-5.751" y1="67.625" x2="-9.45" y2="62.18" gradientUnits="objectBoundingBox"><stop offset="0" stop-color="#ff3d15"/><stop offset="1" stop-color="#ffb4b0"/></linearGradient><linearGradient id="c" x1="-4.095" y1="44.391" x2="-6.882" y2="40.879" gradientUnits="objectBoundingBox"><stop offset="0" stop-color="#ff3000"/><stop offset="1" stop-color="#ffb4b0"/></linearGradient><linearGradient id="d" x1="-4.265" y1="29.677" x2="-7.2" y2="27.345" gradientUnits="objectBoundingBox"><stop offset="0" stop-color="#ff5235"/><stop offset="1" stop-color="#ffb4b0"/></linearGradient><linearGradient id="e" x1="-11.786" y1="32.849" x2="-18.929" y2="32.849" xlink:href="#a"/><linearGradient id="f" x1="-6.56" y1="273.958" x2="-22.592" y2="221.472" xlink:href="#a"/><linearGradient id="g" x1="-19.588" y1="88.16" x2="-33.322" y2="89.378" gradientUnits="objectBoundingBox"><stop offset="0" stop-color="#fff"/><stop offset="1" stop-color="#ff8979"/></linearGradient><linearGradient id="h" x1="-2.326" y1="13.202" x2="-4.494" y2="13.378" xlink:href="#g"/><linearGradient id="i" x1="-21.619" y1="131.908" x2="-36.277" y2="133.726" xlink:href="#g"/><linearGradient id="j" x1="-11.432" y1="197.305" x2="-19.145" y2="200.014" xlink:href="#g"/><linearGradient id="k" x1="-3.224" y1="21.793" x2="-5.045" y2="20.027" gradientUnits="objectBoundingBox"><stop offset="0" stop-color="#ff4321"/><stop offset="1" stop-color="#ffb4b0"/></linearGradient><linearGradient id="l" x1="-2.074" y1="11.144" x2="-3.519" y2="12.359" gradientUnits="objectBoundingBox"><stop offset="0" stop-color="#fff"/><stop offset="0.12" stop-color="#ffece9"/><stop offset="0.399" stop-color="#ffc6bd"/><stop offset="0.649" stop-color="#ffaa9c"/><stop offset="0.858" stop-color="#ff9a89"/><stop offset="1" stop-color="#ff9482"/></linearGradient><linearGradient id="m" x1="-10.481" y1="47.779" x2="-14.156" y2="43.801" xlink:href="#g"/><linearGradient id="n" x1="-9.938" y1="67.185" x2="-20.093" y2="68.113" gradientUnits="objectBoundingBox"><stop offset="0" stop-color="#fff"/><stop offset="1" stop-color="#e17667"/></linearGradient><linearGradient id="o" x1="-0.858" y1="21.989" x2="-3.534" y2="24.64" gradientUnits="objectBoundingBox"><stop offset="0" stop-color="#fff"/><stop offset="1" stop-color="#e06655"/></linearGradient></defs><g transform="translate(-89.029 -133.61)"><path d="M137.657,182.366l11.767-.729,3.084-21.541Z" fill="url(#a)"/><path d="M158.266,151.459l-5.758,8.637-3.084,21.541,23.7-1.471,6.522-10.069Z" fill="#ff9385"/><path d="M98.694,168.387l3.681,4.852,24.47,6.33-7.917-23.144Z" fill="#ff7a68"/><path d="M118.927,156.424l7.917,23.144,10.812,2.8-6.989-32.886Z" fill="#fa9a87"/><path d="M173.126,180.166,190,179.119,179.648,170.1Z" fill="#ffa89f"/><path d="M153.787,151.137l-23.12-1.657,6.989,32.886,14.852-22.27Z" fill="#fc614d"/><path d="M190.27,153.7l1.751-2.7-9.578-1.8Z" fill="url(#b)"/><path d="M176.131,148.018l-17.864,3.441L179.648,170.1l4.811-7.424L179.745,148.7Z" fill="#ff7a68"/><path d="M179.31,147.4l3.132,1.8,9.578,1.8-12.047-6.968Z" fill="url(#c)"/><path d="M179.745,148.7l4.713,13.976,5.811-8.975-7.827-4.495Z" fill="#ff9e86"/><path d="M192.02,151l-11.358-10.474-.689,3.506Z" fill="url(#d)"/><path d="M152.508,160.1l5.758-8.637-4.479-.322Z" fill="url(#e)"/><path d="M179.31,147.4l-3.179.615,3.614.678Z" fill="url(#f)"/><path d="M182.442,149.2l-3.132-1.8.435,1.293Z" fill="#ffaf9b"/><path d="M116.715,143.393l-.837-.367-2.563,3.307,1.911-.734Z" fill="url(#g)"/><path d="M115.226,145.6l-1.911.734L97.467,166.77l1.227,1.617,20.233-11.962Z" fill="url(#h)"/><path d="M118.4,144.126l-1.684-.733-1.489,2.207Z" fill="url(#i)"/><path d="M118.927,156.424l11.74-6.945-9.441-4.12-6,.24Z" fill="#ffa89f"/><path d="M121.227,145.36l-2.828-1.234-3.172,1.474Z" fill="url(#j)"/><path d="M190,179.119l-5.545-16.447-4.811,7.424Z" fill="#ffa89f"/><path d="M173.126,180.166l-30.154,46.551L190,179.119Z" fill="#fc614d"/><path d="M126.845,179.568l16.127,47.148-5.316-44.351Z" fill="#e84f36"/><path d="M149.424,181.637l-6.452,45.08,30.154-46.551Z" fill="#e84f36"/><path d="M137.657,182.366l5.316,44.351,6.452-45.08Z" fill="#ff8b80"/><path d="M102.375,173.239l40.6,53.478-16.127-47.148Z" fill="#fc614d"/><path d="M94.107,171.1l48.865,55.617-40.6-53.478Z" fill="#ff7a68"/><path d="M98.694,168.387,94.107,171.1l8.267,2.138Z" fill="#ff9385"/><path d="M142.972,226.717l66.72-61.872L190,179.119Z" fill="#fc614d"/><path d="M192.02,151l17.672,13.846-29.03-24.32Z" fill="#ee684f"/><path d="M190.27,153.7l19.423,11.147L192.02,151Z" fill="url(#k)"/><path d="M184.458,162.672,190,179.119l19.69-14.274L190.27,153.7Z" fill="url(#l)"/><path d="M121.278,136.624,89.029,155.654l26.848-12.628Z" fill="#ee684f"/><path d="M116.715,143.393l4.563-6.77-5.4,6.4Z" fill="url(#m)"/><path d="M164.551,135.108l-23.534-1.5-19.739,3.014-4.563,6.77,1.684.733,2.828,1.234,9.441,4.12,23.12,1.657,4.479.322,17.864-3.441,3.179-.615.663-3.373.689-3.506Z" fill="#ff9385"/><path d="M97.467,166.77l-3.36,4.33,4.587-2.714Z" fill="url(#n)"/><path d="M113.315,146.334l-24.286,9.321,8.438,11.115Z" fill="#fd7157"/><path d="M115.877,143.027,89.029,155.654l24.286-9.321Z" fill="url(#o)"/><path d="M89.029,155.654,94.107,171.1l3.36-4.33Z" fill="#ff9385"/></g></svg>