<svg xmlns="http://www.w3.org/2000/svg" xmlns:xlink="http://www.w3.org/1999/xlink" viewBox="0 0 95.759 86.524"><defs><linearGradient id="a" x1="-0.428" y1="0.014" x2="0.238" y2="0.566" gradientUnits="objectBoundingBox"><stop offset="0" stop-color="#fc8278"/><stop offset="0.175" stop-color="#e47164"/><stop offset="0.294" stop-color="#d96a5c"/><stop offset="0.733" stop-color="#b84d3d"/><stop offset="1" stop-color="#a23b29"/></linearGradient><linearGradient id="b" x1="0.268" y1="-0.439" x2="0.612" y2="0.347" gradientUnits="objectBoundingBox"><stop offset="0" stop-color="#6a0f00"/><stop offset="0.068" stop-color="#761909"/><stop offset="0.225" stop-color="#8e2c1b"/><stop offset="0.371" stop-color="#9d3726"/><stop offset="0.493" stop-color="#a23c2a"/><stop offset="0.621" stop-color="#9d3826"/><stop offset="0.766" stop-color="#8f2d1c"/><stop offset="0.919" stop-color="#791b0b"/><stop offset="1" stop-color="#6a0f00"/></linearGradient><clipPath id="c"><path d="M1242.865,228.8l-8.236,2.052a1.526,1.526,0,0,0,.452-.2,2.044,2.044,0,0,0,.372-.31,3.675,3.675,0,0,0,.318-.384c.1-.136.194-.277.288-.417.062-.091.122-.181.183-.268s.12-.17.18-.248.12-.15.181-.215a1.478,1.478,0,0,1,.187-.17q.112-.084.23-.156t.24-.132q.122-.06.248-.107c.084-.031.169-.058.254-.081l8.33-2.208a2.741,2.741,0,0,0-.264.084c-.087.033-.172.07-.257.112s-.167.088-.248.139-.16.105-.237.164a1.506,1.506,0,0,0-.192.18,2.877,2.877,0,0,0-.186.228c-.062.083-.123.171-.184.263s-.124.188-.187.284c-.1.149-.192.3-.294.443a3.858,3.858,0,0,1-.326.407,2.072,2.072,0,0,1-.384.328A1.533,1.533,0,0,1,1242.865,228.8Z" transform="translate(-1234.629 -225.962)" fill="none"/></clipPath><linearGradient id="d" x1="-0.07" y1="-0.551" x2="0.785" y2="-0.551" gradientUnits="objectBoundingBox"><stop offset="0" stop-color="#ee968e"/><stop offset="0.302" stop-color="#d9756d"/><stop offset="0.387" stop-color="#d36c63"/><stop offset="1" stop-color="#b37063"/></linearGradient><linearGradient id="e" x1="-0.103" y1="-0.132" x2="0.618" y2="0.6" gradientUnits="objectBoundingBox"><stop offset="0" stop-color="#bd5242"/><stop offset="0.363" stop-color="#a23c2a"/><stop offset="0.373" stop-color="#a03a28"/><stop offset="0.627" stop-color="#822212"/><stop offset="0.845" stop-color="#701404"/><stop offset="1" stop-color="#6a0f00"/></linearGradient><clipPath id="f"><path d="M1249.558,250.191l-8.5,1.631-.024,0-.024,0-.024,0-.024,0a2.555,2.555,0,0,1-.357.029,2.855,2.855,0,0,1-.366-.019,3.092,3.092,0,0,1-.37-.067,3.41,3.41,0,0,1-.369-.114,1.672,1.672,0,0,1-.237-.114c-.081-.046-.164-.1-.247-.158s-.17-.123-.257-.19-.176-.138-.266-.211c-.151-.119-.3-.24-.455-.353a4.47,4.47,0,0,0-.464-.3,2.055,2.055,0,0,0-.472-.2,1.2,1.2,0,0,0-.48-.032l8.306-1.775a1.229,1.229,0,0,1,.5.037,2.137,2.137,0,0,1,.493.213,4.654,4.654,0,0,1,.486.327c.161.121.32.251.478.38.095.077.188.154.28.226s.181.142.27.205.174.121.259.171a1.753,1.753,0,0,0,.248.123,3.387,3.387,0,0,0,.385.124,3.126,3.126,0,0,0,.386.074,2.863,2.863,0,0,0,.381.023,2.557,2.557,0,0,0,.371-.029l.025,0,.025,0,.025,0Z" transform="translate(-1236.616 -248.323)" fill="none"/></clipPath><linearGradient id="g" x1="0.016" y1="-1.086" x2="0.984" y2="-1.086" xlink:href="#d"/><linearGradient id="h" x1="0.046" y1="0.235" x2="1.432" y2="0.235" gradientUnits="objectBoundingBox"><stop offset="0" stop-color="#a23c2a"/><stop offset="0.016" stop-color="#a03a28"/><stop offset="0.414" stop-color="#822212"/><stop offset="0.756" stop-color="#701404"/><stop offset="1" stop-color="#6a0f00"/></linearGradient><linearGradient id="i" x1="-0.252" y1="0.768" x2="0.664" y2="0.171" gradientUnits="objectBoundingBox"><stop offset="0.006" stop-color="#df503b"/><stop offset="1" stop-color="#ff887f"/></linearGradient><linearGradient id="j" x1="-0.2" y1="0.727" x2="0.72" y2="0.134" gradientUnits="objectBoundingBox"><stop offset="0.006" stop-color="#df503b"/><stop offset="0.995" stop-color="#ff887f"/></linearGradient><linearGradient id="k" x1="-0.569" y1="0.413" x2="0.315" y2="0.936" gradientUnits="objectBoundingBox"><stop offset="0" stop-color="#fdd1ce"/><stop offset="0.071" stop-color="#f9c3bf"/><stop offset="0.225" stop-color="#f3aaa4"/><stop offset="0.363" stop-color="#ef9b93"/><stop offset="0.468" stop-color="#ee968e"/><stop offset="0.883" stop-color="#d9756d"/><stop offset="1" stop-color="#d36c63"/></linearGradient><clipPath id="l"><path d="M1164.773,261.248l7.3-1.663q-.024.291-.071.558a5.263,5.263,0,0,1-.115.514,4.462,4.462,0,0,1-.159.469,3.731,3.731,0,0,1-.2.424l-7.284,1.528a3.476,3.476,0,0,0,.2-.4,4.1,4.1,0,0,0,.155-.437,4.8,4.8,0,0,0,.113-.478Q1164.747,261.519,1164.773,261.248Z" transform="translate(-1164.236 -259.585)" fill="none"/></clipPath><linearGradient id="m" x1="0.393" y1="0.166" x2="0.816" y2="1.001" gradientUnits="objectBoundingBox"><stop offset="0" stop-color="#a55e54"/><stop offset="0.005" stop-color="#a55e54"/><stop offset="0.189" stop-color="#be655c"/><stop offset="0.358" stop-color="#cd6a61"/><stop offset="0.495" stop-color="#d36c63"/><stop offset="0.636" stop-color="#ce6a61"/><stop offset="0.802" stop-color="#bf665c"/><stop offset="0.981" stop-color="#a75e54"/><stop offset="1" stop-color="#a55e54"/></linearGradient><clipPath id="n"><path d="M1145.371,240.687l-6.791,1.983a1.756,1.756,0,0,0,.474-.224,2.767,2.767,0,0,0,.421-.347,5.379,5.379,0,0,0,.384-.426c.123-.15.242-.307.361-.462.079-.1.157-.2.235-.3s.154-.191.231-.279.154-.169.231-.242a1.952,1.952,0,0,1,.235-.192q.118-.08.24-.15c.082-.047.164-.09.248-.131s.169-.077.255-.111.172-.065.26-.092l6.964-2.182q-.138.043-.273.1t-.268.118c-.088.043-.175.09-.26.139s-.17.1-.252.159a2,2,0,0,0-.246.2c-.081.078-.161.165-.242.259s-.161.194-.242.3-.163.212-.246.322c-.123.166-.248.333-.377.494a5.671,5.671,0,0,1-.4.456,2.89,2.89,0,0,1-.442.37A1.816,1.816,0,0,1,1145.371,240.687Z" transform="translate(-1138.58 -237.532)" fill="none"/></clipPath><linearGradient id="o" x1="0.495" y1="0.779" x2="0.566" y2="1.197" gradientUnits="objectBoundingBox"><stop offset="0" stop-color="#b6332a"/><stop offset="0.315" stop-color="#a22b22"/><stop offset="0.715" stop-color="#90241b"/><stop offset="1" stop-color="#8a2219"/></linearGradient><clipPath id="p"><path d="M1137.721,247.5l-.039.011-.039.009-.04.008-.04.006,6.768-2.027.042-.006.042-.008.041-.01.041-.011Z" transform="translate(-1137.564 -245.471)" fill="none"/></clipPath><linearGradient id="q" x1="-0.05" y1="0.228" x2="0.799" y2="1.042" xlink:href="#d"/><clipPath id="r"><path d="M1152.243,264.578l-7.169,1.468-.043.009-.043.008-.043.007-.044.007a3.443,3.443,0,0,1-.437.038,3.768,3.768,0,0,1-.447-.016,3.911,3.911,0,0,1-.45-.069,4.239,4.239,0,0,1-.447-.121,2.09,2.09,0,0,1-.284-.123c-.1-.05-.2-.108-.3-.172s-.2-.134-.306-.208-.209-.151-.316-.23c-.179-.131-.359-.263-.542-.386a5.089,5.089,0,0,0-.555-.331,2.514,2.514,0,0,0-.57-.211,1.611,1.611,0,0,0-.588-.028l-.033.005-.033.006-.033.007-.033.008,6.846-1.635.035-.008.035-.007.035-.006.034-.005a1.678,1.678,0,0,1,.622.033,2.659,2.659,0,0,1,.6.231,5.47,5.47,0,0,1,.589.359c.194.133.386.277.576.418.113.085.225.169.335.249s.219.156.325.226.211.133.313.187a2.147,2.147,0,0,0,.3.134,4.3,4.3,0,0,0,.472.132,4.106,4.106,0,0,0,.475.076,3.916,3.916,0,0,0,.471.019,3.622,3.622,0,0,0,.461-.039l.046-.007.045-.008.045-.008Z" transform="translate(-1139.533 -262.569)" fill="none"/></clipPath><linearGradient id="s" x1="0.733" y1="1.508" x2="0.639" y2="0.878" xlink:href="#o"/><linearGradient id="t" x1="-0.032" y1="0.792" x2="0.742" y2="0.213" gradientUnits="objectBoundingBox"><stop offset="0.019" stop-color="#f99f96"/><stop offset="1" stop-color="#fff"/></linearGradient><linearGradient id="u" x1="-0.035" y1="0.791" x2="0.74" y2="0.214" gradientUnits="objectBoundingBox"><stop offset="0.019" stop-color="#f99f96"/><stop offset="0.994" stop-color="#ffe7e6"/></linearGradient><linearGradient id="v" x1="0.273" y1="0.587" x2="1.79" y2="0.587" xlink:href="#d"/><linearGradient id="w" x1="-0.421" y1="0.815" x2="0.581" y2="1.214" gradientUnits="objectBoundingBox"><stop offset="0" stop-color="#ff817f"/><stop offset="0.019" stop-color="#fb7d7b"/><stop offset="0.175" stop-color="#e66460"/><stop offset="0.313" stop-color="#d8554f"/><stop offset="0.419" stop-color="#d4504a"/><stop offset="0.578" stop-color="#cd4942"/><stop offset="0.821" stop-color="#bd392d"/><stop offset="1" stop-color="#ae2a19"/></linearGradient><linearGradient id="x" x1="0.062" y1="0.861" x2="0.715" y2="0.391" gradientUnits="objectBoundingBox"><stop offset="0" stop-color="#f55243"/><stop offset="1" stop-color="#ff8e8e"/></linearGradient><linearGradient id="y" x1="0.061" y1="0.86" x2="0.714" y2="0.393" gradientUnits="objectBoundingBox"><stop offset="0.015" stop-color="#f55243"/><stop offset="0.999" stop-color="#ff817f"/></linearGradient><linearGradient id="z" x1="-0.036" y1="0.28" x2="2.062" y2="1.006" gradientUnits="objectBoundingBox"><stop offset="0" stop-color="#b6332a"/><stop offset="0.119" stop-color="#b03127"/><stop offset="0.633" stop-color="#9e2e1c"/><stop offset="1" stop-color="#982d19"/></linearGradient></defs><g transform="translate(-1036.628 -91.458)"><g transform="translate(1096.264 101.185)"><g transform="translate(4.272 17.177)"><path d="M1245.985,176.364l-8.082,3.188.376-.168,8.095-3.194Z" transform="translate(-1237.903 -176.19)" fill="#803813"/></g><path d="M1236.922,140.35a11,11,0,0,1-1.516-1.47,12.129,12.129,0,0,1-1.249-1.765,12.658,12.658,0,0,1-1.52-4.127,11.162,11.162,0,0,1-.149-2.9,9.028,9.028,0,0,1,.572-2.536,7.128,7.128,0,0,1,1.192-2.028,5.826,5.826,0,0,1,1.706-1.387l-7.877,4.187a5.8,5.8,0,0,0-1.658,1.331,6.9,6.9,0,0,0-1.167,1.925,8.487,8.487,0,0,0-.576,2.393,10.268,10.268,0,0,0,.115,2.724,11.48,11.48,0,0,0,1.421,3.861,11.028,11.028,0,0,0,1.184,1.644,10.16,10.16,0,0,0,1.445,1.365l.38.292,8.095-3.195Z" transform="translate(-1224.578 -123.488)" fill="url(#a)"/><path d="M1254.7,234.091l-8.513,1.593a2.766,2.766,0,0,0,.356-.091,2.488,2.488,0,0,0,.332-.136,2.428,2.428,0,0,0,.307-.181,2.477,2.477,0,0,0,.829-.974,3.649,3.649,0,0,0,.307-1.009,6.367,6.367,0,0,0,.067-1.265,11.157,11.157,0,0,0-.172-1.517,11.287,11.287,0,0,0-.36-1.488,6.655,6.655,0,0,0-.5-1.181,3.982,3.982,0,0,0-.637-.873,2.764,2.764,0,0,0-.776-.562,2.861,2.861,0,0,0-.365-.145,2.766,2.766,0,0,0-.376-.09,2.692,2.692,0,0,0-.385-.036,2.834,2.834,0,0,0-.393.019l-.105.014-.105.018-.1.023-.1.026,8.318-2.244.108-.027.109-.023.109-.019.109-.015a2.849,2.849,0,0,1,.408-.017,2.761,2.761,0,0,1,.792.141,2.871,2.871,0,0,1,1.192.762,4.362,4.362,0,0,1,.672.935,7.311,7.311,0,0,1,.532,1.263,13.519,13.519,0,0,1,.588,3.209,6.93,6.93,0,0,1-.055,1.349,3.925,3.925,0,0,1-.306,1.075,2.575,2.575,0,0,1-.56.8,2.53,2.53,0,0,1-.289.239,2.471,2.471,0,0,1-.317.191,2.544,2.544,0,0,1-.343.144,2.74,2.74,0,0,1-.369.1" transform="translate(-1237.795 -191.567)" fill="url(#b)"/><g transform="translate(3.232 32.981)" style="isolation:isolate"><g clip-path="url(#c)"><path d="M1242.865,228.8l-8.236,2.052a1.526,1.526,0,0,0,.452-.2,2.044,2.044,0,0,0,.372-.31,3.675,3.675,0,0,0,.318-.384c.1-.136.194-.277.288-.417.062-.091.122-.181.183-.268s.12-.17.18-.248.12-.15.181-.215a1.478,1.478,0,0,1,.187-.17q.112-.084.23-.156t.24-.132q.122-.06.248-.107c.084-.031.169-.058.254-.081l8.33-2.208a2.741,2.741,0,0,0-.264.084c-.087.033-.172.07-.257.112s-.167.088-.248.139-.16.105-.237.164a1.506,1.506,0,0,0-.192.18,2.877,2.877,0,0,0-.186.228c-.062.083-.123.171-.184.263s-.124.188-.187.284c-.1.149-.192.3-.294.443a3.858,3.858,0,0,1-.326.407,2.072,2.072,0,0,1-.384.328,1.533,1.533,0,0,1-.468.205" transform="translate(-1234.629 -225.962)" fill="url(#d)"/></g></g><path d="M1235.231,194.49a1.281,1.281,0,0,1-.364-.546,6.435,6.435,0,0,1-.286-1.014c-.092-.425-.186-.941-.3-1.564l-1.349-7.6q-.049-.274-.106-.548t-.123-.547q-.066-.273-.139-.545t-.156-.541a10.284,10.284,0,0,1,.8-1.606,9.121,9.121,0,0,1,1.019-1.361,8.09,8.09,0,0,1,1.207-1.089,7.358,7.358,0,0,1,1.364-.792l-8.082,3.188a7.335,7.335,0,0,0-1.321.759,7.974,7.974,0,0,0-1.172,1.035,8.865,8.865,0,0,0-.994,1.288,9.858,9.858,0,0,0-.785,1.515h0q.076.252.145.506t.128.51q.061.256.112.512t.1.513l1.22,7.109c.1.582.185,1.065.269,1.463a5.789,5.789,0,0,0,.264.947,1.17,1.17,0,0,0,.344.509.788.788,0,0,0,.507.15l8.224-2.088A.817.817,0,0,1,1235.231,194.49Z" transform="translate(-1224.45 -159.386)" fill="url(#e)"/><g transform="translate(3.863 40.08)" style="isolation:isolate"><g clip-path="url(#f)"><path d="M1249.558,250.191l-8.5,1.631-.024,0-.024,0-.024,0-.024,0a2.555,2.555,0,0,1-.357.029,2.855,2.855,0,0,1-.366-.019,3.092,3.092,0,0,1-.37-.067,3.41,3.41,0,0,1-.369-.114,1.672,1.672,0,0,1-.237-.114c-.081-.046-.164-.1-.247-.158s-.17-.123-.257-.19-.176-.138-.266-.211c-.151-.119-.3-.24-.455-.353a4.47,4.47,0,0,0-.464-.3,2.055,2.055,0,0,0-.472-.2,1.2,1.2,0,0,0-.48-.032l8.306-1.775a1.229,1.229,0,0,1,.5.037,2.137,2.137,0,0,1,.493.213,4.654,4.654,0,0,1,.486.327c.161.121.32.251.478.38.095.077.188.154.28.226s.181.142.27.205.174.121.259.171a1.753,1.753,0,0,0,.248.123,3.387,3.387,0,0,0,.385.124,3.126,3.126,0,0,0,.386.074,2.863,2.863,0,0,0,.381.023,2.557,2.557,0,0,0,.371-.029l.025,0,.025,0,.025,0,.025,0" transform="translate(-1236.616 -248.323)" fill="url(#g)"/></g></g><path d="M1243.668,253.8c-.112-.632-.2-1.157-.265-1.591a7.058,7.058,0,0,1-.091-1.049,1.242,1.242,0,0,1,.13-.614.629.629,0,0,1,.4-.285L1235.524,252a.618.618,0,0,0-.383.269,1.154,1.154,0,0,0-.13.576,6.427,6.427,0,0,0,.076.981c.055.406.137.9.238,1.487l2.89,16.833,8.654-.311Z" transform="translate(-1231.657 -209.564)" fill="url(#h)"/><g transform="translate(7.874 0)"><path d="M1255.461,122.091a7.08,7.08,0,0,1,3.028.738,9.791,9.791,0,0,1,2.686,1.954,12.128,12.128,0,0,1,2.087,2.87,12.634,12.634,0,0,1,1.23,3.517,11.693,11.693,0,0,1,.207,2.034,10.126,10.126,0,0,1-.157,1.928,8.534,8.534,0,0,1-.514,1.762,7.2,7.2,0,0,1-.866,1.535l-.254.341.415.123a9.542,9.542,0,0,1,2.871,1.43,12.482,12.482,0,0,1,2.449,2.352,14.825,14.825,0,0,1,1.874,3.053,15.511,15.511,0,0,1,1.141,3.551l5.841,30.375-20.911,4.7-3.2-18.031c-.112-.632-.2-1.157-.265-1.591a7.059,7.059,0,0,1-.091-1.049,1.243,1.243,0,0,1,.13-.614.629.629,0,0,1,.4-.285,1.061,1.061,0,0,1,.438.028,1.823,1.823,0,0,1,.433.184,3.986,3.986,0,0,1,.427.286c.141.106.281.221.42.335.1.079.2.16.3.238s.2.154.3.225.2.137.3.194a2.106,2.106,0,0,0,.3.144,3.683,3.683,0,0,0,.435.139,3.47,3.47,0,0,0,.436.081,3.239,3.239,0,0,0,.431.023,3,3,0,0,0,.419-.034,2.838,2.838,0,0,0,.4-.09,2.557,2.557,0,0,0,.37-.144,2.459,2.459,0,0,0,.339-.2,2.527,2.527,0,0,0,.308-.253,2.575,2.575,0,0,0,.56-.8,3.925,3.925,0,0,0,.306-1.075,6.93,6.93,0,0,0,.055-1.349,13.519,13.519,0,0,0-.588-3.209,7.311,7.311,0,0,0-.532-1.263,4.362,4.362,0,0,0-.672-.935,2.871,2.871,0,0,0-1.192-.762,2.76,2.76,0,0,0-.792-.141,2.849,2.849,0,0,0-.408.017,2.92,2.92,0,0,0-.409.076,3.041,3.041,0,0,0-.4.134,3.221,3.221,0,0,0-.385.19,3.353,3.353,0,0,0-.364.244,1.819,1.819,0,0,0-.23.21,3.286,3.286,0,0,0-.216.259c-.07.092-.138.19-.205.29s-.133.2-.2.3c-.092.142-.184.286-.279.422a4.036,4.036,0,0,1-.3.379,1.676,1.676,0,0,1-.319.284.709.709,0,0,1-.881-.027,1.284,1.284,0,0,1-.364-.546,6.435,6.435,0,0,1-.286-1.014c-.092-.425-.186-.941-.3-1.564l-1.349-7.6q-.049-.274-.106-.548t-.123-.547q-.066-.273-.139-.545t-.156-.541a10.284,10.284,0,0,1,.8-1.606,9.122,9.122,0,0,1,1.019-1.362,8.09,8.09,0,0,1,1.207-1.089,7.358,7.358,0,0,1,1.364-.792l.388-.174-.4-.316a10.994,10.994,0,0,1-1.516-1.47,12.118,12.118,0,0,1-1.249-1.765,12.689,12.689,0,0,1-.938-1.989,12.553,12.553,0,0,1-.583-2.139,10.845,10.845,0,0,1-.043-3.738,8.09,8.09,0,0,1,1.146-3.033,6.046,6.046,0,0,1,2.1-2.013A5.615,5.615,0,0,1,1255.461,122.091Z" transform="translate(-1249.249 -122.091)" fill="url(#i)"/><path d="M1254.18,166.828c-.119-.671-.2-1.17-.263-1.583a6.789,6.789,0,0,1-.088-1.01,1.032,1.032,0,0,1,.095-.489.363.363,0,0,1,.231-.166.821.821,0,0,1,.319.025,1.592,1.592,0,0,1,.373.159,3.715,3.715,0,0,1,.4.268c.138.1.276.217.412.329.105.086.2.164.3.241s.205.159.308.232.213.146.318.207a2.385,2.385,0,0,0,.331.161,4.034,4.034,0,0,0,.408.134l.057.015a3.834,3.834,0,0,0,.468.087,3.513,3.513,0,0,0,.465.025,3.293,3.293,0,0,0,.454-.037,3.119,3.119,0,0,0,.434-.1,2.885,2.885,0,0,0,.405-.159,2.737,2.737,0,0,0,.374-.219,2.81,2.81,0,0,0,.954-1.151,4.208,4.208,0,0,0,.327-1.144,7.286,7.286,0,0,0,.057-1.4,12.651,12.651,0,0,0-.2-1.653,12.8,12.8,0,0,0-.4-1.622,7.608,7.608,0,0,0-.551-1.306,4.639,4.639,0,0,0-.711-.989,3.23,3.23,0,0,0-.882-.657,3.263,3.263,0,0,0-.413-.171c-.057-.019-.115-.037-.173-.052q-.126-.034-.254-.057a2.978,2.978,0,0,0-.438-.046,3.119,3.119,0,0,0-.444.019,3.2,3.2,0,0,0-.444.083,3.384,3.384,0,0,0-.432.145,3.461,3.461,0,0,0-.415.2,3.548,3.548,0,0,0-.391.262,1.994,1.994,0,0,0-.261.238,3.493,3.493,0,0,0-.233.279c-.072.1-.143.2-.213.3-.058.087-.2.306-.2.306-.091.141-.182.282-.275.416a3.7,3.7,0,0,1-.276.355,1.43,1.43,0,0,1-.269.241.569.569,0,0,1-.243.1.811.811,0,0,1-.168-.025.467.467,0,0,1-.173-.086,1.053,1.053,0,0,1-.285-.442,6.156,6.156,0,0,1-.273-.972c-.1-.439-.194-.986-.295-1.554l-1.349-7.6q-.049-.278-.107-.555t-.125-.555q-.066-.277-.141-.552-.063-.232-.132-.463a10.137,10.137,0,0,1,.748-1.485,8.931,8.931,0,0,1,.991-1.324,7.861,7.861,0,0,1,1.169-1.055,7.1,7.1,0,0,1,1.317-.765l.771-.345-.725-.576a10.762,10.762,0,0,1-1.481-1.436,11.862,11.862,0,0,1-1.223-1.728,12.4,12.4,0,0,1-1.49-4.044,10.55,10.55,0,0,1-.042-3.651,7.8,7.8,0,0,1,1.109-2.938,5.757,5.757,0,0,1,2.012-1.93,5.348,5.348,0,0,1,2.7-.682,6.4,6.4,0,0,1,1.615.224,7.5,7.5,0,0,1,1.3.489,9.494,9.494,0,0,1,2.615,1.9,11.832,11.832,0,0,1,2.043,2.81,12.341,12.341,0,0,1,1.205,3.447,11.469,11.469,0,0,1,.2,1.99,9.923,9.923,0,0,1-.153,1.879,8.319,8.319,0,0,1-.5,1.709,6.972,6.972,0,0,1-.835,1.481l-.472.632.764.226a9.274,9.274,0,0,1,2.8,1.393,12.212,12.212,0,0,1,2.4,2.3,14.528,14.528,0,0,1,1.841,3,15.227,15.227,0,0,1,1.122,3.493l5.794,30.133-20.411,4.591Z" transform="translate(-1249.793 -122.637)" fill="url(#j)"/></g></g><g transform="translate(1065.756 91.459)"><path d="M1147.319,116.222a14.367,14.367,0,0,1-2.046-1.888,14.968,14.968,0,0,1-2.875-4.78,14.321,14.321,0,0,1-.709-2.7,12.765,12.765,0,0,1-.127-3.029,10.9,10.9,0,0,1,.565-2.719,9.461,9.461,0,0,1,1.17-2.3,8.674,8.674,0,0,1,.784-.966,8.262,8.262,0,0,1,.9-.831h0l-6.534,5.163a8.268,8.268,0,0,0-1.618,1.71,9.053,9.053,0,0,0-1.129,2.175,10.2,10.2,0,0,0-.557,2.552,11.7,11.7,0,0,0,.1,2.83,13,13,0,0,0,.653,2.519,13.566,13.566,0,0,0,2.694,4.429,13.186,13.186,0,0,0,1.93,1.739l.441.323,6.821-3.867Z" transform="translate(-1132.963 -95.241)" fill="url(#k)"/><g transform="translate(11.389 53.382)" style="isolation:isolate"><g clip-path="url(#l)"><g transform="translate(-4.776 -7.809)" style="isolation:isolate"><path d="M1158.937,246.4l-7.179,1.422a3.705,3.705,0,0,0,.424-.11,3.429,3.429,0,0,0,.4-.157,3.3,3.3,0,0,0,.712-.452,3,3,0,0,0,.7-.843,4.011,4.011,0,0,0,.416-1.128,6.543,6.543,0,0,0,.135-1.408,11.152,11.152,0,0,0-.145-1.685,11.269,11.269,0,0,0-.377-1.65,6.7,6.7,0,0,0-.558-1.306,4.165,4.165,0,0,0-.739-.961,3.158,3.158,0,0,0-.92-.614,3.565,3.565,0,0,0-.44-.156,3.466,3.466,0,0,0-.455-.1,3.533,3.533,0,0,0-.469-.035,3.762,3.762,0,0,0-.482.027c-.064.007-.127.017-.191.027s-.127.023-.19.037-.126.029-.189.046-.125.035-.188.055l6.948-2.226c.066-.021.131-.04.2-.058s.133-.034.2-.048.133-.027.2-.038.134-.02.2-.028a3.877,3.877,0,0,1,.508-.025,3.667,3.667,0,0,1,.975.147,3.758,3.758,0,0,1,.465.171,3.383,3.383,0,0,1,.975.666,4.565,4.565,0,0,1,.787,1.037,7.373,7.373,0,0,1,.6,1.407,13.519,13.519,0,0,1,.58,3.587,7.18,7.18,0,0,1-.129,1.514,4.3,4.3,0,0,1-.427,1.211,3.148,3.148,0,0,1-.728.9,3.46,3.46,0,0,1-.358.267,3.4,3.4,0,0,1-.388.217,3.536,3.536,0,0,1-.417.166,3.747,3.747,0,0,1-.446.116" transform="translate(-1149.195 -234.989)" fill="#857411"/></g></g></g><path d="M1161.7,243.519a6.194,6.194,0,0,0,.1-.72h0v0c.014-.167.021-.343.024-.521,0-.023,0-.043,0-.066s0-.048,0-.07c0-.045,0-.089,0-.135q0-.208-.014-.425h0c-.01-.193-.028-.393-.05-.6,0-.026,0-.049-.006-.075s-.008-.054-.011-.08c-.024-.207-.052-.417-.087-.634s-.075-.426-.117-.63c-.005-.026-.009-.054-.015-.079s-.012-.048-.018-.074c-.044-.2-.09-.395-.14-.58v0h0c-.039-.141-.078-.277-.121-.41-.014-.044-.03-.085-.044-.128-.007-.022-.013-.046-.021-.067s-.016-.041-.024-.062c-.059-.169-.121-.333-.187-.488v0h0c-.068-.159-.141-.31-.216-.455-.009-.018-.017-.038-.027-.057s-.019-.03-.028-.047c-.018-.033-.035-.068-.053-.1-.06-.106-.122-.207-.186-.3l0-.007c-.006-.008-.012-.015-.017-.023-.079-.118-.162-.228-.246-.333-.012-.015-.023-.032-.035-.047s-.02-.021-.03-.032a3.845,3.845,0,0,0-.268-.291l-.018-.016-.01-.011c-.037-.035-.076-.066-.114-.1s-.063-.057-.1-.083l-.011-.01c-.042-.034-.086-.064-.129-.1s-.062-.048-.095-.07l-.008-.005c-.05-.034-.1-.064-.155-.1-.028-.017-.055-.036-.083-.051l0,0q-.124-.069-.253-.127a3.758,3.758,0,0,0-.465-.171,3.667,3.667,0,0,0-.975-.147,3.877,3.877,0,0,0-.508.025c-.067.008-.134.017-.2.028l-.014,0c-.062.01-.124.022-.186.036s-.107.025-.16.039l-.038.009h0c-.066.017-.132.037-.2.058l-6.948,2.226h0q.093-.03.188-.055c.063-.017.126-.032.189-.046s.127-.026.19-.037.127-.02.191-.027a3.762,3.762,0,0,1,.482-.027,3.578,3.578,0,0,1,.469.035,3.5,3.5,0,0,1,.455.1,3.565,3.565,0,0,1,.44.156q.124.054.243.119c.026.014.052.031.078.046.052.03.1.06.155.094.03.02.059.043.089.064s.089.063.132.1.06.052.09.077.078.066.116.1a3.638,3.638,0,0,1,.269.284l.061.073c.08.1.158.2.232.309l.02.028c.078.118.152.244.224.375l.051.1c.07.135.138.274.2.423v0c.062.144.118.3.173.453l.041.12c.053.161.1.326.152.5v0c.047.173.089.354.129.539.01.047.02.094.03.141.038.19.075.383.107.585s.056.4.078.591c.005.048.01.1.015.143.019.19.034.377.043.556s.01.352.008.521c0,.043,0,.085,0,.126,0,.167-.012.331-.027.487a5.726,5.726,0,0,1-.1.669,4.011,4.011,0,0,1-.416,1.128c-.029.051-.062.1-.093.149-.021.033-.041.067-.063.1s-.065.088-.1.131c-.022.028-.042.057-.065.085-.039.047-.081.09-.122.134-.02.021-.038.044-.059.064-.063.063-.129.124-.2.181a3.287,3.287,0,0,1-.342.25,3.242,3.242,0,0,1-.37.2,3.446,3.446,0,0,1-.4.157c-.07.023-.145.038-.218.057s-.135.039-.206.053h0l2.962-.587,4.217-.836h0c.048-.01.093-.025.141-.037.1-.024.206-.047.3-.079h0c.106-.035.207-.079.308-.123.036-.016.074-.027.109-.044h0a3.406,3.406,0,0,0,.355-.2l.033-.018h0a3.46,3.46,0,0,0,.358-.267q.107-.09.2-.19l0,0c.022-.023.042-.048.063-.071.04-.044.082-.087.119-.134l.006-.008c.024-.029.045-.061.068-.091s.065-.083.095-.127l.008-.012c.023-.034.044-.071.066-.107s.053-.082.077-.125h0c.007-.012.015-.023.021-.035A4.316,4.316,0,0,0,1161.7,243.519Z" transform="translate(-1142.581 -189.416)" fill="url(#m)"/><g transform="translate(3.243 46.38)" style="isolation:isolate"><g clip-path="url(#n)"><path d="M1145.371,240.687l-6.791,1.983a1.756,1.756,0,0,0,.474-.224,2.767,2.767,0,0,0,.421-.347,5.379,5.379,0,0,0,.384-.426c.123-.15.242-.307.361-.462.079-.1.157-.2.235-.3s.154-.191.231-.279.154-.169.231-.242a1.952,1.952,0,0,1,.235-.192q.118-.08.24-.15c.082-.047.164-.09.248-.131s.169-.077.255-.111.172-.065.26-.092l6.964-2.182q-.138.043-.273.1t-.268.118c-.088.043-.175.09-.26.139s-.17.1-.252.159a2,2,0,0,0-.246.2c-.081.078-.161.165-.242.259s-.161.194-.242.3-.163.212-.246.322c-.123.166-.248.333-.377.494a5.671,5.671,0,0,1-.4.456,2.89,2.89,0,0,1-.442.37,1.816,1.816,0,0,1-.5.238" transform="translate(-1138.58 -237.532)" fill="url(#o)"/></g></g><g transform="translate(2.921 48.901)" style="isolation:isolate"><g clip-path="url(#p)"><g style="isolation:isolate"><path d="M1144.5,245.471l-6.777,2.029-.039.011-.039.009-.039.008-.04.006,6.768-2.027.042-.006.042-.008.041-.01.041-.011" transform="translate(-1137.564 -245.471)" fill="#857411"/></g></g></g><path d="M1137.405,188.02a1.342,1.342,0,0,1-.427-.608,6.4,6.4,0,0,1-.309-1.134c-.095-.476-.187-1.055-.3-1.752l-1.318-8.509a16.669,16.669,0,0,1-.084-4.557,14.972,14.972,0,0,1,1.1-4.112,13.04,13.04,0,0,1,2.117-3.4,11.415,11.415,0,0,1,2.969-2.449l-.718.409-.355.2-.129.073-.513.292-.061.035-.017.01-.318.181-.357.2-.25.143-.164.093-.6.344-.1.057-.782.445-.116.066-.653.371-.314.179-.546.311-.1.058-.63.358a11.11,11.11,0,0,0-2.837,2.319,12.443,12.443,0,0,0-2.031,3.192,13.945,13.945,0,0,0-1.068,3.841,15.242,15.242,0,0,0,.047,4.24l1.186,7.9c.1.647.181,1.185.267,1.626a5.8,5.8,0,0,0,.284,1.052,1.224,1.224,0,0,0,.4.562,1,1,0,0,0,.613.16l6.768-2.027A1.043,1.043,0,0,1,1137.405,188.02Z" transform="translate(-1128.365 -139.26)" fill="url(#q)"/><g transform="translate(3.546 54.33)" style="isolation:isolate"><g clip-path="url(#r)"><path d="M1152.243,264.578l-7.169,1.468-.043.008-.043.008-.043.007-.044.007a3.443,3.443,0,0,1-.437.038,3.768,3.768,0,0,1-.447-.016,3.911,3.911,0,0,1-.45-.069,4.239,4.239,0,0,1-.447-.121,2.09,2.09,0,0,1-.284-.123c-.1-.05-.2-.108-.3-.172s-.2-.134-.306-.208-.209-.151-.316-.23c-.179-.131-.359-.263-.542-.386a5.089,5.089,0,0,0-.555-.331,2.514,2.514,0,0,0-.57-.211,1.611,1.611,0,0,0-.588-.028l-.033.005-.033.006-.033.007-.033.008,6.846-1.635.035-.008.035-.007.035-.006.034-.005a1.678,1.678,0,0,1,.622.033,2.659,2.659,0,0,1,.6.231,5.47,5.47,0,0,1,.589.359c.194.133.386.277.576.418.113.085.225.169.335.249s.219.156.325.226.211.133.313.187a2.147,2.147,0,0,0,.3.134,4.3,4.3,0,0,0,.472.132,4.106,4.106,0,0,0,.475.076,3.916,3.916,0,0,0,.471.019,3.622,3.622,0,0,0,.461-.039l.046-.007.045-.008.045-.008.045-.009" transform="translate(-1139.533 -262.569)" fill="url(#s)"/></g></g><g transform="translate(6.49 0)"><path d="M1159.9,91.466a10.649,10.649,0,0,1,4.139,1.048,13.393,13.393,0,0,1,3.6,2.529,15.03,15.03,0,0,1,2.726,3.627,14.54,14.54,0,0,1,1.527,4.391,13.093,13.093,0,0,1,.2,2.525,11.466,11.466,0,0,1-.3,2.383,10.036,10.036,0,0,1-.78,2.172,8.994,8.994,0,0,1-1.254,1.886l-.311.361.484.138a13.359,13.359,0,0,1,3.863,1.849,16.007,16.007,0,0,1,3.233,2.975,17.9,17.9,0,0,1,3.82,8.255l1.349,7.611c.109.613.205,1.158.308,1.63a7.24,7.24,0,0,0,.346,1.2,1.854,1.854,0,0,0,.494.739,1.144,1.144,0,0,0,.751.257,1.512,1.512,0,0,0,.548-.169,1.884,1.884,0,0,0,.439-.331,3.474,3.474,0,0,0,.364-.436c.113-.156.219-.321.323-.484.063-.1.125-.192.187-.284s.123-.18.184-.263a2.876,2.876,0,0,1,.186-.228,1.506,1.506,0,0,1,.192-.18,2.993,2.993,0,0,1,.322-.215,2.884,2.884,0,0,1,.34-.168,2.744,2.744,0,0,1,.353-.118,2.623,2.623,0,0,1,.361-.068,2.491,2.491,0,0,1,.352-.017,2.39,2.39,0,0,1,.344.034,2.35,2.35,0,0,1,.336.084,2.475,2.475,0,0,1,.327.134,2.428,2.428,0,0,1,.692.525,3.865,3.865,0,0,1,.578.831,6.836,6.836,0,0,1,.464,1.134,11.851,11.851,0,0,1,.349,1.436,11.729,11.729,0,0,1,.181,1.462,6.488,6.488,0,0,1-.036,1.208,3.5,3.5,0,0,1-.255.95,2.124,2.124,0,0,1-.474.687,2.221,2.221,0,0,1-.265.216,2.147,2.147,0,0,1-.292.17,2.172,2.172,0,0,1-.318.124,2.394,2.394,0,0,1-.344.077,2.554,2.554,0,0,1-.371.029,2.859,2.859,0,0,1-.381-.023,3.125,3.125,0,0,1-.386-.074,3.4,3.4,0,0,1-.385-.124,1.752,1.752,0,0,1-.248-.123c-.084-.05-.171-.107-.259-.171s-.178-.132-.27-.205-.185-.149-.28-.226c-.157-.129-.317-.258-.478-.38a4.652,4.652,0,0,0-.486-.327,2.138,2.138,0,0,0-.493-.213,1.061,1.061,0,0,0-1.212.424,1.633,1.633,0,0,0-.259.849,6.414,6.414,0,0,0,.07,1.248c.064.484.162,1.036.272,1.659l3.2,18.063-31.971,7.191-3.14-20.276c-.11-.71-.2-1.3-.254-1.787a7.115,7.115,0,0,1-.063-1.18,1.351,1.351,0,0,1,.191-.694.842.842,0,0,1,.5-.328,1.46,1.46,0,0,1,.545.023,2.293,2.293,0,0,1,.53.2,4.667,4.667,0,0,1,.517.314c.171.117.339.243.506.369.118.088.237.176.357.262s.24.17.36.248.241.15.361.212a2.585,2.585,0,0,0,.361.157,4.793,4.793,0,0,0,.535.148,4.629,4.629,0,0,0,.537.083,4.47,4.47,0,0,0,.532.018,4.219,4.219,0,0,0,.521-.046,3.97,3.97,0,0,0,.5-.109,3.576,3.576,0,0,0,.464-.169,3.418,3.418,0,0,0,.824-.519,3.15,3.15,0,0,0,.728-.9,4.309,4.309,0,0,0,.427-1.211,7.18,7.18,0,0,0,.129-1.514,13.519,13.519,0,0,0-.58-3.587,7.373,7.373,0,0,0-.6-1.407,4.569,4.569,0,0,0-.787-1.037,3.387,3.387,0,0,0-.975-.666,3.766,3.766,0,0,0-.465-.171,3.667,3.667,0,0,0-.975-.147,3.874,3.874,0,0,0-.508.025,4.092,4.092,0,0,0-.51.091,4.219,4.219,0,0,0-.5.156,4.407,4.407,0,0,0-.485.218,4.59,4.59,0,0,0-.464.278,2.38,2.38,0,0,0-.3.239,3.934,3.934,0,0,0-.279.293c-.091.1-.18.215-.268.328s-.174.228-.26.343c-.121.161-.244.324-.369.478a5.075,5.075,0,0,1-.385.43,2.22,2.22,0,0,1-.41.324,1.143,1.143,0,0,1-.444.159,1.043,1.043,0,0,1-.649-.176,1.341,1.341,0,0,1-.427-.608,6.393,6.393,0,0,1-.309-1.134c-.095-.476-.187-1.055-.3-1.752l-1.318-8.509a16.577,16.577,0,0,1-.018-5.042,14.653,14.653,0,0,1,1.42-4.455,12.517,12.517,0,0,1,2.634-3.507,11.039,11.039,0,0,1,3.618-2.243l.477-.177-.467-.351a14.384,14.384,0,0,1-2.046-1.888,14.968,14.968,0,0,1-2.875-4.78,14.321,14.321,0,0,1-.709-2.7,12.176,12.176,0,0,1,.13-4.685,9.6,9.6,0,0,1,1.756-3.742,8.2,8.2,0,0,1,3.025-2.414A8.548,8.548,0,0,1,1159.9,91.466Z" transform="translate(-1148.804 -91.459)" fill="url(#t)"/><path d="M1153.249,150.979c-.117-.754-.2-1.315-.253-1.777a6.847,6.847,0,0,1-.061-1.136,1.131,1.131,0,0,1,.146-.565.592.592,0,0,1,.361-.227,1.2,1.2,0,0,1,.421.026l.061.015a2.125,2.125,0,0,1,.41.162,4.321,4.321,0,0,1,.488.3c.168.115.333.239.5.363.133.1.247.183.361.265s.246.175.37.255.255.158.382.224a2.815,2.815,0,0,0,.4.172q.157.053.317.1c.082.022.164.042.246.06a4.993,4.993,0,0,0,.566.088,4.722,4.722,0,0,0,.563.019,4.486,4.486,0,0,0,.553-.049,4.155,4.155,0,0,0,.53-.116,3.777,3.777,0,0,0,.5-.181,3.686,3.686,0,0,0,.462-.247,3.644,3.644,0,0,0,.424-.311,3.405,3.405,0,0,0,.786-.975,4.578,4.578,0,0,0,.454-1.281,7.435,7.435,0,0,0,.133-1.567,13.737,13.737,0,0,0-.592-3.661,7.675,7.675,0,0,0-.62-1.455,4.836,4.836,0,0,0-.831-1.095,3.644,3.644,0,0,0-1.047-.716,4,4,0,0,0-.5-.183l-.086-.024a3.881,3.881,0,0,0-.428-.09,3.957,3.957,0,0,0-.528-.044,4.153,4.153,0,0,0-.541.027,4.325,4.325,0,0,0-.541.1,4.6,4.6,0,0,0-.531.165,4.717,4.717,0,0,0-.513.231,4.851,4.851,0,0,0-.49.294,2.633,2.633,0,0,0-.326.264,4.014,4.014,0,0,0-.3.312c-.094.108-.185.222-.276.338s-.166.217-.248.326c-.134.178-.255.338-.378.491a4.644,4.644,0,0,1-.365.408,1.955,1.955,0,0,1-.362.287.9.9,0,0,1-.346.126,1.1,1.1,0,0,1-.263-.034.608.608,0,0,1-.205-.1,1.111,1.111,0,0,1-.34-.5,6.133,6.133,0,0,1-.295-1.088c-.089-.447-.175-.977-.294-1.742l-1.318-8.509a16.3,16.3,0,0,1-.017-4.965,14.378,14.378,0,0,1,1.4-4.378,12.238,12.238,0,0,1,2.58-3.436,10.785,10.785,0,0,1,3.535-2.192l.912-.338-.838-.631a14.165,14.165,0,0,1-2.01-1.854,14.712,14.712,0,0,1-2.826-4.7,14.076,14.076,0,0,1-.7-2.657,11.883,11.883,0,0,1,.126-4.587,9.3,9.3,0,0,1,1.709-3.643A7.909,7.909,0,0,1,1156.6,93a8.265,8.265,0,0,1,3.829-.736,9.88,9.88,0,0,1,2.177.335,11.13,11.13,0,0,1,1.863.689A13.079,13.079,0,0,1,1168,95.771a14.677,14.677,0,0,1,2.68,3.565,14.241,14.241,0,0,1,1.5,4.314,12.886,12.886,0,0,1,.192,2.476,11.209,11.209,0,0,1-.291,2.331,9.772,9.772,0,0,1-.759,2.117,8.754,8.754,0,0,1-1.218,1.833l-.571.663.866.247a13.083,13.083,0,0,1,3.789,1.814,15.733,15.733,0,0,1,3.182,2.928,17.655,17.655,0,0,1,3.765,8.137l1.349,7.611c.105.6.205,1.158.31,1.64a7.446,7.446,0,0,0,.36,1.241,2.094,2.094,0,0,0,.567.838,1.331,1.331,0,0,0,.508.263,1.6,1.6,0,0,0,.4.052,1.785,1.785,0,0,0,.67-.2,2.11,2.11,0,0,0,.5-.375,3.693,3.693,0,0,0,.391-.467c.115-.16.224-.328.331-.495.062-.095.124-.189.184-.281s.117-.172.177-.252.113-.146.17-.209a1.31,1.31,0,0,1,.16-.15,2.734,2.734,0,0,1,.294-.2,2.612,2.612,0,0,1,.31-.153,2.491,2.491,0,0,1,.32-.108,2.381,2.381,0,0,1,.327-.062,2.28,2.28,0,0,1,.317-.015,2.124,2.124,0,0,1,.308.03c.062.011.125.025.187.041.038.01.076.022.113.034a2.25,2.25,0,0,1,.293.121,2.188,2.188,0,0,1,.619.471,3.625,3.625,0,0,1,.539.777,6.575,6.575,0,0,1,.446,1.092,12.649,12.649,0,0,1,.518,2.835,6.246,6.246,0,0,1-.035,1.16,3.235,3.235,0,0,1-.235.88,1.881,1.881,0,0,1-.417.605,1.962,1.962,0,0,1-.235.191,1.906,1.906,0,0,1-.257.15,2.044,2.044,0,0,1-.282.11,2.217,2.217,0,0,1-.308.069,2.358,2.358,0,0,1-.335.025,2.614,2.614,0,0,1-.347-.021,2.923,2.923,0,0,1-.355-.068l-.033-.009a3.186,3.186,0,0,1-.323-.106,1.522,1.522,0,0,1-.211-.1c-.078-.046-.158-.1-.24-.158s-.172-.128-.26-.2-.177-.143-.268-.217c-.172-.141-.333-.271-.494-.393a4.831,4.831,0,0,0-.513-.345,2.359,2.359,0,0,0-.552-.238h0a1.5,1.5,0,0,0-.6-.044l-.016,0-.016,0a1.472,1.472,0,0,0-.851.559,1.873,1.873,0,0,0-.305.979,6.558,6.558,0,0,0,.072,1.3c.065.492.166,1.064.274,1.67l3.159,17.824-31.47,7.078Z" transform="translate(-1149.349 -92.005)" fill="url(#u)"/></g><path d="M1144.923,268.745c-.11-.71-.2-1.3-.254-1.787a7.154,7.154,0,0,1-.062-1.18,1.352,1.352,0,0,1,.19-.694.842.842,0,0,1,.5-.328l-6.857,1.588a.808.808,0,0,0-.479.307,1.247,1.247,0,0,0-.185.645,6.475,6.475,0,0,0,.05,1.094c.05.452.129,1,.227,1.656l2.817,18.774,7.19.2Z" transform="translate(-1134.785 -209.732)" fill="url(#v)"/></g><g transform="translate(1036.628 100.811)"><path d="M1056.451,147.436a13.4,13.4,0,0,1-3.765-3.914,12.982,12.982,0,0,1-1.191-2.418,12.413,12.413,0,0,1-.652-2.6,11.452,11.452,0,0,1-.068-2.544,10.464,10.464,0,0,1,.474-2.348,9.853,9.853,0,0,1,.957-2.084q.147-.241.307-.472c.14-.2.291-.4.446-.586.2-.243.405-.479.626-.7h0l-4.9,4.919a9.106,9.106,0,0,0-1.3,1.651,9.317,9.317,0,0,0-.906,1.946,9.74,9.74,0,0,0-.455,2.183,10.5,10.5,0,0,0,.052,2.358,11.271,11.271,0,0,0,.6,2.406,11.751,11.751,0,0,0,1.1,2.227,12.1,12.1,0,0,0,1.555,1.965,12.258,12.258,0,0,0,1.95,1.623l.518.346,5.2-3.574Z" transform="translate(-1043.013 -126.954)" fill="url(#w)"/><path d="M1064.241,120.915a11.562,11.562,0,0,1,4.341.894,13.036,13.036,0,0,1,3.717,2.354,13.453,13.453,0,0,1,2.759,3.451,12.6,12.6,0,0,1,1.459,4.23,11.6,11.6,0,0,1,.115,2.452,10.6,10.6,0,0,1-.4,2.328,9.91,9.91,0,0,1-.9,2.136,9.543,9.543,0,0,1-1.4,1.869l-.4.416.591.143a13.386,13.386,0,0,1,2.12.7,14.2,14.2,0,0,1,1.99,1.038,14.789,14.789,0,0,1,1.823,1.346,15.2,15.2,0,0,1,1.616,1.624q.005.309.021.619t.043.619q.027.309.063.618t.084.614l1.317,8.526c.106.687.2,1.3.306,1.827a7.219,7.219,0,0,0,.374,1.341,1.936,1.936,0,0,0,.581.824,1.452,1.452,0,0,0,.922.277h.046l.046,0,.046,0,.045,0a1.647,1.647,0,0,0,.584-.192,2.494,2.494,0,0,0,.507-.376,4.943,4.943,0,0,0,.452-.494c.144-.177.283-.363.42-.547.083-.11.164-.218.246-.322s.161-.2.242-.3.161-.181.242-.259a1.993,1.993,0,0,1,.246-.2,4,4,0,0,1,.409-.246,3.932,3.932,0,0,1,.429-.193,3.841,3.841,0,0,1,.443-.138,3.68,3.68,0,0,1,.451-.081,3.471,3.471,0,0,1,.438-.023,3.2,3.2,0,0,1,.426.033,3.083,3.083,0,0,1,.412.089,3.034,3.034,0,0,1,.4.146,2.773,2.773,0,0,1,.833.579,3.994,3.994,0,0,1,.677.923,6.821,6.821,0,0,1,.521,1.264,12.886,12.886,0,0,1,.523,3.24,6.648,6.648,0,0,1-.1,1.355,3.791,3.791,0,0,1-.358,1.07,2.577,2.577,0,0,1-.619.78,2.887,2.887,0,0,1-.337.247,2.92,2.92,0,0,1-.369.2,3.092,3.092,0,0,1-.4.145,3.382,3.382,0,0,1-.43.093,3.621,3.621,0,0,1-.461.039,3.916,3.916,0,0,1-.471-.019,4.106,4.106,0,0,1-.475-.076,4.306,4.306,0,0,1-.472-.132,2.134,2.134,0,0,1-.3-.134c-.1-.054-.207-.117-.313-.187s-.215-.146-.325-.226-.222-.164-.335-.249c-.19-.142-.382-.285-.576-.418a5.466,5.466,0,0,0-.589-.359,2.658,2.658,0,0,0-.6-.231,1.679,1.679,0,0,0-.622-.033l-.044.007-.045.009-.045.01-.044.011a1.393,1.393,0,0,0-.8.511,1.862,1.862,0,0,0-.308.949,7.2,7.2,0,0,0,.048,1.4c.06.543.156,1.163.264,1.863l3.138,20.317-31.578,7.1-5.448-41.093a14.826,14.826,0,0,1,.159-4.887,14.24,14.24,0,0,1,1.654-4.36,13.46,13.46,0,0,1,2.9-3.476,12.843,12.843,0,0,1,3.9-2.278l.588-.218-.555-.379a13.4,13.4,0,0,1-3.764-3.914,12.982,12.982,0,0,1-1.191-2.418,12.406,12.406,0,0,1-.652-2.6,11.01,11.01,0,0,1,.3-4.554,9.767,9.767,0,0,1,1.984-3.689,9.4,9.4,0,0,1,3.28-2.44A10.063,10.063,0,0,1,1064.241,120.915Z" transform="translate(-1046.647 -120.915)" fill="url(#x)"/><path d="M1052.235,157.506a14.555,14.555,0,0,1,.156-4.8,13.947,13.947,0,0,1,1.623-4.282,13.182,13.182,0,0,1,2.846-3.41,12.588,12.588,0,0,1,3.822-2.233l1.05-.389-.96-.657a13.144,13.144,0,0,1-3.693-3.839,12.731,12.731,0,0,1-1.168-2.371,12.174,12.174,0,0,1-.639-2.551,10.723,10.723,0,0,1,.295-4.45,9.455,9.455,0,0,1,1.933-3.593,9.1,9.1,0,0,1,3.191-2.375,9.786,9.786,0,0,1,4.093-.838,11.1,11.1,0,0,1,2.8.384,11.819,11.819,0,0,1,1.443.491,12.727,12.727,0,0,1,3.645,2.308,13.141,13.141,0,0,1,2.706,3.385,12.3,12.3,0,0,1,1.43,4.145,11.364,11.364,0,0,1,.113,2.4,10.332,10.332,0,0,1-.392,2.273,9.647,9.647,0,0,1-.881,2.081,9.319,9.319,0,0,1-1.358,1.819l-.705.735,1.021.247c.117.028.233.057.349.089a13.31,13.31,0,0,1,1.731.6,14.012,14.012,0,0,1,1.955,1.02,14.609,14.609,0,0,1,1.791,1.322,14.988,14.988,0,0,1,1.531,1.529q.006.268.02.536.016.314.043.628t.064.626c.025.208.053.416.085.623l1.317,8.526c.109.7.2,1.305.308,1.838a7.416,7.416,0,0,0,.389,1.389,2.183,2.183,0,0,0,.661.928,1.558,1.558,0,0,0,.541.264,2.028,2.028,0,0,0,.536.065l.107,0,.1-.01a1.9,1.9,0,0,0,.677-.221,2.721,2.721,0,0,0,.559-.413,5.247,5.247,0,0,0,.476-.519c.146-.18.287-.369.427-.556.081-.107.162-.214.242-.317s.156-.2.234-.289.15-.169.225-.242a1.778,1.778,0,0,1,.214-.178,3.77,3.77,0,0,1,.382-.23,3.7,3.7,0,0,1,.4-.181,3.614,3.614,0,0,1,.414-.129,3.405,3.405,0,0,1,.419-.076,3.317,3.317,0,0,1,.406-.022,3,3,0,0,1,.392.03,2.861,2.861,0,0,1,.325.067l.053.015a2.769,2.769,0,0,1,.364.134,2.528,2.528,0,0,1,.758.527,3.767,3.767,0,0,1,.633.865,6.6,6.6,0,0,1,.5,1.217,12.656,12.656,0,0,1,.511,3.169,6.4,6.4,0,0,1-.1,1.3,3.551,3.551,0,0,1-.333,1,2.346,2.346,0,0,1-.558.7,2.586,2.586,0,0,1-.308.226,2.713,2.713,0,0,1-.337.179,2.863,2.863,0,0,1-.368.133,3.01,3.01,0,0,1-.4.086,3.335,3.335,0,0,1-.428.036,3.684,3.684,0,0,1-.441-.017,3.975,3.975,0,0,1-.446-.072c-.061-.014-.122-.028-.182-.044-.088-.024-.175-.05-.262-.08a1.938,1.938,0,0,1-.264-.118c-.1-.051-.193-.11-.293-.175s-.208-.141-.314-.218-.22-.162-.332-.247c-.193-.144-.388-.29-.585-.425a5.68,5.68,0,0,0-.617-.376,2.968,2.968,0,0,0-.589-.234l-.073-.018a1.955,1.955,0,0,0-.715-.037l-.105.018-.105.025a1.635,1.635,0,0,0-.941.606,2.1,2.1,0,0,0-.356,1.076,7.464,7.464,0,0,0,.049,1.45c.061.55.156,1.164.266,1.874l3.1,20.083-31.075,6.989Z" transform="translate(-1047.192 -121.461)" fill="url(#y)"/><path d="M1041.42,205.566a14.878,14.878,0,0,1,.012-4.03,14.411,14.411,0,0,1,1.044-3.722,13.837,13.837,0,0,1,1.941-3.212,13.183,13.183,0,0,1,2.7-2.519l-4.991,3.479a12.533,12.533,0,0,0-2.538,2.355,13,13,0,0,0-1.828,2.985,13.332,13.332,0,0,0-.991,3.444,13.589,13.589,0,0,0-.03,3.718l4.879,37.777,5.248.816Z" transform="translate(-1036.628 -169.487)" fill="url(#z)"/></g></g></svg>