<svg xmlns="http://www.w3.org/2000/svg" xmlns:xlink="http://www.w3.org/1999/xlink" viewBox="0 0 179.33 123.353"><defs><linearGradient id="a" y1="0.5" x2="1" y2="0.5" gradientUnits="objectBoundingBox"><stop offset="0.159" stop-color="#e02b2b"/><stop offset="0.361" stop-color="#e26363"/><stop offset="0.597" stop-color="#e5a0a0"/><stop offset="0.771" stop-color="#e7c5c5"/><stop offset="0.863" stop-color="#e8d4d4"/></linearGradient><linearGradient id="c" y1="0.5" x2="1" y2="0.5" gradientUnits="objectBoundingBox"><stop offset="0.159" stop-color="#db2a2a"/><stop offset="0.364" stop-color="#df6363"/><stop offset="0.599" stop-color="#e4a0a0"/><stop offset="0.772" stop-color="#e6c5c5"/><stop offset="0.863" stop-color="#e8d4d4"/></linearGradient><linearGradient id="d" x1="0.803" y1="0.835" x2="1.421" y2="1.453" xlink:href="#a"/><linearGradient id="e" x1="0.103" y1="-0.205" x2="0.915" y2="1.381" xlink:href="#a"/><linearGradient id="f" y1="0.5" x2="1" y2="0.5" gradientUnits="objectBoundingBox"><stop offset="0" stop-color="#dd9494"/><stop offset="0.687" stop-color="#dd9494"/><stop offset="1" stop-color="#e34949"/></linearGradient><linearGradient id="g" x1="-0.025" y1="-0.852" x2="0.497" y2="0.615" xlink:href="#f"/></defs><g transform="translate(-617.785 -35.412)"><g transform="translate(617.785 63.445)"><path d="M619.456,103.267l-.388.076-.006-3.936-1.277.692v-.336l1.6-.867.065-.013Z" transform="translate(-617.785 -96.843)" fill="#9e3333"/><path d="M628.016,99.721a2.634,2.634,0,0,1-.362,1.474,1.6,1.6,0,0,1-1.074.69,1.086,1.086,0,0,1-1.07-.26,1.883,1.883,0,0,1-.382-1.292v-.783a2.59,2.59,0,0,1,.366-1.467,1.608,1.608,0,0,1,1.075-.686,1.094,1.094,0,0,1,1.066.248,1.853,1.853,0,0,1,.382,1.273Zm-.388-.706a1.755,1.755,0,0,0-.265-1.083.751.751,0,0,0-.8-.227,1.137,1.137,0,0,0-.787.53,2.222,2.222,0,0,0-.271,1.16v.858a1.749,1.749,0,0,0,.274,1.089.751.751,0,0,0,.794.24,1.129,1.129,0,0,0,.782-.541,2.3,2.3,0,0,0,.268-1.187Z" transform="translate(-621.648 -96.042)" fill="#9e3333"/><path d="M635.75,98.2a2.631,2.631,0,0,1-.363,1.474,1.6,1.6,0,0,1-1.074.69,1.084,1.084,0,0,1-1.069-.26,1.885,1.885,0,0,1-.383-1.291V98.03a2.583,2.583,0,0,1,.367-1.467,1.606,1.606,0,0,1,1.074-.685,1.093,1.093,0,0,1,1.066.248,1.851,1.851,0,0,1,.383,1.274Zm-.389-.707a1.753,1.753,0,0,0-.264-1.082.753.753,0,0,0-.8-.228,1.14,1.14,0,0,0-.787.531,2.22,2.22,0,0,0-.27,1.16v.858a1.747,1.747,0,0,0,.274,1.089.751.751,0,0,0,.793.24,1.128,1.128,0,0,0,.782-.541,2.3,2.3,0,0,0,.268-1.187Z" transform="translate(-625.717 -95.241)" fill="#9e3333"/><path d="M640.514,95.681a1.051,1.051,0,0,1,.259-.7,1.123,1.123,0,0,1,.66-.386.774.774,0,0,1,.66.127.733.733,0,0,1,.261.613v.213a1.047,1.047,0,0,1-.255.691,1.108,1.108,0,0,1-.657.386.8.8,0,0,1-.662-.122.719.719,0,0,1-.266-.614Zm.314.168a.543.543,0,0,0,.167.427.5.5,0,0,0,.447.092.693.693,0,0,0,.437-.268.8.8,0,0,0,.163-.5v-.219a.543.543,0,0,0-.168-.428.49.49,0,0,0-.44-.1.717.717,0,0,0-.437.267.8.8,0,0,0-.169.514Zm.74,2.791-.242-.1,2.29-3.865.242.1Zm1.316-.967a1.043,1.043,0,0,1,.259-.7,1.117,1.117,0,0,1,.657-.384.79.79,0,0,1,.661.123.728.728,0,0,1,.264.616v.213a1.047,1.047,0,0,1-.259.7,1.126,1.126,0,0,1-.657.384.788.788,0,0,1-.661-.124.718.718,0,0,1-.264-.609Zm.311.172a.545.545,0,0,0,.166.43.5.5,0,0,0,.448.093.7.7,0,0,0,.44-.269.814.814,0,0,0,.162-.509V97.37a.538.538,0,0,0-.167-.432.5.5,0,0,0-.443-.089.723.723,0,0,0-.439.264.788.788,0,0,0-.166.508Z" transform="translate(-629.745 -94.576)" fill="#9e3333"/></g><g transform="translate(619.23 77.878)"><path d="M623.73,128.858a1.087,1.087,0,0,1-.21.64,1.651,1.651,0,0,1-.568.5,1.132,1.132,0,0,1,.669.275.8.8,0,0,1,.257.6,1.283,1.283,0,0,1-.408.958,2.127,2.127,0,0,1-1.1.545,1.593,1.593,0,0,1-1.112-.1.848.848,0,0,1-.425-.791,1.166,1.166,0,0,1,.233-.7,1.757,1.757,0,0,1,.652-.545.955.955,0,0,1-.57-.273.782.782,0,0,1-.216-.553,1.27,1.27,0,0,1,.373-.925,1.876,1.876,0,0,1,1.01-.519,1.383,1.383,0,0,1,1.019.112A.846.846,0,0,1,623.73,128.858Zm-.247,2.1a.655.655,0,0,0-.326-.594,1.118,1.118,0,0,0-.817-.093,1.526,1.526,0,0,0-.808.417.989.989,0,0,0-.308.726.642.642,0,0,0,.313.591,1.164,1.164,0,0,0,.83.076,1.566,1.566,0,0,0,.815-.407A.963.963,0,0,0,623.484,130.962Zm-.147-2.027a.632.632,0,0,0-.291-.556.941.941,0,0,0-.727-.1,1.315,1.315,0,0,0-.721.383.946.946,0,0,0-.271.679.609.609,0,0,0,.284.55.984.984,0,0,0,.73.083,1.347,1.347,0,0,0,.722-.378A.909.909,0,0,0,623.336,128.935Z" transform="translate(-620.834 -126.562)" fill="#9e3333"/><path d="M631.71,128.657a2.511,2.511,0,0,1-.356,1.451,1.636,1.636,0,0,1-1.088.69,1.133,1.133,0,0,1-1.092-.241,1.8,1.8,0,0,1-.4-1.263l-.009-.768a2.476,2.476,0,0,1,.359-1.445,1.65,1.65,0,0,1,1.088-.686,1.141,1.141,0,0,1,1.088.23,1.767,1.767,0,0,1,.4,1.245Zm-.4-.689a1.674,1.674,0,0,0-.28-1.059.784.784,0,0,0-.814-.213,1.169,1.169,0,0,0-.8.53,2.12,2.12,0,0,0-.263,1.142l.009.842a1.667,1.667,0,0,0,.29,1.065.779.779,0,0,0,.81.226,1.153,1.153,0,0,0,.792-.541,2.191,2.191,0,0,0,.262-1.168Z" transform="translate(-625.006 -125.731)" fill="#9e3333"/><path d="M636.53,126.136a1.009,1.009,0,0,1,.258-.688,1.156,1.156,0,0,1,.668-.387.813.813,0,0,1,.674.116.709.709,0,0,1,.272.6l0,.209a1.009,1.009,0,0,1-.254.681,1.14,1.14,0,0,1-.665.387.834.834,0,0,1-.676-.111.7.7,0,0,1-.277-.6Zm.321.161a.482.482,0,0,0,.631.5.721.721,0,0,0,.443-.269.77.77,0,0,0,.161-.5l0-.215a.523.523,0,0,0-.175-.418.508.508,0,0,0-.449-.088.741.741,0,0,0-.443.267.768.768,0,0,0-.167.507Zm.78,2.729-.248-.091,2.3-3.822.248.092Zm1.332-.965a1,1,0,0,1,.257-.686,1.151,1.151,0,0,1,.665-.385.829.829,0,0,1,.674.113.7.7,0,0,1,.274.6l0,.209a1.009,1.009,0,0,1-.257.687,1.16,1.16,0,0,1-.666.385.829.829,0,0,1-.674-.113.694.694,0,0,1-.274-.6Zm.318.165a.525.525,0,0,0,.174.42.52.52,0,0,0,.457.084.723.723,0,0,0,.446-.268.784.784,0,0,0,.161-.5l0-.215a.478.478,0,0,0-.627-.5.745.745,0,0,0-.445.264.758.758,0,0,0-.165.5Z" transform="translate(-629.093 -125.037)" fill="#9e3333"/></g><g transform="translate(619.864 92.72)"><path d="M624.488,159.037l0,.306-.046.009a2.348,2.348,0,0,0-1.344.726,2.172,2.172,0,0,0-.531,1.368,1.722,1.722,0,0,1,.5-.48,1.97,1.97,0,0,1,.682-.272,1.146,1.146,0,0,1,1.008.186,1.176,1.176,0,0,1,.384.943,1.814,1.814,0,0,1-.165.789,1.665,1.665,0,0,1-.493.623,1.742,1.742,0,0,1-.74.338,1.28,1.28,0,0,1-1.122-.219,1.32,1.32,0,0,1-.444-1.065l0-.353a2.965,2.965,0,0,1,.564-1.9,2.717,2.717,0,0,1,1.651-.979Zm-.8,1.975a1.577,1.577,0,0,0-.7.34,1.272,1.272,0,0,0-.426.591l0,.3a1.091,1.091,0,0,0,.331.846.918.918,0,0,0,.837.183,1.178,1.178,0,0,0,.741-.477,1.43,1.43,0,0,0,.275-.88.958.958,0,0,0-.293-.753A.86.86,0,0,0,623.691,161.012Z" transform="translate(-622.173 -157.769)" fill="#9e3333"/><path d="M632.906,159.986a2.508,2.508,0,0,1-.356,1.451,1.641,1.641,0,0,1-1.088.691,1.135,1.135,0,0,1-1.093-.24,1.806,1.806,0,0,1-.4-1.261l-.008-.768a2.465,2.465,0,0,1,.359-1.444,1.652,1.652,0,0,1,1.088-.687,1.143,1.143,0,0,1,1.089.228,1.766,1.766,0,0,1,.4,1.244Zm-.4-.688a1.667,1.667,0,0,0-.281-1.058.783.783,0,0,0-.814-.212,1.167,1.167,0,0,0-.8.53,2.125,2.125,0,0,0-.264,1.142l.009.842a1.661,1.661,0,0,0,.29,1.065.783.783,0,0,0,.811.225,1.158,1.158,0,0,0,.793-.541,2.191,2.191,0,0,0,.261-1.168Z" transform="translate(-626.269 -157.059)" fill="#9e3333"/><path d="M637.728,157.46a1.012,1.012,0,0,1,.257-.688,1.157,1.157,0,0,1,.669-.388.812.812,0,0,1,.675.115.706.706,0,0,1,.272.6l0,.209a1.007,1.007,0,0,1-.254.681,1.142,1.142,0,0,1-.665.388.838.838,0,0,1-.677-.11.694.694,0,0,1-.277-.6Zm.321.161a.482.482,0,0,0,.632.5.72.72,0,0,0,.443-.269.771.771,0,0,0,.161-.495l0-.215a.519.519,0,0,0-.176-.418.508.508,0,0,0-.449-.088.737.737,0,0,0-.443.267.768.768,0,0,0-.168.507Zm.782,2.727-.248-.091,2.3-3.822.248.091Zm1.332-.967a1,1,0,0,1,.257-.686,1.161,1.161,0,0,1,.666-.386.826.826,0,0,1,.674.113.7.7,0,0,1,.275.6l0,.209a1.009,1.009,0,0,1-.257.687,1.161,1.161,0,0,1-.666.386.83.83,0,0,1-.675-.113.692.692,0,0,1-.275-.595Zm.318.164a.482.482,0,0,0,.631.5.725.725,0,0,0,.446-.269.779.779,0,0,0,.161-.5l0-.215a.518.518,0,0,0-.174-.421.526.526,0,0,0-.453-.081.743.743,0,0,0-.444.265.754.754,0,0,0-.166.5Z" transform="translate(-630.358 -156.36)" fill="#9e3333"/></g><g transform="translate(620.075 106.403)"><path d="M625.273,190.955l.749-.159,0,.3-.749.159.015,1.077-.4.084-.015-1.077-2.261.479,0-.2,2.182-3.455.433-.091Zm-2.172.46,1.776-.376-.034-2.434-.172.306Z" transform="translate(-622.618 -186.727)" fill="#9e3333"/><path d="M633.822,188.9a2.486,2.486,0,0,1-.354,1.447,1.668,1.668,0,0,1-1.093.7,1.143,1.143,0,0,1-1.1-.226,1.764,1.764,0,0,1-.408-1.25l-.011-.764a2.452,2.452,0,0,1,.357-1.44,1.683,1.683,0,0,1,1.093-.695,1.152,1.152,0,0,1,1.1.215,1.736,1.736,0,0,1,.409,1.232Zm-.407-.68a1.635,1.635,0,0,0-.286-1.049.787.787,0,0,0-.819-.2,1.189,1.189,0,0,0-.8.536,2.1,2.1,0,0,0-.262,1.138l.012.837a1.624,1.624,0,0,0,.294,1.055.787.787,0,0,0,.816.215,1.175,1.175,0,0,0,.8-.547,2.171,2.171,0,0,0,.26-1.164Z" transform="translate(-626.953 -185.97)" fill="#9e3333"/><path d="M638.659,186.345a1.006,1.006,0,0,1,.257-.687,1.177,1.177,0,0,1,.671-.393.824.824,0,0,1,.679.108.693.693,0,0,1,.275.591l0,.208a1,1,0,0,1-.253.68,1.167,1.167,0,0,1-.668.392.843.843,0,0,1-.68-.1.679.679,0,0,1-.28-.592Zm.324.156a.506.506,0,0,0,.177.413.522.522,0,0,0,.459.079.733.733,0,0,0,.445-.272.768.768,0,0,0,.16-.494l0-.214a.481.481,0,0,0-.63-.5.757.757,0,0,0-.445.271.766.766,0,0,0-.166.506Zm.793,2.7-.25-.088,2.3-3.826.25.088Zm1.337-.976a1,1,0,0,1,.257-.686,1.179,1.179,0,0,1,.668-.39.838.838,0,0,1,.678.1.688.688,0,0,1,.279.594l0,.208a1,1,0,0,1-.257.685,1.18,1.18,0,0,1-.668.391.838.838,0,0,1-.679-.1.683.683,0,0,1-.279-.588Zm.32.16a.514.514,0,0,0,.177.416.525.525,0,0,0,.46.079.738.738,0,0,0,.448-.272.774.774,0,0,0,.16-.5l0-.214a.507.507,0,0,0-.177-.417.531.531,0,0,0-.456-.075.752.752,0,0,0-.612.768Z" transform="translate(-631.058 -185.239)" fill="#9e3333"/></g><g transform="translate(620.581 120.081)"><path d="M626.992,221.826l-3.082.784-.01-.262,1.624-2.035a5.219,5.219,0,0,0,.555-.817,1.158,1.158,0,0,0,.142-.555.607.607,0,0,0-.3-.551,1.026,1.026,0,0,0-.762-.037,1.494,1.494,0,0,0-.792.471,1.084,1.084,0,0,0-.279.77l-.4.1a1.33,1.33,0,0,1,.163-.683,1.728,1.728,0,0,1,.516-.586,2.2,2.2,0,0,1,.782-.364,1.521,1.521,0,0,1,1.068.029.77.77,0,0,1,.411.715,1.456,1.456,0,0,1-.19.688,6.7,6.7,0,0,1-.722,1.049L624.4,222.2l2.585-.657Z" transform="translate(-623.687 -216.147)" fill="#9e3333"/><path d="M634.982,218.074a2.358,2.358,0,0,1-.331,1.424,1.794,1.794,0,0,1-1.107.739,1.209,1.209,0,0,1-1.136-.16,1.606,1.606,0,0,1-.449-1.191l-.029-.741a2.327,2.327,0,0,1,.334-1.418,1.813,1.813,0,0,1,1.108-.735,1.223,1.223,0,0,1,1.132.15,1.578,1.578,0,0,1,.448,1.174Zm-.434-.638a1.491,1.491,0,0,0-.317-1,.83.83,0,0,0-.847-.151,1.28,1.28,0,0,0-.811.564,2,2,0,0,0-.243,1.12l.032.811a1.486,1.486,0,0,0,.327,1.009.827.827,0,0,0,.844.164,1.259,1.259,0,0,0,.805-.575,2.05,2.05,0,0,0,.241-1.145Z" transform="translate(-628.023 -215.064)" fill="#9e3333"/><path d="M639.874,215.3a.973.973,0,0,1,.248-.681,1.277,1.277,0,0,1,.682-.418.878.878,0,0,1,.7.067.638.638,0,0,1,.3.56l.008.2a.973.973,0,0,1-.245.675,1.262,1.262,0,0,1-.678.417.9.9,0,0,1-.7-.062.629.629,0,0,1-.3-.56Zm.336.134a.467.467,0,0,0,.19.391.558.558,0,0,0,.474.052.793.793,0,0,0,.452-.289.735.735,0,0,0,.153-.488l-.008-.208a.471.471,0,0,0-.192-.392.548.548,0,0,0-.467-.055.813.813,0,0,0-.452.287.734.734,0,0,0-.159.5Zm.878,2.581-.259-.072,2.278-3.841.259.072ZM642.441,217a.966.966,0,0,1,.248-.679,1.28,1.28,0,0,1,.678-.416.9.9,0,0,1,.7.064.631.631,0,0,1,.3.561l.008.2a.969.969,0,0,1-.249.68,1.271,1.271,0,0,1-.678.416.9.9,0,0,1-.7-.064.628.628,0,0,1-.3-.556Zm.333.138a.471.471,0,0,0,.191.393.56.56,0,0,0,.475.052.8.8,0,0,0,.455-.29.742.742,0,0,0,.153-.494l-.008-.208a.467.467,0,0,0-.191-.4.566.566,0,0,0-.471-.048.823.823,0,0,0-.453.284.724.724,0,0,0-.158.494Z" transform="translate(-632.204 -214.107)" fill="#9e3333"/></g><g transform="translate(618.186 94.904)"><g opacity="0.75"><path d="M763.587,163.987,618.725,203.342h0l-.094-3.8h0L763.615,160.97h0Z" transform="translate(-618.632 -160.97)" fill="#e34949" opacity="0.33"/><path d="M645.277,220.743l152.284-44.968L763.615,160.97,618.632,199.544Z" transform="translate(-618.632 -160.97)" fill="#e8d4d4" opacity="0.6"/><path d="M645.359,267.667l-.082-4.087-26.646-21.2.094,3.8Z" transform="translate(-618.632 -203.806)" fill="#660909" opacity="0.36"/></g><path d="M827.1,195.414,674.949,241.272h0l-.082-4.087h0L827.15,192.216h0Z" transform="translate(-648.221 -177.411)" fill="#e34949" opacity="0.36"/></g><g transform="translate(634.605 37.318)"><g transform="translate(0.066)"><g transform="translate(0 61.518)"><path d="M653.432,204.031a.238.238,0,0,1,.165-.292h0l124.66-34.463a.238.238,0,0,1,.292.165h0a.237.237,0,0,1-.165.291h0L653.723,204.2a.238.238,0,0,1-.063.009h0a.237.237,0,0,1-.228-.174Z" transform="translate(-653.423 -169.268)" fill="#9e3333"/></g><g transform="translate(14.997)"><g transform="translate(0 21.782)"><path d="M685.075,85.407l.336,0,.333,70.073-.335,0-.334-70.073Z" transform="translate(-685.075 -85.405)" fill="#9e3333"/></g><g transform="translate(16.213 18.147)"><path d="M719.293,77.736l.336,0,.334,69.219-.336,0-.334-69.22Z" transform="translate(-719.293 -77.734)" fill="#9e3333"/></g><g transform="translate(32.424 14.526)"><path d="M753.507,70.094l.335,0,.333,68.872-.335,0-.333-68.872Z" transform="translate(-753.507 -70.092)" fill="#9e3333"/></g><g transform="translate(48.636 10.905)"><path d="M787.721,62.452l.336,0,.334,67.577-.336,0-.334-67.577Z" transform="translate(-787.721 -62.45)" fill="#9e3333"/></g><g transform="translate(64.847 7.284)"><path d="M821.934,54.808h.336l.333,66.922-.335,0-.334-66.923Z" transform="translate(-821.934 -54.807)" fill="#9e3333"/></g><g transform="translate(81.059 3.663)"><path d="M856.149,47.167l.336,0,.333,66.053h-.335l-.334-66.053Z" transform="translate(-856.149 -47.165)" fill="#9e3333"/></g><g transform="translate(96.091)"><path d="M887.875,102.308l.331-62.874.335,0-.329,62.874-.336,0Z" transform="translate(-887.875 -39.434)" fill="#9e3333"/></g></g></g><g transform="translate(0 25.125)"><path d="M653.618,163.136,653.283,92.7a.237.237,0,0,1,.236-.238h0a.237.237,0,0,1,.237.236h0l.335,70.436a.237.237,0,0,1-.235.238h0a.237.237,0,0,1-.238-.236Z" transform="translate(-653.283 -92.461)" fill="#9e3333"/></g></g><path d="M654.546,179.41l-.2,12.492,124.515-34.611v-10.8Z" transform="translate(-19.235 -58.448)" opacity="0.2" fill="url(#a)"/><path d="M653.97,122.752,778.331,92.266l-.05,13.247-124.515,31.37Z" transform="translate(-18.932 -29.916)" opacity="0.2" fill="url(#a)"/><path d="M653.97,64.575,778.117,35.412l.214,13.256L653.765,78.706Z" transform="translate(-18.932)" opacity="0.2" fill="url(#c)"/><g transform="translate(634.8 38.87)"><g transform="translate(0 4.49)" opacity="0.8"><path d="M654.2,143.729s9.407-25.444,15.964-29.739,9.693,4.626,13.683,7.6c5.166,3.849,10.263-9.252,13.683-16.191s10.619-13.135,15.18.083c3.551,10.291,7.055,12.473,10.19,5.2s9.122-26.765,13.114-31.391,10.75-9.628,13.4,6.939c1.426,8.922,5.417,8.591,6.842,2.643.89-3.715,3.945-15.951,5.986-22.8,3.437-11.529,8.107-16.916,13.113-10.9,3.016,3.621,7.84,51.617,7.84,51.617l-126.5,38.84Z" transform="translate(-653.96 -52.45)" fill="url(#d)"/><path d="M656.284,145.553l-2.5-1.9.144-.188.222.081-.222-.081-.144.188a.237.237,0,0,1-.079-.271h0s2.354-6.368,5.53-13.275h0c3.188-6.913,7.145-14.346,10.526-16.581h0a6.372,6.372,0,0,1,3.495-1.187h0c4.635.051,7.284,6.479,10.459,8.8h0a2.937,2.937,0,0,0,1.774.646h0c2.043.032,4.252-2.588,6.238-6.045h0c2-3.444,3.816-7.66,5.318-10.707h0c1.98-3.99,5.163-7.79,8.575-7.817h0c2.582.007,5.079,2.23,7.042,7.927h0c2.117,6.216,4.314,9.378,6.091,9.316h0c1.147.021,2.429-1.267,3.657-4.129h0c3.138-7.258,9.09-26.721,13.152-31.452h0c1.921-2.214,4.459-4.561,7.026-4.578h0c2.865.021,5.4,2.953,6.784,11.635h0c.751,4.8,2.307,6.781,3.506,6.731h0c1.025.032,2.231-1.393,2.872-4.106h0c.89-3.719,3.945-15.954,5.99-22.813h0c2.491-8.284,5.539-13.5,9.2-13.559h0c1.437,0,2.882.847,4.318,2.57h0c.834,1.036,1.657,4.673,2.549,9.7h0c.877,5.015,1.763,11.357,2.555,17.584h0c1.584,12.455,2.79,24.455,2.79,24.456h0a.236.236,0,0,1-.166.25h0L656.5,145.591a.259.259,0,0,1-.071.01h0a.227.227,0,0,1-.142-.048Zm.19-.45,126.2-38.748c-.118-1.158-.757-7.4-1.665-15.18h0c-1.007-8.625-2.343-19.129-3.655-26.633h0c-.862-4.987-1.773-8.707-2.446-9.482h0c-1.392-1.669-2.716-2.4-3.954-2.4h0c-3.151-.056-6.307,4.95-8.751,13.22h0c-2.038,6.84-5.094,19.077-5.982,22.789h0c-.673,2.765-1.871,4.436-3.332,4.469h0c-1.713-.051-3.186-2.306-3.974-7.131h0c-1.388-8.663-3.877-11.257-6.316-11.235h0c-2.262-.016-4.786,2.218-6.668,4.413h0c-3.92,4.52-9.942,24.048-13.076,31.33h0c-1.255,2.89-2.57,4.395-4.093,4.416h0c-2.306-.062-4.364-3.414-6.539-9.636h0c-1.951-5.644-4.336-7.615-6.594-7.608h0c-3.033-.027-6.223,3.615-8.15,7.552h0c-1.5,3.031-3.317,7.257-5.332,10.736h0c-2.027,3.466-4.2,6.25-6.649,6.281h0a3.4,3.4,0,0,1-2.056-.741h0c-3.306-2.512-6.011-8.753-10.176-8.7h0a5.9,5.9,0,0,0-3.235,1.11h0c-3.176,2.062-7.2,9.5-10.356,16.381h0c-2.87,6.246-5.066,12.041-5.454,13.077h0l2.258,1.721Z" transform="translate(-653.696 -52.186)" fill="#e8d4d4"/></g><g transform="translate(2.851 6.144)" opacity="0.8"><path d="M660.215,147.218s9.407-25.444,15.964-29.74,9.692,4.626,13.683,7.6c5.165,3.849,10.263-9.252,13.683-16.191s9.977-13.548,14.538-.33c3.551,10.29,7.7,12.886,10.833,5.617S738.607,87.523,742.6,82.9s10.181-9.742,12.829,6.825c1.426,8.922,5.416,8.591,6.841,2.643.89-3.714,3.945-15.95,5.986-22.8,3.437-11.529,8.106-16.915,13.113-10.9,3.016,3.621,7.412,49.252,7.412,49.252Z" transform="translate(-659.977 -55.94)" fill="url(#e)"/><path d="M659.777,147.117a.237.237,0,0,1-.05-.244h0s2.354-6.368,5.53-13.276h0c3.187-6.913,7.145-14.346,10.527-16.58h0a6.366,6.366,0,0,1,3.494-1.188h0c4.635.051,7.283,6.479,10.459,8.8h0a2.93,2.93,0,0,0,1.774.647h0c2.042.032,4.251-2.588,6.237-6.045h0c2-3.444,3.816-7.66,5.318-10.707h0c2.009-4.042,5.028-8.036,8.326-8.07h0c2.412.011,4.725,2.192,6.649,7.767h0c2.158,6.322,4.622,9.643,6.632,9.589h0c1.243.014,2.564-1.213,3.759-3.99h0c3.139-7.262,9.663-26.613,13.721-31.338h0c1.93-2.221,4.348-4.611,6.8-4.63h0c1.339,0,2.635.759,3.721,2.566h0c1.094,1.81,2.025,4.677,2.719,9.007h0c.75,4.8,2.306,6.782,3.5,6.732h0c1.026.032,2.231-1.394,2.873-4.107h0c.89-3.718,3.945-15.952,5.99-22.813h0c2.491-8.283,5.539-13.5,9.2-13.557h0c1.439,0,2.883.845,4.319,2.569h0c.832,1.033,1.631,4.525,2.481,9.334h0c.838,4.795,1.67,10.84,2.409,16.772h0c1.476,11.864,2.575,23.273,2.575,23.274h0a.236.236,0,0,1-.166.25h0L660.019,147.181a.23.23,0,0,1-.069.01h0a.242.242,0,0,1-.173-.074Zm.395-.08-.221-.082.221.082ZM679.279,116.3a5.9,5.9,0,0,0-3.236,1.11h0c-3.176,2.062-7.2,9.5-10.355,16.382h0c-2.671,5.811-4.757,11.231-5.348,12.793h0l127.92-39.109c-.11-1.127-.693-7.047-1.531-14.432h0c-.931-8.21-2.177-18.215-3.429-25.386h0c-.823-4.765-1.706-8.335-2.38-9.112h0c-1.391-1.669-2.715-2.4-3.954-2.4h0c-3.15-.056-6.307,4.949-8.75,13.22h0c-2.038,6.84-5.094,19.078-5.983,22.787h0c-.673,2.766-1.87,4.438-3.333,4.47h0c-1.712-.051-3.186-2.306-3.973-7.131h0c-.687-4.3-1.614-7.115-2.656-8.836h0c-1.049-1.722-2.167-2.333-3.316-2.338h0c-2.129-.019-4.548,2.253-6.444,4.467h0C738.589,87.316,732,106.729,728.868,114h0c-1.219,2.816-2.61,4.262-4.194,4.276h0c-2.513-.054-4.869-3.569-7.079-9.909h0c-1.911-5.533-4.134-7.459-6.2-7.448h0c-2.886-.033-5.943,3.8-7.9,7.806h0c-1.495,3.031-3.317,7.256-5.333,10.736h0c-2.025,3.466-4.2,6.25-6.647,6.281h0a3.413,3.413,0,0,1-2.057-.741h0c-3.294-2.5-5.99-8.7-10.125-8.7h-.051Z" transform="translate(-659.713 -55.677)" fill="#e8d4d4"/></g><path d="M718.535,158.318c-4.561-13.218-10.549-6.516-13.97.424s-8.589,20.938-13.754,17.088c-3.991-2.974-7.626-12.887-14.182-8.591s-15.964,29.74-15.964,29.74l71.2-22.059-4.816-7.5C724.343,169.583,721.263,166.226,718.535,158.318Z" transform="translate(-657.364 -99.557)" fill="#fff" opacity="0.3" style="mix-blend-mode:overlay;isolation:isolate"/><g transform="translate(2.06 0)"><g transform="translate(0 5.55)"><path d="M658.474,147.169a.669.669,0,0,1-.385-.867h0c.01-.021,5.988-15.593,11.86-24.666h0c1.98-3.025,3.878-5.352,5.825-6.2h0a8.191,8.191,0,0,1,3.152-.719h0a5.377,5.377,0,0,1,3.992,1.812h0a24.814,24.814,0,0,1,2.511,3.448h0a20.134,20.134,0,0,0,2.437,3.107h0a4.568,4.568,0,0,0,3.025,1.571h0c1.083,0,2.416-.675,3.967-3.021h0c3.975-6.035,6.908-14.46,10.091-18.945h0a6.985,6.985,0,0,1,3.556-2.979h0a7.041,7.041,0,0,1,1.794-.25h0a4.925,4.925,0,0,1,4.021,2.078h0a23.348,23.348,0,0,1,2.226,3.974h0l.035.082s.552,1.625,1.434,3.609h0a22.709,22.709,0,0,0,3.327,5.654h0c1.023,1.127,1.9,1.639,2.524,1.621h0a2.153,2.153,0,0,0,1.578-.926h0a13.484,13.484,0,0,0,2-3.557h0c2.407-5.731,6.951-20.262,10.587-26.513h0a29.678,29.678,0,0,1,4.652-6.244h0c1.64-1.589,3.366-2.64,5.176-2.651h0a4.467,4.467,0,0,1,2.7.928h0c2,1.485,2.712,3.721,3.181,6.109h0a51.915,51.915,0,0,0,1.614,7.59h0a11.9,11.9,0,0,0,1.516,3.1h0c.52.7.982.936,1.244.923h0c.233,0,.582-.142,1.036-.78h0a10.892,10.892,0,0,0,1.338-3.2h0c1.381-4.895,4.516-22.24,9.4-31.248h0c1.644-3,3.468-5.2,5.833-5.583h0a.67.67,0,0,1,.761.567h0a.671.671,0,0,1-.565.762h0c-1.555.193-3.294,2-4.849,4.893h0a60.129,60.129,0,0,0-4.192,10.766h0c-2.449,8.08-4.15,16.84-5.091,20.2h0a12.132,12.132,0,0,1-1.532,3.612h0a2.7,2.7,0,0,1-2.135,1.352h0a3.059,3.059,0,0,1-2.32-1.462h0a13.174,13.174,0,0,1-1.708-3.463h0a52.681,52.681,0,0,1-1.664-7.774h0c-.457-2.321-1.1-4.132-2.663-5.291h0a3.116,3.116,0,0,0-1.9-.664h0c-1.242-.01-2.726.792-4.24,2.271h0a28.393,28.393,0,0,0-4.427,5.957h0c-3.493,5.977-8.07,20.524-10.508,26.355h0a14.7,14.7,0,0,1-2.223,3.922h0a3.473,3.473,0,0,1-2.59,1.386h0c-1.294-.018-2.394-.847-3.514-2.057h0c-2.674-2.944-4.791-9.036-5.023-9.682h0a22.266,22.266,0,0,0-2.065-3.716h0a3.562,3.562,0,0,0-2.966-1.565h0a5.685,5.685,0,0,0-1.454.206h0a5.8,5.8,0,0,0-2.8,2.46h0a40.289,40.289,0,0,0-3.035,5.377h0c-2.081,4.223-4.3,9.367-7.027,13.526h0C694.329,124.9,692.6,126,690.889,126h0a5.846,5.846,0,0,1-3.966-1.957h0a21.333,21.333,0,0,1-2.611-3.316h0a23.99,23.99,0,0,0-2.362-3.263h0a4.021,4.021,0,0,0-3.025-1.4h0a6.867,6.867,0,0,0-2.633.615h0c-2.126.827-5.289,5.334-8.08,10.571h0c-2.831,5.243-5.462,11.233-7.111,15.181h0c-1.1,2.631-1.759,4.347-1.76,4.352h0a.672.672,0,0,1-.627.43h0a.676.676,0,0,1-.241-.045Z" transform="translate(-658.043 -54.424)" fill="#e8d4d4"/></g><g transform="translate(45.549 45.104)" opacity="0.4"><path d="M760.657,150.372a5.986,5.986,0,1,1,5.987-5.986A5.993,5.993,0,0,1,760.657,150.372Z" transform="translate(-754.436 -138.165)" fill="#fff"/><path d="M754.175,144.125a6.227,6.227,0,0,1,6.22-6.222h0a6.228,6.228,0,0,1,6.222,6.222h0a6.228,6.228,0,0,1-6.222,6.221h0v-.47a5.767,5.767,0,0,0,5.752-5.751h0a5.768,5.768,0,0,0-5.752-5.752h0a5.767,5.767,0,0,0-5.751,5.752h0a5.766,5.766,0,0,0,5.751,5.751h0v.47a6.227,6.227,0,0,1-6.22-6.221Z" transform="translate(-754.175 -137.903)" fill="#e8d4d4"/></g><g transform="translate(49.388 48.944)"><path d="M767.116,149.134a1.71,1.71,0,1,1-1.711-1.711A1.71,1.71,0,0,1,767.116,149.134Z" transform="translate(-763.023 -146.752)" fill="#fff"/><path d="M762.276,148.388a2.382,2.382,0,0,1,2.382-2.382h0a2.382,2.382,0,0,1,2.383,2.382h0a2.382,2.382,0,0,1-2.383,2.382h0a2.382,2.382,0,0,1-2.382-2.382Zm1.344,0a1.039,1.039,0,0,0,1.038,1.039h0a1.039,1.039,0,0,0,1.039-1.039h0a1.04,1.04,0,0,0-1.039-1.039h0a1.039,1.039,0,0,0-1.038,1.039Z" transform="translate(-762.276 -146.006)" fill="#e8d4d4"/></g><g transform="translate(82.749 22.304)" opacity="0.4"><path d="M839.17,102.253a5.986,5.986,0,1,1,5.987-5.986A5.993,5.993,0,0,1,839.17,102.253Z" transform="translate(-832.947 -90.044)" fill="#fff"/><path d="M832.685,96a6.231,6.231,0,0,1,6.222-6.222h0A6.229,6.229,0,0,1,845.129,96h0a6.227,6.227,0,0,1-6.221,6.221h0v-.47A5.767,5.767,0,0,0,844.659,96h0a5.769,5.769,0,0,0-5.752-5.752h0A5.768,5.768,0,0,0,833.155,96h0a5.766,5.766,0,0,0,5.752,5.751h0v.47A6.228,6.228,0,0,1,832.685,96Z" transform="translate(-832.685 -89.782)" fill="#e8d4d4"/></g><g transform="translate(86.59 26.144)"><path d="M845.629,101.015a1.71,1.71,0,1,1-1.71-1.711A1.709,1.709,0,0,1,845.629,101.015Z" transform="translate(-841.538 -98.633)" fill="#fff"/><path d="M840.792,100.269a2.381,2.381,0,0,1,2.381-2.382h0a2.382,2.382,0,0,1,2.381,2.382h0a2.382,2.382,0,0,1-2.381,2.381h0a2.381,2.381,0,0,1-2.381-2.381Zm1.343,0a1.038,1.038,0,0,0,1.039,1.038h0a1.038,1.038,0,0,0,1.038-1.038h0a1.039,1.039,0,0,0-1.038-1.039h0a1.039,1.039,0,0,0-1.039,1.039Z" transform="translate(-840.792 -97.887)" fill="#e8d4d4"/></g><g transform="translate(111.113)" opacity="0.4"><path d="M899.032,55.179a5.986,5.986,0,1,1,5.987-5.986A5.993,5.993,0,0,1,899.032,55.179Z" transform="translate(-892.81 -42.971)" fill="#fff"/><path d="M892.548,48.932a6.228,6.228,0,0,1,6.222-6.222h0a6.227,6.227,0,0,1,6.221,6.222h0a6.227,6.227,0,0,1-6.221,6.221h0v-.471a5.766,5.766,0,0,0,5.752-5.75h0a5.768,5.768,0,0,0-5.752-5.753h0a5.766,5.766,0,0,0-5.751,5.753h0a5.764,5.764,0,0,0,5.751,5.75h0v.471a6.228,6.228,0,0,1-6.222-6.221Z" transform="translate(-892.548 -42.71)" fill="#e8d4d4"/></g><g transform="translate(114.953 3.839)"><path d="M905.491,53.941a1.71,1.71,0,1,1-1.71-1.71A1.711,1.711,0,0,1,905.491,53.941Z" transform="translate(-901.399 -51.559)" fill="#fff"/><path d="M900.652,53.2a2.384,2.384,0,0,1,2.382-2.383h0a2.384,2.384,0,0,1,2.382,2.383h0a2.382,2.382,0,0,1-2.382,2.381h0a2.382,2.382,0,0,1-2.382-2.381Zm1.343,0a1.039,1.039,0,0,0,1.039,1.038h0a1.04,1.04,0,0,0,1.039-1.038h0a1.041,1.041,0,0,0-1.039-1.04h0A1.04,1.04,0,0,0,902,53.2Z" transform="translate(-900.652 -50.812)" fill="#e8d4d4"/></g><g transform="translate(12.623 60.8)" opacity="0.4"><path d="M691.168,183.5a5.986,5.986,0,1,1,5.986-5.986A5.993,5.993,0,0,1,691.168,183.5Z" transform="translate(-684.946 -171.291)" fill="#fff"/><path d="M684.684,177.251a6.228,6.228,0,0,1,6.222-6.222h0a6.227,6.227,0,0,1,6.221,6.222h0a6.228,6.228,0,0,1-6.221,6.221h0V183a5.766,5.766,0,0,0,5.752-5.751h0a5.766,5.766,0,0,0-5.752-5.752h0a5.767,5.767,0,0,0-5.752,5.752h0A5.767,5.767,0,0,0,690.906,183h0v.47a6.228,6.228,0,0,1-6.222-6.221Z" transform="translate(-684.684 -171.029)" fill="#e8d4d4"/></g><g transform="translate(16.463 64.64)"><path d="M697.627,182.26a1.71,1.71,0,1,1-1.71-1.71A1.71,1.71,0,0,1,697.627,182.26Z" transform="translate(-693.534 -179.878)" fill="#fff"/><path d="M692.788,181.514a2.381,2.381,0,0,1,2.382-2.382h0a2.383,2.383,0,0,1,2.382,2.382h0a2.383,2.383,0,0,1-2.382,2.382h0a2.382,2.382,0,0,1-2.382-2.382Zm1.343,0a1.04,1.04,0,0,0,1.039,1.039h0a1.04,1.04,0,0,0,1.039-1.039h0a1.04,1.04,0,0,0-1.039-1.04h0a1.041,1.041,0,0,0-1.039,1.04Z" transform="translate(-692.788 -179.132)" fill="#e8d4d4"/></g></g></g><g transform="translate(688.393 91.669)" opacity="0.5"><path d="M766.8,182.967V182.8a.237.237,0,0,1,.237-.237h0a.237.237,0,0,1,.237.237h0v.166a.237.237,0,0,1-.237.236h0a.237.237,0,0,1-.237-.236Zm0-1.587v-1.421a.237.237,0,0,1,.237-.236h0a.237.237,0,0,1,.237.236h0v1.421a.237.237,0,0,1-.237.236h0a.237.237,0,0,1-.237-.236Zm0-2.842v-1.421a.237.237,0,0,1,.237-.237h0a.237.237,0,0,1,.237.237h0v1.421a.237.237,0,0,1-.237.237h0a.238.238,0,0,1-.237-.237Zm0-2.842v-1.421a.237.237,0,0,1,.237-.237h0a.237.237,0,0,1,.237.237h0V175.7a.237.237,0,0,1-.237.237h0a.237.237,0,0,1-.237-.237Zm0-2.841v-1.421a.237.237,0,0,1,.237-.236h0a.236.236,0,0,1,.237.236h0v1.421a.237.237,0,0,1-.237.236h0a.237.237,0,0,1-.237-.236Zm0-2.843v-1.42a.238.238,0,0,1,.237-.238h0a.237.237,0,0,1,.237.238h0v1.42a.238.238,0,0,1-.237.238h0a.238.238,0,0,1-.237-.238Zm0-2.842v-1.421a.237.237,0,0,1,.237-.236h0a.237.237,0,0,1,.237.236h0v1.421a.237.237,0,0,1-.237.236h0a.237.237,0,0,1-.237-.236Zm0-2.841v-1.421a.237.237,0,0,1,.237-.236h0a.236.236,0,0,1,.237.236h0v1.421a.237.237,0,0,1-.237.236h0a.237.237,0,0,1-.237-.236Zm0-2.843v-1.42a.238.238,0,0,1,.237-.238h0a.237.237,0,0,1,.237.238h0v1.42a.238.238,0,0,1-.237.238h0a.238.238,0,0,1-.237-.238Zm0-2.842v-1.421a.237.237,0,0,1,.237-.236h0a.237.237,0,0,1,.237.236h0v1.421a.237.237,0,0,1-.237.236h0a.238.238,0,0,1-.237-.236Zm0-2.842v-1.421a.237.237,0,0,1,.237-.237h0a.237.237,0,0,1,.237.237h0V155.8a.237.237,0,0,1-.237.236h0a.238.238,0,0,1-.237-.236Z" transform="translate(-766.803 -154.144)" fill="#5d4d4d"/></g><g transform="translate(725.594 68.869)" opacity="0.5"><path d="M845.317,144.627v-1.421a.237.237,0,0,1,.237-.237h0a.237.237,0,0,1,.236.237h0v1.421a.237.237,0,0,1-.236.238h0a.238.238,0,0,1-.237-.238Zm0-2.842v-1.421a.237.237,0,0,1,.237-.237h0a.237.237,0,0,1,.236.237h0v1.421a.237.237,0,0,1-.236.237h0a.237.237,0,0,1-.237-.237Zm0-2.842v-1.421a.238.238,0,0,1,.237-.237h0a.237.237,0,0,1,.236.237h0v1.421a.237.237,0,0,1-.236.237h0a.237.237,0,0,1-.237-.237Zm0-2.842V134.68a.237.237,0,0,1,.237-.237h0a.237.237,0,0,1,.236.237h0V136.1a.237.237,0,0,1-.236.236h0a.237.237,0,0,1-.237-.236Zm0-2.842v-1.421a.237.237,0,0,1,.237-.236h0a.237.237,0,0,1,.236.236h0v1.421a.237.237,0,0,1-.236.237h0a.237.237,0,0,1-.237-.237Zm0-2.841V129a.237.237,0,0,1,.237-.237h0a.236.236,0,0,1,.236.237h0v1.421a.237.237,0,0,1-.236.236h0a.237.237,0,0,1-.237-.236Zm0-2.843v-1.421a.237.237,0,0,1,.237-.237h0a.236.236,0,0,1,.236.237h0v1.421a.237.237,0,0,1-.236.238h0a.238.238,0,0,1-.237-.238Zm0-2.842v-1.421a.237.237,0,0,1,.237-.236h0a.237.237,0,0,1,.236.236h0v1.421a.237.237,0,0,1-.236.237h0a.237.237,0,0,1-.237-.237Zm0-2.842V120.47a.237.237,0,0,1,.237-.237h0a.237.237,0,0,1,.236.237h0v1.421a.237.237,0,0,1-.236.237h0a.237.237,0,0,1-.237-.237Zm0-2.841v-1.421a.237.237,0,0,1,.237-.237h0a.237.237,0,0,1,.236.237h0v1.421a.237.237,0,0,1-.236.236h0a.237.237,0,0,1-.237-.236Zm0-2.843v-1.421a.237.237,0,0,1,.237-.236h0a.236.236,0,0,1,.236.236h0v1.421a.237.237,0,0,1-.236.238h0a.238.238,0,0,1-.237-.238Zm0-2.842v-1.421a.237.237,0,0,1,.237-.236h0a.236.236,0,0,1,.236.236h0v1.421a.237.237,0,0,1-.236.237h0a.238.238,0,0,1-.237-.237Zm0-2.842V109.1a.237.237,0,0,1,.237-.238h0a.237.237,0,0,1,.236.238h0v1.42a.237.237,0,0,1-.236.237h0a.237.237,0,0,1-.237-.237Zm0-2.841V106.26a.238.238,0,0,1,.237-.237h0a.237.237,0,0,1,.236.237h0v1.421a.237.237,0,0,1-.236.236h0a.237.237,0,0,1-.237-.236Z" transform="translate(-845.317 -106.023)" fill="#5d4d4d"/></g><g transform="translate(754.669 47.136)" opacity="0.5"><path d="M906.68,112.969v-1.42a.237.237,0,0,1,.236-.237h0a.237.237,0,0,1,.237.237h0v1.42a.238.238,0,0,1-.237.238h0a.237.237,0,0,1-.236-.238Zm0-2.842v-1.421a.237.237,0,0,1,.236-.237h0a.237.237,0,0,1,.237.237h0v1.421a.237.237,0,0,1-.237.237h0a.237.237,0,0,1-.236-.237Zm0-2.842v-1.421a.237.237,0,0,1,.236-.237h0a.237.237,0,0,1,.237.237h0v1.421a.237.237,0,0,1-.237.237h0a.237.237,0,0,1-.236-.237Zm0-2.842v-1.421a.237.237,0,0,1,.236-.237h0a.237.237,0,0,1,.237.237h0v1.421a.237.237,0,0,1-.237.237h0a.237.237,0,0,1-.236-.237Zm0-2.842v-1.42a.237.237,0,0,1,.236-.238h0a.238.238,0,0,1,.237.238h0v1.42a.238.238,0,0,1-.237.238h0a.237.237,0,0,1-.236-.238Zm0-2.842V97.338a.237.237,0,0,1,.236-.236h0a.237.237,0,0,1,.237.236h0V98.76a.237.237,0,0,1-.237.236h0a.237.237,0,0,1-.236-.236Zm0-2.842V94.5a.237.237,0,0,1,.236-.236h0a.237.237,0,0,1,.237.236h0v1.421a.237.237,0,0,1-.237.236h0a.237.237,0,0,1-.236-.236Zm0-2.842V91.654a.237.237,0,0,1,.236-.236h0a.237.237,0,0,1,.237.236h0v1.421a.237.237,0,0,1-.237.236h0a.237.237,0,0,1-.236-.236Zm0-2.842V88.812a.237.237,0,0,1,.236-.236h0a.237.237,0,0,1,.237.236h0v1.421a.237.237,0,0,1-.237.236h0a.237.237,0,0,1-.236-.236Zm0-2.842V85.97a.237.237,0,0,1,.236-.236h0a.237.237,0,0,1,.237.236h0v1.421a.237.237,0,0,1-.237.236h0a.237.237,0,0,1-.236-.236Zm0-2.842V83.128a.237.237,0,0,1,.236-.236h0a.237.237,0,0,1,.237.236h0V84.55a.237.237,0,0,1-.237.236h0a.237.237,0,0,1-.236-.236Zm0-2.842V80.286a.237.237,0,0,1,.236-.236h0a.237.237,0,0,1,.237.236h0v1.421a.237.237,0,0,1-.237.236h0a.237.237,0,0,1-.236-.236Zm0-2.843V77.444a.237.237,0,0,1,.236-.237h0a.237.237,0,0,1,.237.237h0v1.421a.237.237,0,0,1-.237.237h0a.237.237,0,0,1-.236-.237Zm0-2.842V74.6a.237.237,0,0,1,.236-.237h0a.237.237,0,0,1,.237.237h0v1.421a.237.237,0,0,1-.237.237h0a.237.237,0,0,1-.236-.237Zm0-2.842V71.76a.237.237,0,0,1,.236-.237h0a.237.237,0,0,1,.237.237h0v1.421a.237.237,0,0,1-.237.237h0a.237.237,0,0,1-.236-.237Zm0-2.842V68.918a.237.237,0,0,1,.236-.237h0a.237.237,0,0,1,.237.237h0v1.421a.237.237,0,0,1-.237.237h0a.237.237,0,0,1-.236-.237Zm0-2.842V66.076a.237.237,0,0,1,.236-.237h0a.237.237,0,0,1,.237.237h0V67.5a.238.238,0,0,1-.237.237h0a.238.238,0,0,1-.236-.237Zm0-2.842V63.234a.237.237,0,0,1,.236-.237h0a.237.237,0,0,1,.237.237h0v1.421a.238.238,0,0,1-.237.237h0a.238.238,0,0,1-.236-.237Zm0-2.842V60.392a.237.237,0,0,1,.236-.237h0a.237.237,0,0,1,.237.237h0v1.421a.238.238,0,0,1-.237.237h0a.238.238,0,0,1-.236-.237Z" transform="translate(-906.68 -60.155)" fill="#5d4d4d"/></g><g transform="translate(655.468 105.655)" opacity="0.5"><path d="M697.316,208.9v-2.267a.237.237,0,0,1,.236-.237h0a.237.237,0,0,1,.237.237h0V208.9a.237.237,0,0,1-.237.238h0a.237.237,0,0,1-.236-.238Zm0-2.841V203.79a.236.236,0,0,1,.236-.236h0a.237.237,0,0,1,.237.236h0v2.269a.237.237,0,0,1-.237.236h0a.237.237,0,0,1-.236-.236Zm0-2.842v-2.269a.237.237,0,0,1,.236-.237h0a.237.237,0,0,1,.237.237h0v2.269a.237.237,0,0,1-.237.236h0a.237.237,0,0,1-.236-.236Zm0-2.842v-2.268a.237.237,0,0,1,.236-.237h0a.237.237,0,0,1,.237.237h0v2.268a.237.237,0,0,1-.237.237h0a.237.237,0,0,1-.236-.237Zm0-2.842v-2.268a.237.237,0,0,1,.236-.237h0a.237.237,0,0,1,.237.237h0v2.268a.237.237,0,0,1-.237.236h0a.236.236,0,0,1-.236-.236Zm0-2.842v-2.268a.237.237,0,0,1,.236-.237h0a.237.237,0,0,1,.237.237h0v2.268a.237.237,0,0,1-.237.236h0a.236.236,0,0,1-.236-.236Zm0-2.842v-2.267a.237.237,0,0,1,.236-.237h0a.237.237,0,0,1,.237.237h0v2.267a.237.237,0,0,1-.237.237h0a.237.237,0,0,1-.236-.237Zm0-2.842v-2.267a.236.236,0,0,1,.236-.236h0a.236.236,0,0,1,.237.236h0v2.267a.237.237,0,0,1-.237.237h0a.237.237,0,0,1-.236-.237Zm0-2.842v-.557a.238.238,0,0,1,.049-.145h0a.238.238,0,0,1-.049-.145h0V183.9a.236.236,0,0,1,.236-.237h0a.237.237,0,0,1,.237.237h0v1.421a.241.241,0,0,1-.049.145h0a.241.241,0,0,1,.049.145h0v.557a.237.237,0,0,1-.237.236h0a.236.236,0,0,1-.236-.236Z" transform="translate(-697.316 -183.66)" fill="#5d4d4d"/></g><path d="M698.714,165.274v25.442L731,180.881V149.773s-3.525.877-6.413,8.457c0,0-4.6,10.037-6.95,13.565s-4.521,4.589-6.8,3.524-4.207-4.593-6.024-7.158A6.09,6.09,0,0,0,698.714,165.274Z" transform="translate(-42.583 -60.175)" fill="#fff" opacity="0.3" style="mix-blend-mode:overlay;isolation:isolate"/><path d="M846.265,119.5V77.381s4.917-.321,5.986,7.483,2.993,11.545,5.238,11.224c0,0,1.609.591,3.955-10.69,6.094-29.291,13.47-29.932,13.47-29.932v55.588Z" transform="translate(-120.221 -10.552)" fill="#fff" opacity="0.3" style="mix-blend-mode:overlay;isolation:isolate"/><g transform="translate(650.408 68.458)"><g transform="translate(0)"><g transform="translate(0 5.374)"><path d="M687.137,189.3s7.411-18.244,11.118-22.805c4.422-5.441,8.529-6.868,13.113,1.425,5.986,10.832,13.2-2.671,17.959-13.113,7.412-16.249,19.67-21.665,26.8-3.42s15.6.937,22.235-16.819c6.414-17.176,20.952-25.514,25.941-7.412,3.049,11.065,5.629,24.088,5.914,27.509l-120.654,36.2Z" transform="translate(-686.9 -116.761)" fill="url(#f)"/><path d="M689.167,190.806l-2.423-1.568.13-.2.219.089-.219-.089-.13.2a.236.236,0,0,1-.09-.288h0c.01-.014,7.394-18.227,11.153-22.866h0c2.227-2.733,4.39-4.516,6.678-4.527h0c2.3.008,4.52,1.818,6.825,5.986h0c1.548,2.8,3.124,3.875,4.661,3.873h0c2.188.019,4.57-2.254,6.794-5.556h0a81.873,81.873,0,0,0,6.08-11.414h0c4.191-9.17,9.912-14.974,15.549-14.994h0c4.392.005,8.555,3.571,11.683,11.585h0c2.139,5.484,4.381,7.635,6.5,7.618h0c2.48.027,5.2-2.935,7.817-7.523h0a121.957,121.957,0,0,0,7.472-16.91h0c3.915-10.45,10.786-17.7,16.9-17.726h0c3.994,0,7.523,3.161,9.491,10.334h0c3.054,11.083,5.632,24.092,5.922,27.552h0a.235.235,0,0,1-.167.247h0l-120.654,36.2a.241.241,0,0,1-.069.01h0a.24.24,0,0,1-.129-.037Zm.166-.458L809.7,154.232c-.356-3.657-2.9-16.426-5.89-27.275h0c-1.964-7.091-5.331-9.985-9.034-9.986h0c-5.728-.027-12.6,7.051-16.456,17.418h0a122.378,122.378,0,0,1-7.5,16.979h0c-2.65,4.606-5.365,7.735-8.228,7.762h0c-2.489-.018-4.787-2.4-6.946-7.919h0c-3.109-7.947-7.144-11.287-11.242-11.283h0c-5.285-.018-10.97,5.6-15.118,14.715h0a82.358,82.358,0,0,1-6.118,11.483h0c-2.261,3.324-4.664,5.746-7.187,5.765h0c-1.789,0-3.5-1.261-5.076-4.117h0c-2.281-4.127-4.4-5.748-6.411-5.741h0c-2.016-.01-4.116,1.642-6.311,4.351h0c-1.817,2.23-4.607,7.939-6.916,13.061h0c-2.045,4.53-3.726,8.609-4.091,9.5h0l2.166,1.4Z" transform="translate(-686.637 -116.497)" fill="#e8d4d4"/><g transform="translate(2.993 0.262)" opacity="0.8"><path d="M693.455,190.733s7.411-18.244,11.118-22.805c4.422-5.441,8.529-6.869,13.113,1.425,5.986,10.833,13.2-2.67,17.959-13.113,7.411-16.249,19.669-21.665,26.8-3.421s15.084.735,22.235-16.819c6.272-15.394,20.5-28.631,25.941-7.412,2.851,11.118,5.416,22.52,5.7,25.941Z" transform="translate(-693.218 -117.312)" fill="url(#g)"/><path d="M693.015,190.628a.238.238,0,0,1-.044-.248h0c.01-.013,7.395-18.227,11.154-22.865h0c2.225-2.733,4.39-4.516,6.68-4.527h0c2.3.007,4.519,1.819,6.823,5.987h0c1.548,2.8,3.125,3.874,4.662,3.873h0c2.188.018,4.57-2.256,6.8-5.557h0a82.078,82.078,0,0,0,6.08-11.414h0c4.19-9.17,9.912-14.975,15.548-14.994h0c4.393,0,8.556,3.57,11.683,11.584h0c2.129,5.462,4.318,7.6,6.376,7.581h0c2.42.028,5.089-2.955,7.7-7.549h0a151.265,151.265,0,0,0,7.72-16.854h0c3.966-9.682,10.986-18.556,17.268-18.6h0c3.774.005,7.091,3.269,9.123,11.217h0c2.852,11.129,5.415,22.513,5.707,25.98h0a.237.237,0,0,1-.17.247h0L693.258,190.7a.226.226,0,0,1-.066.01h0a.235.235,0,0,1-.176-.079Zm.4-.07-.219-.089.219.089Zm11.081-22.745c-1.817,2.231-4.606,7.939-6.916,13.061h0c-1.881,4.168-3.453,7.952-3.978,9.228h0l122.2-36.009c-.354-3.6-2.879-14.8-5.676-25.709h0c-2.031-7.892-5.223-10.867-8.664-10.862h0c-5.837-.042-12.932,8.687-16.828,18.3h0a151.932,151.932,0,0,1-7.748,16.91h0c-2.649,4.608-5.3,7.757-8.111,7.786h0c-2.43-.018-4.668-2.392-6.816-7.881h0c-3.11-7.947-7.145-11.288-11.243-11.284h0c-5.284-.018-10.969,5.6-15.118,14.717h0a82.406,82.406,0,0,1-6.118,11.483h0c-2.261,3.324-4.664,5.746-7.187,5.764h0c-1.789,0-3.5-1.261-5.077-4.117h0c-2.28-4.126-4.4-5.749-6.408-5.742h-.019c-2.012,0-4.105,1.651-6.294,4.351Z" transform="translate(-692.954 -117.049)" fill="#e8d4d4"/></g><path d="M735.343,193.548c-4.763,10.443-11.973,23.946-17.959,13.113-4.584-8.294-8.691-6.867-13.113-1.425-3.706,4.561-11.118,22.8-11.118,22.8l62.525-18.423L738.04,188.453A46.661,46.661,0,0,0,735.343,193.548Z" transform="translate(-690.065 -154.359)" fill="#fff" opacity="0.1" style="mix-blend-mode:overlay;isolation:isolate"/></g><g transform="translate(30.074 28.218)" opacity="0.2" style="mix-blend-mode:overlay;isolation:isolate"><path d="M750.609,197.709s2.138,2.566,6.628-1.5,9.194-18.172,13.042-22.876,7.269-7.056,11.545-6.842c0,0-5.131-4.276-11.545,2.78s-8.979,15.607-13.469,22.235S750.609,197.709,750.609,197.709Z" transform="translate(-750.372 -164.974)" fill="#fff"/><path d="M750.162,197.6a.237.237,0,0,1-.019-.277h0a.237.237,0,0,1,.245-.107h.024c.2.016,1.976-.245,5.936-6.1h0c4.463-6.582,7.034-15.157,13.49-22.262h0c2.929-3.227,5.64-4.144,7.731-4.141h0a6.857,6.857,0,0,1,4.14,1.34h0a.234.234,0,0,1,.069.268h0a.238.238,0,0,1-.233.15h0c-.175-.009-.348-.013-.518-.013h0c-3.927,0-7.154,2.278-10.831,6.768h0c-3.808,4.633-8.493,18.742-13.066,22.9h0c-2.011,1.819-3.592,2.356-4.751,2.356h0a2.94,2.94,0,0,1-2.218-.884Zm.807.044a2.737,2.737,0,0,0,1.411.367h0c1.007,0,2.475-.466,4.433-2.235h0c4.407-3.964,9.128-18.076,13.018-22.851h0c3.611-4.419,6.906-6.829,10.911-6.938h0c-.107-.059-.227-.12-.359-.181h0a6.693,6.693,0,0,0-2.813-.619h0c-1.949,0-4.512.832-7.381,3.985h0c-6.371,7-8.933,15.534-13.448,22.209h0c-3.195,4.706-5,5.91-5.854,6.212h0c.026.017.054.034.083.051Zm-.682.035.057-.23-.057.23Z" transform="translate(-750.108 -164.71)" fill="#e8d4d4"/></g><g transform="translate(2.415 5.549)"><path d="M692.15,191a.671.671,0,0,1-.364-.878h0c.014-.023,6.825-16.523,11.183-22.927h0c2.291-3.361,4.763-4.925,7.108-4.933h0a6.046,6.046,0,0,1,5.148,3.41h0a27.445,27.445,0,0,0,2.963,4.572h0a4.725,4.725,0,0,0,3.671,1.816h0a6.306,6.306,0,0,0,1.333-.154h0c1.869-.359,4.028-2.953,5.9-6.254h0c1.9-3.286,3.6-7.192,5.04-10.067h0a45.385,45.385,0,0,1,6.256-9.563h0c2.727-3.059,6.08-5.53,9.954-5.541h0a8.839,8.839,0,0,1,1,.057h0a10.093,10.093,0,0,1,7.9,5.263h0a34.369,34.369,0,0,1,2.639,6.872h0a19.873,19.873,0,0,0,2.163,4.624h0c1,1.445,2.2,2.417,3.719,2.414h0a4.7,4.7,0,0,0,1.906-.447h0c2.244-.956,4.89-4.727,7.036-8.89h0a97.587,97.587,0,0,0,4.863-11.249h0a61.55,61.55,0,0,1,5.84-12.27h0c3-4.644,7.132-8.98,12.634-9.972h0a.67.67,0,0,1,.778.543h0a.671.671,0,0,1-.543.779h0c-4.9.861-8.831,4.864-11.74,9.378h0a60.186,60.186,0,0,0-5.705,12h0a98.849,98.849,0,0,1-4.935,11.413h0c-2.238,4.246-4.795,8.173-7.682,9.5h0a6.052,6.052,0,0,1-2.451.563h0a5.969,5.969,0,0,1-4.825-3h0a21.093,21.093,0,0,1-2.325-4.945h0a33.684,33.684,0,0,0-2.529-6.633h0a8.729,8.729,0,0,0-6.892-4.607h0a7.448,7.448,0,0,0-.849-.048h0c-3.254-.011-6.339,2.151-8.95,5.091h0a44.084,44.084,0,0,0-6.057,9.271h0c-1.414,2.825-3.13,6.76-5.079,10.138h0c-1.971,3.362-4.088,6.257-6.782,6.9h0a7.639,7.639,0,0,1-1.619.184h0a6.082,6.082,0,0,1-4.671-2.263h0a28.316,28.316,0,0,1-3.129-4.8h0a4.711,4.711,0,0,0-3.983-2.733h0c-1.7-.008-3.834,1.173-6,4.346h0a109.094,109.094,0,0,0-7.106,13.655h0c-2.24,4.905-3.942,9.02-3.946,9.029h0a.674.674,0,0,1-.622.416h0a.665.665,0,0,1-.256-.051Z" transform="translate(-691.734 -116.868)" fill="#e8d4d4"/></g><g transform="translate(103.339)" opacity="0.4"><path d="M911.216,117.624a5.986,5.986,0,1,1,5.987-5.986A5.993,5.993,0,0,1,911.216,117.624Z" transform="translate(-904.995 -105.417)" fill="#fff"/><path d="M904.733,111.377a6.227,6.227,0,0,1,6.222-6.221h0a6.227,6.227,0,0,1,6.221,6.221h0a6.227,6.227,0,0,1-6.221,6.221h0v-.47a5.767,5.767,0,0,0,5.751-5.751h0a5.765,5.765,0,0,0-5.751-5.751h0a5.766,5.766,0,0,0-5.752,5.751h0a5.767,5.767,0,0,0,5.752,5.751h0v.47a6.227,6.227,0,0,1-6.222-6.221Z" transform="translate(-904.733 -105.156)" fill="#e8d4d4"/></g><g transform="translate(107.178 3.838)"><path d="M917.676,116.386a1.71,1.71,0,1,1-1.711-1.711A1.71,1.71,0,0,1,917.676,116.386Z" transform="translate(-913.583 -114.003)" fill="#fff"/><path d="M912.836,115.639a2.384,2.384,0,0,1,2.382-2.382h0a2.383,2.383,0,0,1,2.382,2.382h0a2.384,2.384,0,0,1-2.382,2.382h0a2.383,2.383,0,0,1-2.382-2.382Zm1.343,0a1.04,1.04,0,0,0,1.039,1.039h0a1.039,1.039,0,0,0,1.039-1.039h0a1.039,1.039,0,0,0-1.039-1.039h0a1.039,1.039,0,0,0-1.039,1.039Z" transform="translate(-912.836 -113.257)" fill="#e8d4d4"/></g><g transform="translate(53.879 23.802)" opacity="0.4"><path d="M806.832,167.861a5.986,5.986,0,1,1,5.987-5.986A5.993,5.993,0,0,1,806.832,167.861Z" transform="translate(-800.61 -155.653)" fill="#fff"/><path d="M800.348,161.613a6.229,6.229,0,0,1,6.222-6.222h0a6.229,6.229,0,0,1,6.222,6.222h0a6.228,6.228,0,0,1-6.222,6.222h0v-.471a5.767,5.767,0,0,0,5.752-5.751h0a5.767,5.767,0,0,0-5.752-5.751h0a5.765,5.765,0,0,0-5.751,5.751h0a5.765,5.765,0,0,0,5.751,5.751h0v.471a6.228,6.228,0,0,1-6.222-6.222Z" transform="translate(-800.348 -155.391)" fill="#e8d4d4"/></g><g transform="translate(57.719 27.642)"><path d="M813.292,166.623a1.71,1.71,0,1,1-1.711-1.71A1.71,1.71,0,0,1,813.292,166.623Z" transform="translate(-809.199 -164.241)" fill="#fff"/><path d="M808.452,165.877a2.383,2.383,0,0,1,2.382-2.383h0a2.383,2.383,0,0,1,2.383,2.383h0a2.384,2.384,0,0,1-2.383,2.382h0a2.382,2.382,0,0,1-2.382-2.382Zm1.343,0a1.04,1.04,0,0,0,1.039,1.039h0a1.039,1.039,0,0,0,1.039-1.039h0a1.039,1.039,0,0,0-1.039-1.04h0a1.04,1.04,0,0,0-1.039,1.04Z" transform="translate(-808.452 -163.494)" fill="#e8d4d4"/></g><g transform="translate(13.827 45.468)" opacity="0.4"><path d="M722.3,213.586a5.986,5.986,0,1,1,5.986-5.986A5.993,5.993,0,0,1,722.3,213.586Z" transform="translate(-716.081 -201.378)" fill="#fff"/><path d="M715.819,207.338a6.229,6.229,0,0,1,6.221-6.222h0a6.228,6.228,0,0,1,6.222,6.222h0a6.227,6.227,0,0,1-6.222,6.221h0v-.47a5.768,5.768,0,0,0,5.752-5.752h0a5.766,5.766,0,0,0-5.752-5.751h0a5.766,5.766,0,0,0-5.752,5.751h0a5.768,5.768,0,0,0,5.752,5.752h0v.47a6.228,6.228,0,0,1-6.221-6.221Z" transform="translate(-715.819 -201.116)" fill="#e8d4d4"/></g><g transform="translate(17.835 49.475)"><path d="M728.762,212.348a1.71,1.71,0,1,1-1.71-1.711A1.71,1.71,0,0,1,728.762,212.348Z" transform="translate(-724.837 -210.133)" fill="#fff"/><path d="M724.277,211.788a2.214,2.214,0,0,1,2.214-2.215h0a2.214,2.214,0,0,1,2.214,2.215h0A2.213,2.213,0,0,1,726.491,214h0a2.213,2.213,0,0,1-2.214-2.213Zm1.007,0a1.207,1.207,0,0,0,1.207,1.206h0a1.208,1.208,0,0,0,1.207-1.206h0a1.208,1.208,0,0,0-1.207-1.207h0a1.207,1.207,0,0,0-1.207,1.207Z" transform="translate(-724.277 -209.573)" fill="#e8d4d4"/></g></g><g transform="translate(60.006 32.21)" opacity="0.5"><path d="M813.28,211.74v-1.42a.237.237,0,0,1,.236-.237h0a.238.238,0,0,1,.238.237h0v1.42a.238.238,0,0,1-.238.238h0a.238.238,0,0,1-.236-.238Zm0-2.841v-1.421a.237.237,0,0,1,.236-.236h0a.237.237,0,0,1,.238.236h0V208.9a.239.239,0,0,1-.238.237h0a.238.238,0,0,1-.236-.237Zm0-2.842v-1.421a.237.237,0,0,1,.236-.237h0a.238.238,0,0,1,.238.237h0v1.421a.238.238,0,0,1-.238.237h0a.237.237,0,0,1-.236-.237Zm0-2.842v-1.421a.237.237,0,0,1,.236-.237h0a.238.238,0,0,1,.238.237h0v1.421a.238.238,0,0,1-.238.237h0a.237.237,0,0,1-.236-.237Zm0-2.842v-1.421a.238.238,0,0,1,.236-.237h0a.239.239,0,0,1,.238.237h0v1.421a.238.238,0,0,1-.238.237h0a.237.237,0,0,1-.236-.237Zm0-2.841V196.11a.237.237,0,0,1,.236-.237h0a.238.238,0,0,1,.238.237h0v1.421a.239.239,0,0,1-.238.237h0a.238.238,0,0,1-.236-.237Zm0-2.842v-1.421a.237.237,0,0,1,.236-.237h0a.238.238,0,0,1,.238.237h0v1.421a.238.238,0,0,1-.238.236h0a.238.238,0,0,1-.236-.236Zm0-2.842v-1.421a.237.237,0,0,1,.236-.237h0a.238.238,0,0,1,.238.237h0v1.421a.238.238,0,0,1-.238.236h0a.238.238,0,0,1-.236-.236Zm0-2.842v-1.421a.237.237,0,0,1,.236-.237h0a.238.238,0,0,1,.238.237h0V189a.238.238,0,0,1-.238.237h0a.237.237,0,0,1-.236-.237Zm0-2.842V184.74a.237.237,0,0,1,.236-.236h0a.237.237,0,0,1,.238.236h0v1.421a.238.238,0,0,1-.238.237h0a.237.237,0,0,1-.236-.237Zm0-2.842V181.9a.238.238,0,0,1,.236-.237h0a.238.238,0,0,1,.238.237h0v1.421a.238.238,0,0,1-.238.237h0a.237.237,0,0,1-.236-.237Zm0-2.841v-1.421a.237.237,0,0,1,.236-.237h0a.238.238,0,0,1,.238.237h0v1.421a.239.239,0,0,1-.238.237h0a.238.238,0,0,1-.236-.237Zm0-2.842v-1.421a.237.237,0,0,1,.236-.237h0a.238.238,0,0,1,.238.237h0v1.421a.238.238,0,0,1-.238.237h0a.238.238,0,0,1-.236-.237Zm0-2.842v-1.421a.237.237,0,0,1,.236-.237h0a.238.238,0,0,1,.238.237h0v1.421a.238.238,0,0,1-.238.237h0a.237.237,0,0,1-.236-.237Z" transform="translate(-813.28 -173.136)" fill="#5d4d4d"/></g><g transform="translate(109.822 8.479)" opacity="0.5"><path d="M918.416,170.181V168.76a.237.237,0,0,1,.237-.237h0a.238.238,0,0,1,.237.237h0v1.421a.238.238,0,0,1-.237.237h0a.237.237,0,0,1-.237-.237Zm0-2.842v-1.421a.236.236,0,0,1,.237-.237h0a.237.237,0,0,1,.237.237h0v1.421a.239.239,0,0,1-.237.238h0a.238.238,0,0,1-.237-.238Zm0-2.842v-1.421a.237.237,0,0,1,.237-.236h0a.238.238,0,0,1,.237.236h0V164.5a.238.238,0,0,1-.237.237h0a.237.237,0,0,1-.237-.237Zm0-2.842v-1.421a.237.237,0,0,1,.237-.237h0a.238.238,0,0,1,.237.237h0v1.421a.237.237,0,0,1-.237.236h0a.236.236,0,0,1-.237-.236Zm0-2.843v-1.421a.236.236,0,0,1,.237-.236h0a.237.237,0,0,1,.237.236h0v1.421a.238.238,0,0,1-.237.238h0a.237.237,0,0,1-.237-.238Zm0-2.841V154.55a.237.237,0,0,1,.237-.238h0a.238.238,0,0,1,.237.238h0v1.421a.238.238,0,0,1-.237.236h0a.237.237,0,0,1-.237-.236Zm0-2.842v-1.421a.237.237,0,0,1,.237-.236h0a.238.238,0,0,1,.237.236h0v1.421a.238.238,0,0,1-.237.237h0a.237.237,0,0,1-.237-.237Zm0-2.842v-1.421a.237.237,0,0,1,.237-.237h0a.238.238,0,0,1,.237.237h0v1.421a.238.238,0,0,1-.237.236h0a.237.237,0,0,1-.237-.236Zm0-2.843v-1.421a.237.237,0,0,1,.237-.236h0a.238.238,0,0,1,.237.236h0v1.421a.238.238,0,0,1-.237.238h0a.237.237,0,0,1-.237-.238Zm0-2.842v-1.42a.237.237,0,0,1,.237-.238h0a.238.238,0,0,1,.237.238h0v1.42a.238.238,0,0,1-.237.237h0a.237.237,0,0,1-.237-.237Zm0-2.842v-1.421a.236.236,0,0,1,.237-.236h0a.237.237,0,0,1,.237.236h0v1.421a.238.238,0,0,1-.237.237h0a.237.237,0,0,1-.237-.237Zm0-2.842V137.5a.237.237,0,0,1,.237-.236h0a.238.238,0,0,1,.237.236h0v1.421a.238.238,0,0,1-.237.237h0a.237.237,0,0,1-.237-.237Zm0-2.843v-1.42a.237.237,0,0,1,.237-.238h0a.238.238,0,0,1,.237.238h0v1.42a.238.238,0,0,1-.237.237h0a.237.237,0,0,1-.237-.237Zm0-2.841v-1.421a.237.237,0,0,1,.237-.237h0a.238.238,0,0,1,.237.237h0v1.421a.237.237,0,0,1-.237.236h0a.236.236,0,0,1-.237-.236Zm0-2.842v-1.421a.237.237,0,0,1,.237-.237h0a.238.238,0,0,1,.237.237h0v1.421a.238.238,0,0,1-.237.237h0a.237.237,0,0,1-.237-.237Zm0-2.842v-1.421a.237.237,0,0,1,.237-.237h0a.238.238,0,0,1,.237.237h0v1.421a.238.238,0,0,1-.237.237h0a.237.237,0,0,1-.237-.237Zm0-2.843v-1.42a.236.236,0,0,1,.237-.237h0a.237.237,0,0,1,.237.237h0v1.42a.239.239,0,0,1-.237.238h0a.237.237,0,0,1-.237-.238Z" transform="translate(-918.416 -123.051)" fill="#5d4d4d"/></g><g transform="translate(19.812 54.018)" opacity="0.5"><path d="M728.451,247.434v-1.475a.242.242,0,0,1,.236-.246h0a.241.241,0,0,1,.236.246h0v1.475a.241.241,0,0,1-.236.245h0a.241.241,0,0,1-.236-.245Zm0-2.95v-1.476a.241.241,0,0,1,.236-.245h0a.241.241,0,0,1,.236.245h0v1.476a.241.241,0,0,1-.236.245h0a.241.241,0,0,1-.236-.245Zm0-2.951v-1.475a.241.241,0,0,1,.236-.245h0a.241.241,0,0,1,.236.245h0v1.475a.242.242,0,0,1-.236.246h0a.242.242,0,0,1-.236-.246Zm0-2.95v-1.475a.242.242,0,0,1,.236-.246h0a.241.241,0,0,1,.236.246h0v1.475a.241.241,0,0,1-.236.245h0a.241.241,0,0,1-.236-.245Zm0-2.951v-1.475a.241.241,0,0,1,.236-.245h0a.241.241,0,0,1,.236.245h0v1.475a.241.241,0,0,1-.236.246h0a.242.242,0,0,1-.236-.246Zm0-2.95v-1.475a.241.241,0,0,1,.236-.245h0a.241.241,0,0,1,.236.245h0v1.475a.241.241,0,0,1-.236.246h0a.242.242,0,0,1-.236-.246Zm0-2.95v-1.475a.242.242,0,0,1,.236-.247h0a.242.242,0,0,1,.236.247h0v1.475a.241.241,0,0,1-.236.245h0a.241.241,0,0,1-.236-.245Zm0-2.95v-1.476a.241.241,0,0,1,.236-.245h0a.241.241,0,0,1,.236.245h0v1.476a.241.241,0,0,1-.236.245h0a.241.241,0,0,1-.236-.245Zm0-2.951v-1.475a.241.241,0,0,1,.236-.245h0a.241.241,0,0,1,.236.245h0v1.475a.242.242,0,0,1-.236.247h0a.243.243,0,0,1-.236-.247Zm0-2.95v-1.475a.242.242,0,0,1,.236-.246h0a.241.241,0,0,1,.236.246h0v1.475a.241.241,0,0,1-.236.245h0a.241.241,0,0,1-.236-.245Z" transform="translate(-728.451 -219.161)" fill="#5d4d4d"/></g><path d="M728.869,189.78s3.184-1.071,5.343,3.765c3.563,7.982,10.616,8.8,13.968.855,9.977-23.66,16.288-26.416,20.81-26.653v32.415L728.8,212.074Z" transform="translate(-708.82 -138.09)" fill="#fff" opacity="0.3" style="mix-blend-mode:overlay;isolation:isolate"/><path d="M919.137,159.221V118.385s5.666-2.779,8.446,5.772,7.376,30.253,7.376,30.253Z" transform="translate(-808.974 -111.89)" fill="#fff" opacity="0.3" style="mix-blend-mode:overlay;isolation:isolate"/></g></g></svg>