<svg id="Group_3176" data-name="Group 3176" xmlns="http://www.w3.org/2000/svg" width="129.538" height="129.538" viewBox="0 0 129.538 129.538">
  <path id="Path_5519" data-name="Path 5519" d="M247.872,203.777l3.321-3.225-3.321-3.226,2.973-3.544-3.668-2.845,2.593-3.859-3.921-2.467L248,180.534l-4.143-2.025,1.74-4.3-4.365-1.581,1.265-4.459-4.49-1.139.821-4.553-4.585-.663.283-4.62h-4.616v-4.774l-4.776.316-.666-4.585-4.553.79-1.107-4.49-4.46,1.264-1.58-4.332-4.3,1.741-2.027-4.174-4.079,2.181-2.467-3.921-3.857,2.561-2.847-3.638-3.573,2.973-3.193-3.321L183.2,139.1l-3.575-2.973-2.846,3.638-3.827-2.561-2.466,3.921-4.081-2.181-2.024,4.174-4.3-1.741-1.614,4.332-4.428-1.264-1.138,4.49-4.554-.79-.665,4.585-4.585-.316v4.617H138.29l.316,4.777-4.585.663.789,4.553-4.491,1.139,1.265,4.459-4.333,1.581,1.708,4.3-4.143,2.025,2.151,4.078-3.891,2.467,2.562,3.859L122,193.783l2.972,3.544-3.319,3.226,3.319,3.225L122,207.321l3.636,2.846-2.562,3.859,3.891,2.434-2.151,4.112,4.143,2.023-1.708,4.3,4.333,1.582-1.265,4.459,4.491,1.138-.789,4.554,4.585.633-.316,4.617h4.617v4.808l4.775-.317.665,4.586,4.554-.79,1.138,4.49,4.428-1.3,1.614,4.365,4.3-1.739,2.024,4.174,4.081-2.182,2.466,3.923,3.827-2.594,2.846,3.667L183.2,262l3.226,3.319L189.617,262l3.573,2.971,2.847-3.667L199.9,263.9l2.467-3.923,4.079,2.182,2.027-4.174,4.3,1.739,1.58-4.365,4.46,1.3,1.107-4.49,4.553.79.666-4.586,4.617.317v-4.617h4.775v-4.807l4.3-.633-.821-4.554,4.49-1.138-1.265-4.459L245.6,226.9l-1.74-4.3L248,220.572l-2.151-4.112,3.921-2.434-2.593-3.859,3.668-2.846ZM186.431,259.7a59.344,59.344,0,1,1,59.279-59.344A59.378,59.378,0,0,1,186.431,259.7Zm-.472-4.6A55.141,55.141,0,1,1,241.1,199.963,55.2,55.2,0,0,1,185.96,255.1Zm0-107.967a52.826,52.826,0,1,0,52.92,52.826A52.933,52.933,0,0,0,185.96,147.137Zm-39.328,44.14h-1.75a40.2,40.2,0,0,1,3.98-10.172,5.588,5.588,0,0,0,1.589.647A38.5,38.5,0,0,0,146.632,191.277Zm66.82-21.886a41.039,41.039,0,0,1,13.7,21.886H225.4a39.29,39.29,0,0,0-12.57-20.162A7.449,7.449,0,0,0,213.451,169.392Zm-53.126-1.373a43.077,43.077,0,0,1,40.836-5.774,7.5,7.5,0,0,0-1.187,1.4,41.452,41.452,0,0,0-36.915,4.539A9.794,9.794,0,0,0,160.326,168.018Zm64.852,43.014H226.9a40.259,40.259,0,0,1-3.859,9.407,4.435,4.435,0,0,0-1.379-1.054,38.534,38.534,0,0,0,3.512-8.519ZM219,226.314a42.617,42.617,0,0,1-32.981,15.463,43.25,43.25,0,0,1-10.706-1.339,4.271,4.271,0,0,0,.965-1.545,41.575,41.575,0,0,0,9.741,1.156,40.935,40.935,0,0,0,31.068-14.127A5.614,5.614,0,0,0,219,226.314Zm-51.26,11.4a41.592,41.592,0,0,1-22.606-26.684h1.775a39.876,39.876,0,0,0,21.115,24.915,4.187,4.187,0,0,0-.3,1.536C167.727,237.562,167.735,237.639,167.739,237.716ZM158.554,199.5c-1.459-.007-3.811-1.012-3.954-1.655-.337-1.242.351-8.065.792-10.666.694-4.066,1.7-9.487,2.74-13.087a41.679,41.679,0,0,0-8.511,3.491c-.029.007-.074-.042-.089-.1a5.665,5.665,0,0,1,1.389-2.765,39.816,39.816,0,0,1,7.609-2.471l.2-.055.305-.7a1.007,1.007,0,0,1,.578-.5,6.235,6.235,0,0,1,3.388.6c1.2-.046,2.371-.179,3.373-.141,3.095.09,5.075.761,5.539,2.465.918,3.379-3,6.646-7.03,8.825,4.441-.09,8.637,1.655,9.374,4.369,1.444,5.315-6.479,11.995-15.663,14.489a31.319,31.319,0,0,1-8.715.91,4.057,4.057,0,0,1-1.454-1.124A37.483,37.483,0,0,0,158.554,199.5Zm.147-.6q.117.434.314.473c6.861-2.143,11.481-7.74,10.356-11.994-.714-2.628-4.635-3.361-7.594-3.177-.669.275-1.318.513-1.917.706C158.748,191.195,158.244,197.1,158.7,198.9Zm1.416-15.333c3.2-1.459,8.441-5.457,7.68-8.258-.329-1.213-1.513-1.915-3.258-2.061a7.913,7.913,0,0,0-2.037.151A72.415,72.415,0,0,0,160.118,183.565Zm19.248,6.3c.22.809.749,1.161,1.269,1.02,1.877-.51,4.98-3.586,7.567-8.1.326-.057.356.74.324.966-.548,2.32-4.46,8.468-7.2,9.214-2.4.651-5.485-.9-5.987-2.746-1.263-4.65,1.842-14.8,6.2-15.981,2.426-.659,5.281.488,5.908,2.8.565,2.079-3.4,6.443-6.026,7.839a8.3,8.3,0,0,1-2.156.74A11.666,11.666,0,0,0,179.365,189.87Zm3.982-14.107c-1.415.384-3.11,4.535-3.837,8.362a4.619,4.619,0,0,0,1.652-.883,9.113,9.113,0,0,0,3-6.428C184.129,176.016,183.809,175.638,183.347,175.763Zm6.114,1.842c-.784-2.888,1.353-5.981,4.138-6.8,1.861-.568,4.467.119,5.345,1.866.264,1.2-1.957,4.1-2.209,4.2s-.391.044-.446-.158a13.524,13.524,0,0,0-.889-3.387,1.631,1.631,0,0,0-2-1.071c-1.1.3-1.29,1.188-1,2.133.895,2.951,6.175,7.657,6.724,9a2.634,2.634,0,0,1,.191.475c.745,2.743-3.031,5.165-5.413,5.874-3.124.942-6.972.592-7.7-1.847-.662-2.208,2.878-6.643,4.548-8.027A6.838,6.838,0,0,1,189.461,177.6Zm3.481,10.87c.722-.2,2.765-1.123,2.36-2.5-.534-1.622-2.461-3.58-3.987-5.429-1.766,2.4-2.488,4.428-2.113,6.032C189.606,188.3,191.209,188.945,192.942,188.474Zm9.2-19.062c.235-1.3.457-2.543.636-3.367a19.041,19.041,0,0,1,.951-3.576.809.809,0,0,1,.413-.422,5.052,5.052,0,0,1,3.236.609,9.86,9.86,0,0,0-.809,2.732c-.147.6-.322,1.669-.548,3,1.856-.473,3.67-.873,5.109-1.171.25.118-.255,1-.518,1.289-.9.243-2.8.761-4.849,1.442-.581,3.569-1.2,8.141-1.367,10.947-.19,3.183-.342,5.365.269,6.128-1.391.131-3.92-.733-4.161-1.5-.172-.635-.014-4.617.777-10.383.132-1,.322-2.351.554-3.779a19.86,19.86,0,0,0-4.047,2c-.317-.255.267-2.212.809-2.732C199.548,170.242,200.8,169.81,202.144,169.413Zm-18.117,33.419a8.032,8.032,0,0,0,.059,3.072c-.578.051-1.7-.326-1.794-.656a12.73,12.73,0,0,1,.076-2.044,30.3,30.3,0,0,1,.388-3.167,6.994,6.994,0,0,1,.388-1.524.36.36,0,0,1,.19-.171,2.276,2.276,0,0,1,1.415.273,3.358,3.358,0,0,0-.343,1.157C184.182,201.173,184.089,202.04,184.027,202.831Zm.1-7.766a.844.844,0,0,1,1.086.756,1.233,1.233,0,0,1-.876,1.276.82.82,0,0,1-1.07-.747A1.23,1.23,0,0,1,184.127,195.066Zm4.736,2.906c-.669,1.022-2.508,5.713-2.213,6.8a.76.76,0,0,0,.075.177c-.578.051-1.591-.344-1.681-.674a23.224,23.224,0,0,1,.749-6.483.246.246,0,0,1,.185-.143,2.134,2.134,0,0,1,1.383.256,14.692,14.692,0,0,0-.721,4.071,15.464,15.464,0,0,1,1.283-3.646c.263-.531.938-1.673,1.525-1.833a2.239,2.239,0,0,1,1.567.494c-.214,1-.922,6.912-.377,7.132-.577.051-1.741-.316-1.831-.646-.239-.881.286-4.755.6-5.97C189.237,197.462,189.068,197.666,188.862,197.971Zm-15.168,40.015a1.1,1.1,0,0,0,.236.449c-1.122.276-3.711-.646-4.024-1.274-.671-2.469.432-11.009.914-14.276.486-3.353,1.074-6.963,1.792-9.781a78.23,78.23,0,0,0-9.986,3.966,4.368,4.368,0,0,1,.529-2.881,56.885,56.885,0,0,1,10.133-3.321c.087-.309.266-1.013.638-1.114a6.248,6.248,0,0,1,2.756.278c2.809-.678,5.409-1.184,7.046-1.457.229.109-.117,1.144-.313,1.368-1.728.355-4.065.99-6.592,1.762-.661,2.6-1.448,6.324-2.049,10.307C174.086,226.618,173.175,236.074,173.694,237.986Zm11.767-22.1c1.7-.462,3.8,1.392,4.066,2.375,1.471,5.417-1.651,13.763-5.661,14.852-2.31.627-5.173-.363-5.858-2.886-1.334-4.913,2-13.2,5.854-14.249a4.041,4.041,0,0,1,1.441-.049Zm.846,2.279c-.079-.292-.4-1.26-.9-1.123-2.416.656-4.755,9.474-3.681,13.431.18.664.595,1.35,1.338,1.148C185.292,231.018,187.017,221.2,186.308,218.169Zm13.752,7.786a3.454,3.454,0,0,1-.241-.676,52.164,52.164,0,0,1-1.249-7.958c-1.392,4.113-2.687,12.049-2.813,12.425a5.345,5.345,0,0,1-4.024-1.274,2.587,2.587,0,0,1-.212-.569,63.489,63.489,0,0,1-.333-12.883c.141-.637,3.666-.568,3.789.2a57.185,57.185,0,0,0-.119,11.323,108.566,108.566,0,0,1,3.5-12.325c.239-.693,3.369-.4,3.576.255-.215.572,1.113,8.822,1.615,10.253.178-1.759,2.782-14.327,3.591-15.231.292-.393,1.909-.318,2.309,0-.928.993-2.391,6.209-3.443,10.629-.88,3.689-1.581,6.987-1.536,7.26C203.325,227.692,200.4,226.689,200.059,225.956Zm16.695-15.793c-1.451,2.219-5.444,12.4-4.8,14.762a1.658,1.658,0,0,0,.161.384c-1.253.112-3.453-.745-3.647-1.462-.324-1.195.384-10.767,1.626-14.07a.532.532,0,0,1,.4-.308,4.627,4.627,0,0,1,3,.553c-.437.176-1.212,4.777-1.564,8.836a33.583,33.583,0,0,1,2.784-7.913c.571-1.153,2.036-3.632,3.311-3.978a4.856,4.856,0,0,1,3.4,1.073c-.463,2.179-2,15-.816,15.475-1.252.112-3.778-.684-3.973-1.4-.519-1.912.619-10.319,1.3-12.956C217.566,209.059,217.2,209.5,216.754,210.163Zm-66.238,1.648,27.992-7.9m-27.873,8.327-.238-.843,27.992-7.905.238.843Zm41.909-12.12,27.992-7.9m-27.873,8.326-.238-.843,27.992-7.906.238.843Zm-19.957,45.759-2.24-.724-.713.814a.14.14,0,0,1-.1.051.149.149,0,0,1-.108-.037.139.139,0,0,1-.048-.1.142.142,0,0,1,.041-.106l2.882-3.29a.135.135,0,0,1,.157-.041.133.133,0,0,1,.1.124l.414,4.359a.161.161,0,0,1-.028.107.131.131,0,0,1-.092.055.144.144,0,0,1-.112-.031.148.148,0,0,1-.057-.1Zm-2.038-.966,2.012.65-.243-2.676Zm5.738-1.413a1.471,1.471,0,0,1,.553.252,1.567,1.567,0,0,1,.4.432,1.537,1.537,0,0,1,.21.549,1.5,1.5,0,0,1-.018.608,1.479,1.479,0,0,1-.251.552,1.5,1.5,0,0,1-.976.6,1.555,1.555,0,0,1-.615-.021l-1.063-.247-.251,1.082a.144.144,0,0,1-.174.109.142.142,0,0,1-.095-.067.146.146,0,0,1-.016-.107l.908-3.916a.137.137,0,0,1,.066-.092.146.146,0,0,1,.111-.015Zm-1.135.037-.558,2.407,1.066.247a1.192,1.192,0,0,0,.519.011,1.254,1.254,0,0,0,.781-.51,1.226,1.226,0,0,0,.188-.418,1.19,1.19,0,0,0,.013-.46,1.33,1.33,0,0,0-.158-.446,1.268,1.268,0,0,0-.314-.365,1.142,1.142,0,0,0-.462-.217Zm4.809.65a1.481,1.481,0,0,1,.572.207,1.572,1.572,0,0,1,.435.4,1.54,1.54,0,0,1,.254.53,1.545,1.545,0,0,1-.172,1.178,1.54,1.54,0,0,1-.394.431,1.513,1.513,0,0,1-.53.249,1.537,1.537,0,0,1-.615.029l-1.078-.158-.162,1.1a.148.148,0,0,1-.264.064.145.145,0,0,1-.025-.106l.583-3.978a.137.137,0,0,1,.059-.1.146.146,0,0,1,.109-.025Zm-1.129.13-.358,2.445,1.082.159a1.2,1.2,0,0,0,.519-.031,1.249,1.249,0,0,0,.428-.22,1.23,1.23,0,0,0,.308-.353,1.166,1.166,0,0,0,.129-.891,1.308,1.308,0,0,0-.193-.432,1.265,1.265,0,0,0-.344-.338,1.135,1.135,0,0,0-.477-.179Zm3.434.309a.135.135,0,0,1,.05-.1.145.145,0,0,1,.106-.034l1.24.076a1.63,1.63,0,0,1,.588.146,1.493,1.493,0,0,1,.468.333,1.439,1.439,0,0,1,.3.48,1.419,1.419,0,0,1,.085.59,1.442,1.442,0,0,1-.114.49,1.377,1.377,0,0,1-.261.4,1.463,1.463,0,0,1-.378.287,1.588,1.588,0,0,1-.465.16l1.02,1.253a.144.144,0,0,1-.027.217.138.138,0,0,1-.1.026.158.158,0,0,1-.09-.051l-1.151-1.42-1.146-.07-.077,1.25a.144.144,0,0,1-.153.135.143.143,0,0,1-.1-.048.133.133,0,0,1-.037-.105Zm.283.166-.142,2.322,1.089.067a1.361,1.361,0,0,0,.514-.061,1.191,1.191,0,0,0,.409-.228,1.142,1.142,0,0,0,.095-1.634,1.232,1.232,0,0,0-.374-.276,1.3,1.3,0,0,0-.489-.122Zm5.546-.208a2.136,2.136,0,0,1,.587.057,2.184,2.184,0,0,1,.989.525,2.129,2.129,0,0,1,.36.431,2.246,2.246,0,0,1,.241.515,2.154,2.154,0,0,1,.1.579,2.131,2.131,0,0,1-.057.586,2.194,2.194,0,0,1-.957,1.349,2.259,2.259,0,0,1-.515.241,2.212,2.212,0,0,1-1.444-.038,2.192,2.192,0,0,1-1.408-1.97,2.162,2.162,0,0,1,.137-.86,2.186,2.186,0,0,1,1.117-1.211A2.154,2.154,0,0,1,188.215,245Zm.011.29a1.849,1.849,0,0,0-.734.178,1.892,1.892,0,0,0-.587.43,1.921,1.921,0,0,0-.381.619,1.866,1.866,0,0,0-.12.746,1.905,1.905,0,0,0,1,1.606,1.833,1.833,0,0,0,.461.174,1.888,1.888,0,0,0,.509.048,1.854,1.854,0,0,0,.5-.086,1.873,1.873,0,0,0,.447-.21,1.9,1.9,0,0,0,.374-.312,1.944,1.944,0,0,0,.283-.4,1.881,1.881,0,0,0,.175-.461,1.9,1.9,0,0,0,.047-.509,1.848,1.848,0,0,0-.178-.734,1.9,1.9,0,0,0-1.049-.972A1.852,1.852,0,0,0,188.226,245.288Zm2.329-.166a.124.124,0,0,1-.019-.106.148.148,0,0,1,.068-.09.138.138,0,0,1,.11-.016.151.151,0,0,1,.091.068l2.07,3.472,1.094-3.891a.148.148,0,0,1,.069-.089.135.135,0,0,1,.109-.012.161.161,0,0,1,.091.069.13.13,0,0,1,.014.107l-1.189,4.209a.145.145,0,0,1-.071.09.151.151,0,0,1-.109.015l-.011-.006a.018.018,0,0,1-.014,0l-.015-.008-.015-.012a.117.117,0,0,1-.032-.039Zm5.431,3.343a.147.147,0,0,1-.11-.027.154.154,0,0,1-.059-.094l-.871-3.915a.128.128,0,0,1,.023-.114.165.165,0,0,1,.1-.061l2.57-.572a.141.141,0,0,1,.109.017.135.135,0,0,1,.064.092.143.143,0,0,1-.018.112.136.136,0,0,1-.09.065l-2.436.542.362,1.631,1.838-.409a.125.125,0,0,1,.111.018.151.151,0,0,1,.062.095.135.135,0,0,1-.018.107.139.139,0,0,1-.093.062l-1.837.409.383,1.722,2.436-.542a.138.138,0,0,1,.11.019.141.141,0,0,1,.064.091.149.149,0,0,1-.019.114.126.126,0,0,1-.091.062Zm2.679-4.9a.139.139,0,0,1,.01-.113.146.146,0,0,1,.087-.07l1.2-.383a2.132,2.132,0,0,1,.572-.1,2.223,2.223,0,0,1,.56.051,2.135,2.135,0,0,1,.524.189,2.18,2.18,0,0,1,.825.74,2.124,2.124,0,0,1,.249.521,2.072,2.072,0,0,1,.092.848,2.176,2.176,0,0,1-.754,1.44,2.118,2.118,0,0,1-.751.417l-1.2.384a.146.146,0,0,1-.112-.007.141.141,0,0,1-.073-.085Zm.325.051,1.137,3.547,1.058-.339a1.824,1.824,0,0,0,.678-.382,1.891,1.891,0,0,0,.628-1.26,1.755,1.755,0,0,0-.077-.693,1.814,1.814,0,0,0-.2-.421,1.9,1.9,0,0,0-.306-.363,2,2,0,0,0-.389-.282,1.827,1.827,0,0,0-.452-.179,1.873,1.873,0,0,0-.495-.055,1.8,1.8,0,0,0-.519.089Zm-12.086-43.062a.481.481,0,1,1-.481-.48A.48.48,0,0,1,186.905,200.552Zm24.528,42.941-1.543-.921-1.673.7.445-1.7-1.2-1.306,1.818-.127.93-1.508.679,1.618,1.778.374-1.4,1.127Zm7.079-7.344.006-1.747-1.5-.987,1.735-.544.525-1.676,1.066,1.411,1.822-.048-1.077,1.415.6,1.646-1.731-.536Zm8.259-9.61-.485-1.68-1.721-.556,1.52-.976.035-1.748,1.424,1.077,1.743-.524-.64,1.642,1.042,1.424-1.82-.062Zm5.354-11.338-.9-1.511-1.815-.133,1.228-1.3-.413-1.7,1.66.706,1.56-.916-.2,1.739,1.377,1.132-1.784.368Zm-70.816,26.6-1.415-1.107,1.772-.4.654-1.627.952,1.494,1.82.1-1.183,1.323.471,1.69-1.683-.677-1.529.943Zm-8.754-6.754-1.733.528.609-1.643-1.07-1.421,1.822.057,1.073-1.406.517,1.678,1.733.552-1.5.981,0,1.747Zm-7.877-9.868-1.82.07,1.038-1.428-.645-1.639L145,222.7l1.421-1.083.04,1.747,1.523.97-1.72.563-.48,1.682ZM139.721,213.6l-1.787-.355L139.3,212.1l-.215-1.737,1.567.9,1.654-.719-.4,1.7,1.238,1.293-1.814.146-.889,1.518Zm71.542-54.472,1.4,1.127-1.778.374-.679,1.618-.93-1.508-1.818-.127,1.2-1.306-.445-1.7,1.673.7,1.543-.921Zm8.7,6.671,1.731-.537-.6,1.646,1.077,1.415-1.822-.048-1.066,1.411-.525-1.676-1.735-.544,1.5-.987-.006-1.747Zm7.907,9.948,1.82-.062-1.042,1.424.64,1.642-1.743-.524L226.12,179.3l-.035-1.748-1.52-.976,1.721-.557.485-1.68Zm4.964,11.55,1.784.368-1.377,1.132.2,1.739-1.56-.916-1.66.706.413-1.7-1.228-1.3,1.815-.133.9-1.511Zm-71.667-29.954,1.529.943,1.683-.677-.471,1.69,1.183,1.323-1.82.1-.952,1.494-.654-1.627-1.772-.4,1.415-1.107ZM154,164.763l0,1.747,1.5.981-1.733.552-.517,1.678-1.073-1.406-1.822.057,1.07-1.421-.609-1.643,1.733.528Zm-8.219,9.541.48,1.682,1.72.563-1.523.97-.04,1.747L145,178.184l-1.745.517.645-1.639-1.038-1.428,1.82.07Zm-5.339,11.367.889,1.518,1.814.146-1.238,1.293.4,1.7-1.654-.719-1.567.9.215-1.737-1.368-1.142,1.787-.355ZM187.1,152.142l1.8.259-1.311,1.213.3,1.723-1.609-.82-1.617.806.316-1.72-1.3-1.225,1.805-.243.814-1.563Zm12.5,1.822,1.665.715-1.6.83-.191,1.737-1.323-1.205-1.783.358.784-1.575-.911-1.515,1.807.232,1.22-1.295Zm-26.3-1.7,1.211,1.3,1.809-.222-.921,1.51.774,1.58-1.781-.368-1.33,1.2-.18-1.738-1.6-.839,1.669-.706ZM139.359,195.77l1.491,3.021,3.334.484-2.412,2.352.569,3.321-2.982-1.568-2.982,1.568.569-3.321-2.412-2.352,3.334-.484Zm93.2,0,1.491,3.021,3.334.484-2.412,2.352.569,3.321-2.982-1.568-2.982,1.568.569-3.321-2.412-2.352,3.334-.484Z" transform="translate(-121.655 -135.783)" fill="#7e1518"/>
</svg>
