<?xml version="1.0" encoding="utf-8"?>
<!-- Generator: Adobe Illustrator 24.3.0, SVG Export Plug-In . SVG Version: 6.00 Build 0)  -->
<svg version="1.1" id="Layer_1" xmlns="http://www.w3.org/2000/svg" xmlns:xlink="http://www.w3.org/1999/xlink" x="0px" y="0px"
	 viewBox="0 0 59.2 96.5" style="enable-background:new 0 0 59.2 96.5;" xml:space="preserve">
<style type="text/css">
	.st0{fill:url(#Path_5377_1_);}
	.st1{opacity:0.51;fill:#A6A7AB;enable-background:new    ;}
	.st2{fill:#E6E6E8;}
	.st3{fill:#231F20;}
	.st4{fill:#FFFFFF;}
	.st5{fill:url(#Path_5382_1_);}
	.st6{fill:url(#Path_5383_1_);}
	.st7{fill:#C7383C;}
	.st8{fill:#F1F1F2;}
	.st9{fill:#A02031;}
	.st10{fill:#AE2B35;}
	.st11{fill:#7C1216;}
	.st12{fill:#AF2121;}
</style>
<g id="Online_shopping_icon" transform="translate(-3957.923 -1455.452)">
	
		<linearGradient id="Path_5377_1_" gradientUnits="userSpaceOnUse" x1="3438.6128" y1="2709.8342" x2="3439.0718" y2="2709.8342" gradientTransform="matrix(44.1252 0 0 -96.4696 -147728.7031 262920.3125)">
		<stop  offset="0" style="stop-color:#E1DDD9"/>
		<stop  offset="0.129" style="stop-color:#C4C0BE"/>
		<stop  offset="0.266" style="stop-color:#ABA7A8"/>
		<stop  offset="0.35" style="stop-color:#A39FA0"/>
		<stop  offset="0.399" style="stop-color:#9A9697"/>
		<stop  offset="0.48" style="stop-color:#817D7E"/>
		<stop  offset="0.581" style="stop-color:#5A5657"/>
		<stop  offset="0.699" style="stop-color:#231F20"/>
		<stop  offset="0.7" style="stop-color:#231F20"/>
		<stop  offset="0.747" style="stop-color:#2A2628"/>
		<stop  offset="0.823" style="stop-color:#3F3C41"/>
		<stop  offset="0.918" style="stop-color:#605F68"/>
		<stop  offset="1" style="stop-color:#828390"/>
	</linearGradient>
	<path id="Path_5377" class="st0" d="M4012.3,1551.9c-0.2,0-0.4,0-0.6,0l-34.5-4.4c-2.4-0.3-4.2-2.4-4.2-4.8v-77.9
		c0-2.4,1.8-4.5,4.2-4.8l34.5-4.4c2.6-0.3,5.1,1.5,5.4,4.2c0,0.2,0,0.4,0,0.7v86.7C4017.1,1549.7,4015,1551.9,4012.3,1551.9z"/>
	<path id="Path_5378" class="st1" d="M4010.5,1551.6c-0.2,0-0.4,0-0.6,0l-34.7-4.4c-2.4-0.3-4.2-2.4-4.2-4.8v-77.4
		c0-2.4,1.8-4.5,4.2-4.8l34.7-4.4c0.2,0,0.4,0,0.6,0c2.7,0,4.8,2.2,4.8,4.8v86.1C4015.3,1549.4,4013.1,1551.6,4010.5,1551.6z"/>
	<path id="Path_5379" class="st2" d="M4009.6,1551.6c-0.2,0-0.4,0-0.6,0l-34.7-4.4c-2.4-0.3-4.2-2.4-4.2-4.8v-77.4
		c0-2.4,1.8-4.5,4.2-4.8l34.7-4.4c0.2,0,0.4,0,0.6,0c2.7,0,4.8,2.2,4.8,4.8v86.1C4014.5,1549.4,4012.3,1551.6,4009.6,1551.6z"/>
	<path id="Path_5380" class="st3" d="M4009.6,1551c-0.2,0-0.4,0-0.5,0l-34.7-4.4c-2.1-0.3-3.7-2.1-3.7-4.2v-77.4
		c0-2.2,1.6-4,3.7-4.2l34.7-4.4c0.2,0,0.4,0,0.5,0c2.4,0,4.3,1.9,4.3,4.3v86.1C4013.9,1549.1,4012,1551,4009.6,1551z"/>
	<path id="Path_5381" class="st4" d="M4009.3,1549.5l-34.7-4.4c-1.4-0.2-2.5-1.4-2.5-2.8v-77.4c0-1.4,1.1-2.6,2.5-2.8l34.7-4.4
		c1.5-0.2,3,0.9,3.1,2.4c0,0.1,0,0.2,0,0.4v86.1c0,1.6-1.3,2.8-2.8,2.8C4009.5,1549.5,4009.4,1549.5,4009.3,1549.5z"/>
	
		<linearGradient id="Path_5382_1_" gradientUnits="userSpaceOnUse" x1="3439.4404" y1="2671.2124" x2="3440.1294" y2="2669.3164" gradientTransform="matrix(40.324 0 0 -22.8411 -134706.7188 62472.4805)">
		<stop  offset="0" style="stop-color:#FFE3A1"/>
		<stop  offset="1" style="stop-color:#F07467"/>
	</linearGradient>
	<path id="Path_5382" class="st5" d="M4009.3,1457.8l-34.7,4.4c-1.4,0.2-2.5,1.4-2.5,2.8v15.7h40.3v-20c0-1.6-1.3-2.8-2.8-2.8
		C4009.5,1457.8,4009.4,1457.8,4009.3,1457.8z"/>
	
		<linearGradient id="Path_5383_1_" gradientUnits="userSpaceOnUse" x1="3439.6162" y1="2675.8606" x2="3439.6162" y2="2676.6365" gradientTransform="matrix(40.324 0 0 -25.593 -134706.7188 69996.4609)">
		<stop  offset="0" style="stop-color:#FFFFFF"/>
		<stop  offset="1" style="stop-color:#231F20"/>
	</linearGradient>
	<path id="Path_5383" class="st6" d="M3972.1,1489.7v11.9l17.9,13.7h22.4v-25.5l-0.1-0.1L3972.1,1489.7z"/>
	<g id="Group_2643">
		<path id="Path_5384" class="st7" d="M3964.2,1496.9l-6.3-0.1l12.4-7.1l6.6-0.3L3964.2,1496.9z"/>
		<path id="Path_5385" class="st8" d="M3971.4,1497.1l-7.1-0.1l12.6-7.5l7.3-0.3L3971.4,1497.1z"/>
		<path id="Path_5386" class="st7" d="M3979.4,1497.2l-8.1-0.1l12.8-8l8.2-0.4L3979.4,1497.2z"/>
		<path id="Path_5387" class="st8" d="M3988.7,1497.3l-9.3-0.2l13-8.5l9.3-0.4L3988.7,1497.3z"/>
		<path id="Path_5388" class="st7" d="M3999.4,1497.5l-10.7-0.2l13.1-9.1l10.7-0.5L3999.4,1497.5z"/>
		<path id="Path_5389" class="st9" d="M3999.4,1497.5l13.1,0.2v-10L3999.4,1497.5z"/>
	</g>
	<g id="Group_2644">
		<path id="Path_5391" class="st10" d="M3957.9,1496.8v3.6c0,1.7,1.4,3.1,3.1,3.2l0,0c1.6,0.2,3-1,3.2-2.6c0-0.1,0-0.2,0-0.3v-3.8
			L3957.9,1496.8z"/>
		<path id="Path_5392" class="st2" d="M3964.2,1496.9v3.8c0.1,1.9,1.6,3.3,3.4,3.4l0,0c1.8,0.2,3.4-1,3.6-2.7c0-0.1,0-0.2,0-0.3
			v-4.1L3964.2,1496.9z"/>
		<path id="Path_5393" class="st10" d="M3971.4,1497.1v4.1c0.2,2,1.9,3.6,3.9,3.7l0,0c2.3,0.2,4.2-1.3,4.2-3.2v-4.3L3971.4,1497.1z"
			/>
		<path id="Path_5394" class="st2" d="M3979.4,1497.2v4.3c0,2,2,3.7,4.5,3.9l0,0c2.6,0.2,4.8-1.3,4.8-3.5v-4.7L3979.4,1497.2z"/>
		<path id="Path_5395" class="st10" d="M3988.7,1497.3v4.7c0,2.1,2.3,4,5.1,4.2l0,0c3,0.2,5.5-1.4,5.5-3.7v-5L3988.7,1497.3z"/>
	</g>
	<path id="Path_5396" class="st11" d="M4004.9,1475.5c-2.4-2.3-7.8-3.6-13.9-3c-5.8,0.6-10.7,2.7-12.7,5.3l-6.1,0.5v11.4l40.3-1.9
		v-13L4004.9,1475.5z"/>
	<path id="Path_5397" class="st12" d="M4003,1475.5c-2.4-2.3-7.8-3.6-13.9-3c-5.8,0.6-10.7,2.7-12.7,5.3l-6.1,0.5v11.4l40.3-1.9v-13
		L4003,1475.5z"/>
	<path id="Path_5399" class="st12" d="M3972.2,1487.4v-7.2l5.1-0.4l0.6-0.7c1.1-1.2,2.5-2.1,4-2.7c4.7-1.8,9.9-2.3,14.9-1.3
		c1.7,0.3,3.3,1,4.6,2.1l0.7,0.7l6.2-0.5v8L3972.2,1487.4z"/>
</g>
</svg>
