<svg id="Component_1_1" data-name="Component 1 – 1" xmlns="http://www.w3.org/2000/svg" viewBox="0 0 60 64.495">
  <g id="Ellipse_9" data-name="Ellipse 9" transform="translate(0 4.495)" fill="none" stroke="#fff" stroke-width="1">
    <circle cx="30" cy="30" r="30" stroke="#000"/>
    <circle cx="30" cy="30" r="29.5" fill="none"/>
  </g>
  <g id="Group_46" data-name="Group 46" transform="translate(-253.709 -23.526)">
    <path id="Path_144" data-name="Path 144" d="M295.513,36.3,273.38,23.526l-1.236.714,22.133,12.778Z" fill="#fff"/>
    <path id="Path_145" data-name="Path 145" d="M305.808,82.523V42.235l-1.236.714V83.237Z" transform="translate(-10.294 -5.939)" fill="#bdbdc0"/>
    <g id="Group_45" data-name="Group 45" transform="translate(272.144 24.231)">
      <path id="Path_146" data-name="Path 146" d="M294.277,77.625,272.144,64.847V24.559l22.133,12.778Z" transform="translate(-272.144 -24.559)" fill="#f2f2f5"/>
      <g id="Group_40" data-name="Group 40" transform="translate(5.002 28.453)">
        <path id="Path_147" data-name="Path 147" d="M285.207,67.026c-3.161-1.825-5.735-.339-5.735,3.327a12.694,12.694,0,0,0,5.735,9.932c3.176,1.834,5.749.348,5.749-3.3A12.7,12.7,0,0,0,285.207,67.026Zm0,12.054a10.378,10.378,0,0,1-4.69-8.124c0-3,2.1-4.219,4.69-2.725a10.387,10.387,0,0,1,4.705,8.149C289.912,79.369,287.809,80.583,285.207,79.08Z" transform="translate(-279.472 -66.246)" fill="#fff"/>
        <path id="Path_148" data-name="Path 148" d="M289.739,75.971l-4.22,2.436-2.711-4.7.955-.551,1.756,3.041,3.265-1.885Z" transform="translate(-280.531 -68.441)" fill="#fff"/>
      </g>
      <g id="Group_41" data-name="Group 41" transform="translate(5.328 7.545)">
        <path id="Path_149" data-name="Path 149" d="M290.684,41.4l-8.7-5.022v-.77l8.7,5.022Z" transform="translate(-280.596 -35.613)" fill="#515151"/>
        <path id="Path_150" data-name="Path 150" d="M291.427,45.063,279.95,38.437v-.77l11.477,6.626Z" transform="translate(-279.95 -36.265)" fill="#515151"/>
        <path id="Path_151" data-name="Path 151" d="M291.427,48.292,279.95,41.666V40.9l11.477,6.626Z" transform="translate(-279.95 -37.29)" fill="#515151"/>
      </g>
      <g id="Group_44" data-name="Group 44" transform="translate(3.856 15.08)">
        <g id="Group_42" data-name="Group 42">
          <path id="Path_152" data-name="Path 152" d="M291,56.953l-12-6.928a2.9,2.9,0,0,1-1.211-2.312h0c0-.891.542-1.3,1.211-.915l12,6.928a2.9,2.9,0,0,1,1.211,2.313h0C292.214,56.929,291.672,57.339,291,56.953Z" transform="translate(-277.793 -46.652)" fill="#fff"/>
        </g>
        <g id="Group_43" data-name="Group 43" transform="translate(0 4.543)">
          <path id="Path_153" data-name="Path 153" d="M291,63.608,279,56.68a2.9,2.9,0,0,1-1.211-2.312h0c0-.891.542-1.3,1.211-.915l12,6.928a2.9,2.9,0,0,1,1.211,2.312h0C292.214,63.585,291.672,63.994,291,63.608Z" transform="translate(-277.793 -53.307)" fill="#fff"/>
        </g>
      </g>
    </g>
  </g>
</svg>
