<svg xmlns="http://www.w3.org/2000/svg" xmlns:xlink="http://www.w3.org/1999/xlink" width="304.047" height="325.335" viewBox="0 0 304.047 325.335">
  <defs>
    <linearGradient id="linear-gradient" y1="0.5" x2="1" y2="0.5" gradientUnits="objectBoundingBox">
      <stop offset="0" stop-color="#7e1518"/>
      <stop offset="1" stop-color="#b4363a"/>
    </linearGradient>
    <clipPath id="clip-path">
      <rect id="SVGID" width="86.478" height="124.651" rx="22.474" fill="none"/>
    </clipPath>
    <linearGradient id="linear-gradient-2" x1="11.114" y1="6.437" x2="11.114" y2="6.433" xlink:href="#linear-gradient"/>
    <linearGradient id="linear-gradient-3" x1="8.954" y1="4.98" x2="8.954" y2="4.977" xlink:href="#linear-gradient"/>
  </defs>
  <g id="Online_stores" data-name="Online stores" transform="translate(-307.621 -198.847)">
    <path id="Path_5484" data-name="Path 5484" d="M569.689,360.912c-23.914-30.8-66.223-15.948-98.877-27.035-40.212-13.653-61.616-21.745-98.333,8.653-50.7,41.974-80.315,139.346-23.795,188.793,43.719,38.249,137.868,35.26,186.331,6.712C597.561,501.19,614.377,418.46,569.689,360.912Z" transform="translate(-3.003 -35.565)" fill="#f0f0f0" opacity="0.8"/>
    <path id="Path_5485" data-name="Path 5485" d="M609.934,492.226a61.266,61.266,0,0,0,.73-43.017c-2.042-5.669-4.955-11.137-5.594-17.128s1.8-12.917,7.431-15.055c6.271-2.382,13.41,2.494,15.945,8.7s1.721,13.215.866,19.869l22.1-46.178c1.9-3.969,3.866-8.033,7.047-11.073s7.893-4.882,12.065-3.484c5.169,1.731,7.761,7.876,7.23,13.3s-3.432,10.29-6.262,14.948l-21.947,36.13a43.565,43.565,0,0,1,28.438-21.853c7.369-1.682,17.026-.092,19.34,7.1,1.814,5.641-2.236,11.753-7.426,14.613s-11.284,3.4-17.1,4.552a79.451,79.451,0,0,0-50.879,34.713Z" transform="translate(-86.092 -53.72)" fill="#c9c9c9"/>
    <g id="Group_2641" data-name="Group 2641" transform="translate(531.838 348.22)">
      <path id="Path_5486" data-name="Path 5486" d="M624.017,482.7l-.8-1.172a70.174,70.174,0,0,0,24.123-28.715c1.95-4.272,3.494-8.811,4.988-13.2,1.145-3.364,2.329-6.842,3.692-10.2,3.875-9.534,8.663-16.182,14.638-20.323l.81,1.168c-5.741,3.979-10.364,10.418-14.131,19.69-1.348,3.316-2.525,6.776-3.663,10.12-1.5,4.423-3.061,9-5.041,13.333A71.585,71.585,0,0,1,624.017,482.7Z" transform="translate(-623.212 -409.093)" fill="#dbdbdb"/>
    </g>
    <g id="Group_2642" data-name="Group 2642" transform="translate(540.452 382.217)">
      <path id="Path_5487" data-name="Path 5487" d="M636.1,489.6l-.762-1.2c5.574-3.543,11.973-7.6,18.377-11.667,6.477-4.11,12.96-8.224,18.6-11.807,7.369-4.685,14.636-8.809,22.5-7.845l-.173,1.411c-7.4-.908-14.425,3.093-21.567,7.633-5.638,3.584-12.121,7.7-18.6,11.809C648.07,482,641.672,486.061,636.1,489.6Z" transform="translate(-635.336 -456.944)" fill="#dbdbdb"/>
    </g>
    <path id="Path_5488" data-name="Path 5488" d="M373.354,461.625c3.218-7.944-2.391-16.773-8.973-22.263s-14.633-9.716-18.948-17.122c-2.16-3.708-3.207-7.954-5.078-11.817s-4.937-7.556-9.146-8.389c-6.857-1.358-12.961,5.961-13,12.95s4.052,13.267,8.213,18.883,8.7,11.38,9.827,18.278c1.285,7.873-1.412,17.8,4.988,22.559,5.591,4.16,14.849,1.039,19.534,6.2,2.992,3.293,2.533,8.318,3.36,12.69s5.112,9.12,9.029,7.009Z" transform="translate(-3.067 -58.782)" fill="#c9c9c9"/>
    <g id="Group_2643" data-name="Group 2643" transform="translate(324.809 356.456)">
      <path id="Path_5489" data-name="Path 5489" d="M386.376,486.313c-10.565,0-20.809-7.78-23.536-18-.315-1.181-.541-2.393-.76-3.565a28.05,28.05,0,0,0-1.412-5.5c-1.9-4.661-6.157-7.876-10.273-10.985-1.4-1.056-2.844-2.148-4.185-3.285a43.8,43.8,0,0,1-14.4-23.985l1.388-.3a42.374,42.374,0,0,0,13.927,23.2c1.31,1.111,2.74,2.191,4.121,3.235,4.271,3.225,8.685,6.56,10.733,11.583a29.462,29.462,0,0,1,1.493,5.776c.215,1.146.436,2.331.737,3.46,2.627,9.851,12.689,17.3,22.854,16.938l.05,1.42C386.87,486.308,386.623,486.313,386.376,486.313Z" transform="translate(-331.814 -420.686)" fill="#dbdbdb"/>
    </g>
    <path id="Path_5490" data-name="Path 5490" d="M368,512.987c5.288-2.224,6.322-9.868,3.381-14.793s-8.452-7.648-13.787-9.755-10.995-3.986-15.093-8c-3.927-3.844-5.935-9.176-8.069-14.241s-4.711-10.278-9.281-13.331-11.677-2.956-14.765,1.591c-3.853,5.672.774,13.333,6.106,17.643s12.027,8.177,13.6,14.852c1.132,4.824-.812,9.968.3,14.8,1.242,5.412,6,9.241,10.746,12.125,8.8,5.353,10.37,5.964,13.247,9.9,1.984,2.714,4.165,7.414,3.5,15.693Q362.938,526.228,368,512.987Z" transform="translate(-0.389 -72.942)" fill="#bababa"/>
    <g id="Group_2644" data-name="Group 2644" transform="translate(325.431 391.463)">
      <path id="Path_5491" data-name="Path 5491" d="M369.336,520.308c-.539-4.906-6.131-7.638-8.51-8.585-1.021-.406-2.094-.781-3.133-1.144-3.245-1.133-6.6-2.3-9.2-4.684-1.94-1.774-2.366-4.473-2.778-7.083a20.056,20.056,0,0,0-.941-4.134,100.531,100.531,0,0,0-6-12.013,101.637,101.637,0,0,1-6.082-12.185l1.323-.519a100.474,100.474,0,0,0,6,12.014,101.571,101.571,0,0,1,6.082,12.185,21.4,21.4,0,0,1,1.022,4.431c.391,2.478.76,4.818,2.333,6.256,2.386,2.183,5.459,3.255,8.711,4.391,1.053.367,2.141.747,3.191,1.165,5.532,2.2,8.958,5.755,9.4,9.75Z" transform="translate(-332.689 -469.959)" fill="#c9c9c9"/>
    </g>
    <path id="Path_5492" data-name="Path 5492" d="M607.643,509.654c.149-3.672.183-7.494,1.824-10.783s5.476-5.827,8.963-4.664c4.632,1.546,5.3,7.723,5.122,12.6l18.589-16.164c3.424-2.977,6.962-6.021,11.251-7.5s9.564-1.037,12.664,2.275c3.187,3.405,3.158,8.969.911,13.057s-6.268,6.905-10.452,8.967c-3.826,1.886-8.052,3.38-10.84,6.608s-3.228,9,.4,11.242c4.117,2.551,10.123-1.088,14.129,1.635,3.29,2.236,2.823,7.592.107,10.5s-6.8,4-10.663,4.96l-25.271,6.3c-4.643,1.157-18.656,7.35-22.943,4.616-4.177-2.664,1.878-14.464,2.871-18.79A135.765,135.765,0,0,0,607.643,509.654Z" transform="translate(-84.647 -82.08)" fill="#b3b3b3"/>
    <g id="Group_2646" data-name="Group 2646" transform="translate(363.374 198.847)">
      <g id="Group_2645" data-name="Group 2645" transform="translate(0)">
        <path id="Path_5493" data-name="Path 5493" d="M559.164,217.184V472.569a18.343,18.343,0,0,1-18.344,18.337H438.875a18.337,18.337,0,0,1-18.337-18.337V217.184a18.332,18.332,0,0,1,18.337-18.337H540.82A18.338,18.338,0,0,1,559.164,217.184Z" transform="translate(-396.067 -198.847)" fill="#1a1a1c"/>
        <path id="Path_5494" data-name="Path 5494" d="M555.693,262.454v22.11c-.128.149-.263.291-.4.426a13.4,13.4,0,0,1-22.87-9.478,13.4,13.4,0,0,1-26.8,0,13.4,13.4,0,1,1-26.792,0,13.4,13.4,0,1,1-26.792,0,13.4,13.4,0,0,1-23.275,9.058V262.454Z" transform="translate(-398.45 -217.263)" fill="#1a003d" opacity="0.4"/>
        <path id="Path_5495" data-name="Path 5495" d="M555.693,228.156V474.563a13.62,13.62,0,0,1-13.733,13.5H442.5a13.624,13.624,0,0,1-13.733-13.5V228.156a13.62,13.62,0,0,1,13.733-13.5H541.96A13.616,13.616,0,0,1,555.693,228.156Z" transform="translate(-398.45 -203.423)" fill="#f2d4d4"/>
        <path id="Path_5496" data-name="Path 5496" d="M555.693,262.454v22.11a13.076,13.076,0,0,1-1.826,1.663,13.4,13.4,0,0,1-21.442-10.714,13.4,13.4,0,0,1-26.8,0,13.4,13.4,0,1,1-26.792,0,13.4,13.4,0,1,1-26.792,0,13.4,13.4,0,0,1-23.275,9.051v-22.11Z" transform="translate(-398.45 -217.263)" fill="#e0b5b5"/>
        <path id="Path_5497" data-name="Path 5497" d="M523.986,207.31h-21.9a1.46,1.46,0,0,1-1.46-1.459h0a1.46,1.46,0,0,1,1.46-1.46h21.9a1.46,1.46,0,0,1,1.46,1.46h0A1.46,1.46,0,0,1,523.986,207.31Z" transform="translate(-419.256 -199.398)" fill="#bababa" opacity="0.1"/>
        <circle id="Ellipse_23" data-name="Ellipse 23" cx="1.478" cy="1.478" r="1.478" transform="translate(132.584 4.974)" fill="#bababa" opacity="0.1"/>
        <path id="Rectangle_188" data-name="Rectangle 188" d="M0,0H26.795a0,0,0,0,1,0,0V13.06a13.4,13.4,0,0,1-13.4,13.4h0A13.4,13.4,0,0,1,0,13.06V0A0,0,0,0,1,0,0Z" transform="translate(0 37.519)" fill="#dfdfdf"/>
        <path id="Rectangle_189" data-name="Rectangle 189" d="M0,0H26.795a0,0,0,0,1,0,0V13.06a13.4,13.4,0,0,1-13.4,13.4h0A13.4,13.4,0,0,1,0,13.06V0A0,0,0,0,1,0,0Z" transform="translate(26.795 37.519)" fill="#9c3434"/>
        <path id="Rectangle_190" data-name="Rectangle 190" d="M0,0H26.795a0,0,0,0,1,0,0V13.06a13.4,13.4,0,0,1-13.4,13.4h0A13.4,13.4,0,0,1,0,13.06V0A0,0,0,0,1,0,0Z" transform="translate(53.589 37.519)" fill="#f4eff4"/>
        <path id="Rectangle_191" data-name="Rectangle 191" d="M0,0H26.795a0,0,0,0,1,0,0V13.06a13.4,13.4,0,0,1-13.4,13.4h0A13.4,13.4,0,0,1,0,13.06V0A0,0,0,0,1,0,0Z" transform="translate(80.384 37.519)" fill="#9c3434"/>
        <path id="Rectangle_192" data-name="Rectangle 192" d="M0,0H26.795a0,0,0,0,1,0,0V13.06a13.4,13.4,0,0,1-13.4,13.4h0A13.4,13.4,0,0,1,0,13.06V0A0,0,0,0,1,0,0Z" transform="translate(107.178 37.519)" fill="#f4eff4"/>
        <path id="Rectangle_193" data-name="Rectangle 193" d="M0,0H26.795a0,0,0,0,1,0,0V13.06a13.4,13.4,0,0,1-13.4,13.4h0A13.4,13.4,0,0,1,0,13.06V0A0,0,0,0,1,0,0Z" transform="translate(133.973 37.519)" fill="#9c3434"/>
        <path id="Rectangle_194" data-name="Rectangle 194" d="M0,0H26.795a0,0,0,0,1,0,0V13.06a13.4,13.4,0,0,1-13.4,13.4h0A13.4,13.4,0,0,1,0,13.06V0A0,0,0,0,1,0,0Z" transform="translate(160.768 37.519)" fill="#dfdfdf"/>
        <path id="Path_5498" data-name="Path 5498" d="M412.89,240.942H386.1l25.9-26.289h23.838Z" transform="translate(-386.095 -203.423)" fill="#f3f3f3"/>
        <path id="Path_5499" data-name="Path 5499" d="M450.6,240.942H423.809l22.942-26.289H465.9Z" transform="translate(-397.014 -203.423)" fill="#d45959"/>
        <path id="Path_5500" data-name="Path 5500" d="M488.318,240.942H461.523l15.295-26.289h19.147Z" transform="translate(-407.934 -203.423)" fill="#fffaff"/>
        <path id="Path_5501" data-name="Path 5501" d="M603.03,240.942h26.795L603.93,214.653H580.088Z" transform="translate(-442.262 -203.423)" fill="#f3f3f3"/>
        <path id="Path_5502" data-name="Path 5502" d="M568.432,240.942h26.795l-22.942-26.289H553.137Z" transform="translate(-434.459 -203.423)" fill="#d45959"/>
        <path id="Path_5503" data-name="Path 5503" d="M533.835,240.942h26.795l-15.295-26.289H526.187Z" transform="translate(-426.656 -203.423)" fill="#fffaff"/>
        <path id="Path_5504" data-name="Path 5504" d="M526.032,240.942H499.237l7.647-26.289h11.5Z" transform="translate(-418.853 -203.423)" fill="#d45959"/>
      </g>
      <rect id="Rectangle_195" data-name="Rectangle 195" width="32.373" height="32.227" rx="6.992" transform="translate(39.248 120.263)" fill="#e0b5b5"/>
      <rect id="Rectangle_196" data-name="Rectangle 196" width="109.066" height="35.897" rx="6.992" transform="translate(39.248 160.633)" fill="#e0b5b5"/>
      <path id="Rectangle_197" data-name="Rectangle 197" d="M6.992,0h95.083a6.992,6.992,0,0,1,6.992,6.992V67.153a0,0,0,0,1,0,0H0a0,0,0,0,1,0,0V6.992A6.992,6.992,0,0,1,6.992,0Z" transform="translate(39.248 205.916)" fill="#e0b5b5"/>
      <rect id="Rectangle_198" data-name="Rectangle 198" width="32.373" height="32.227" rx="6.992" transform="translate(77.25 120.263)" fill="#e0b5b5"/>
      <rect id="Rectangle_199" data-name="Rectangle 199" width="32.373" height="32.227" rx="6.992" transform="translate(115.942 120.263)" fill="#e0b5b5"/>
    </g>
    <g id="Group_2656" data-name="Group 2656" transform="translate(355.292 421.81)">
      <rect id="Rectangle_200" data-name="Rectangle 200" width="77.972" height="77.621" rx="16.84" fill="#fff"/>
      <g id="Group_2655" data-name="Group 2655" transform="translate(18.575 7.351)">
        <rect id="Rectangle_201" data-name="Rectangle 201" width="32.274" height="6.222" rx="3.111" transform="translate(4.273 53.142)" fill="#e8a0a0"/>
        <g id="Group_2654" data-name="Group 2654">
          <rect id="Rectangle_202" data-name="Rectangle 202" width="36.66" height="36.66" transform="translate(2.08 9.131)" fill="#f04747"/>
          <rect id="Rectangle_203" data-name="Rectangle 203" width="40.821" height="8.208" transform="translate(0 9.131)" fill="#9c3434"/>
          <g id="Group_2651" data-name="Group 2651" transform="translate(9.399)">
            <g id="Group_2647" data-name="Group 2647" transform="translate(0 0.001)">
              <path id="Path_5505" data-name="Path 5505" d="M424.646,533.276c-5.928,0-9.842-1.77-10.472-4.735-.43-2.024.882-4.039,3.341-5.132a3.957,3.957,0,0,1,3.53.054c3.262,1.688,4.565,7.779,4.7,8.468a1.124,1.124,0,0,1-1.1,1.345Zm-5.389-8.008a2.033,2.033,0,0,0-.828.2c-1.449.644-2.255,1.668-2.055,2.61.283,1.329,2.5,2.669,6.826,2.914-.622-2.146-1.777-4.8-3.189-5.527A1.612,1.612,0,0,0,419.257,525.268Z" transform="translate(-414.093 -523.021)" fill="#bf1b1b"/>
            </g>
            <g id="Group_2648" data-name="Group 2648" transform="translate(3.744 8.712)">
              <rect id="Rectangle_204" data-name="Rectangle 204" width="15.455" height="2.249" transform="translate(0 14.34) rotate(-68.099)" fill="#bf1b1b"/>
            </g>
            <g id="Group_2649" data-name="Group 2649" transform="translate(10.346)">
              <path id="Path_5506" data-name="Path 5506" d="M429.78,533.276a1.124,1.124,0,0,1-1.1-1.345c.138-.689,1.441-6.78,4.7-8.468a3.952,3.952,0,0,1,3.53-.054c2.46,1.093,3.771,3.108,3.341,5.132C439.622,531.506,435.707,533.276,429.78,533.276Zm5.389-8.007a1.61,1.61,0,0,0-.754.191c-1.412.73-2.568,3.381-3.189,5.527,4.327-.244,6.543-1.584,6.825-2.914.2-.942-.607-1.966-2.055-2.61A2.038,2.038,0,0,0,435.169,525.269Z" transform="translate(-428.655 -523.02)" fill="#bf1b1b"/>
            </g>
            <g id="Group_2650" data-name="Group 2650" transform="translate(10.427 8.712)">
              <rect id="Rectangle_205" data-name="Rectangle 205" width="2.249" height="15.455" transform="translate(0 0.839) rotate(-21.897)" fill="#bf1b1b"/>
            </g>
          </g>
          <g id="Group_2652" data-name="Group 2652" transform="translate(18.205 10.137)">
            <rect id="Rectangle_206" data-name="Rectangle 206" width="3.082" height="36.372" fill="#bf1b1b"/>
          </g>
          <g id="Group_2653" data-name="Group 2653" transform="translate(1.56 27.399)">
            <rect id="Rectangle_207" data-name="Rectangle 207" width="37.605" height="2.466" fill="#bf1b1b"/>
          </g>
        </g>
      </g>
    </g>
    <g id="Group_2661" data-name="Group 2661" transform="translate(413.916 289.012)">
      <rect id="Rectangle_208" data-name="Rectangle 208" width="86.478" height="124.651" rx="22.474" transform="translate(0)" fill="url(#linear-gradient)"/>
      <g id="Group_2659" data-name="Group 2659" transform="translate(0)">
        <g id="Group_2658" data-name="Group 2658" clip-path="url(#clip-path)">
          <g id="Group_2657" data-name="Group 2657" transform="translate(-46.105 26.742)">
            <circle id="Oval_3" data-name="Oval 3" cx="47.583" cy="47.583" r="47.583" fill="url(#linear-gradient-2)"/>
            <circle id="Oval_3-2" data-name="Oval 3-2" cx="57.002" cy="57.002" r="57.002" transform="translate(37.755 44.835)" opacity="0.8" fill="url(#linear-gradient-3)" style="isolation: isolate"/>
          </g>
        </g>
      </g>
      <g id="Group_2660" data-name="Group 2660" transform="translate(17.875 26.752)">
        <g id="Group_3221" data-name="Group 3221">
          <path id="Path_5587" data-name="Path 5587" d="M513.384,373.74l-7.747,7.747,2.583,12.911-10.33-7.747-10.33,7.747,2.582-12.911-7.747-7.747h10.33l5.165-10.33,5.165,10.33Z" transform="translate(-482.394 -363.41)" fill="#ffa233"/>
          <g id="Group_3220" data-name="Group 3220">
            <path id="Path_5588" data-name="Path 5588" d="M492.724,377.95h-10.33l15.5,5.165Z" transform="translate(-482.394 -367.62)" fill="#ffca46"/>
            <path id="Path_5589" data-name="Path 5589" d="M509.369,373.74,504.2,363.41v15.5Z" transform="translate(-488.709 -363.41)" fill="#ffca46"/>
            <path id="Path_5590" data-name="Path 5590" d="M502.1,363.41l-5.165,10.33,5.165,5.165Z" transform="translate(-486.604 -363.41)" fill="#ffb337"/>
            <path id="Path_5591" data-name="Path 5591" d="M519.7,377.95H509.369l-5.165,5.165Z" transform="translate(-488.709 -367.62)" fill="#ffb337"/>
            <path id="Path_5592" data-name="Path 5592" d="M511.951,385.7l7.748-7.747L504.2,383.115Z" transform="translate(-488.709 -367.62)" fill="#ff8d1f"/>
            <path id="Path_5593" data-name="Path 5593" d="M492.246,387.8l-2.582,12.913,10.33-15.495Z" transform="translate(-484.499 -369.725)" fill="#ff711f"/>
            <path id="Path_5594" data-name="Path 5594" d="M504.2,392.966l10.33,7.747L504.2,385.22Z" transform="translate(-488.709 -369.725)" fill="#ff8d1f"/>
            <path id="Path_5595" data-name="Path 5595" d="M504.2,385.22l10.33,15.495L511.951,387.8Z" transform="translate(-488.709 -369.725)" fill="#ffb337"/>
            <path id="Path_5596" data-name="Path 5596" d="M489.664,400.715l10.33-7.747V385.22Z" transform="translate(-484.499 -369.725)" fill="#ffa233"/>
            <path id="Path_5597" data-name="Path 5597" d="M482.394,377.95l7.747,7.747,7.747-2.582Z" transform="translate(-482.394 -367.62)" fill="#ff8d1f"/>
          </g>
        </g>
        <g id="Group_3296" data-name="Group 3296" transform="translate(19.737)">
          <path id="Path_5587-2" data-name="Path 5587-2" d="M541.165,373.74l-7.747,7.747L536,394.4l-10.329-7.747L515.34,394.4l2.582-12.911-7.747-7.747h10.33l5.165-10.33,5.164,10.33Z" transform="translate(-510.175 -363.41)" fill="#ffa233"/>
          <g id="Group_3220-2" data-name="Group 3220-2">
            <path id="Path_5588-2" data-name="Path 5588-2" d="M520.505,377.95h-10.33l15.5,5.165Z" transform="translate(-510.175 -367.62)" fill="#ffca46"/>
            <path id="Path_5589-2" data-name="Path 5589-2" d="M537.149,373.74l-5.164-10.33v15.5Z" transform="translate(-516.49 -363.41)" fill="#ffca46"/>
            <path id="Path_5590-2" data-name="Path 5590-2" d="M529.88,363.41l-5.165,10.33,5.165,5.165Z" transform="translate(-514.385 -363.41)" fill="#ffb337"/>
            <path id="Path_5591-2" data-name="Path 5591-2" d="M547.48,377.95h-10.33l-5.164,5.165Z" transform="translate(-516.49 -367.62)" fill="#ffb337"/>
            <path id="Path_5592-2" data-name="Path 5592-2" d="M539.731,385.7l7.748-7.747-15.495,5.165Z" transform="translate(-516.49 -367.62)" fill="#ff8d1f"/>
            <path id="Path_5593-2" data-name="Path 5593-2" d="M520.027,387.8l-2.582,12.913,10.33-15.495Z" transform="translate(-512.28 -369.725)" fill="#ff711f"/>
            <path id="Path_5594-2" data-name="Path 5594-2" d="M531.985,392.966l10.33,7.747-10.33-15.493Z" transform="translate(-516.49 -369.725)" fill="#ff8d1f"/>
            <path id="Path_5595-2" data-name="Path 5595-2" d="M531.985,385.22l10.33,15.495L539.731,387.8Z" transform="translate(-516.49 -369.725)" fill="#ffb337"/>
            <path id="Path_5596-2" data-name="Path 5596-2" d="M517.445,400.715l10.33-7.747V385.22Z" transform="translate(-512.28 -369.725)" fill="#ffa233"/>
            <path id="Path_5597-2" data-name="Path 5597-2" d="M510.175,377.95l7.747,7.747,7.747-2.582Z" transform="translate(-510.175 -367.62)" fill="#ff8d1f"/>
          </g>
        </g>
        <g id="Group_3294" data-name="Group 3294" transform="translate(7.287 2.467)">
          <g id="Group_3221-2" data-name="Group 3221-2" transform="translate(2.583 2.467)">
            <path id="Path_5587-3" data-name="Path 5587-3" d="M527.275,380.685l-7.747,7.747,2.582,12.912L511.78,393.6l-10.33,7.747,2.582-12.912-7.746-7.747h10.329l5.165-10.33,5.165,10.33Z" transform="translate(-496.285 -370.355)" fill="#ffa233"/>
            <g id="Group_3220-3" data-name="Group 3220-3">
              <path id="Path_5588-3" data-name="Path 5588-3" d="M506.614,384.895H496.285l15.495,5.165Z" transform="translate(-496.285 -374.565)" fill="#ffca46"/>
              <path id="Path_5589-3" data-name="Path 5589-3" d="M523.259,380.685l-5.165-10.33v15.5Z" transform="translate(-502.599 -370.355)" fill="#ffca46"/>
              <path id="Path_5590-3" data-name="Path 5590-3" d="M515.989,370.355l-5.165,10.33,5.165,5.165Z" transform="translate(-500.494 -370.355)" fill="#ffb337"/>
              <path id="Path_5591-3" data-name="Path 5591-3" d="M533.589,384.895h-10.33l-5.165,5.165Z" transform="translate(-502.599 -374.565)" fill="#ffb337"/>
              <path id="Path_5592-3" data-name="Path 5592-3" d="M525.841,392.642l7.748-7.747-15.5,5.165Z" transform="translate(-502.599 -374.565)" fill="#ff8d1f"/>
              <path id="Path_5593-3" data-name="Path 5593-3" d="M506.136,394.747l-2.582,12.913,10.33-15.495Z" transform="translate(-498.39 -376.67)" fill="#ff711f"/>
              <path id="Path_5594-3" data-name="Path 5594-3" d="M518.094,399.912l10.33,7.747-10.33-15.494Z" transform="translate(-502.599 -376.67)" fill="#ff8d1f"/>
              <path id="Path_5595-3" data-name="Path 5595-3" d="M518.094,392.165l10.33,15.495-2.583-12.913Z" transform="translate(-502.599 -376.67)" fill="#ffb337"/>
              <path id="Path_5596-3" data-name="Path 5596-3" d="M503.554,407.66l10.33-7.747v-7.748Z" transform="translate(-498.39 -376.67)" fill="#ffa233"/>
              <path id="Path_5597-3" data-name="Path 5597-3" d="M496.285,384.895l7.746,7.747,7.747-2.582Z" transform="translate(-496.285 -374.565)" fill="#ff8d1f"/>
            </g>
          </g>
          <path id="Path_5598" data-name="Path 5598" d="M528.608,378.692a2.59,2.59,0,0,0-2.386-1.594h-8.734l-4.45-8.9a2.69,2.69,0,0,0-4.622,0l-4.45,8.9h-8.734a2.581,2.581,0,0,0-1.825,4.408l6.766,6.771-2.309,11.556a2.582,2.582,0,0,0,4.08,2.573l8.782-6.589,8.781,6.585a2.582,2.582,0,0,0,4.081-2.572l-2.31-11.556,6.774-6.767A2.581,2.581,0,0,0,528.608,378.692Zm-10.134,8.737,2.582,12.912-10.33-7.747-10.33,7.747,2.583-12.912-7.746-7.747h10.33l5.165-10.329,5.165,10.329h10.33Z" transform="translate(-492.65 -366.883)" fill="url(#linear-gradient)"/>
        </g>
      </g>
      <rect id="Rectangle_209" data-name="Rectangle 209" width="46.124" height="7.961" rx="3.98" transform="translate(20.176 74.365)" fill="#fff" opacity="0.8"/>
    </g>
    <g id="Group_2664" data-name="Group 2664" transform="translate(360.972 353.725)">
      <path id="Path_5507" data-name="Path 5507" d="M437.229,447.792H401.488a66.1,66.1,0,0,1-1.7,8.2,36.057,36.057,0,0,1-1.948,5.5,4.146,4.146,0,1,1-2.358-1.912c.119-.284.246-.6.377-.946a51.523,51.523,0,0,0,2.172-7.99q.281-1.442.493-2.853h-.969a5.411,5.411,0,0,0-3.84,1.6l-3.325,3.346-2.422,2.438-3.093,3.113a7.443,7.443,0,0,0,0,10.493l8.84,8.9a5.411,5.411,0,0,0,3.84,1.6h39.673a5.414,5.414,0,0,0,5.414-5.414V453.206A5.414,5.414,0,0,0,437.229,447.792Z" transform="translate(-382.713 -425.803)" fill="#fff"/>
      <g id="Group_2662" data-name="Group 2662" transform="translate(25.301 26.493)">
        <path id="Path_5508" data-name="Path 5508" d="M418.325,459.5a5.127,5.127,0,0,1,.424-2.072,5.485,5.485,0,0,1,1.162-1.711,5.39,5.39,0,0,1,1.742-1.162,5.589,5.589,0,0,1,2.2-.424,5.707,5.707,0,0,1,2.213.424,5.37,5.37,0,0,1,1.758,1.162,5.521,5.521,0,0,1,1.162,1.711,5.139,5.139,0,0,1,.423,2.072,5.331,5.331,0,0,1-1.585,3.8,5.506,5.506,0,0,1-1.758,1.146,5.721,5.721,0,0,1-2.213.423,5.6,5.6,0,0,1-2.2-.423,5.527,5.527,0,0,1-1.742-1.146,5.335,5.335,0,0,1-1.586-3.8Zm3.359,0a2.247,2.247,0,0,0,.628,1.664,2.2,2.2,0,0,0,3.076,0,2.518,2.518,0,0,0,0-3.328,2.2,2.2,0,0,0-3.076,0A2.248,2.248,0,0,0,421.684,459.5Zm1.458,14.206,12.277-18.332a1.494,1.494,0,0,1,2.073-.409h0a1.493,1.493,0,0,1,.409,2.071l-12.277,18.332a1.493,1.493,0,0,1-2.072.409h0A1.493,1.493,0,0,1,423.142,473.705Zm8.494-2.465a5.128,5.128,0,0,1,.424-2.072,5.5,5.5,0,0,1,1.162-1.711,5.4,5.4,0,0,1,1.742-1.162,5.592,5.592,0,0,1,2.2-.424,5.708,5.708,0,0,1,2.213.424,5.371,5.371,0,0,1,1.758,1.162,5.51,5.51,0,0,1,1.162,1.711,5.128,5.128,0,0,1,.423,2.072,5.33,5.33,0,0,1-1.585,3.8,5.506,5.506,0,0,1-1.758,1.146,5.721,5.721,0,0,1-2.213.423,5.6,5.6,0,0,1-2.2-.423,5.535,5.535,0,0,1-1.742-1.146,5.335,5.335,0,0,1-1.586-3.8Zm3.359,0a2.25,2.25,0,0,0,.628,1.664,2.2,2.2,0,0,0,3.076,0,2.518,2.518,0,0,0,0-3.328,2.2,2.2,0,0,0-3.076,0A2.251,2.251,0,0,0,434.995,471.24Z" transform="translate(-418.325 -454.131)" fill="url(#linear-gradient)"/>
      </g>
      <g id="Group_2663" data-name="Group 2663" transform="translate(3.326)">
        <path id="Path_5509" data-name="Path 5509" d="M401.913,421.389c-1.67-3.758-4.363-4.547-6.328-4.547-2.031,0-4.818.841-6.565,4.843a25.418,25.418,0,0,0-1.626,9.961,60.041,60.041,0,0,0,1.93,14.567q.162.613.335,1.207a28.646,28.646,0,0,0,2.131,5.476c.058.108.115.212.174.312,1.111,1.929,2.3,2.866,3.621,2.866,1.63,0,2.7-1.738,3.368-3.047.082-.16.163-.325.244-.5a4.161,4.161,0,0,0-2.358-1.912,8.788,8.788,0,0,1-1.354,2.424,6.905,6.905,0,0,1-1.5-2.3c-.048-.1-.094-.2-.143-.313a36.726,36.726,0,0,1-2.1-6.656c-.026-.115-.053-.23-.078-.347-1.353-6.144-1.708-12.507-.951-17.019.739-4.4,2.376-6.636,4.867-6.636.736,0,2.977,0,4.19,4.335.969,3.457.993,8.822.105,14.722h2.963a58.049,58.049,0,0,0,.617-8.043A23.64,23.64,0,0,0,401.913,421.389Z" transform="translate(-387.395 -416.842)" fill="url(#linear-gradient)"/>
        <path id="Path_5510" data-name="Path 5510" d="M406.692,447.792a66.1,66.1,0,0,1-1.7,8.2,36.06,36.06,0,0,1-1.948,5.5,4.161,4.161,0,0,0-2.358-1.912c.119-.284.246-.6.377-.946a51.52,51.52,0,0,0,2.172-7.99q.281-1.442.493-2.853Z" transform="translate(-391.244 -425.803)" fill="#fff"/>
      </g>
    </g>
    <path id="Path_5511" data-name="Path 5511" d="M356.777,581.679a48.066,48.066,0,0,0-19.124-40.34c-4.473-3.3-9.508-5.795-13.9-9.2s-8.241-8.043-8.965-13.556c-6.443,7.13-8.332,17.6-6.505,27.035s6.982,17.936,13.142,25.311a98.644,98.644,0,0,0,40.949,29Z" transform="translate(0 -92.573)" fill="#c9c9c9"/>
    <path id="Path_5512" data-name="Path 5512" d="M624.083,588.831c.089-2.185.109-4.46,1.086-6.417s3.259-3.468,5.333-2.775c2.757.92,3.153,4.6,3.049,7.5l11.063-9.619c2.038-1.772,4.143-3.584,6.7-4.464s5.692-.617,7.537,1.354c1.9,2.026,1.88,5.337.543,7.77a13.752,13.752,0,0,1-6.22,5.337c-2.276,1.123-4.792,2.011-6.45,3.932s-1.921,5.353.237,6.69c2.45,1.518,6.025-.647,8.408.973,1.958,1.331,1.68,4.519.064,6.249s-4.048,2.379-6.346,2.952l-15.039,3.748c-2.763.689-11.1,4.374-13.654,2.747-2.486-1.586,1.118-8.608,1.709-11.182A80.813,80.813,0,0,0,624.083,588.831Z" transform="translate(-90.305 -108.207)" fill="#b3b3b3"/>
    <g id="Group_2667" data-name="Group 2667" transform="translate(494.236 393.583)">
      <rect id="Rectangle_210" data-name="Rectangle 210" width="65.64" height="65.345" rx="14.176" transform="translate(0)" fill="#f2f2f2"/>
      <g id="Group_2666" data-name="Group 2666" transform="translate(7.165 9.181)">
        <g id="Group_2665" data-name="Group 2665">
          <rect id="Rectangle_211" data-name="Rectangle 211" width="45.137" height="31.892" rx="2.997" transform="translate(3.087)" fill="#2d2e45"/>
          <rect id="Rectangle_212" data-name="Rectangle 212" width="25.962" height="39.206" rx="1.766" transform="translate(45.258 2.965) rotate(90)" fill="#fff"/>
          <rect id="Rectangle_213" data-name="Rectangle 213" width="51.31" height="3.539" rx="1.77" transform="translate(0 31.892)" fill="#2c40b0"/>
          <rect id="Rectangle_214" data-name="Rectangle 214" width="51.31" height="3.539" rx="1.77" transform="translate(0 31.892)" fill="#2d2e45"/>
          <path id="Rectangle_215" data-name="Rectangle 215" d="M0,0H12.877a0,0,0,0,1,0,0V0a1.432,1.432,0,0,1-1.432,1.432H1.432A1.432,1.432,0,0,1,0,0V0A0,0,0,0,1,0,0Z" transform="translate(19.217 31.892)" fill="#bababa" opacity="0.1"/>
          <circle id="Ellipse_24" data-name="Ellipse 24" cx="0.565" cy="0.565" r="0.565" transform="translate(25.09 0.906)" fill="#2c3955"/>
        </g>
        <rect id="Rectangle_216" data-name="Rectangle 216" width="27.169" height="5.238" rx="2.619" transform="translate(12.07 41.745)" fill="#e8a0a0"/>
      </g>
    </g>
  </g>
</svg>
