<?xml version="1.0" encoding="utf-8"?><svg width="124" height="44" viewBox="0 0 124 44" fill="none" xmlns="http://www.w3.org/2000/svg">
<path d="M122.776 35.8613C122.771 35.7991 122.771 35.7369 122.771 35.6835V35.5057C122.771 35.3768 122.724 35.2435 122.638 35.1057C122.569 35.0035 122.474 34.9323 122.349 34.8879C122.435 34.8657 122.508 34.8346 122.564 34.7945C122.728 34.6834 122.81 34.5145 122.81 34.2834C122.81 33.9634 122.681 33.7411 122.422 33.6344C122.28 33.5722 122.06 33.5455 121.763 33.5455H120.9V36.0613H121.383V35.0968H121.681C121.896 35.0968 122.047 35.1235 122.129 35.1724C122.267 35.2568 122.336 35.4346 122.336 35.7058V35.9058L122.345 35.9858V35.9947C122.345 36.0036 122.349 36.008 122.349 36.0169L122.362 36.0658H122.832L122.793 35.9858C122.789 35.968 122.78 35.9413 122.776 35.8613ZM121.379 33.9011H121.702C121.926 33.9011 122.095 33.9322 122.194 33.99C122.289 34.0434 122.336 34.1545 122.336 34.3189C122.336 34.4923 122.263 34.6079 122.112 34.6701C122.03 34.7056 121.896 34.7234 121.724 34.7234H121.379V33.9011Z" fill="#9A9C9E"/>
<path d="M123.354 33.2034C122.927 32.7633 122.405 32.5411 121.797 32.5411C121.194 32.5411 120.677 32.7633 120.25 33.2034C119.823 33.6434 119.607 34.1812 119.607 34.7991C119.607 35.4258 119.823 35.9636 120.245 36.4037C120.672 36.8437 121.194 37.0704 121.797 37.0704C122.401 37.0704 122.927 36.8482 123.354 36.4037C123.78 35.9636 123.996 35.4214 123.996 34.7991C124 34.1812 123.78 33.6434 123.354 33.2034ZM121.802 36.7059C121.297 36.7059 120.862 36.5192 120.508 36.1503C120.155 35.7814 119.978 35.328 119.978 34.808C119.978 34.2879 120.159 33.839 120.513 33.4745C120.866 33.1056 121.302 32.9189 121.806 32.9189C122.31 32.9189 122.746 33.1056 123.099 33.4745C123.453 33.839 123.634 34.2879 123.634 34.808C123.634 35.3325 123.453 35.7814 123.099 36.1503C122.746 36.5192 122.306 36.7059 121.802 36.7059Z" fill="#9A9C9E"/>
<path d="M29.073 10.9963L0 18.4326V38.0524L29.0644 43.9819L29.073 10.9963Z" fill="#E32E34"/>
<path fill-rule="evenodd" clip-rule="evenodd" d="M88.9134 32.7499C87.3097 32.7499 86.3268 32.0254 86.3268 30.9764C86.3268 28.2294 89.8531 28.8784 92.5173 27.5449C92.7113 30.4474 91.7715 32.7499 88.9134 32.7499ZM100.669 36.9059C100.669 36.9059 100.665 35.0079 100.665 33.7989V23.9046C100.665 18.8596 100.074 15.1437 90.3618 15.1437C85.6327 15.1437 82.6108 16.0371 80.9122 17.615V15.1481C80.5544 15.1037 80.2053 15.0237 79.8561 15.0237C76.6832 15.0237 74.6829 16.5971 73.5492 19.9086H73.4716V15.6326H67.3457V36.8748H74.213V29.4829C74.213 24.918 75.9029 21.9621 79.231 21.9621C79.2353 21.9621 79.2396 21.9621 79.2439 21.9621H86.9907C87.1847 20.4331 88.7107 20.1886 89.8445 20.1886C90.7067 20.1886 92.513 20.3931 92.513 21.9221C92.513 25.8825 77.9032 21.5176 77.9032 31.1275C77.9032 35.5279 81.352 37.5104 85.2275 37.5104C88.284 37.5104 90.6334 36.8659 92.9441 34.6434L92.9398 36.9059H100.669Z" fill="#404040"/>
<path d="M107.864 15.6328H99.6777L105.653 32.7234C106.472 35.0658 107.256 36.8971 104.713 36.8971C104.04 36.8971 103.282 36.8971 100.661 36.8971V43.9956C103.799 43.9956 104.058 43.9912 106.036 43.9912C113.283 43.9912 113.486 41.9199 115.645 35.3725L122.22 15.6283H115.029L111.464 28.6696L107.864 15.6328Z" fill="#404040"/>
<path d="M3.76367 0L33.8929 8.27639V27.9139L29.0689 29.0163L29.0646 10.9967L10.1396 15.8372L10.1352 33.3234L3.78954 34.7102L3.76367 0Z" fill="#FCB813"/>
<path d="M66.5608 20.6735H53.9125V26.9719H57.9864C57.5165 28.9899 54.8222 30.7812 52.2615 30.7812C48.7437 30.7812 45.4631 28.8832 45.4114 22.447C45.3683 16.5531 48.2609 13.2905 52.6624 13.2905C55.0506 13.2905 57.5165 14.984 58.0812 17.5976H66.216C65.0779 10.4502 59.6332 6.8143 52.8607 6.8143C43.7387 6.8143 38.0957 13.1972 38.0957 22.4826C38.0957 32.6169 44.5621 37.4218 51.77 37.4218C56.193 37.4218 58.7408 35.7283 60.2669 33.8659L60.2712 36.7462L66.5738 36.7329V20.6735" fill="#404040"/>
</svg>
