<svg xmlns="http://www.w3.org/2000/svg" viewBox="0 0 362.06 72"><defs><style>.cls-1,.cls-3{fill:#6a737b;}.cls-2{fill:#fdb913;}.cls-3{font-size:12px;font-family:ArialMT, Arial;}</style></defs><title>Asset 1</title><g id="Layer_2" data-name="Layer 2"><g id="Layer_1-2" data-name="Layer 1"><rect class="cls-1" x="244.63" y="15.42" width="7.69" height="7.49"></rect><path class="cls-1" d="M143.8,30.52a26.45,26.45,0,0,1,10.26-2.24c9,0,12.73,3.73,12.73,12.44v4.73c0,3,0,5.13.11,7.3s.16,3.61.35,5.75h-6.77a39.09,39.09,0,0,1-.34-4.41H160a10.56,10.56,0,0,1-9.13,5.1c-5.21,0-10.07-2.77-10.32-8.77a8.42,8.42,0,0,1,5-8.43c2.92-1.43,6.7-1.72,9.92-1.72h4.25c0-4.75-2.12-6.36-6.66-6.36A15.48,15.48,0,0,0,144,37.11Zm9,23a6.77,6.77,0,0,0,5.4-2.63,9.89,9.89,0,0,0,1.6-6.08h-3.33c-4.13,0-8.73,1.14-8.54,5.1.12,2.52,2,3.69,4.87,3.61"></path><rect class="cls-1" x="173.76" y="15.42" width="7.78" height="43.01"></rect><path class="cls-1" d="M189.06,15.42h7.68V32.68h.11a10.75,10.75,0,0,1,8.83-4.47c9.07,0,12.24,7.22,12.24,15.37s-3.53,15.54-12.59,15.54a10.19,10.19,0,0,1-8.71-4.3h-.12v3.61h-7.45Zm14.51,37.73c5,0,6.47-5.5,6.47-9.58s-1.38-9.41-6.37-9.41-7,5-7,9.41c0,4.84,1.83,9.58,6.93,9.58"></path><path class="cls-1" d="M223,28.9h6.83v6.7h.11c.36-2.75,3.5-7.4,8.09-7.4a8.35,8.35,0,0,1,2.35.23v7.74a7.74,7.74,0,0,0-3.43-.63c-6.26,0-6.26,7.8-6.26,12V58.43H223Z"></path><rect class="cls-1" x="244.63" y="28.9" width="7.69" height="29.53"></rect><path class="cls-1" d="M278.81,54.81h-.12c-1.86,2.86-4.89,4.3-8.84,4.3-8.43,0-12.45-7.08-12.45-15.54,0-8.14,3.62-15.37,12.69-15.37a9.66,9.66,0,0,1,8.39,4.13h.11V15.42h7.68v43h-7.46Zm-6.9-1.66c4.78,0,6.77-5.12,6.77-9.58s-1.74-9.41-6.67-9.41c-4.61,0-6.73,4.75-6.73,9.41,0,4.46,1.58,9.58,6.63,9.58"></path><path class="cls-1" d="M320.22,28.9V55.56c0,8-3.22,15.6-15.61,15.6a28.59,28.59,0,0,1-10.2-2l.63-6.53a22.12,22.12,0,0,0,8.6,2.58c7.7,0,8.88-5.19,8.88-10v-1.5h-.11a10,10,0,0,1-8.9,4.7c-8.71,0-12.17-6.94-12.17-14.85,0-7.11,3.64-15.37,12.48-15.37,3.89,0,6.79,1.32,8.92,4.7h.12v-4Zm-7.59,14.45c0-5-2-9.18-6.52-9.18-5.22,0-6.89,4.82-6.89,9.35,0,4.76,1.87,8.94,6.54,8.94s6.86-4.18,6.86-9.12"></path><path class="cls-1" d="M351,56.76a20.24,20.24,0,0,1-10.15,2.35c-9.88,0-15.67-5.62-15.67-15.31,0-9,4.94-15.59,14.11-15.59,11,0,13.89,7.51,13.89,17.84H332.91c.35,4.75,3.64,7.45,8.4,7.45a19.52,19.52,0,0,0,9.71-3Zm-5.26-16c-.22-3.72-1.88-6.94-6.19-6.94-3.86,0-6.31,3-6.66,6.94Z"></path><polygon class="cls-1" points="85.57 15.5 94.1 15.5 101.46 50.15 101.57 50.15 108.4 15.5 119.28 15.5 126.34 50.15 126.46 50.15 133.87 15.5 141.77 15.5 131.33 58.5 121 58.5 113.78 23.85 113.67 23.85 106.55 58.5 96.18 58.5 85.57 15.5"></polygon><path class="cls-2" d="M11,10.65c0,1.72,12.15,3.11,27.15,3.11s27.15-1.39,27.15-3.11S53.16,7.54,38.17,7.54,11,8.94,11,10.65"></path><path class="cls-2" d="M38.17,26.42c19.37,0,35.08-2.11,35.08-4.72S57.54,17,38.17,17,3.1,19.1,3.1,21.7s15.7,4.72,35.07,4.72"></path><path class="cls-2" d="M38.17,30.09C17.09,30.09,0,32.74,0,36s17.09,5.91,38.17,5.91S76.34,39.26,76.34,36s-17.09-5.91-38.17-5.91"></path><path class="cls-2" d="M38.17,4.79C45.26,4.79,51,3.72,51,2.4S45.26,0,38.17,0,25.34,1.07,25.34,2.4s5.74,2.39,12.83,2.39"></path><path class="cls-2" d="M38.17,58.24c-15,0-27.15,1.39-27.15,3.11s12.15,3.11,27.15,3.11,27.15-1.4,27.15-3.11-12.16-3.11-27.15-3.11"></path><path class="cls-2" d="M38.17,45.58C18.8,45.58,3.1,47.69,3.1,50.3S18.8,55,38.17,55,73.25,52.9,73.25,50.3s-15.71-4.71-35.08-4.71"></path><path class="cls-2" d="M38.17,67.21c-7.09,0-12.83,1.07-12.83,2.4S31.08,72,38.17,72,51,70.93,51,69.6s-5.74-2.4-12.83-2.4"></path><text class="cls-3" transform="translate(353.21 28.29)">®</text></g></g></svg>