<svg xmlns="http://www.w3.org/2000/svg" viewBox="0 0 202.829 70.492">
  <g id="App_store" data-name="App store" transform="translate(0 0)">
    <path id="Path_126" data-name="Path 126" d="M63.988,133.831h3.841a.454.454,0,1,0,0-.908H63.988a.454.454,0,0,0,0,.908Zm1.92,33.657a2,2,0,1,0,2,2A2,2,0,0,0,65.908,167.488Zm-9.8-1.712h19.6V136.789H56.11Zm62.841-9.519a3.9,3.9,0,0,0-2.526.923,4.33,4.33,0,0,0-1.484,2.433,5.023,5.023,0,0,0-.172,1.152v2.823a4.508,4.508,0,0,0,1.132,3.127,3.781,3.781,0,0,0,2.947,1.268,3.857,3.857,0,0,0,3.317-1.639,7.222,7.222,0,0,0,1.183-4.33,6.966,6.966,0,0,0-1.113-4.078A3.882,3.882,0,0,0,118.952,156.257Zm68.734-.235a3.771,3.771,0,0,0-3.447,2.017,7.615,7.615,0,0,0-1.016,4.065,7.489,7.489,0,0,0,1.016,4,3.789,3.789,0,0,0,3.42,2.015,3.745,3.745,0,0,0,3.374-2.057,7.452,7.452,0,0,0,1.054-4.026,7.6,7.6,0,0,0-1.007-4A3.749,3.749,0,0,0,187.686,156.022Zm-50.1.235a3.894,3.894,0,0,0-2.528.923,4.355,4.355,0,0,0-1.486,2.433,4.93,4.93,0,0,0-.17,1.152v2.823a4.519,4.519,0,0,0,1.131,3.127,3.779,3.779,0,0,0,2.943,1.268,3.853,3.853,0,0,0,3.321-1.639,7.206,7.206,0,0,0,1.191-4.33,6.994,6.994,0,0,0-1.117-4.078A3.893,3.893,0,0,0,137.587,156.257ZM98.648,150.19h-.066c-.236,1-.6,2.475-1.12,4.432l-1.954,6.142h6.314l-1.981-6.142Q99.519,153.676,98.648,150.19Zm117.617,5.648a3.611,3.611,0,0,0-3,1.542,5.593,5.593,0,0,0-1.117,2.924H220a5.169,5.169,0,0,0-.729-2.894A3.314,3.314,0,0,0,216.265,155.838Zm-101-16.734a1.54,1.54,0,0,0,.052-.486v-1.2c-1.56-.018-3.048.3-3.048,1.63a1.158,1.158,0,0,0,1.256,1.257A1.815,1.815,0,0,0,115.267,139.1ZM94.7,133.615c-.233-.735-.431-1.559-.609-2.259h-.038c-.177.7-.376,1.541-.574,2.259l-.931,2.978h3.1Zm136.816-17.6H45.834a8.579,8.579,0,0,0-8.57,8.571v53.362a8.573,8.573,0,0,0,8.57,8.56H231.521a8.575,8.575,0,0,0,8.572-8.56V124.589A8.58,8.58,0,0,0,231.521,116.018Zm-11.776,16.737c2.834,0,3.767,2.331,3.767,4.25a5.308,5.308,0,0,1-.073.934h-5.847c.054,1.577,1.273,2.257,2.691,2.257a7.03,7.03,0,0,0,2.421-.393l.323,1.505a7.846,7.846,0,0,1-3.049.556,4.13,4.13,0,0,1-4.5-4.41C215.476,135.033,216.947,132.755,219.745,132.755Zm-35,.2.107,1.309h.055a3.2,3.2,0,0,1,2.8-1.507c1.526,0,3.1.987,3.1,3.748v5.183H188.6v-4.932c0-1.254-.467-2.205-1.667-2.205a1.853,1.853,0,0,0-1.723,1.291,2.061,2.061,0,0,0-.107.7v5.146h-2.205v-6.131c0-1.006-.037-1.847-.073-2.6Zm-23.165-.2c2.834,0,3.767,2.331,3.767,4.25a5.465,5.465,0,0,1-.071.934h-5.847c.054,1.577,1.273,2.257,2.69,2.257a7.035,7.035,0,0,0,2.421-.393l.323,1.505a7.844,7.844,0,0,1-3.048.556,4.131,4.131,0,0,1-4.5-4.41C157.306,135.033,158.777,132.755,161.575,132.755Zm-9.041-3.8h2.205v12.732h-2.205Zm-17.494,5.36a4.628,4.628,0,0,0-2.349.648l-.431-1.435a6.28,6.28,0,0,1,3.156-.771c2.8,0,3.606,1.776,3.606,3.694v3.14a11.833,11.833,0,0,0,.141,2.1h-1.99l-.161-.966h-.054a3.2,3.2,0,0,1-2.584,1.165,2.593,2.593,0,0,1-2.744-2.6c0-2.189,1.954-3.319,5.183-3.3v-.144C136.814,135.266,136.581,134.314,135.04,134.314Zm-13.044-5a1.194,1.194,0,1,1-1.236,1.2A1.179,1.179,0,0,1,122,129.311Zm1.094,3.642v8.733h-2.205v-8.733ZM92.749,129.6h2.816l3.927,12.087H97.107l-1.094-3.425H92.192l-1.04,3.425H88.874ZM78.06,169.682a3.866,3.866,0,0,1-3.866,3.857H57.629a3.866,3.866,0,0,1-3.867-3.857v-36.81a3.869,3.869,0,0,1,3.867-3.861H74.193a3.869,3.869,0,0,1,3.866,3.861Zm26.626.883-2.2-6.9H94.846l-2.1,6.9h-3.9l7.565-23.516h4.681l7.61,23.516Zm.857-28.88h-2.171l-3.247-8.733h2.386l1.415,4.43c.252.771.431,1.471.593,2.189h.055c.161-.718.359-1.4.591-2.189l1.4-4.43h2.314Zm4.542-2.4c0-2.189,1.954-3.319,5.183-3.3v-.144c0-.574-.235-1.526-1.777-1.526a4.627,4.627,0,0,0-2.348.648l-.431-1.435a6.277,6.277,0,0,1,3.156-.771c2.8,0,3.6,1.776,3.6,3.694v3.14a11.686,11.686,0,0,0,.144,2.1h-1.992l-.161-.966h-.054a3.2,3.2,0,0,1-2.583,1.165A2.592,2.592,0,0,1,110.084,139.284Zm14.753,29.438a6.907,6.907,0,0,1-5.226,2.227,5.22,5.22,0,0,1-4.841-2.41v8.905H111V159.181q0-2.721-.144-5.573h3.315l.208,2.686h.065a6.72,6.72,0,0,1,10.739-.656,9.36,9.36,0,0,1,2,6.243A9.587,9.587,0,0,1,124.837,168.722Zm3.921-27.036h-2.205V128.954h2.205Zm14.709,27.036a6.907,6.907,0,0,1-5.228,2.227,5.217,5.217,0,0,1-4.836-2.41v8.905h-3.771V159.181q0-2.721-.139-5.573H132.8l.218,2.686h.065a6.712,6.712,0,0,1,10.73-.656,9.322,9.322,0,0,1,2.009,6.243A9.588,9.588,0,0,1,143.467,168.722Zm2.588-26.838a3,3,0,0,1-2.762-1.507h-.036l-.107,1.308h-1.884c.037-.591.073-1.558.073-2.456V128.954h2.205v5.2h.036a3.16,3.16,0,0,1,2.8-1.4c2.135,0,3.658,1.776,3.642,4.43C150.019,140.324,148.028,141.884,146.055,141.884Zm18.968,26.97a9.28,9.28,0,0,1-6.408,2.056,11.242,11.242,0,0,1-6.094-1.462l.874-3.14a10.533,10.533,0,0,0,5.437,1.465,5.166,5.166,0,0,0,3.318-.959,3.138,3.138,0,0,0,1.183-2.574,3.287,3.287,0,0,0-.974-2.4,9.183,9.183,0,0,0-3.244-1.814q-6.168-2.3-6.172-6.729a5.933,5.933,0,0,1,2.175-4.75,8.641,8.641,0,0,1,5.777-1.847,11.5,11.5,0,0,1,5.34,1.114l-.951,3.071a9.332,9.332,0,0,0-4.512-1.083,4.682,4.682,0,0,0-3.119.974,2.828,2.828,0,0,0-.941,2.135,2.911,2.911,0,0,0,1.08,2.307,12.33,12.33,0,0,0,3.416,1.808,11.458,11.458,0,0,1,4.472,2.866,5.987,5.987,0,0,1,1.43,4.076A6.284,6.284,0,0,1,165.022,168.854Zm13.284-12.423h-4.159v8.243c0,2.091.738,3.129,2.205,3.129a6.915,6.915,0,0,0,1.672-.164l.107,2.854a8.5,8.5,0,0,1-2.929.419,4.493,4.493,0,0,1-3.488-1.36c-.845-.9-1.262-2.43-1.262-4.569v-8.553h-2.474v-2.823h2.474v-3.1l3.694-1.117v4.221h4.159Zm-2.125-14.547a4.225,4.225,0,0,1-4.377-4.5,4.313,4.313,0,0,1,4.52-4.627,4.192,4.192,0,0,1,4.342,4.484A4.327,4.327,0,0,1,176.181,141.884Zm17.585,26.49a8,8,0,0,1-6.209,2.575,7.591,7.591,0,0,1-5.958-2.475,9.03,9.03,0,0,1-2.21-6.246,9.214,9.214,0,0,1,2.283-6.454,7.888,7.888,0,0,1,6.154-2.507,7.724,7.724,0,0,1,6.009,2.478,8.932,8.932,0,0,1,2.159,6.205A9.308,9.308,0,0,1,193.765,168.374Zm3.894-35.421H198.9V131.32l2.172-.611v2.243h2.1V134.6h-2.1v3.856c0,1.077.286,1.615,1.128,1.615a2.885,2.885,0,0,0,.862-.091l.036,1.669a4.857,4.857,0,0,1-1.6.233,2.525,2.525,0,0,1-1.9-.718,3.441,3.441,0,0,1-.7-2.458V134.6H197.66Zm9.672,23.968a6.793,6.793,0,0,0-1.187-.1,3.567,3.567,0,0,0-3.069,1.5,5.6,5.6,0,0,0-.943,3.346v8.9h-3.768V158.941q0-2.914-.1-5.333h3.28l.14,3.247h.1a5.711,5.711,0,0,1,1.884-2.682,4.525,4.525,0,0,1,2.724-.905,5.938,5.938,0,0,1,.937.064Zm.571-20.472v5.236H205.7V128.954H207.9v5.182h.036a2.908,2.908,0,0,1,1.095-.985,3.091,3.091,0,0,1,1.525-.4c1.489,0,3.049.987,3.049,3.785v5.146H211.4v-4.913c0-1.256-.467-2.224-1.685-2.224a1.841,1.841,0,0,0-1.722,1.236A1.967,1.967,0,0,0,207.9,136.449ZM223.456,163H212.149a4.9,4.9,0,0,0,1.642,3.83,5.577,5.577,0,0,0,3.7,1.189,12.338,12.338,0,0,0,4.571-.809l.594,2.619a14.07,14.07,0,0,1-5.692,1.045,8.223,8.223,0,0,1-6.187-2.316,8.568,8.568,0,0,1-2.256-6.226,9.768,9.768,0,0,1,2.094-6.391,7.247,7.247,0,0,1,5.934-2.718,6.3,6.3,0,0,1,5.549,2.718,9.2,9.2,0,0,1,1.5,5.345A9.48,9.48,0,0,1,223.456,163ZM145.57,134.476a2.052,2.052,0,0,0-1.954,1.615,2.565,2.565,0,0,0-.073.574v1.416a2.378,2.378,0,0,0,.055.521,2.015,2.015,0,0,0,1.954,1.542c1.382,0,2.224-1.095,2.224-2.869C147.777,135.733,147.041,134.476,145.57,134.476Zm15.879-.214a2.157,2.157,0,0,0-2.025,2.134h3.837A1.877,1.877,0,0,0,161.449,134.262Zm14.821.089c-1.56,0-2.187,1.525-2.187,2.976,0,1.688.843,2.961,2.171,2.961,1.254,0,2.134-1.22,2.134-3C178.387,135.93,177.777,134.351,176.27,134.351Zm-42.45,4.7a1.158,1.158,0,0,0,1.254,1.257,1.812,1.812,0,0,0,1.74-1.2,1.505,1.505,0,0,0,.054-.486v-1.2C135.309,137.4,133.82,137.722,133.82,139.049Zm85.8-4.788a2.159,2.159,0,0,0-2.027,2.134h3.838A1.877,1.877,0,0,0,219.619,134.262Z" transform="translate(-37.264 -116.018)" fill="#f4f8fd"/>
  </g>
</svg>
