<svg xmlns="http://www.w3.org/2000/svg" viewBox="0 0 55.358 96.745">
  <g id="Browse_brands_Apparel_icon" data-name="Browse brands/Apparel icon" transform="translate(-36.499 -14.339)">
    <g id="Group_66" data-name="Group 66">
      <path id="Path_201" data-name="Path 201" d="M52.954,50.117a.5.5,0,0,1-.5-.549C53.246,41.68,48.848,31.893,48.8,31.8a.5.5,0,0,1,.135-.591C53.633,27.278,53,19.451,53,19.373a.5.5,0,0,1,.5-.544H74.86a.5.5,0,0,1,.5.544c-.007.078-.636,7.905,4.06,11.832a.5.5,0,0,1,.134.591c-.045.1-4.442,9.89-3.654,17.772a.5.5,0,0,1-.5.549Z" fill="#ebcb6e"/>
    </g>
    <path id="Path_202" data-name="Path 202" d="M52.954,50.117H75.4a.5.5,0,0,0,.5-.549c-.788-7.882,3.609-17.675,3.654-17.772a.5.5,0,0,0-.134-.591c-4.7-3.927-4.067-11.754-4.06-11.832a.5.5,0,0,0-.5-.544H72.243c.33,4.718,1.36,11.042,4.456,13.239,0,0-3.583,7.834-3.25,15.334h-20.9a20.145,20.145,0,0,1-.092,2.166.5.5,0,0,0,.5.549Z" opacity="0.2"/>
    <g id="Group_68" data-name="Group 68">
      <path id="Path_204" data-name="Path 204" d="M64.177,47.086c-2.015,0-3.594-1.15-3.594-2.619v-21c0-1.469,1.579-2.619,3.594-2.619s3.6,1.15,3.6,2.619v21C67.772,45.936,66.193,47.086,64.177,47.086Z" transform="translate(0.415)" fill="#c1d2ed"/>
    </g>
    <path id="Path_205" data-name="Path 205" d="M66.069,21.691a2.007,2.007,0,0,1,.036.269V42.692c0,1.45-1.579,2.585-3.594,2.585a4.592,4.592,0,0,1-2.142-.505c.185,1.316,1.672,2.315,3.558,2.315,2.016,0,3.6-1.135,3.6-2.584V23.77A2.424,2.424,0,0,0,66.069,21.691Z" transform="translate(0.629)" opacity="0.2"/>
    <g id="Group_70" data-name="Group 70">
      <path id="Path_207" data-name="Path 207" d="M64.245,27.779a5.118,5.118,0,0,1-4.565-2.84,4.36,4.36,0,0,1-1.52.271,4.436,4.436,0,0,1-4.126-2.84h-.066a4.016,4.016,0,0,1,0-8.031,5.521,5.521,0,0,1,2.966,1.122,8.675,8.675,0,0,0,1.386.758,14.03,14.03,0,0,0,4.477.908c.269.011.539.017.808.017a20.138,20.138,0,0,0,5.844-.875,10.277,10.277,0,0,0,1.768-.817,7.078,7.078,0,0,1,3.169-1.113,4.016,4.016,0,0,1,.07,8.031,4.439,4.439,0,0,1-4.126,2.84,4.36,4.36,0,0,1-1.52-.271A5.118,5.118,0,0,1,64.245,27.779Z" fill="#c1d2ed"/>
    </g>
    <g id="Group_71" data-name="Group 71" opacity="0.2">
      <path id="Path_208" data-name="Path 208" d="M75.567,14.4a4,4,0,0,1-2.945,6.641A4.437,4.437,0,0,1,68.5,23.876a4.328,4.328,0,0,1-1.519-.271,5.119,5.119,0,0,1-4.565,2.841,5.045,5.045,0,0,1-1.879-.374,5.071,5.071,0,0,0,8.194-1.3,4.35,4.35,0,0,0,1.519.271,4.436,4.436,0,0,0,4.126-2.84A4,4,0,0,0,75.567,14.4Z"/>
    </g>
    <g id="Group_73" data-name="Group 73">
      <path id="Path_210" data-name="Path 210" d="M64.177,32.827a1.582,1.582,0,1,1,1.582-1.582A1.583,1.583,0,0,1,64.177,32.827Z" fill="#ebcb6e"/>
    </g>
    <path id="Path_211" data-name="Path 211" d="M64.011,29.706a1.549,1.549,0,0,0-.363.046A1.259,1.259,0,0,1,64.783,31a1.273,1.273,0,0,1-1.272,1.272,1.25,1.25,0,0,1-1.012-.541,1.579,1.579,0,1,0,1.512-2.02Z" opacity="0.2"/>
    <g id="Group_75" data-name="Group 75">
      <path id="Path_213" data-name="Path 213" d="M64.177,41.12a1.581,1.581,0,1,1,1.582-1.581A1.582,1.582,0,0,1,64.177,41.12Z" fill="#ebcb6e"/>
    </g>
    <g id="Group_76" data-name="Group 76">
      <path id="Path_214" data-name="Path 214" d="M72.745,111.084a29.851,29.851,0,0,1-8.568-1.6,29.842,29.842,0,0,1-8.567,1.6c-4.35,0-5.968-1.844-6.529-3.573a33.946,33.946,0,0,1-6.336.691c-3.01,0-5.071-.624-6.126-1.856a.5.5,0,0,1-.117-.383c.24-2.046,6.017-50.174,17.194-56.626a.5.5,0,0,1,.25-.067H74.409a.5.5,0,0,1,.25.067c11.177,6.452,16.954,54.58,17.194,56.626a.5.5,0,0,1-.117.383c-1.055,1.232-3.116,1.856-6.125,1.856h0a33.946,33.946,0,0,1-6.336-.691C78.713,109.24,77.094,111.084,72.745,111.084Z" fill="#ebcb6e"/>
    </g>
    <path id="Path_215" data-name="Path 215" d="M74.492,49.337a.5.5,0,0,0-.25-.067H73.071c8.5,13.744,12.906,50.413,13.115,52.193a.492.492,0,0,1-.117.383c-1.055,1.232-3.116,1.856-6.125,1.856h0a33.959,33.959,0,0,1-6.337-.691c-.561,1.729-2.179,3.573-6.528,3.573a29.843,29.843,0,0,1-8.568-1.6,29.96,29.96,0,0,1-8.509,1.6,7.763,7.763,0,0,1-1.851.832c-.018.032-.029.067-.047.1-.046.063-.088.114-.133.175.38-.067.707-.129.944-.177.561,1.729,2.179,3.573,6.528,3.573a29.851,29.851,0,0,0,8.568-1.6,29.843,29.843,0,0,0,8.568,1.6c4.349,0,5.967-1.844,6.528-3.573a33.959,33.959,0,0,0,6.337.691h0c3.009,0,5.07-.624,6.125-1.856a.492.492,0,0,0,.117-.383C91.446,103.917,85.669,55.789,74.492,49.337Z" opacity="0.2"/>
    <path id="Path_217" data-name="Path 217" d="M63.927,38.039a1.556,1.556,0,0,0-.363.046A1.26,1.26,0,0,1,64.7,39.329,1.272,1.272,0,0,1,63.427,40.6a1.247,1.247,0,0,1-1.011-.54,1.578,1.578,0,1,0,1.511-2.021Z" opacity="0.2"/>
    <path id="Path_219" data-name="Path 219" d="M52.723,18c-.378.914-1.013,1.52-1.417,1.353s-.425-1.044-.047-1.958,1.013-1.521,1.417-1.353S53.1,17.081,52.723,18Z" fill="#fff"/>
    <path id="Path_220" data-name="Path 220" d="M64.122,31.324a.418.418,0,1,1,.029-.618A.44.44,0,0,1,64.122,31.324Z" fill="#fff"/>
    <path id="Path_221" data-name="Path 221" d="M64.161,39.613a.419.419,0,1,1,.029-.619A.439.439,0,0,1,64.161,39.613Z" fill="#fff"/>
    <g id="Group_79" data-name="Group 79">
      <path id="Path_222" data-name="Path 222" d="M54.8,45.4a.957.957,0,0,1-.954-.9,47.324,47.324,0,0,0-2.881-12.125.955.955,0,1,1,1.778-.7,48.328,48.328,0,0,1,3.012,12.718.956.956,0,0,1-.9,1.007Z" fill="#fff"/>
    </g>
    <g id="Group_80" data-name="Group 80">
      <path id="Path_223" data-name="Path 223" d="M45.284,75.235a1,1,0,0,1-.975-1.228A73.381,73.381,0,0,1,53.622,51.34a1,1,0,0,1,.827-.438h7.084a1,1,0,0,1,0,2H54.994a74.348,74.348,0,0,0-8.738,21.562A1,1,0,0,1,45.284,75.235Z" fill="#fff"/>
    </g>
  </g>
</svg>
