<svg xmlns="http://www.w3.org/2000/svg" viewBox="0 0 114.47 112.093">
  <g id="Browse_brands_Business_supplies_icon" data-name="Browse brands/Business supplies icon" transform="translate(-661.571 -182.328)">
    <g id="Group_1457" data-name="Group 1457" transform="translate(738.828 272.068)">
      <path id="Path_3832" data-name="Path 3832" d="M807.427,334.624l13.465-3.87-.277-.38L808.5,332.609l3.728-7.008-.662-.156-6.542,7.8-2.388.441-.593.144-.142-.195-9.774,1.353L787.6,333.88l-2.781.675-1.139,1.613,1.17,1.606,2.794.657,12.895-3.132.2-.191,2.752.421.768,1.6h0l-.329.115-5.28,7.479,1.17,1.605,2.793.658,2.781-.675,1.139-1.613-1.979-2.6,2.234-5.658-.338-.08.242-.344Zm-17.755,2.7-2.034.495-2.045-.482-.855-1.174.833-1.181,2.034-.494,2.044.481.856,1.175Zm14.941,6.2.856,1.174-.833,1.181-2.034.494-2.044-.481-.856-1.176.833-1.179,2.034-.494Z" transform="translate(-783.679 -324.636)" opacity="0.3"/>
      <g id="Group_1452" data-name="Group 1452" transform="translate(0 7.899)">
        <path id="Path_3833" data-name="Path 3833" d="M784.849,343.166l-1.17-1.605v-.914l1.485,1.555Z" transform="translate(-783.679 -338.119)" fill="#c84030"/>
        <path id="Path_3834" data-name="Path 3834" d="M788.9,343.533l-3.368-.349v.914l2.794.657Z" transform="translate(-784.358 -339.051)" fill="#ab281f"/>
        <path id="Path_3835" data-name="Path 3835" d="M811.456,337.871l-1.5,1.465-.642-.914,2.147-1.465Z" transform="translate(-793.093 -336.763)" fill="#ab281f"/>
        <path id="Path_3836" data-name="Path 3836" d="M802.839,340.186l-12.895,3.133V342.4l8.243-2.394,4.652-.737Z" transform="translate(-785.98 -337.614)" fill="#8a1c14"/>
        <path id="Path_3837" data-name="Path 3837" d="M788.583,338.737l-2.034.495-.2-1.113,2.4-.592Z" transform="translate(-784.658 -336.973)" fill="#8a1c14"/>
        <path id="Path_3838" data-name="Path 3838" d="M786,339.691l-.833,1.179-.316-.911L786,338.776Z" transform="translate(-784.11 -337.431)" fill="#ab281f"/>
        <path id="Path_3839" data-name="Path 3839" d="M793.719,340.424l-.654-.9-.084-1.16,1.182,1.357Z" transform="translate(-787.095 -337.281)" fill="#c84030"/>
        <path id="Path_3840" data-name="Path 3840" d="M791.926,339.351l-2.044-.482v-.983l2.044.313Z" transform="translate(-785.957 -337.105)" fill="#ab281f"/>
        <path id="Path_3841" data-name="Path 3841" d="M802.042,336.844l-.142-.193L792.127,338l-4.528-1.112-2.781.676-1.139,1.613,1.17,1.605,2.794.656,12.895-3.131Zm-14.405,3.987-2.045-.481-.855-1.174L785.57,338l2.034-.495,2.044.48.856,1.176-.833,1.179Z" transform="translate(-783.679 -336.651)" fill="#fa5c52"/>
      </g>
      <path id="Path_3842" data-name="Path 3842" d="M819.332,337.283l.279-.4-.287-.393-.684-.161-.682.165-.279.4.287.393.685.163Z" transform="translate(-796.167 -328.635)" fill="#c84030"/>
      <g id="Group_1453" data-name="Group 1453" transform="translate(17.055 4.93)">
        <path id="Path_3843" data-name="Path 3843" d="M830.793,332.559v.313l-16.884,4.853-3.273-.5v-.313l1.9-1.1Z" transform="translate(-810.635 -332.179)" fill="#a39c95"/>
        <path id="Path_3844" data-name="Path 3844" d="M830.515,331.958l.277.38-16.884,4.853-3.273-.5,1.308-1.272.593-.144Z" transform="translate(-810.635 -331.958)" fill="#e0dedc"/>
      </g>
      <g id="Group_1454" data-name="Group 1454" transform="translate(19.672)">
        <path id="Path_3845" data-name="Path 3845" d="M823.648,324.727v-.313l-8.53,9.568-.348.077v.313l.9,1.884,2.19-.769.243-.344Z" transform="translate(-814.771 -324.257)" fill="#a39c95"/>
        <path id="Path_3846" data-name="Path 3846" d="M823.648,324.323l-.662-.157-8.215,9.8.9,1.884,2.19-.77.243-.343Z" transform="translate(-814.771 -324.166)" fill="#f4efe9"/>
      </g>
      <g id="Group_1455" data-name="Group 1455" transform="translate(21.512 7.893)">
        <path id="Path_3847" data-name="Path 3847" d="M819.047,336.643h-.8l-.565.326v.462l.565.327h.8l.565-.327v-.462Z" transform="translate(-817.68 -336.642)" fill="#fa5c52"/>
        <path id="Path_3848" data-name="Path 3848" d="M820.3,337.989l-.565.328-.186-.032.186-.07.565-.327Z" transform="translate(-818.365 -337.1)" fill="#8a1c14"/>
        <path id="Path_3849" data-name="Path 3849" d="M818.245,338.317l-.565-.328v-.1l.565.327.324.07Z" transform="translate(-817.68 -337.1)" fill="#c84030"/>
        <rect id="Rectangle_141" data-name="Rectangle 141" width="0.801" height="0.102" transform="translate(0.565 1.115)" fill="#ab281f"/>
      </g>
      <g id="Group_1456" data-name="Group 1456" transform="translate(14.964 10.618)">
        <path id="Path_3850" data-name="Path 3850" d="M818.64,341.989l-2.234,5.658-.441-1.032,2.675-5.54Z" transform="translate(-810.502 -340.995)" fill="#8a1c14"/>
        <path id="Path_3851" data-name="Path 3851" d="M809.687,353.042l-.833,1.18-.256-.911,1.278-1.48Z" transform="translate(-807.796 -344.946)" fill="#8a1c14"/>
        <path id="Path_3852" data-name="Path 3852" d="M817.526,354.2l-.856-1.175-.163-1.2,1.4,1.3Z" transform="translate(-810.701 -344.946)" fill="#c84030"/>
        <path id="Path_3853" data-name="Path 3853" d="M815.451,351.847l-.871-.648-1.393-.1.219,1.18,2.044.48Z" transform="translate(-809.482 -344.678)" fill="#ab281f"/>
        <path id="Path_3854" data-name="Path 3854" d="M812.353,352.281l-2.034.493v-.914l1.126-.758.908.264Z" transform="translate(-808.428 -344.678)" fill="#c84030"/>
        <path id="Path_3855" data-name="Path 3855" d="M818.942,355.044l-1.139,1.614-.321-.989,1.46-1.539Z" transform="translate(-811.06 -345.79)" fill="#8a1c14"/>
        <path id="Path_3856" data-name="Path 3856" d="M811.974,358.279l-2.794-.657v-.914l3.064.473Z" transform="translate(-808.01 -346.737)" fill="#c84030"/>
        <path id="Path_3857" data-name="Path 3857" d="M812.611,341.834l-5.281,7.48,1.17,1.606,2.793.657,2.781-.676,1.139-1.613-1.979-2.6,2.234-5.658-.339-.08Zm-3.39,6.3,2.034-.493,2.044.481.856,1.174-.833,1.18-2.034.494-2.044-.481-.856-1.176Z" transform="translate(-807.331 -340.949)" fill="#fa5c52"/>
        <path id="Path_3858" data-name="Path 3858" d="M816.376,357.594l-2.781.675v-.914l2.781-.676Z" transform="translate(-809.632 -346.727)" fill="#ab281f"/>
        <path id="Path_3859" data-name="Path 3859" d="M808.5,356.69l-1.17-1.605v-.914l1.17,1.606Z" transform="translate(-807.331 -345.805)" fill="#c84030"/>
      </g>
    </g>
    <g id="Group_1481" data-name="Group 1481" transform="translate(661.571 182.328)">
      <path id="Path_3860" data-name="Path 3860" d="M724.932,264.935l-39.117,22.615,34.6,19.984,39.116-22.615Z" transform="translate(-670.476 -212.67)" opacity="0.3"/>
      <g id="Group_1458" data-name="Group 1458" transform="translate(54.413)">
        <path id="Path_3861" data-name="Path 3861" d="M753.39,182.328l-5.817,22.136,33.163,19.2,5.817-22.143Z" transform="translate(-747.573 -182.328)" fill="#f7e6bb"/>
        <path id="Path_3862" data-name="Path 3862" d="M789.931,201.523l-33.163-19.2.379.113,33.163,19.194Z" transform="translate(-750.95 -182.328)" fill="#f7e6bb"/>
        <path id="Path_3863" data-name="Path 3863" d="M799.989,234.809l5.817-22.143.378.112-5.995,22.513Z" transform="translate(-766.826 -193.471)" fill="#c79d5c"/>
      </g>
      <g id="Group_1461" data-name="Group 1461" transform="translate(16.512 21.75)">
        <g id="Group_1459" data-name="Group 1459">
          <path id="Path_3864" data-name="Path 3864" d="M688.29,238.976v31.246L726.141,248.3V217.058Z" transform="translate(-687.897 -216.834)" fill="#c79d5c"/>
          <path id="Path_3865" data-name="Path 3865" d="M688.062,238.847l37.852-21.919-.394-.224-37.85,21.917Z" transform="translate(-687.669 -216.705)" fill="#d9af6f"/>
          <path id="Path_3866" data-name="Path 3866" d="M688.062,282.817V251.571l-.393-.225v31.247Z" transform="translate(-687.669 -229.429)" fill="#efc58b"/>
        </g>
        <g id="Group_1460" data-name="Group 1460" transform="translate(37.85 0.224)">
          <path id="Path_3867" data-name="Path 3867" d="M747.493,217.412v31.243L780.12,267.5V236.252Z" transform="translate(-747.493 -217.188)" fill="#efc58b"/>
          <path id="Path_3868" data-name="Path 3868" d="M780.12,236.122l-32.627-18.84.394-.224L780.515,235.9Z" transform="translate(-747.492 -217.058)" fill="#f7e6bb"/>
          <path id="Path_3869" data-name="Path 3869" d="M799.062,278.307V247.06l.395-.222v31.246Z" transform="translate(-766.434 -227.997)" fill="#c79d5c"/>
        </g>
      </g>
      <path id="Path_3870" data-name="Path 3870" d="M751.563,239.811h-.8v-.389l-.944-.943v-1.356l-1.133-1.133h-1.6l-.655.655h-.8l-.046.045-.286-.286h-.38v-1.115l-1.133-1.133h-1.6l-1.1,1.1-.357-.359h-1.6l-.606.605v-.315l-.187-.19.668-.668v-1.6L737.86,231.6h-1.6l-1.062,1.061v-.493l-.882-.882V230.8l-1.133-1.131h-1.6l-1.132,1.131v.237h-.511l-.129.129v-.93l-1.133-1.132h-1.6l-1.133,1.132V231.6h-.732l-.771.771-.57-.571h-1.6l-1.134,1.134v1.124H719.8l-.919.918-.819-.819h-1.6l-1.133,1.133v.251l-.641-.64h-1.6l-1.133,1.132v1.006l-.321-.322h-1.6l-1.133,1.133v1.6l.5.5-.273.272h-1.528l-1.134,1.134v.977h-.535l-.026.026-.573-.571h-1.6l-1.134,1.132v.619l-.638-.638h-1.6l-1.133,1.133v1.6l.193.192h-.993l-1.133,1.133v1.6l1.133,1.133h1.6l.554-.553.184.182h1.6l1.134-1.134v-.662l.233.233h1.6l1.133-1.132v-.43h1.067l1.133-1.132v-.979h.535l.406-.406h1.528l1.133-1.133v-.807h1.287l1.025-1.024.446.445h1.6l1.133-1.132,2.046-2.109h1.6l1.133-1.132v-1.125h1.334l.771-.771.571.569h1.6l1.134-1.133v-1.366h.732l.129-.128v.93l1.133,1.132h1.6l.461-.462.113.113v1.15l1.133,1.133h1.441l1.09,1.09h1.6l.605-.606v.315l1.134,1.134h.078v.372l1.132,1.133h1.6l.881-.883.883.883H745.2l-.24.238v1.6l1.133,1.134h1.6l1.089-1.091h.044v.39l1.133,1.132h1.6l1.134-1.132v-1.6Z" transform="translate(-674.688 -199.508)" fill="#fff"/>
      <g id="Group_1471" data-name="Group 1471" transform="translate(22.837 32.517)">
        <path id="Path_3871" data-name="Path 3871" d="M728.564,265.079l32.049,18.512-30.9,17.86L697.665,282.94Z" transform="translate(-697.665 -245.24)" opacity="0.3"/>
        <path id="Path_3872" data-name="Path 3872" d="M730.308,278.907l-30.985-17.9v20.557l30.985,17.9Z" transform="translate(-698.274 -243.745)" fill="#e3bd5e"/>
        <path id="Path_3873" data-name="Path 3873" d="M778.162,282.568,748.3,299.834V279.272L778.162,262Z" transform="translate(-716.262 -244.11)" fill="#cc934c"/>
        <path id="Path_3874" data-name="Path 3874" d="M729.192,233.722l30.982,17.9-29.866,17.264-30.985-17.9Z" transform="translate(-698.274 -233.722)" fill="#fbe979"/>
        <g id="Group_1462" data-name="Group 1462" transform="translate(14.548 7.748)">
          <path id="Path_3875" data-name="Path 3875" d="M724.619,265.508l-1.495.338-2.465-2.62,29.885-17.258,3.966,2.287Z" transform="translate(-720.659 -245.968)" fill="#fa5c52"/>
          <path id="Path_3876" data-name="Path 3876" d="M724.619,296.162l-3.96-2.288V273.244l3.96,2.282Z" transform="translate(-720.659 -255.987)" fill="#c84030"/>
        </g>
        <g id="Group_1463" data-name="Group 1463" transform="translate(14.046 7.453)">
          <path id="Path_3877" data-name="Path 3877" d="M750.853,265.68l1.5.336,2.463-2.62L723.832,245.5l-3.967,2.287Z" transform="translate(-719.865 -245.501)" fill="#fa5c52"/>
          <path id="Path_3878" data-name="Path 3878" d="M768.843,296.7l3.96-2.289V273.784l-3.96,2.284Z" transform="translate(-737.855 -255.89)" fill="#8a1c14"/>
        </g>
        <g id="Group_1470" data-name="Group 1470" transform="translate(17.645 0.351)">
          <rect id="Rectangle_142" data-name="Rectangle 142" width="27.66" height="3.308" transform="translate(0 15.681)" opacity="0.3"/>
          <g id="Group_1464" data-name="Group 1464" transform="translate(10.897 15.069)">
            <path id="Path_3879" data-name="Path 3879" d="M746.923,258.1h-2.428l-1.718.991v1.4l1.718.991h2.428l1.718-.991v-1.4Z" transform="translate(-742.777 -258.095)" fill="#c84030"/>
            <path id="Path_3880" data-name="Path 3880" d="M750.661,262.372l-1.718.992-.666-.249.666-.247,1.718-.991Z" transform="translate(-744.797 -259.484)" fill="#8a1c14"/>
            <path id="Path_3881" data-name="Path 3881" d="M744.495,263.364l-1.718-.992v-.494l1.718.991.78.187Z" transform="translate(-742.777 -259.484)" fill="#8a1c14"/>
            <rect id="Rectangle_143" data-name="Rectangle 143" width="2.428" height="0.496" transform="translate(1.718 3.384)" fill="#ab281f"/>
          </g>
          <g id="Group_1465" data-name="Group 1465" transform="translate(0 9.555)">
            <path id="Path_3882" data-name="Path 3882" d="M732.127,257.342v3.309l9.671.308v-3.308Z" transform="translate(-727.968 -252.304)" fill="#fa5c52"/>
            <path id="Path_3883" data-name="Path 3883" d="M725.553,249.379v3.308l4.159,5.04v-3.31Z" transform="translate(-725.553 -249.379)" fill="#c84030"/>
            <path id="Path_3884" data-name="Path 3884" d="M725.553,249.379v3.308l6.522.219V249.6Z" transform="translate(-725.553 -249.379)" fill="#fa5c52"/>
            <path id="Path_3885" data-name="Path 3885" d="M735.862,249.726v3.308l7.307,5.129v-3.308Z" transform="translate(-729.34 -249.506)" fill="#8a1c14"/>
          </g>
          <g id="Group_1466" data-name="Group 1466" transform="translate(4.541 3.326)">
            <path id="Path_3886" data-name="Path 3886" d="M735.589,248.3l-.47.681.47,2.628,7.307,6.028v-3.308Z" transform="translate(-733.608 -242.754)" fill="#c84030"/>
            <path id="Path_3887" data-name="Path 3887" d="M732.731,239.534v3.309l1.981,5.548v-3.309Z" transform="translate(-732.731 -239.534)" fill="#8a1c14"/>
            <path id="Path_3888" data-name="Path 3888" d="M732.731,239.534v3.309l5.78,2.5.493-.628-.493-2.681Z" transform="translate(-732.731 -239.534)" fill="#c84030"/>
            <path id="Path_3889" data-name="Path 3889" d="M741.867,243.484v3.308l3.508,9.078v-3.308Z" transform="translate(-736.087 -240.985)" fill="#8a1c14"/>
          </g>
          <g id="Group_1467" data-name="Group 1467" transform="translate(13.83 9.555)">
            <path id="Path_3890" data-name="Path 3890" d="M757.082,257.342v3.309l-9.67.308v-3.308Z" transform="translate(-747.412 -252.304)" fill="#fa5c52"/>
            <path id="Path_3891" data-name="Path 3891" d="M766.856,249.379l-1.233,2.628,1.233.68-4.16,5.04v-3.31Z" transform="translate(-753.026 -249.379)" fill="#ab281f"/>
            <path id="Path_3892" data-name="Path 3892" d="M765.484,249.379v3.308l-6.523.219V249.6Z" transform="translate(-751.654 -249.379)" fill="#fa5c52"/>
            <path id="Path_3893" data-name="Path 3893" d="M754.718,249.726v3.308l-7.307,5.129v-3.308Z" transform="translate(-747.412 -249.506)" fill="#8a1c14"/>
          </g>
          <g id="Group_1468" data-name="Group 1468" transform="translate(13.83 3.326)">
            <path id="Path_3894" data-name="Path 3894" d="M754.718,248.3l.47.681-.47,2.628-7.307,6.028v-3.308Z" transform="translate(-747.412 -242.754)" fill="#fa5c52"/>
            <path id="Path_3895" data-name="Path 3895" d="M760.941,239.534v3.309l-1.981,5.548v-3.309Z" transform="translate(-751.654 -239.534)" fill="#c84030"/>
            <path id="Path_3896" data-name="Path 3896" d="M758.449,239.534v3.309l-5.78,2.5-.493-.628.493-2.681Z" transform="translate(-749.162 -239.534)" fill="#fa5c52"/>
            <path id="Path_3897" data-name="Path 3897" d="M750.919,243.484v3.308l-3.507,9.078v-3.308Z" transform="translate(-747.412 -240.985)" fill="#8a1c14"/>
          </g>
          <g id="Group_1469" data-name="Group 1469" transform="translate(10.575)">
            <path id="Path_3898" data-name="Path 3898" d="M742.267,241.8l.676.778-.676,2.531,3.255,10.142v-3.308Z" transform="translate(-742.267 -237.041)" fill="#8a1c14"/>
            <path id="Path_3899" data-name="Path 3899" d="M745.5,234.277l.887,2.471-.887.837-3.237,4.761v-3.308Z" transform="translate(-742.267 -234.277)" fill="#fa5c52"/>
            <path id="Path_3900" data-name="Path 3900" d="M750.62,241.51l-.386,2.059.386,1.25-3.208,10.326v-3.308Z" transform="translate(-744.157 -236.934)" fill="#fa5c52"/>
            <path id="Path_3901" data-name="Path 3901" d="M747.384,234.277v3.308l3.225,4.577v-3.309Z" transform="translate(-744.147 -234.277)" fill="#c84030"/>
          </g>
        </g>
      </g>
      <g id="Group_1472" data-name="Group 1472" transform="translate(16.512 6.236)">
        <path id="Path_3902" data-name="Path 3902" d="M699.231,214.6l-10.94,15.415,37.851-21.912,10.939-15.421Z" transform="translate(-687.897 -192.368)" fill="#ac8854"/>
        <path id="Path_3903" data-name="Path 3903" d="M705.433,214.419,743.284,192.5l-.255-.316L705.177,214.1Z" transform="translate(-694.1 -192.185)" fill="#f7e6bb"/>
        <path id="Path_3904" data-name="Path 3904" d="M688.062,242.557,699,227.142l-.256-.318-11.078,15.511Z" transform="translate(-687.669 -204.908)" fill="#efc58b"/>
      </g>
      <g id="Group_1478" data-name="Group 1478" transform="translate(16.905 40.816)">
        <g id="Group_1473" data-name="Group 1473" transform="translate(0 2.852)">
          <path id="Path_3905" data-name="Path 3905" d="M688.29,251.7v31.242l32.628,18.845V270.541Z" transform="translate(-688.29 -251.476)" fill="#efc58b"/>
          <path id="Path_3906" data-name="Path 3906" d="M720.918,270.411l-32.628-18.84.394-.225,32.628,18.84Z" transform="translate(-688.29 -251.346)" fill="#f7e6bb"/>
          <path id="Path_3907" data-name="Path 3907" d="M739.86,312.6V281.348l.394-.224v31.248Z" transform="translate(-707.232 -262.284)" fill="#efc58b"/>
        </g>
        <g id="Group_1477" data-name="Group 1477" transform="translate(32.628)">
          <path id="Path_3908" data-name="Path 3908" d="M740.483,269.107v31.247l37.85-21.922V247.189Z" transform="translate(-740.089 -246.967)" fill="#c79d5c"/>
          <g id="Group_1476" data-name="Group 1476" transform="translate(2.764 31.633)">
            <g id="Group_1474" data-name="Group 1474" transform="translate(0 5.084)">
              <path id="Path_3909" data-name="Path 3909" d="M751.508,304.87l-7.279,4.2v8.41l7.279-4.207Zm-6.958,12.053v-7.662l6.634-3.829,0,7.659Z" transform="translate(-744.229 -304.87)" fill="#995d43"/>
              <path id="Path_3910" data-name="Path 3910" d="M747.888,316.078l.628-.36v-4.075l.316-.183-.63-1.04-.63,1.768.316-.184Z" transform="translate(-745.457 -306.908)" fill="#995d43"/>
              <path id="Path_3911" data-name="Path 3911" d="M747.571,319.922l3.05-1.76v-.724l-3.05,1.762Z" transform="translate(-745.457 -309.486)" fill="#995d43"/>
              <path id="Path_3912" data-name="Path 3912" d="M750.4,310.552l.315-.181v4.076l.628-.363v-4.076l.316-.182-.631-1.04Z" transform="translate(-746.497 -306.308)" fill="#995d43"/>
            </g>
            <g id="Group_1475" data-name="Group 1475" transform="translate(8.807)">
              <path id="Path_3913" data-name="Path 3913" d="M765.431,296.835l-7.282,4.2,0,8.405,7.28-4.2Zm-6.957,12.052v-7.66l6.633-3.831,0,7.659Z" transform="translate(-758.149 -296.835)" fill="#995d43"/>
              <path id="Path_3914" data-name="Path 3914" d="M760.5,306.707l.529.308.254-.143v2.217l-.254.144-.529.506v.038l1.811-1.047v-.037l-.529.108-.252.145v-2.22l.252-.144.529-.92v-2.911L760.5,303.8Z" transform="translate(-759.013 -299.008)" fill="#995d43"/>
              <path id="Path_3915" data-name="Path 3915" d="M764.444,304.426l.531.306.251-.142V306.8l-.251.147-.531.506v.036l1.811-1.046v-.038l-.53.111-.252.142v-2.216l.252-.146.53-.919v-2.912l-1.811,1.047Zm.161-2.816,1.489-.86v2.588l-.487.844-.633.364-.37-.213Z" transform="translate(-760.461 -298.17)" fill="#995d43"/>
            </g>
          </g>
          <path id="Path_3916" data-name="Path 3916" d="M740.254,268.978,778.1,247.06l-.393-.222L739.86,268.755Z" transform="translate(-739.86 -246.838)" fill="#ac8854"/>
          <path id="Path_3917" data-name="Path 3917" d="M740.254,312.949V281.7l-.394-.223v31.247Z" transform="translate(-739.86 -259.562)" fill="#efc58b"/>
        </g>
      </g>
      <g id="Group_1479" data-name="Group 1479" transform="translate(43.73 18.901)">
        <path id="Path_3918" data-name="Path 3918" d="M731.288,234.119l5.818,22.142,37.85-21.922L769.139,212.2Z" transform="translate(-730.908 -212.202)" fill="#d9af6f"/>
        <path id="Path_3919" data-name="Path 3919" d="M731.068,234.119,768.919,212.2l-.379.111-37.852,21.918Z" transform="translate(-730.688 -212.202)" fill="#f7e6bb"/>
        <path id="Path_3920" data-name="Path 3920" d="M736.885,268.984l-5.817-22.142-.38.112,5.805,21.8Z" transform="translate(-730.688 -224.926)" fill="#efc58b"/>
      </g>
      <g id="Group_1480" data-name="Group 1480" transform="translate(0 43.668)">
        <path id="Path_3921" data-name="Path 3921" d="M678.083,251.346l-16.512,18.073,33.414,19.295,16.513-18.08Z" transform="translate(-661.571 -251.346)" fill="#f7e6bb"/>
        <path id="Path_3922" data-name="Path 3922" d="M714.384,299.911l16.513-18.08v.523L714.672,300.1Z" transform="translate(-680.969 -262.543)" fill="#c79d5c"/>
      </g>
    </g>
    <g id="Group_1488" data-name="Group 1488" transform="translate(736.528 241.034)">
      <g id="Group_1484" data-name="Group 1484" transform="translate(15.511)">
        <path id="Path_3923" data-name="Path 3923" d="M804.559,304.655l16.368,9.442,7.005-4.045-16.367-9.44Z" transform="translate(-804.559 -284.48)" opacity="0.3"/>
        <path id="Path_3924" data-name="Path 3924" d="M816.828,292.382l2.843,4.925-7,4.046-1.621-2.491-1.223-2.434Z" transform="translate(-806.493 -281.458)" fill="#f4efe9"/>
        <path id="Path_3925" data-name="Path 3925" d="M816.694,285.043v4.643l-7.005,4.046-.232-4.825Z" transform="translate(-806.358 -278.762)" fill="#d1d1d1"/>
        <path id="Path_3926" data-name="Path 3926" d="M825.345,302.489l-4.022-2.323-7,4.046,4.1,2.577Z" transform="translate(-808.144 -284.317)" fill="#fff"/>
        <path id="Path_3927" data-name="Path 3927" d="M819.706,295.792v5.041l-3.087,1.783-4.365-2.52-3.088-5.348v-5.041l3.088-1.782,4.365,2.519Zm-.415,4.6v-4.644l-2.843-4.926-4.022-2.321-2.844,1.643v4.644l2.844,4.925,4.022,2.322Z" transform="translate(-806.252 -279.821)" fill="#f7e6bb"/>
        <path id="Path_3928" data-name="Path 3928" d="M807.474,287.349l3.088-1.782,4.365,2.519,3.087,5.348v5.041l-3.087,1.783-4.365-2.52-3.088-5.348v-5.041Zm-2.915-3.075V292.1l4.8,8.3,6.778,3.915,4.8-2.768,1-4.2-1-3.633-4.8-8.3-6.778-3.914-4.8,2.767Z" transform="translate(-804.559 -277.463)" fill="#b88f5a"/>
        <rect id="Rectangle_144" data-name="Rectangle 144" width="8.089" height="9.587" transform="translate(11.574 7.959) rotate(-30.011)" fill="#a87c49"/>
        <path id="Path_3929" data-name="Path 3929" d="M812.138,279.159l6.779,3.914,7.006-4.045-6.779-3.913Z" transform="translate(-807.343 -275.116)" fill="#dbb276"/>
        <path id="Path_3930" data-name="Path 3930" d="M830.43,298.466V301l1.252,1.37-1.252,1.395V306.3l7.005-4.046v-2.53l-1.361-1.6,1.361-1.168v-2.533Z" transform="translate(-814.061 -282.207)" fill="#a16739"/>
        <g id="Group_1483" data-name="Group 1483" transform="translate(16.368 14.748)">
          <path id="Path_3931" data-name="Path 3931" d="M830.43,302.471v2.764l7.005-4.044v-2.764Z" transform="translate(-830.43 -298.426)" fill="#fff"/>
          <g id="Group_1482" data-name="Group 1482" transform="translate(0.34 1.173)">
            <path id="Path_3932" data-name="Path 3932" d="M831.151,307.045v.439l.366-.211v-.439l.184-.106-.366-.371-.368.8Z" transform="translate(-830.967 -302.511)" fill="#9fb366"/>
            <path id="Path_3933" data-name="Path 3933" d="M832.526,304.448l-.366-.37-.368.795.185-.107v.44l.366-.213v-.438Z" transform="translate(-831.27 -301.674)" fill="#9fb366"/>
            <path id="Path_3934" data-name="Path 3934" d="M834.169,303.5v.439l.366-.211v-.439l.185-.107-.367-.371-.368.8Z" transform="translate(-832.075 -301.209)" fill="#9fb366"/>
            <path id="Path_3935" data-name="Path 3935" d="M836.361,302.233v.44l.366-.212v-.437l.184-.108-.367-.37-.368.8Z" transform="translate(-832.88 -300.744)" fill="#9fb366"/>
            <path id="Path_3936" data-name="Path 3936" d="M838.556,300.967v.439l.365-.21v-.44l.185-.106-.368-.371-.366.795Z" transform="translate(-833.686 -300.28)" fill="#9fb366"/>
            <path id="Path_3937" data-name="Path 3937" d="M833.342,305.78v.438l.366-.213v-.437l.185-.107-.368-.371-.368.8Z" transform="translate(-831.772 -302.046)" fill="#9fb366"/>
            <path id="Path_3938" data-name="Path 3938" d="M835.535,304.514v.437l.367-.211V304.3l.184-.108-.368-.371-.368.8Z" transform="translate(-832.577 -301.581)" fill="#9fb366"/>
            <path id="Path_3939" data-name="Path 3939" d="M837.727,303.248v.439l.367-.211v-.44l.185-.105-.367-.371-.368.795Z" transform="translate(-833.382 -301.117)" fill="#9fb366"/>
            <path id="Path_3940" data-name="Path 3940" d="M839.92,301.982v.439l.365-.211v-.439l.185-.106-.366-.371-.368.8Z" transform="translate(-834.188 -300.652)" fill="#9fb366"/>
          </g>
        </g>
      </g>
      <g id="Group_1487" data-name="Group 1487" transform="translate(0 14.81)">
        <path id="Path_3941" data-name="Path 3941" d="M786.982,324.735h-.044l-6.9-3.981v-5.721l6.9-3.981h9.672l6.9,3.981v5.721l-6.9,3.981Z" transform="translate(-780.043 -303.125)" opacity="0.3"/>
        <path id="Path_3942" data-name="Path 3942" d="M799.779,310.815h-5.686v-8.09l2.968-.158,2.719.158Z" transform="translate(-785.203 -300.008)" fill="#f4efe9"/>
        <path id="Path_3943" data-name="Path 3943" d="M807.1,313.227l-4.02-2.321v-8.09l4.293,2.211Z" transform="translate(-788.505 -300.1)" fill="#fff"/>
        <path id="Path_3944" data-name="Path 3944" d="M787.584,313.227l4.023-2.321v-8.09l-4.281,2.258Z" transform="translate(-782.718 -300.1)" fill="#e0dedc"/>
        <path id="Path_3945" data-name="Path 3945" d="M791.169,310.886l-4.366-2.52V304.8l4.366-2.521h6.176l4.366,2.521v3.565l-4.366,2.52Zm-3.778-2.661,4.024,2.322H797.1l4.019-2.322v-3.282l-4.02-2.321h-5.686l-4.024,2.323Z" transform="translate(-782.526 -299.903)" fill="#f7e6bb"/>
        <path id="Path_3946" data-name="Path 3946" d="M799.322,303.421v3.565l-4.366,2.52H788.78l-4.366-2.52v-3.565l4.366-2.521h6.176l4.366,2.521Zm4.119-.986-6.779-3.912h-9.586l-6.778,3.912v5.535l3.132,2.969,3.646.947h9.587l6.778-3.914v-5.535Z" transform="translate(-780.136 -298.523)" fill="#dbb276"/>
        <rect id="Rectangle_145" data-name="Rectangle 145" width="9.587" height="8.088" transform="translate(6.939 13.361)" fill="#a87c49"/>
        <path id="Path_3947" data-name="Path 3947" d="M812.941,313.454l-6.778,3.914v8.089l6.778-3.914Z" transform="translate(-789.637 -304.007)" fill="#a16739"/>
        <path id="Path_3948" data-name="Path 3948" d="M787.075,317.368l-2.193-1.264-1.813.4-.581-1.781-2.192-1.267v8.089l2.192,1.268,2.063-.382.331,1.764,2.193,1.264Z" transform="translate(-780.136 -304.007)" fill="#b88f5a"/>
        <g id="Group_1486" data-name="Group 1486" transform="translate(2.352 10.714)">
          <path id="Path_3949" data-name="Path 3949" d="M786.154,316.839l-2.394-1.383v8.089l2.394,1.382Z" transform="translate(-783.761 -315.456)" fill="#fff"/>
          <g id="Group_1485" data-name="Group 1485" transform="translate(0.311 0.786)">
            <path id="Path_3950" data-name="Path 3950" d="M784.635,316.917l-.384-.218v.423l.384.219v.213l.5-.134-.5-.714Z" transform="translate(-784.252 -316.699)" fill="#9fb366"/>
            <path id="Path_3951" data-name="Path 3951" d="M786.2,319.409l.506-.133-.506-.717v.213l-.378-.219v.423l.378.219Z" transform="translate(-784.827 -317.38)" fill="#9fb366"/>
            <path id="Path_3952" data-name="Path 3952" d="M786.2,321.3l-.378-.218v.423l.378.219v.213l.506-.133-.506-.717Z" transform="translate(-784.827 -318.31)" fill="#9fb366"/>
            <path id="Path_3953" data-name="Path 3953" d="M786.2,323.836l-.378-.22v.423l.378.219v.213l.506-.133-.506-.715Z" transform="translate(-784.827 -319.24)" fill="#9fb366"/>
            <path id="Path_3954" data-name="Path 3954" d="M786.2,326.368l-.378-.22v.423l.378.219V327l.506-.134-.506-.716Z" transform="translate(-784.827 -320.169)" fill="#9fb366"/>
            <path id="Path_3955" data-name="Path 3955" d="M784.635,319.449l-.384-.22v.422l.384.221v.212l.5-.133-.5-.715Z" transform="translate(-784.252 -317.628)" fill="#9fb366"/>
            <path id="Path_3956" data-name="Path 3956" d="M784.635,321.98l-.384-.22v.424l.384.218v.213l.5-.134-.5-.714Z" transform="translate(-784.252 -318.558)" fill="#9fb366"/>
            <path id="Path_3957" data-name="Path 3957" d="M784.635,324.511l-.384-.219v.422l.384.221v.213l.5-.133-.5-.715Z" transform="translate(-784.252 -319.488)" fill="#9fb366"/>
            <path id="Path_3958" data-name="Path 3958" d="M784.635,327.044l-.384-.219v.423l.384.219v.212l.5-.133-.5-.716Z" transform="translate(-784.252 -320.418)" fill="#9fb366"/>
          </g>
        </g>
      </g>
    </g>
    <g id="Group_1499" data-name="Group 1499" transform="translate(713.864 249.659)">
      <g id="Group_1492" data-name="Group 1492" transform="translate(0)">
        <path id="Path_3959" data-name="Path 3959" d="M746.908,332.991l-2.685-1.548v-2.29l2.685-1.548h3.706l2.683,1.548v2.29l-2.683,1.548Zm-2.334-1.751,2.427,1.4h3.519l2.429-1.4v-1.884l-2.429-1.4H747l-2.427,1.4Z" transform="translate(-744.223 -303.02)" opacity="0.3"/>
        <g id="Group_1489" data-name="Group 1489" transform="translate(0.176 21.996)">
          <path id="Path_3960" data-name="Path 3960" d="M753.224,324.992l-2.555-1.479h-3.613l-2.555,1.479v2.086l1.181,1.118,1.374.357h3.613l2.556-1.475v-2.086Z" transform="translate(-744.501 -323.513)" fill="#4290b8"/>
          <path id="Path_3961" data-name="Path 3961" d="M756.349,329.147l-2.556,1.475-.786,1.578.786,1.183,2.555-1.476Z" transform="translate(-747.625 -325.583)" fill="#17435c"/>
          <path id="Path_3962" data-name="Path 3962" d="M751.644,331.478h-3.613l-.875.994.876,1.767h3.612Z" transform="translate(-745.476 -326.439)" fill="#24546e"/>
          <path id="Path_3963" data-name="Path 3963" d="M747.056,330.622l-2.555-1.475v2.76l2.556,1.476Z" transform="translate(-744.501 -325.583)" fill="#2b6582"/>
        </g>
        <g id="Group_1490" data-name="Group 1490" transform="translate(0.176 5.772)">
          <path id="Path_3964" data-name="Path 3964" d="M753.224,299.346l-2.555-1.476h-3.613l-2.555,1.476v2.086l1.181,1.117,1.374.357h3.613l2.556-1.475v-2.086Z" transform="translate(-744.501 -297.87)" fill="#574943"/>
          <path id="Path_3965" data-name="Path 3965" d="M756.349,303.5l-2.556,1.475-.786,2.4.786,13.823,2.555-1.475Z" transform="translate(-747.625 -299.938)" fill="#d1d1d1"/>
          <path id="Path_3966" data-name="Path 3966" d="M751.644,305.831h-3.613l-.875,2.149.876,14.078h3.612Z" transform="translate(-745.476 -300.794)" fill="#f4efe9"/>
          <path id="Path_3967" data-name="Path 3967" d="M747.056,304.975,744.5,303.5v16.227l2.556,1.475Z" transform="translate(-744.501 -299.938)" fill="#fff"/>
          <path id="Path_3968" data-name="Path 3968" d="M745.1,307.651l1.8,1.037V320.1l-1.8-1.038Z" transform="translate(-744.721 -301.462)" fill="#fa5c52"/>
        </g>
        <g id="Group_1491" data-name="Group 1491" transform="translate(0.176)">
          <path id="Path_3969" data-name="Path 3969" d="M753.224,290.223l-2.555-1.476h-3.613l-2.555,1.475v2.087l1.181,1.119,1.374.358h3.613l2.556-1.477v-2.085Z" transform="translate(-744.501 -288.747)" fill="#4290b8"/>
          <path id="Path_3970" data-name="Path 3970" d="M756.349,294.376l-2.556,1.477-.786,2.4.786,3.367,2.555-1.475Z" transform="translate(-747.625 -290.815)" fill="#17435c"/>
          <path id="Path_3971" data-name="Path 3971" d="M751.644,296.71h-3.613l-.875,2.149.876,3.622h3.612Z" transform="translate(-745.476 -291.672)" fill="#24546e"/>
          <path id="Path_3972" data-name="Path 3972" d="M747.056,295.852l-2.555-1.477v5.773l2.556,1.475Z" transform="translate(-744.501 -290.815)" fill="#2b6582"/>
        </g>
      </g>
      <g id="Group_1497" data-name="Group 1497" transform="translate(9.765 3.766)">
        <path id="Path_3973" data-name="Path 3973" d="M762.342,339.482l-2.685-1.551v-2.289l2.685-1.55h3.708l2.684,1.55v2.289l-2.684,1.551Zm-2.333-1.754,2.427,1.4h3.519l2.429-1.4v-1.883l-2.428-1.4h-3.519l-2.427,1.4Z" transform="translate(-759.657 -309.169)" opacity="0.3"/>
        <g id="Group_1493" data-name="Group 1493" transform="translate(0.177 22.333)">
          <path id="Path_3974" data-name="Path 3974" d="M768.661,331.474,766.1,330H762.49l-2.554,1.475v2.087l1.181,1.119,1.373.355h3.615l2.555-1.474v-2.087Z" transform="translate(-759.936 -329.999)" fill="#4290b8"/>
          <path id="Path_3975" data-name="Path 3975" d="M771.785,335.629,769.23,337.1l-.787,1.58.787,1.181,2.556-1.474Z" transform="translate(-763.06 -332.067)" fill="#17435c"/>
          <path id="Path_3976" data-name="Path 3976" d="M767.08,337.958h-3.615l-.875,1,.876,1.765h3.613Z" transform="translate(-760.911 -332.923)" fill="#24546e"/>
          <path id="Path_3977" data-name="Path 3977" d="M762.491,337.1l-2.554-1.474v2.761l2.556,1.474Z" transform="translate(-759.936 -332.067)" fill="#2b6582"/>
        </g>
        <g id="Group_1494" data-name="Group 1494" transform="translate(0.177 6.107)">
          <path id="Path_3978" data-name="Path 3978" d="M768.661,305.827l-2.557-1.474H762.49l-2.554,1.474v2.087l1.181,1.118,1.373.357h3.615l2.555-1.475v-2.087Z" transform="translate(-759.936 -304.353)" fill="#fff"/>
          <path id="Path_3979" data-name="Path 3979" d="M771.785,309.982l-2.556,1.475-.787,2.4.787,13.823,2.556-1.474Z" transform="translate(-763.06 -306.42)" fill="#d1d1d1"/>
          <path id="Path_3980" data-name="Path 3980" d="M767.08,312.313h-3.615l-.875,2.15.876,14.077h3.613Z" transform="translate(-760.911 -307.277)" fill="#e0dedc"/>
          <path id="Path_3981" data-name="Path 3981" d="M762.491,311.456l-2.554-1.475v16.227l2.556,1.474Z" transform="translate(-759.936 -306.42)" fill="#f4efe9"/>
          <path id="Path_3982" data-name="Path 3982" d="M760.534,314.132l1.8,1.037v11.413l-1.8-1.037Z" transform="translate(-760.156 -307.945)" fill="#fa5c52"/>
        </g>
        <g id="Group_1495" data-name="Group 1495" transform="translate(0.64 4.251)">
          <path id="Path_3983" data-name="Path 3983" d="M768.464,302.737l-2.283-1.318h-3.228l-2.284,1.318V304.6l1.056,1,1.228.318h3.228l2.283-1.317v-1.865Z" transform="translate(-760.669 -301.419)" fill="#fff"/>
          <path id="Path_3984" data-name="Path 3984" d="M771.257,306.45l-2.284,1.316-.7.7.7,1.272,2.284-1.317Z" transform="translate(-763.461 -303.267)" fill="#d1d1d1"/>
          <path id="Path_3985" data-name="Path 3985" d="M767.054,308.531h-3.228l-.781.474.782,1.5h3.227Z" transform="translate(-761.542 -304.031)" fill="#e0dedc"/>
          <path id="Path_3986" data-name="Path 3986" d="M762.953,307.766l-2.284-1.317v1.976l2.285,1.317Z" transform="translate(-760.669 -303.267)" fill="#f4efe9"/>
        </g>
        <g id="Group_1496" data-name="Group 1496" transform="translate(0.871)">
          <path id="Path_3987" data-name="Path 3987" d="M768.369,295.94l-2.149-1.24h-3.038l-2.148,1.24v1.753l.993.94,1.155.3h3.038l2.149-1.241V295.94Z" transform="translate(-761.034 -294.7)" fill="#e8f3ff"/>
          <path id="Path_3988" data-name="Path 3988" d="M766.692,297.815h-.7l-.5.287v.062l.5.288h.7l.495-.288V298.1Z" transform="translate(-762.671 -295.844)" fill="#fff"/>
          <path id="Path_3989" data-name="Path 3989" d="M767.186,297.56v.343l-.495-.287h-.7l-.5.287v-.343l.5-.287h.7Z" transform="translate(-762.671 -295.645)" fill="#a1b4bf"/>
          <path id="Path_3990" data-name="Path 3990" d="M771,299.431l-2.148,1.24-.662.66.662,3.61L771,303.7Z" transform="translate(-763.661 -296.438)" fill="#a1b4bf"/>
          <path id="Path_3991" data-name="Path 3991" d="M767.041,301.392H764l-.735.445.736,3.824h3.037Z" transform="translate(-761.854 -297.158)" fill="#b4ced6"/>
          <path id="Path_3992" data-name="Path 3992" d="M763.182,300.672l-2.148-1.24V303.7l2.149,1.241Z" transform="translate(-761.034 -296.438)" fill="#c8dfe8"/>
        </g>
      </g>
      <g id="Group_1498" data-name="Group 1498" transform="translate(2.351 27.966)">
        <path id="Path_3993" data-name="Path 3993" d="M750.623,347.2l-2.684-1.548v-2.29l2.684-1.548h3.707l2.685,1.548v2.291L754.33,347.2Zm-2.332-1.751,2.426,1.4h3.521l2.428-1.4v-1.883l-2.426-1.4h-3.521l-2.426,1.4Z" transform="translate(-747.939 -336.206)" opacity="0.3"/>
        <path id="Path_3994" data-name="Path 3994" d="M756.942,334.425l-2.555-1.477h-3.615l-2.555,1.476v2.087l1.181,1.117,1.374.357h3.615l2.555-1.474v-2.088Z" transform="translate(-748.041 -332.948)" fill="#4290b8"/>
        <path id="Path_3995" data-name="Path 3995" d="M760.067,338.582l-2.556,1.474-.786,2.4.786,3.368,2.556-1.477Z" transform="translate(-751.166 -335.017)" fill="#17435c"/>
        <path id="Path_3996" data-name="Path 3996" d="M755.362,340.911h-3.614l-.874,2.148.875,3.624h3.614Z" transform="translate(-749.017 -335.873)" fill="#24546e"/>
        <path id="Path_3997" data-name="Path 3997" d="M750.772,340.055l-2.555-1.475v5.77l2.556,1.477Z" transform="translate(-748.041 -335.017)" fill="#2b6582"/>
      </g>
    </g>
  </g>
</svg>
