<svg xmlns="http://www.w3.org/2000/svg" xmlns:xlink="http://www.w3.org/1999/xlink" viewBox="0 0 236 236"><defs><linearGradient id="a" x1="0.5" x2="0.5" y2="1" gradientUnits="objectBoundingBox"><stop offset="0" stop-color="#c93237"/><stop offset="1" stop-color="#7e1518"/></linearGradient></defs><path d="M118,236a118.872,118.872,0,0,1-23.781-2.4,117.354,117.354,0,0,1-42.194-17.755A118.345,118.345,0,0,1,9.273,163.931,117.408,117.408,0,0,1,2.4,141.781a119.149,119.149,0,0,1,0-47.562A117.353,117.353,0,0,1,20.153,52.025,118.346,118.346,0,0,1,72.069,9.273,117.41,117.41,0,0,1,94.219,2.4a119.149,119.149,0,0,1,47.562,0,117.352,117.352,0,0,1,42.194,17.755,118.346,118.346,0,0,1,42.752,51.917,117.41,117.41,0,0,1,6.876,22.15,119.15,119.15,0,0,1,0,47.562,117.353,117.353,0,0,1-17.755,42.194,118.345,118.345,0,0,1-51.916,42.752,117.408,117.408,0,0,1-22.15,6.876A118.869,118.869,0,0,1,118,236Zm0-187.957A69.957,69.957,0,1,0,187.957,118,70.037,70.037,0,0,0,118,48.043Z" fill="url(#a)"/></svg>