<svg id="Google_play" data-name="Google play" xmlns="http://www.w3.org/2000/svg" viewBox="0 0 215.308 70.43">
  <path id="Path_127" data-name="Path 127" d="M282.209,127.8a1.377,1.377,0,0,0-1.12.593,2.365,2.365,0,0,0-.461,1.5,2.332,2.332,0,0,0,.486,1.531,1.492,1.492,0,0,0,1.192.59,1.381,1.381,0,0,0,1.122-.6,2.367,2.367,0,0,0,.461-1.494,2.338,2.338,0,0,0-.484-1.533A1.491,1.491,0,0,0,282.209,127.8Z" transform="translate(-189.103 -112.813)" fill="#f4f8fd"/>
  <path id="Path_128" data-name="Path 128" d="M288.847,127.823a4.845,4.845,0,0,0-.533.041q.044.9.045,1.89,0,1.08.046,2.143a2.954,2.954,0,0,0,.588.059,1.712,1.712,0,0,0,1.44-.6,2.338,2.338,0,0,0,.468-1.472,2.185,2.185,0,0,0-.506-1.463A1.922,1.922,0,0,0,288.847,127.823Z" transform="translate(-186.992 -112.806)" fill="#f4f8fd"/>
  <path id="Path_129" data-name="Path 129" d="M300.494,127.78a3.577,3.577,0,0,0-.678.069q.05.855.05,1.935c.075.006.162.009.261.009q1.652,0,1.651-1.045Q301.778,127.78,300.494,127.78Z" transform="translate(-183.832 -112.818)" fill="#f4f8fd"/>
  <path id="Path_130" data-name="Path 130" d="M296,127.77a26.45,26.45,0,0,1-.8,2.523h1.647a25.355,25.355,0,0,1-.774-2.523Z" transform="translate(-185.1 -112.82)" fill="#f4f8fd"/>
  <path id="Path_131" data-name="Path 131" d="M262.492,127.77q0,.176-.8,2.523h1.647a25.355,25.355,0,0,1-.774-2.523Z" transform="translate(-194.305 -112.82)" fill="#f4f8fd"/>
  <path id="Path_132" data-name="Path 132" d="M277,127.784a3.882,3.882,0,0,0-.751.064q.05.7.05,1.827c.166.006.306.009.421.009q1.438,0,1.438-1Q278.159,127.783,277,127.784Z" transform="translate(-190.306 -112.816)" fill="#f4f8fd"/>
  <path id="Path_133" data-name="Path 133" d="M271.874,127.823a4.842,4.842,0,0,0-.534.041q.044.9.045,1.89,0,1.08.046,2.143a2.963,2.963,0,0,0,.588.059,1.71,1.71,0,0,0,1.44-.6,2.33,2.33,0,0,0,.468-1.472,2.179,2.179,0,0,0-.506-1.463A1.921,1.921,0,0,0,271.874,127.823Z" transform="translate(-191.655 -112.806)" fill="#f4f8fd"/>
  <path id="Path_134" data-name="Path 134" d="M311.527,127.8a1.378,1.378,0,0,0-1.12.593,2.357,2.357,0,0,0-.461,1.5,2.332,2.332,0,0,0,.486,1.531,1.492,1.492,0,0,0,1.192.59,1.381,1.381,0,0,0,1.122-.6,2.367,2.367,0,0,0,.46-1.494,2.338,2.338,0,0,0-.483-1.533A1.49,1.49,0,0,0,311.527,127.8Z" transform="translate(-181.05 -112.813)" fill="#f4f8fd"/>
  <path id="Path_135" data-name="Path 135" d="M304.749,127.78a3.6,3.6,0,0,0-.679.069c.034.57.05,1.215.05,1.935.075.006.163.009.263.009q1.652,0,1.651-1.045Q306.033,127.78,304.749,127.78Z" transform="translate(-182.664 -112.818)" fill="#f4f8fd"/>
  <path id="Path_136" data-name="Path 136" d="M296.361,144.42a4.447,4.447,0,0,0-3.287,1.416,5.774,5.774,0,0,0,0,7.511,4.523,4.523,0,0,0,6.576,0,5.778,5.778,0,0,0,0-7.511A4.452,4.452,0,0,0,296.361,144.42Z" transform="translate(-186.066 -108.247)" fill="#f4f8fd"/>
  <path id="Path_137" data-name="Path 137" d="M284.1,144.42a4.445,4.445,0,0,0-3.287,1.416,5.773,5.773,0,0,0,0,7.511,4.521,4.521,0,0,0,6.575,0,5.774,5.774,0,0,0,0-7.511A4.451,4.451,0,0,0,284.1,144.42Z" transform="translate(-189.435 -108.247)" fill="#f4f8fd"/>
  <path id="Path_138" data-name="Path 138" d="M342.263,139.7h-4.5V147h4.5a3.475,3.475,0,0,0,2.718-1.141,3.6,3.6,0,0,0,0-5.025A3.471,3.471,0,0,0,342.263,139.7Z" transform="translate(-173.408 -109.544)" fill="#f4f8fd"/>
  <path id="Path_139" data-name="Path 139" d="M354.3,149.371a2.543,2.543,0,0,0-.993,1.987,1.913,1.913,0,0,0,.906,1.666,3.611,3.611,0,0,0,2.074.613,4.379,4.379,0,0,0,3.025-1.243,3.847,3.847,0,0,0,1.358-2.936,5.3,5.3,0,0,0-3.419-.936A4.444,4.444,0,0,0,354.3,149.371Z" transform="translate(-169.139 -107.119)" fill="#f4f8fd"/>
  <path id="Path_140" data-name="Path 140" d="M324.8,144.42a3.855,3.855,0,0,0-2.585.934,4.778,4.778,0,0,0-1.505,2.514h8.3a3.817,3.817,0,0,0-1.126-2.338A4.021,4.021,0,0,0,324.8,144.42Z" transform="translate(-178.093 -108.247)" fill="#f4f8fd"/>
  <path id="Path_141" data-name="Path 141" d="M308.508,144.42a4.273,4.273,0,0,0-3.214,1.416,5.916,5.916,0,0,0,0,7.511,4.386,4.386,0,0,0,6.444.015,6.012,6.012,0,0,0,0-7.539A4.282,4.282,0,0,0,308.508,144.42Z" transform="translate(-182.697 -108.247)" fill="#f4f8fd"/>
  <path id="Path_142" data-name="Path 142" d="M414.62,116.042H218.345a9.519,9.519,0,0,0-9.518,9.518v51.393a9.518,9.518,0,0,0,9.518,9.518H414.62a9.517,9.517,0,0,0,9.516-9.518V125.56A9.517,9.517,0,0,0,414.62,116.042Zm-85.553,14.14h.786c.112,0,.326-.005.642-.014s.591-.014.823-.014a2.6,2.6,0,0,1,1.452.389,1.319,1.319,0,0,1,.591,1.18,1.765,1.765,0,0,1-.8,1.6,3.578,3.578,0,0,1-1.969.515c-.143,0-.243,0-.3-.009q0,.851.05,2.242h-1.271q.059-1.306.059-3.078Q329.126,131.361,329.067,130.182Zm-11.08,2.993a22.694,22.694,0,0,0,1.055-2.993h1.709a24.993,24.993,0,0,0,.956,2.95,26.2,26.2,0,0,1,.957,2.937h-1.448a9.466,9.466,0,0,0-.412-1.69h-2.089a8.748,8.748,0,0,0-.424,1.69h-1.361Q316.931,135.893,317.987,133.175ZM309,130.182h.792c.13,0,.322-.005.579-.014s.423-.014.5-.014a3.049,3.049,0,0,1,2.367.815,2.815,2.815,0,0,1,.734,1.953,3.338,3.338,0,0,1-.822,2.243,2.879,2.879,0,0,1-2.306.959q-.671,0-1.846-.055.059-1.365.059-3.078Q309.054,131.344,309,130.182Zm-2.859,0h1.279q-.057,1.14-.059,2.808,0,1.7.059,3.078h-1.279q.057-1.4.059-3.078Q306.2,131.338,306.136,130.182Zm-6.184.778a2.754,2.754,0,0,1,2.1-.914,2.663,2.663,0,0,1,2,.836,2.955,2.955,0,0,1,.806,2.135,3.252,3.252,0,0,1-.85,2.3,2.762,2.762,0,0,1-2.1.913,2.657,2.657,0,0,1-2-.839,2.954,2.954,0,0,1-.8-2.133A3.243,3.243,0,0,1,299.953,130.96Zm-12.594-.778h.792c.13,0,.322-.005.579-.014s.423-.014.5-.014a3.045,3.045,0,0,1,2.367.815,2.816,2.816,0,0,1,.736,1.953,3.339,3.339,0,0,1-.823,2.243,2.879,2.879,0,0,1-2.306.959q-.669,0-1.846-.055.059-1.365.059-3.078Q287.417,131.344,287.359,130.182Zm-6.432,0h1.344a8.527,8.527,0,0,0,1.117,1.912,11.34,11.34,0,0,1,1.366,2.41h.068a16.975,16.975,0,0,1-.108-1.809q0-1.226-.064-2.514h1.131q-.063,1.12-.064,2.808t.064,3.078h-1.117a11.146,11.146,0,0,0-1.244-1.958,10.791,10.791,0,0,1-1.484-2.554h-.071a15.94,15.94,0,0,1,.112,1.791q0,1.117.064,2.721h-1.113q.069-1.4.069-3.078Q281,131.338,280.927,130.182Zm-5.656,2.993a22.7,22.7,0,0,0,1.055-2.993h1.709a24.993,24.993,0,0,0,.956,2.95,26.2,26.2,0,0,1,.957,2.937H278.5a9.531,9.531,0,0,0-.41-1.69H276a8.692,8.692,0,0,0-.426,1.69h-1.361Q274.214,135.893,275.271,133.175Zm-47.685-2.083q13.729,7.692,27.462,15.377c.422.235.413.367.088.687q-3.071,3.021-6.107,6.075c-.219.219-.353.347-.646.047q-10.924-11.14-21.865-22.26c-.061-.062-.111-.135-.235-.288A2.443,2.443,0,0,1,227.585,131.092Zm-2.817,45.224A2.728,2.728,0,0,1,223.71,174q0-5.937-.008-11.875,0-4.2,0-8.4h.01q0-10.025,0-20.049a3.009,3.009,0,0,1,.739-2.189c.226-.241.389-.3.665-.023q6.746,6.883,13.511,13.745,4.379,4.447,8.766,8.885c.284.287.309.437.008.737q-10.75,10.69-21.47,21.411A.739.739,0,0,1,224.768,176.316ZM254.247,161.8q-12.792,7-25.572,14.029a3.777,3.777,0,0,0-.344.25Q238.295,166,248.25,155.921c.412-.418.6-.362.971.022,1.684,1.754,3.393,3.482,5.109,5.2C254.632,161.449,254.658,161.573,254.247,161.8Zm11.114-6.2a11.7,11.7,0,0,1-1.271.775c-2.579,1.425-5.165,2.837-7.737,4.273a.579.579,0,0,1-.841-.112q-2.748-2.839-5.537-5.635c-.27-.271-.278-.419,0-.693q3.247-3.2,6.46-6.431a.519.519,0,0,1,.75-.1c2.547,1.444,5.105,2.867,7.66,4.3a2.345,2.345,0,0,1,1.439,1.952A2.1,2.1,0,0,1,265.361,155.595Zm27.052,6.321a10.135,10.135,0,0,1-7.685,3.1,10.929,10.929,0,1,1,0-21.857,10.781,10.781,0,0,1,4.3.876,8.616,8.616,0,0,1,3.273,2.338l-1.842,1.841a7.06,7.06,0,0,0-5.727-2.484,8.358,8.358,0,1,0,5.845,14.377,6.56,6.56,0,0,0,1.753-4.237h-7.6v-2.512h10.14a9.014,9.014,0,0,1,.145,1.578A9.429,9.429,0,0,1,292.413,161.916Zm2.414-28.194q0,1.163.041,2.347h-1.257q.057-1.365.059-3.078,0-1.646-.059-2.808h.781c.09,0,.28-.005.567-.014s.554-.014.8-.014q2.075,0,2.075,1.42a1.591,1.591,0,0,1-1.186,1.569v.068a1.414,1.414,0,0,1,.8.713,15.72,15.72,0,0,1,.928,2.145h-1.338a8.908,8.908,0,0,0-.806-1.976,1.056,1.056,0,0,0-.9-.375C295.154,133.718,294.987,133.72,294.827,133.722Zm13.95,29.115a7.514,7.514,0,0,1-10.579,0,8.194,8.194,0,0,1,0-10.9,7.514,7.514,0,0,1,10.579,0,8.2,8.2,0,0,1,0,10.9Zm15.634,0a7.514,7.514,0,0,1-10.579,0,8.194,8.194,0,0,1,0-10.9,7.514,7.514,0,0,1,10.579,0,8.2,8.2,0,0,1,0,10.9Zm.756-29c-.142,0-.242,0-.3-.009q0,.851.05,2.242h-1.271q.059-1.306.06-3.078,0-1.629-.06-2.808h.788c.111,0,.325-.005.641-.014s.591-.014.823-.014a2.6,2.6,0,0,1,1.452.389,1.318,1.318,0,0,1,.593,1.18,1.764,1.764,0,0,1-.8,1.6A3.578,3.578,0,0,1,325.168,133.836Zm16.6,29.981a7.136,7.136,0,0,1-2.134,5.6,7.512,7.512,0,0,1-5.2,1.913,6.489,6.489,0,0,1-4.15-1.271,7.457,7.457,0,0,1-2.307-2.908l2.455-1.022a4.017,4.017,0,0,0,1.5,1.957,4.161,4.161,0,0,0,2.5.789,4.6,4.6,0,0,0,3.491-1.33,5,5,0,0,0,1.271-3.609V162.56h-.116a5.477,5.477,0,0,1-1.987,1.753,5.944,5.944,0,0,1-2.892.7,6.3,6.3,0,0,1-4.793-2.192,8.333,8.333,0,0,1,0-10.871,6.3,6.3,0,0,1,4.793-2.191,5.957,5.957,0,0,1,2.892.7,5.48,5.48,0,0,1,1.987,1.754h.116v-1.989h2.572Zm-.389-28.5a2.762,2.762,0,0,1-2.1.913,2.657,2.657,0,0,1-2-.839,2.954,2.954,0,0,1-.8-2.133,3.243,3.243,0,0,1,.85-2.3,2.754,2.754,0,0,1,2.1-.914,2.664,2.664,0,0,1,2,.836,2.955,2.955,0,0,1,.806,2.135A3.252,3.252,0,0,1,341.381,135.319ZM347,164.547h-2.688V143.624H347Zm1.36-28.478h-1.117A11.053,11.053,0,0,0,346,134.111a10.722,10.722,0,0,1-1.482-2.554h-.073a15.964,15.964,0,0,1,.113,1.791q0,1.117.062,2.721h-1.112q.067-1.4.068-3.078,0-1.652-.068-2.808h1.342a8.53,8.53,0,0,0,1.117,1.912,11.34,11.34,0,0,1,1.366,2.41h.068a16.975,16.975,0,0,1-.108-1.809q0-1.226-.064-2.514h1.131q-.063,1.12-.064,2.808T348.36,136.069Zm14.214,21.815H351.265a4.86,4.86,0,0,0,1.447,3.419,4.386,4.386,0,0,0,3.112,1.257,3.858,3.858,0,0,0,3.917-2.455l2.4.994a6.421,6.421,0,0,1-2.308,2.79,6.713,6.713,0,0,1-3.945,1.126,6.9,6.9,0,0,1-5.273-2.163,7.66,7.66,0,0,1-2.032-5.463,7.883,7.883,0,0,1,1.973-5.378,6.4,6.4,0,0,1,5.04-2.25,6.6,6.6,0,0,1,5.1,2.075,7.867,7.867,0,0,1,1.915,5.553Zm19.651-3.579a6.611,6.611,0,0,1-4.6,1.767h-4.441v8.475h-2.69V143.624h7.131a6.617,6.617,0,0,1,4.6,1.767,6.081,6.081,0,0,1,0,8.914Zm6.385,10.242h-2.687V143.624h2.687Zm14.319,0h-2.572V162.56h-.116a5.274,5.274,0,0,1-4.7,2.455,5.652,5.652,0,0,1-3.813-1.315,4.354,4.354,0,0,1-1.536-3.477A4.3,4.3,0,0,1,392,156.555a7.355,7.355,0,0,1,4.47-1.33,7.694,7.694,0,0,1,3.887.877v-.41a3.192,3.192,0,0,0-1.081-2.526,3.881,3.881,0,0,0-2.659-.95,4.123,4.123,0,0,0-2.119.555,2.863,2.863,0,0,0-1.3,1.519l-2.455-1.052a5.575,5.575,0,0,1,1.958-2.382,6.272,6.272,0,0,1,3.858-1.095,6.623,6.623,0,0,1,4.558,1.607,5.741,5.741,0,0,1,1.811,4.53Zm5.846,6.311H406l3.331-7.217-5.9-13.414h2.922l4.268,10.288h.059l4.149-10.288h2.922Z" transform="translate(-208.827 -116.042)" fill="#f4f8fd"/>
</svg>
