<svg xmlns="http://www.w3.org/2000/svg" viewBox="0 0 41.563 72.711">
  <g id="Privacy_icon" data-name="Privacy icon" transform="translate(-344.126 -42.19)">
    <g id="Group_1043" data-name="Group 1043" transform="translate(345.448 42.19)">
      <path id="Path_2972" data-name="Path 2972" d="M393.257,54.776l-20.2-12.133a2.719,2.719,0,0,0-2.578-.225h0l-1.921.7h1.465a5.527,5.527,0,0,0-.645,1.676L358.7,93.776c-.605,2.776.526,6,2.527,7.2l20.2,12.133a3.34,3.34,0,0,0,.645.3l-.8,1.216,1.693-.589h0a4.175,4.175,0,0,0,2.14-3.075l10.68-48.986C396.388,59.2,395.257,55.978,393.257,54.776Z" transform="translate(-355.705 -42.19)" fill="#7a1717"/>
      <path id="Path_2973" data-name="Path 2973" d="M371.6,116.018l-20.2-12.133c-2-1.2-3.132-4.426-2.527-7.2L359.557,47.7c.605-2.775,2.717-4.051,4.718-2.849l20.2,12.133c2,1.2,3.132,4.426,2.527,7.2l-10.68,48.987C375.715,115.944,373.6,117.22,371.6,116.018Z" transform="translate(-348.713 -43.76)" fill="#ffd4d4"/>
      <path id="Path_2974" data-name="Path 2974" d="M374.376,118.318l-19.724-11.849c-1.556-.934-2.435-3.441-1.965-5.6l10.621-48.717c.47-2.158,2.113-3.15,3.668-2.216L386.7,61.786c1.556.935,2.435,3.442,1.965,5.6L378.045,116.1C377.574,118.26,375.932,119.252,374.376,118.318Z" transform="translate(-351.452 -47.455)" fill="#fff"/>
    </g>
    <g id="Group_1044" data-name="Group 1044" transform="translate(354.504 49.478)">
      <path id="Path_2975" data-name="Path 2975" d="M416.314,80.462l-2.25-1.3a.644.644,0,0,1-.275-.666h0a.313.313,0,0,1,.482-.23l2.25,1.3a.644.644,0,0,1,.275.667h0A.313.313,0,0,1,416.314,80.462Z" transform="translate(-404.081 -75.121)" fill="#ffd4d4"/>
      <path id="Path_2976" data-name="Path 2976" d="M432.277,89.678l-3.318-1.916a.643.643,0,0,1-.274-.666h0a.313.313,0,0,1,.481-.23l3.318,1.916a.643.643,0,0,1,.274.666h0A.313.313,0,0,1,432.277,89.678Z" transform="translate(-414.683 -81.242)" fill="#ffd4d4"/>
      <path id="Path_2977" data-name="Path 2977" d="M402.7,116.909l-2.25-1.3a.644.644,0,0,1-.275-.666h0a.313.313,0,0,1,.482-.23l2.25,1.3a.643.643,0,0,1,.275.666h0A.313.313,0,0,1,402.7,116.909Z" transform="translate(-394.392 -101.065)" fill="#ffd4d4"/>
      <path id="Path_2978" data-name="Path 2978" d="M416.646,124.959l-3.318-1.916a.644.644,0,0,1-.275-.666h0a.313.313,0,0,1,.482-.23l3.318,1.916a.644.644,0,0,1,.275.666h0A.313.313,0,0,1,416.646,124.959Z" transform="translate(-403.557 -106.356)" fill="#ffd4d4"/>
      <path id="Path_2979" data-name="Path 2979" d="M395.367,75.752l-1.405-.812a.643.643,0,0,1-.275-.666h0a.313.313,0,0,1,.481-.23l1.406.812a.643.643,0,0,1,.275.666h0A.313.313,0,0,1,395.367,75.752Z" transform="translate(-389.771 -72.115)" fill="#ffd4d4"/>
      <path id="Path_2980" data-name="Path 2980" d="M403.263,87.7l-4.3-2.48a.644.644,0,0,1-.275-.666h0a.313.313,0,0,1,.482-.23l4.3,2.48a.643.643,0,0,1,.274.666h0A.313.313,0,0,1,403.263,87.7Z" transform="translate(-393.335 -79.43)" fill="#ffd4d4"/>
      <path id="Path_2981" data-name="Path 2981" d="M397.366,99.059l-1.406-.812a.644.644,0,0,1-.275-.667h0a.313.313,0,0,1,.482-.23l1.406.812a.644.644,0,0,1,.275.666h0A.313.313,0,0,1,397.366,99.059Z" transform="translate(-391.194 -88.706)" fill="#ffd4d4"/>
      <path id="Path_2982" data-name="Path 2982" d="M418.078,140.555l-3.755-2.168a.644.644,0,0,1-.275-.667h0a.313.313,0,0,1,.482-.23l3.755,2.168a.644.644,0,0,1,.275.666h0A.313.313,0,0,1,418.078,140.555Z" transform="translate(-404.265 -117.277)" fill="#ffd4d4"/>
      <path id="Path_2983" data-name="Path 2983" d="M393.854,111.8l-.9-.521a.644.644,0,0,1-.275-.666h0a.313.313,0,0,1,.482-.23l.9.521a.644.644,0,0,1,.275.667h0A.313.313,0,0,1,393.854,111.8Z" transform="translate(-389.053 -97.982)" fill="#ffd4d4"/>
      <path id="Path_2984" data-name="Path 2984" d="M391.065,124.958l-1.12-.647a.643.643,0,0,1-.275-.666h0a.313.313,0,0,1,.482-.23l1.12.647a.644.644,0,0,1,.275.667h0A.313.313,0,0,1,391.065,124.958Z" transform="translate(-386.912 -107.258)" fill="#ffd4d4"/>
      <path id="Path_2985" data-name="Path 2985" d="M401.661,131.077l-2.954-1.706a.644.644,0,0,1-.275-.666h0a.313.313,0,0,1,.482-.23l2.954,1.706a.643.643,0,0,1,.275.666h0A.313.313,0,0,1,401.661,131.077Z" transform="translate(-393.15 -110.86)" fill="#ffd4d4"/>
      <path id="Path_2986" data-name="Path 2986" d="M390.564,132.053l-2.124-1.227a.643.643,0,0,1-.275-.666h0a.313.313,0,0,1,.482-.23l2.124,1.227a.643.643,0,0,1,.275.666h0A.313.313,0,0,1,390.564,132.053Z" transform="translate(-385.841 -111.896)" fill="#ffd4d4"/>
      <path id="Path_2987" data-name="Path 2987" d="M435.16,150.449l-1.364-.788a.644.644,0,0,1-.275-.667h0a.313.313,0,0,1,.482-.23l1.364.788a.643.643,0,0,1,.275.666h0A.313.313,0,0,1,435.16,150.449Z" transform="translate(-418.126 -125.303)" fill="#ffd4d4"/>
      <path id="Path_2988" data-name="Path 2988" d="M409.709,106.186l-3.755-2.168a.644.644,0,0,1-.275-.666h0a.313.313,0,0,1,.482-.23l3.755,2.168a.643.643,0,0,1,.275.666h0A.313.313,0,0,1,409.709,106.186Z" transform="translate(-398.308 -92.813)" fill="#ffd4d4"/>
      <path id="Path_2989" data-name="Path 2989" d="M404.008,95.51l-6.544-3.778a.644.644,0,0,1-.275-.667h0a.313.313,0,0,1,.482-.23l6.544,3.778a.643.643,0,0,1,.274.666h0A.313.313,0,0,1,404.008,95.51Z" transform="translate(-392.265 -84.068)" fill="#ffd4d4"/>
      <path id="Path_2990" data-name="Path 2990" d="M398.211,106.931l-3.755-2.168a.644.644,0,0,1-.275-.667h0a.313.313,0,0,1,.482-.23l3.755,2.168a.644.644,0,0,1,.275.666h0A.313.313,0,0,1,398.211,106.931Z" transform="translate(-390.124 -93.344)" fill="#ffd4d4"/>
      <path id="Path_2991" data-name="Path 2991" d="M425.495,115.3l-1.364-.788a.644.644,0,0,1-.275-.666h0a.313.313,0,0,1,.482-.23l1.364.788a.643.643,0,0,1,.274.666h0A.313.313,0,0,1,425.495,115.3Z" transform="translate(-411.246 -100.283)" fill="#ffd4d4"/>
      <path id="Path_2992" data-name="Path 2992" d="M460.838,105.311l-1.364-.788a.643.643,0,0,1-.274-.666h0a.313.313,0,0,1,.481-.23l1.364.788a.644.644,0,0,1,.275.666h0A.313.313,0,0,1,460.838,105.311Z" transform="translate(-436.404 -93.173)" fill="#ffd4d4"/>
      <path id="Path_2993" data-name="Path 2993" d="M395.962,120.4l-4.513-2.606a.643.643,0,0,1-.275-.666h0a.313.313,0,0,1,.482-.23l4.513,2.606a.644.644,0,0,1,.274.667h0A.313.313,0,0,1,395.962,120.4Z" transform="translate(-387.983 -102.62)" fill="#ffd4d4"/>
      <path id="Path_2994" data-name="Path 2994" d="M398.783,70.34l-3.318-1.916a.643.643,0,0,1-.275-.666h0a.313.313,0,0,1,.482-.23l3.318,1.916a.644.644,0,0,1,.275.666h0A.313.313,0,0,1,398.783,70.34Z" transform="translate(-390.842 -67.477)" fill="#ffd4d4"/>
      <path id="Path_2995" data-name="Path 2995" d="M384.267,135.8l-3.843-2.219a.644.644,0,0,1-.275-.667h0a.313.313,0,0,1,.482-.23l3.843,2.219a.643.643,0,0,1,.275.666h0A.313.313,0,0,1,384.267,135.8Z" transform="translate(-380.136 -113.859)" fill="#ffd4d4"/>
    </g>
    <g id="Group_1045" data-name="Group 1045" transform="translate(348.706 78.336)">
      <path id="Path_2996" data-name="Path 2996" d="M396.2,180.6l-2.25-1.3a.643.643,0,0,1-.275-.666h0a.313.313,0,0,1,.482-.23l2.25,1.3a.644.644,0,0,1,.275.666h0A.313.313,0,0,1,396.2,180.6Z" transform="translate(-383.964 -175.258)" fill="#ffd4d4"/>
      <path id="Path_2997" data-name="Path 2997" d="M412.159,189.814l-3.318-1.916a.644.644,0,0,1-.275-.667h0a.313.313,0,0,1,.482-.23l3.318,1.916a.643.643,0,0,1,.275.666h0A.313.313,0,0,1,412.159,189.814Z" transform="translate(-394.565 -181.379)" fill="#ffd4d4"/>
      <path id="Path_2998" data-name="Path 2998" d="M382.586,217.046l-2.25-1.3a.644.644,0,0,1-.275-.667h0a.313.313,0,0,1,.482-.23l2.25,1.3a.644.644,0,0,1,.275.666h0A.313.313,0,0,1,382.586,217.046Z" transform="translate(-374.275 -201.201)" fill="#ffd4d4"/>
      <path id="Path_2999" data-name="Path 2999" d="M396.529,225.1l-3.318-1.916a.643.643,0,0,1-.275-.666h0a.313.313,0,0,1,.481-.23l3.318,1.916a.644.644,0,0,1,.275.666h0A.313.313,0,0,1,396.529,225.1Z" transform="translate(-383.44 -206.492)" fill="#ffd4d4"/>
      <path id="Path_3000" data-name="Path 3000" d="M375.249,175.888l-1.406-.812a.644.644,0,0,1-.274-.667h0a.313.313,0,0,1,.481-.23l1.406.812a.644.644,0,0,1,.275.666h0A.313.313,0,0,1,375.249,175.888Z" transform="translate(-369.654 -172.252)" fill="#ffd4d4"/>
      <path id="Path_3001" data-name="Path 3001" d="M383.146,187.832l-4.295-2.48a.644.644,0,0,1-.275-.666h0a.313.313,0,0,1,.482-.23l4.295,2.48a.643.643,0,0,1,.275.666h0A.313.313,0,0,1,383.146,187.832Z" transform="translate(-373.218 -179.566)" fill="#ffd4d4"/>
      <path id="Path_3002" data-name="Path 3002" d="M377.249,199.2l-1.406-.812a.643.643,0,0,1-.275-.666h0a.313.313,0,0,1,.482-.23l1.406.812a.644.644,0,0,1,.275.667h0A.313.313,0,0,1,377.249,199.2Z" transform="translate(-371.077 -188.842)" fill="#ffd4d4"/>
      <path id="Path_3003" data-name="Path 3003" d="M397.96,240.691l-3.755-2.168a.643.643,0,0,1-.274-.666h0a.313.313,0,0,1,.481-.23l3.755,2.168a.643.643,0,0,1,.275.666h0A.313.313,0,0,1,397.96,240.691Z" transform="translate(-384.148 -217.414)" fill="#ffd4d4"/>
      <path id="Path_3004" data-name="Path 3004" d="M373.737,211.937l-.9-.521a.643.643,0,0,1-.275-.666h0a.313.313,0,0,1,.482-.23l.9.521a.643.643,0,0,1,.275.666h0A.313.313,0,0,1,373.737,211.937Z" transform="translate(-368.936 -198.119)" fill="#ffd4d4"/>
      <path id="Path_3005" data-name="Path 3005" d="M370.948,225.095l-1.12-.647a.644.644,0,0,1-.275-.667h0a.313.313,0,0,1,.481-.23l1.121.647a.643.643,0,0,1,.274.666h0A.313.313,0,0,1,370.948,225.095Z" transform="translate(-366.795 -207.395)" fill="#ffd4d4"/>
      <path id="Path_3006" data-name="Path 3006" d="M381.544,231.213l-2.954-1.706a.644.644,0,0,1-.275-.666h0a.313.313,0,0,1,.482-.23l2.954,1.706a.643.643,0,0,1,.275.666h0A.313.313,0,0,1,381.544,231.213Z" transform="translate(-373.033 -210.996)" fill="#ffd4d4"/>
      <path id="Path_3007" data-name="Path 3007" d="M370.447,232.19l-2.124-1.226a.644.644,0,0,1-.274-.667h0a.313.313,0,0,1,.481-.23l2.124,1.226a.644.644,0,0,1,.275.666h0A.313.313,0,0,1,370.447,232.19Z" transform="translate(-365.724 -212.033)" fill="#ffd4d4"/>
      <path id="Path_3008" data-name="Path 3008" d="M415.043,250.585l-1.364-.788a.643.643,0,0,1-.275-.666h0a.313.313,0,0,1,.482-.23l1.364.788a.643.643,0,0,1,.275.666h0A.313.313,0,0,1,415.043,250.585Z" transform="translate(-398.009 -225.439)" fill="#ffd4d4"/>
      <path id="Path_3009" data-name="Path 3009" d="M389.592,206.322l-3.755-2.168a.643.643,0,0,1-.275-.666h0a.313.313,0,0,1,.482-.23l3.755,2.168a.644.644,0,0,1,.275.666h0A.313.313,0,0,1,389.592,206.322Z" transform="translate(-378.191 -192.95)" fill="#ffd4d4"/>
      <path id="Path_3010" data-name="Path 3010" d="M383.891,195.646l-6.544-3.778a.643.643,0,0,1-.275-.666h0a.313.313,0,0,1,.482-.23l6.544,3.778a.643.643,0,0,1,.275.666h0A.313.313,0,0,1,383.891,195.646Z" transform="translate(-372.148 -184.204)" fill="#ffd4d4"/>
      <path id="Path_3011" data-name="Path 3011" d="M378.094,207.068l-3.755-2.168a.643.643,0,0,1-.275-.666h0a.313.313,0,0,1,.482-.23l3.755,2.168a.644.644,0,0,1,.275.666h0A.313.313,0,0,1,378.094,207.068Z" transform="translate(-370.007 -193.481)" fill="#ffd4d4"/>
      <path id="Path_3012" data-name="Path 3012" d="M405.377,215.435l-1.364-.788a.643.643,0,0,1-.275-.666h0a.313.313,0,0,1,.482-.23l1.364.788a.644.644,0,0,1,.275.667h0A.313.313,0,0,1,405.377,215.435Z" transform="translate(-391.129 -200.419)" fill="#ffd4d4"/>
      <path id="Path_3013" data-name="Path 3013" d="M375.844,220.538l-4.513-2.606a.644.644,0,0,1-.275-.667h0a.313.313,0,0,1,.481-.23l4.513,2.606a.643.643,0,0,1,.275.666h0A.313.313,0,0,1,375.844,220.538Z" transform="translate(-367.865 -202.757)" fill="#ffd4d4"/>
      <path id="Path_3014" data-name="Path 3014" d="M378.666,170.476l-3.318-1.916a.644.644,0,0,1-.274-.667h0a.313.313,0,0,1,.481-.23l3.318,1.916a.644.644,0,0,1,.275.666h0A.313.313,0,0,1,378.666,170.476Z" transform="translate(-370.725 -167.614)" fill="#ffd4d4"/>
      <path id="Path_3015" data-name="Path 3015" d="M364.15,235.939l-3.843-2.219a.643.643,0,0,1-.275-.666h0a.313.313,0,0,1,.482-.23l3.843,2.219a.643.643,0,0,1,.275.666h0A.313.313,0,0,1,364.15,235.939Z" transform="translate(-360.018 -213.995)" fill="#ffd4d4"/>
    </g>
    <path id="Path_3016" data-name="Path 3016" d="M397.073,137.3l2.981-12.473-5.236-3.759a46.4,46.4,0,0,0-8.186-4.726l-5.545-2.465-2.981,12.474s-2.481,8.975,6.129,19.512C395.183,146.613,397.073,137.3,397.073,137.3Z" transform="translate(-23.951 -51.024)" fill="#eab2b2"/>
    <g id="Group_1046" data-name="Group 1046" transform="translate(344.126 50.45)">
      <path id="Path_3017" data-name="Path 3017" d="M371.413,79.305a54.507,54.507,0,0,0-9.625-5.557l-6.52-2.9-2.089.814,1.68.9-3.1,12.952s-2.917,10.552,7.206,22.941a17.993,17.993,0,0,0,5.128-.331l-.051.2,1.88-.735q.262-.1.514-.2l.04-.015h0a13.378,13.378,0,0,0,7.587-8.988l3.5-14.665Z" transform="translate(-349.285 -70.85)" fill="#d51b1b"/>
      <path id="Path_3018" data-name="Path 3018" d="M366.248,73.748l-6.519-2.9-2.089.814,1.68.9-1.123,4.7,11.622,7.557,10.122-.281,2.089-.814-6.156-4.42A54.507,54.507,0,0,0,366.248,73.748Z" transform="translate(-353.745 -70.85)" fill="#d51b1b"/>
      <path id="Path_3019" data-name="Path 3019" d="M369.321,77.216l2.1-.8a52.244,52.244,0,0,0-5.175-2.665l-6.519-2.9-2.089.814,1.68.9-.067.278C363.319,74.622,369.321,77.216,369.321,77.216Z" transform="translate(-353.745 -70.85)" fill="#f4695e"/>
      <path id="Path_3020" data-name="Path 3020" d="M390.052,86.916l-3.914,1.466,3.278,1.893,3.885-1.455Q391.692,87.8,390.052,86.916Z" transform="translate(-374.03 -82.286)" fill="#dc2623"/>
      <path id="Path_3021" data-name="Path 3021" d="M366.816,101.213l3.5-14.665-6.156-4.42a54.539,54.539,0,0,0-9.625-5.557l-6.52-2.9-3.5,14.665S341.6,98.89,351.722,111.28C364.594,112.167,366.816,101.213,366.816,101.213Z" transform="translate(-344.126 -72.859)" fill="#e9433b"/>
      <path id="Path_3022" data-name="Path 3022" d="M356.579,115.347a30.2,30.2,0,0,1-6.571-14.55,17.959,17.959,0,0,1,.124-6.362l3.062-12.808,4.723,2.1a53,53,0,0,1,9.335,5.391l5.265,3.78-3.25,13.6-.012.055a12.2,12.2,0,0,1-2.38,4.651C364.482,114.106,361.019,115.5,356.579,115.347Z" transform="translate(-348.166 -78.521)" fill="#d51b1b"/>
    </g>
    <g id="Group_1047" data-name="Group 1047" transform="translate(350.925 57.794)">
      <path id="Path_3023" data-name="Path 3023" d="M378.772,103.047a.753.753,0,0,0,.308.854.455.455,0,0,0,.679-.285.753.753,0,0,0-.308-.855A.455.455,0,0,0,378.772,103.047Z" transform="translate(-375.563 -100.861)" fill="#ff8a2c"/>
      <path id="Path_3024" data-name="Path 3024" d="M373.263,99.866a.753.753,0,0,0,.307.855.455.455,0,0,0,.679-.285.753.753,0,0,0-.307-.854A.455.455,0,0,0,373.263,99.866Z" transform="translate(-371.642 -98.597)" fill="#ff8a2c"/>
      <path id="Path_3025" data-name="Path 3025" d="M367.754,96.686a.753.753,0,0,0,.308.854.455.455,0,0,0,.679-.285.753.753,0,0,0-.308-.855A.455.455,0,0,0,367.754,96.686Z" transform="translate(-367.72 -96.333)" fill="#ff8a2c"/>
    </g>
  </g>
</svg>
