<svg xmlns="http://www.w3.org/2000/svg" xmlns:xlink="http://www.w3.org/1999/xlink" viewBox="0 0 72.707 92.823">
  <defs>
    <radialGradient id="radial-gradient" cx="0.5" cy="0.5" r="0.392" gradientTransform="translate(2.027 0.935) scale(1.277 1.277)" gradientUnits="objectBoundingBox">
      <stop offset="0" stop-color="#fa45c1"/>
      <stop offset="0.205" stop-color="#cb389d"/>
      <stop offset="0.668" stop-color="#571843"/>
      <stop offset="1"/>
    </radialGradient>
    <linearGradient id="linear-gradient" x1="0.649" y1="0.162" x2="0.236" y2="0.957" gradientUnits="objectBoundingBox">
      <stop offset="0" stop-color="#fff"/>
      <stop offset="1"/>
    </linearGradient>
    <linearGradient id="linear-gradient-2" x1="1.01" y1="0.5" x2="-0.006" y2="0.5" gradientUnits="objectBoundingBox">
      <stop offset="0" stop-color="#ffbb96"/>
      <stop offset="0.227" stop-color="#fffbc9"/>
      <stop offset="0.54" stop-color="#f9b673"/>
      <stop offset="0.651" stop-color="#f9b978"/>
      <stop offset="0.788" stop-color="#fbc287"/>
      <stop offset="0.939" stop-color="#fdd0a0"/>
      <stop offset="0.949" stop-color="#fed2a3"/>
    </linearGradient>
    <radialGradient id="radial-gradient-2" cx="0.5" cy="0.5" r="0.127" gradientTransform="translate(482.336 -4.189) scale(3.942 3.942)" gradientUnits="objectBoundingBox">
      <stop offset="0" stop-color="#f49587"/>
      <stop offset="0.116" stop-color="#bc7368"/>
      <stop offset="0.236" stop-color="#8b544c"/>
      <stop offset="0.359" stop-color="#603a35"/>
      <stop offset="0.483" stop-color="#3d2522"/>
      <stop offset="0.609" stop-color="#221513"/>
      <stop offset="0.735" stop-color="#0f0908"/>
      <stop offset="0.864" stop-color="#030202"/>
      <stop offset="1"/>
    </radialGradient>
    <linearGradient id="linear-gradient-3" y1="0.5" x2="1" y2="0.5" gradientUnits="objectBoundingBox">
      <stop offset="0.035" stop-color="#ffba78"/>
      <stop offset="0.395" stop-color="#fec986"/>
      <stop offset="1" stop-color="#feeca8"/>
    </linearGradient>
    <radialGradient id="radial-gradient-3" cx="0.5" cy="0.5" r="0.797" gradientTransform="translate(0.253) scale(0.495 1)" xlink:href="#radial-gradient-2"/>
    <linearGradient id="linear-gradient-4" x1="1.371" y1="0.811" x2="-0.525" y2="0.005" gradientUnits="objectBoundingBox">
      <stop offset="0.035" stop-color="#9d9eb3"/>
      <stop offset="0.581" stop-color="#d4d1d8"/>
      <stop offset="1" stop-color="#eeebf2"/>
    </linearGradient>
    <radialGradient id="radial-gradient-4" cx="-0.18" cy="1.058" r="0.857" gradientTransform="translate(-0.158) scale(1.315 1)" xlink:href="#radial-gradient-2"/>
    <radialGradient id="radial-gradient-5" cx="-0.549" cy="1.1" r="0.945" gradientTransform="translate(-2.392) scale(5.783 1)" xlink:href="#radial-gradient-2"/>
    <linearGradient id="linear-gradient-5" x1="0.621" y1="0.52" x2="-1.719" y2="0.119" xlink:href="#linear-gradient-4"/>
    <linearGradient id="linear-gradient-6" x1="0.971" y1="0.563" x2="-1.189" y2="0.242" xlink:href="#linear-gradient-4"/>
    <linearGradient id="linear-gradient-7" x1="1.285" y1="0.628" x2="-0.961" y2="0.261" gradientUnits="objectBoundingBox">
      <stop offset="0" stop-color="#ffe4a7"/>
      <stop offset="1"/>
    </linearGradient>
    <linearGradient id="linear-gradient-8" x1="1.755" y1="0.771" x2="-1.351" y2="0.119" xlink:href="#linear-gradient-7"/>
    <linearGradient id="linear-gradient-9" x1="0.807" y1="0.032" x2="0.097" y2="1.115" xlink:href="#linear-gradient"/>
    <linearGradient id="linear-gradient-10" x1="0.857" y1="-0.118" x2="-0.121" y2="1.572" xlink:href="#linear-gradient"/>
    <linearGradient id="linear-gradient-11" x1="1.344" y1="0.821" x2="-0.486" y2="-0.013" xlink:href="#linear-gradient-4"/>
    <radialGradient id="radial-gradient-6" cx="-0.18" cy="1.058" r="0.952" gradientTransform="translate(-0.092) scale(1.184 1)" xlink:href="#radial-gradient-2"/>
    <radialGradient id="radial-gradient-7" cx="-0.549" cy="1.1" r="1.03" gradientTransform="translate(-2.123) scale(5.246 1)" xlink:href="#radial-gradient-2"/>
    <linearGradient id="linear-gradient-12" x1="0.593" y1="0.518" x2="-1.457" y2="0.119" xlink:href="#linear-gradient-4"/>
    <linearGradient id="linear-gradient-13" x1="0.957" y1="0.566" x2="-1.14" y2="0.231" xlink:href="#linear-gradient-4"/>
    <linearGradient id="linear-gradient-14" x1="1.14" y1="0.621" x2="-0.755" y2="0.263" xlink:href="#linear-gradient-7"/>
    <linearGradient id="linear-gradient-15" x1="1.696" y1="0.779" x2="-1.268" y2="0.109" xlink:href="#linear-gradient-7"/>
    <linearGradient id="linear-gradient-16" x1="0.335" y1="0.172" x2="0.484" y2="0.59" xlink:href="#linear-gradient-7"/>
    <linearGradient id="linear-gradient-17" x1="1.042" y1="0.36" x2="-1.091" y2="1.043" xlink:href="#linear-gradient-7"/>
    <linearGradient id="linear-gradient-18" x1="0.207" y1="-0.004" x2="0.876" y2="0.936" gradientUnits="objectBoundingBox">
      <stop offset="0" stop-color="#bcbcd6"/>
      <stop offset="0.227" stop-color="#d4d1d8"/>
      <stop offset="0.54" stop-color="#9d9eb3"/>
      <stop offset="0.673" stop-color="#a1a2b8"/>
      <stop offset="0.839" stop-color="#afafc7"/>
      <stop offset="0.949" stop-color="#bcbcd6"/>
    </linearGradient>
    <linearGradient id="linear-gradient-19" x1="-3.346" y1="0.78" x2="-2.527" y2="-0.035" xlink:href="#linear-gradient-4"/>
    <radialGradient id="radial-gradient-8" cx="0.5" cy="0.5" r="0.424" gradientTransform="translate(-0.257) scale(1.514 1)" xlink:href="#linear-gradient"/>
    <linearGradient id="linear-gradient-20" x1="0.196" y1="-0.013" x2="0.862" y2="1.008" xlink:href="#linear-gradient-18"/>
    <linearGradient id="linear-gradient-21" x1="-6.494" y1="0.777" x2="-5.701" y2="-0.028" xlink:href="#linear-gradient-4"/>
    <radialGradient id="radial-gradient-9" cx="0.675" cy="0.362" r="0.443" gradientTransform="translate(7.318 -0.24) scale(1.448 0.956)" xlink:href="#linear-gradient"/>
    <radialGradient id="radial-gradient-10" cx="0.5" cy="0.5" r="0.676" gradientTransform="matrix(0.739, 0, 0, 0.739, 3.534, -18.281)" gradientUnits="objectBoundingBox">
      <stop offset="0" stop-color="#972a74"/>
      <stop offset="0.041" stop-color="#8a266a"/>
      <stop offset="0.194" stop-color="#601a49"/>
      <stop offset="0.35" stop-color="#3d112f"/>
      <stop offset="0.507" stop-color="#22091a"/>
      <stop offset="0.667" stop-color="#0f040b"/>
      <stop offset="0.829" stop-color="#030102"/>
      <stop offset="1"/>
    </radialGradient>
    <linearGradient id="linear-gradient-22" x1="0.398" y1="0.578" x2="1.795" y2="-0.444" gradientUnits="objectBoundingBox">
      <stop offset="0" stop-color="#fff"/>
      <stop offset="1" stop-color="#10054d"/>
    </linearGradient>
    <linearGradient id="linear-gradient-23" x1="-0.365" y1="0.841" x2="4.354" y2="-1.654" xlink:href="#linear-gradient-22"/>
  </defs>
  <g id="Security_icon" data-name="Security icon" transform="translate(-350.492 -35.717)">
    <ellipse id="Ellipse_13" data-name="Ellipse 13" cx="36.353" cy="46.412" rx="36.353" ry="46.412" transform="translate(350.492 35.717)" opacity="0.5" fill="url(#radial-gradient)" style="mix-blend-mode: color-dodge;isolation: isolate"/>
    <path id="Path_3281" data-name="Path 3281" d="M441.078,289.024l-26.565-15.29c-2.764-1.6-2.417-4.384.774-6.227h0c3.192-1.843,13.751-1.853,16.515-.257l26.565,15.29c2.764,1.6-3.313,4.194-6.505,6.037h0C448.671,290.42,443.843,290.62,441.078,289.024Z" transform="translate(-43.891 -169.524)" fill="url(#linear-gradient)" style="mix-blend-mode: multiply;isolation: isolate"/>
    <path id="Path_3282" data-name="Path 3282" d="M457.643,186.222l-41.116-15.334v30.494a2.684,2.684,0,0,0,1.6,2.656l27.8,16.1c2.408,1.391,6.616,1.216,9.4-.389h0a3.951,3.951,0,0,0,2.3-2.964l.014.005Z" transform="translate(-48.943 -99.625)" fill="url(#linear-gradient-2)"/>
    <ellipse id="Ellipse_14" data-name="Ellipse 14" cx="3.78" cy="14.902" rx="3.78" ry="14.902" transform="translate(395.946 90.082)" fill="url(#radial-gradient-2)" style="mix-blend-mode: color-dodge;isolation: isolate"/>
    <path id="Path_3283" data-name="Path 3283" d="M445.933,177.622l-27.8-16.1c-2.409-1.391-2.106-3.819.674-5.425h0c2.781-1.606,6.988-1.78,9.4-.389l27.8,16.1c2.409,1.391,2.107,3.819-.675,5.425h0C452.548,178.838,448.341,179.012,445.933,177.622Z" transform="translate(-48.941 -87.742)" fill="url(#linear-gradient-3)"/>
    <path id="Path_3284" data-name="Path 3284" d="M455.342,187.628h0c-2.781,1.606-6.988,1.78-9.4.389l-27.8-16.1a2.673,2.673,0,0,1-1.6-2.687c-.509,1.2-.053,2.448,1.424,3.3l27.8,16.1c2.409,1.391,6.616,1.216,9.4-.389h0a4.144,4.144,0,0,0,2.274-2.738A4.754,4.754,0,0,1,455.342,187.628Z" transform="translate(-48.822 -98.401)" fill="url(#radial-gradient-3)" style="mix-blend-mode: color-dodge;isolation: isolate"/>
    <g id="Group_1305" data-name="Group 1305" transform="translate(373.419 47.721)" opacity="0.3">
      <path id="Path_3285" data-name="Path 3285" d="M456.237,82.938h0a11.648,11.648,0,0,0-17.462,10.093v15.394h0c0,.009,0,.018,0,.027,0,1.229,1.712,2.226,3.823,2.226s3.823-1,3.823-2.226c0-.015,0-.029,0-.044h.041V94.661a4.936,4.936,0,0,1,7.4-4.28h0a12.309,12.309,0,0,1,6.176,10.673v19.605h.041c.042,1.209,1.734,2.181,3.82,2.181s3.8-.985,3.821-2.2h0V102.795A22.916,22.916,0,0,0,456.237,82.938Z" transform="translate(-438.775 -81.366)" fill="url(#linear-gradient-4)"/>
      <path id="Path_3286" data-name="Path 3286" d="M443.355,112.794h0v-14.6a10.888,10.888,0,0,1,10.876-10.876,10.7,10.7,0,0,1,5.4,1.467,21.97,21.97,0,0,1,3.081,2.147,22.009,22.009,0,0,0-4.659-3.593,10.7,10.7,0,0,0-5.4-1.467,10.888,10.888,0,0,0-10.876,10.876v14.6h0v.789c0,.018,0,.035,0,.053.022.463.638.957,1.579,1.22Z" transform="translate(-440.986 -84.683)" fill="url(#radial-gradient-4)" style="mix-blend-mode: color-dodge;isolation: isolate"/>
      <path id="Path_3287" data-name="Path 3287" d="M514.3,153.961h-.014V135.149a13.137,13.137,0,0,0-5.108-10.377,13.126,13.126,0,0,1,3.53,8.931v18.812h.014l.026.767c.016.46.633.957,1.57,1.224Z" transform="translate(-490.662 -113.357)" fill="url(#radial-gradient-5)" style="mix-blend-mode: color-dodge;isolation: isolate"/>
      <g id="Group_1303" data-name="Group 1303" transform="translate(3.173 2.038)">
        <path id="Path_3288" data-name="Path 3288" d="M457.139,101.817a6.265,6.265,0,0,0-6.258,6.258V124.03l-.039,1.369a5.385,5.385,0,0,0,2.191-.263l.04-1.369V107.812a6.269,6.269,0,0,1,4.423-5.983C457.377,101.822,457.258,101.817,457.139,101.817Z" transform="translate(-450.842 -98.477)" fill="url(#linear-gradient-5)"/>
        <path id="Path_3289" data-name="Path 3289" d="M479.467,90.513a10.185,10.185,0,0,0-5.14-1.4,9.963,9.963,0,0,0-2.25.264h.059a10.186,10.186,0,0,1,5.14,1.4,21.658,21.658,0,0,1,10.818,18.718v18.769l0,.1a5.8,5.8,0,0,0,2.192-.263l0-.1V109.231A21.659,21.659,0,0,0,479.467,90.513Z" transform="translate(-466.492 -89.117)" fill="url(#linear-gradient-6)"/>
      </g>
      <path id="Path_3290" data-name="Path 3290" d="M460.493,118.209v14.734c.865-.27,1.428-.737,1.452-1.177v-.011l.039-.847V117.946a5.742,5.742,0,0,1,4-5.463A5.739,5.739,0,0,0,460.493,118.209Z" transform="translate(-454.782 -104.3)" opacity="0.5" fill="url(#linear-gradient-7)" style="mix-blend-mode: screen;isolation: isolate"/>
      <g id="Group_1304" data-name="Group 1304" transform="translate(15.083 1.639)" opacity="0.5" style="mix-blend-mode: screen;isolation: isolate">
        <path id="Path_3291" data-name="Path 3291" d="M498.607,88.651a11.044,11.044,0,0,0-2.478-1.053,24.276,24.276,0,0,1,11.784,20.775v18.473c1.043-.252,1.739-.784,1.747-1.276l0-.1V107.778A22.132,22.132,0,0,0,498.607,88.651Z" transform="translate(-496.129 -87.598)" fill="url(#linear-gradient-8)"/>
      </g>
    </g>
    <ellipse id="Ellipse_15" data-name="Ellipse 15" cx="4.448" cy="2.59" rx="4.448" ry="2.59" transform="translate(373.419 69.412)" fill="url(#linear-gradient-9)" style="mix-blend-mode: multiply;isolation: isolate"/>
    <ellipse id="Ellipse_16" data-name="Ellipse 16" cx="4.321" cy="2.516" rx="4.321" ry="2.516" transform="translate(394.711 81.648)" fill="url(#linear-gradient-10)" style="mix-blend-mode: multiply;isolation: isolate"/>
    <g id="Group_1308" data-name="Group 1308" transform="translate(373.419 47.678)">
      <path id="Path_3292" data-name="Path 3292" d="M456.237,82.772h0a11.648,11.648,0,0,0-17.462,10.093V105.5h0c0,.009,0,.018,0,.027,0,1.23,1.712,2.226,3.823,2.226s3.823-1,3.823-2.226c0-.015,0-.029,0-.044h.041V94.494a4.936,4.936,0,0,1,7.4-4.279h0a12.309,12.309,0,0,1,6.176,10.672v16.844h.041c.042,1.209,1.734,2.181,3.82,2.181s3.8-.985,3.821-2.2h0v-15.08A22.916,22.916,0,0,0,456.237,82.772Z" transform="translate(-438.775 -81.199)" fill="url(#linear-gradient-11)"/>
      <path id="Path_3293" data-name="Path 3293" d="M443.355,109.866h0V98.022a10.888,10.888,0,0,1,10.876-10.876,10.7,10.7,0,0,1,5.4,1.467,21.991,21.991,0,0,1,3.081,2.147,22.009,22.009,0,0,0-4.659-3.593,10.7,10.7,0,0,0-5.4-1.467,10.888,10.888,0,0,0-10.876,10.876v11.844h0v.789q0,.026,0,.053c.022.462.638.957,1.579,1.22Z" transform="translate(-440.986 -84.516)" fill="url(#radial-gradient-6)" style="mix-blend-mode: color-dodge;isolation: isolate"/>
      <path id="Path_3294" data-name="Path 3294" d="M514.3,151.033h-.014v-16.05a13.136,13.136,0,0,0-5.108-10.377,13.125,13.125,0,0,1,3.53,8.931v16.05h.014l.026.767c.016.46.633.957,1.57,1.224Z" transform="translate(-490.662 -113.191)" fill="url(#radial-gradient-7)" style="mix-blend-mode: color-dodge;isolation: isolate"/>
      <g id="Group_1306" data-name="Group 1306" transform="translate(4.138 2.038)">
        <path id="Path_3295" data-name="Path 3295" d="M460.806,100.983a6.265,6.265,0,0,0-6.258,6.258v13.193l-.039,1.369a5.376,5.376,0,0,0,2.191-.263l.039-1.369V106.978A6.269,6.269,0,0,1,461.163,101C461.044,100.988,460.926,100.983,460.806,100.983Z" transform="translate(-454.509 -97.819)" fill="url(#linear-gradient-12)"/>
        <path id="Path_3296" data-name="Path 3296" d="M479.467,90.346a10.185,10.185,0,0,0-5.14-1.4,9.963,9.963,0,0,0-2.25.264h.059a10.186,10.186,0,0,1,5.14,1.4,21.659,21.659,0,0,1,10.818,18.718v16.008l0,.1a5.8,5.8,0,0,0,2.192-.263l0-.1V109.064A21.659,21.659,0,0,0,479.467,90.346Z" transform="translate(-467.456 -88.95)" fill="url(#linear-gradient-13)"/>
      </g>
      <path id="Path_3297" data-name="Path 3297" d="M460.493,118.043v11.973c.865-.27,1.428-.737,1.452-1.177v-.011l.039-.847v-10.2a5.742,5.742,0,0,1,4-5.463A5.738,5.738,0,0,0,460.493,118.043Z" transform="translate(-454.782 -104.134)" opacity="0.5" fill="url(#linear-gradient-14)" style="mix-blend-mode: screen;isolation: isolate"/>
      <g id="Group_1307" data-name="Group 1307" transform="translate(15.083 1.639)" opacity="0.5" style="mix-blend-mode: screen;isolation: isolate">
        <path id="Path_3298" data-name="Path 3298" d="M498.607,88.485a11.03,11.03,0,0,0-2.478-1.053,24.276,24.276,0,0,1,11.784,20.775v15.712c1.043-.252,1.739-.785,1.747-1.276l0-.1v-14.93A22.132,22.132,0,0,0,498.607,88.485Z" transform="translate(-496.129 -87.432)" fill="url(#linear-gradient-15)"/>
      </g>
      <path id="Path_3299" data-name="Path 3299" d="M455.687,87.559a12.091,12.091,0,0,1,5.686,1.426,21.5,21.5,0,0,0-2.107-1.389,10.185,10.185,0,0,0-5.14-1.4,10.373,10.373,0,0,0-10.35,10.35v.028A12.5,12.5,0,0,1,455.687,87.559Z" transform="translate(-442.46 -84.885)" fill="url(#linear-gradient-16)" style="mix-blend-mode: screen;isolation: isolate"/>
      <path id="Path_3300" data-name="Path 3300" d="M488.036,117.34a13.428,13.428,0,0,0-3.593-11.087c-3.33-3.514-7.342-4.426-9.453-1.055a6.206,6.206,0,0,1,6.21.012,13.658,13.658,0,0,1,6.836,11.812Z" transform="translate(-465.466 -97.335)" fill="url(#linear-gradient-17)" style="mix-blend-mode: screen;isolation: isolate"/>
    </g>
    <g id="Group_1310" data-name="Group 1310" transform="translate(372.275 82.652)" style="mix-blend-mode: screen;isolation: isolate">
      <g id="Group_1309" data-name="Group 1309" transform="translate(4.969 6.663)">
        <path id="Path_3301" data-name="Path 3301" d="M460.058,265.455a13.937,13.937,0,0,1-6.325-10.91,7.385,7.385,0,0,1,.081-1.112l-.406-.316a7.816,7.816,0,0,0-.088,1.189,14.867,14.867,0,0,0,6.738,11.621,6.851,6.851,0,0,0,2.215.848l-.14-.523A6.458,6.458,0,0,1,460.058,265.455Z" transform="translate(-453.32 -249.544)" fill="#eca30a" opacity="0.6"/>
        <path id="Path_3302" data-name="Path 3302" d="M483.176,247.586l.263-.208a13.378,13.378,0,0,0-4.168-4.147v.474A12.56,12.56,0,0,1,483.176,247.586Z" transform="translate(-472.447 -242.258)" fill="#eca30a" opacity="0.6"/>
        <path id="Path_3303" data-name="Path 3303" d="M460.3,240.874V240.4c-3.242-1.82-5.936-.684-6.522,2.517l.406.316C454.733,240.23,457.255,239.168,460.3,240.874Z" transform="translate(-453.656 -239.531)" fill="#eca30a"/>
        <path id="Path_3304" data-name="Path 3304" d="M494.91,259.818l-.264.208a13.133,13.133,0,0,1,2.195,6.762,5.43,5.43,0,0,1-.8,3.074l.354.439a5.763,5.763,0,0,0,.86-3.277A14,14,0,0,0,494.91,259.818Z" transform="translate(-483.779 -254.483)" fill="#eca30a"/>
        <path id="Path_3305" data-name="Path 3305" d="M487.481,299.73l.14.523a3.435,3.435,0,0,0,3.4-1.31l-.354-.439A3.218,3.218,0,0,1,487.481,299.73Z" transform="translate(-478.497 -282.995)" fill="#eca30a" opacity="0.3"/>
      </g>
      <path id="Path_3306" data-name="Path 3306" d="M505.044,266.165a18.26,18.26,0,0,0-2.535-7.7l-.444.254a17.614,17.614,0,0,1,2.353,7.149Z" transform="translate(-484.276 -246.822)" fill="#eca30a"/>
      <path id="Path_3307" data-name="Path 3307" d="M493,293.574c1.187-1.26,1.749-3.329,1.586-5.834l-.627-.3c.18,2.81-.63,5.121-2.429,6.147a4.84,4.84,0,0,1-3.676.341l.161.785A4.872,4.872,0,0,0,493,293.574Z" transform="translate(-473.804 -268.179)" fill="#eca30a" opacity="0.5"/>
      <path id="Path_3308" data-name="Path 3308" d="M448.057,243.173c-3.272-5.644-3.272-11.754,0-13.62a4.065,4.065,0,0,1,1.047-.415l-.362-.8a4.3,4.3,0,0,0-2.927,2.354c-1.6,3.008-.876,8.125,1.8,12.732a21.269,21.269,0,0,0,2.485,3.449l.264-.5A19.776,19.776,0,0,1,448.057,243.173Z" transform="translate(-442.2 -224.617)" fill="#eca30a" opacity="0.5"/>
      <path id="Path_3309" data-name="Path 3309" d="M465.341,297.628l-.264.5a12.923,12.923,0,0,0,5.975,4.05l-.162-.786A12.61,12.61,0,0,1,465.341,297.628Z" transform="translate(-457.016 -275.687)" fill="#eca30a"/>
      <path id="Path_3310" data-name="Path 3310" d="M470.836,235.894l.445-.253a19.227,19.227,0,0,0-5.525-6.134,7.922,7.922,0,0,0-5.887-1.6l.362.8C463.472,228.033,467.935,230.964,470.836,235.894Z" transform="translate(-453.178 -224.221)" fill="#eca30a"/>
      <path id="Path_3311" data-name="Path 3311" d="M452.994,232.488a6.637,6.637,0,0,1,2.737.66l.049.668a6.13,6.13,0,0,0-2.448-.565,3.9,3.9,0,0,0-1.783.408l-.43-.742a4.085,4.085,0,0,1,1.875-.429Zm-2.183.606.43.742a5,5,0,0,0-2.014,4.017,13.294,13.294,0,0,0,1.2,6.081l-.415.094c-2.082-4.754-1.746-9.316.8-10.934Zm5.318.249a16.023,16.023,0,0,1,6.128,6.218,18.178,18.178,0,0,1,2.017,5.055l-.505-.136a16.641,16.641,0,0,0-1.868-4.718A14.651,14.651,0,0,0,456.177,234l-.048-.661Zm-5.508,11.019c.225.483.473.958.737,1.413,2.258,3.9,5.7,6.513,8.571,6.513a3.852,3.852,0,0,0,1.934-.49,3.8,3.8,0,0,0,1.385-1.391l.539.6a3.89,3.89,0,0,1-3.52,2.044,8.391,8.391,0,0,1-4.805-1.908A17.366,17.366,0,0,1,451,245.976c-.284-.49-.551-1-.794-1.521l.414-.094Zm13.24.576.509.138a9.272,9.272,0,0,1-.4,5.589l-.535-.6a8.459,8.459,0,0,0,.43-5.131Zm-10.867-12.551a4.158,4.158,0,0,0-2.015.49l.531.917a3.774,3.774,0,0,1,1.822-.442,6.167,6.167,0,0,1,2.561.626l-.065-.9a6.812,6.812,0,0,0-2.834-.694Zm-2.148.566c-2.725,1.63-3.022,6.382-.89,11.192l.616-.139c-1.926-4.355-1.658-8.655.807-10.136l-.532-.917Zm5.168.219.065.9a14.443,14.443,0,0,1,5.733,5.744,16.412,16.412,0,0,1,1.869,4.749l.726.2a18.083,18.083,0,0,0-2.064-5.247,15.915,15.915,0,0,0-6.33-6.338Zm-5.336,11.073-.616.139c.252.549.535,1.1.851,1.643,2.526,4.358,6.323,7.125,9.354,7.125a4,4,0,0,0,3.644-2.159l-.681-.758a3.624,3.624,0,0,1-3.3,1.951c-2.749,0-6.192-2.509-8.484-6.462-.284-.49-.539-.985-.767-1.479Zm13.053.553a8.38,8.38,0,0,1-.422,5.288l.681.758a9.243,9.243,0,0,0,.466-5.85l-.726-.2Z" transform="translate(-444.837 -227.603)" fill="#eca30a" opacity="0.3"/>
      <path id="Path_3312" data-name="Path 3312" d="M442.164,217.166l-1.057-2.957c-.165,0-.334-.019-.5-.012l1.035,2.962C441.814,217.149,441.99,217.159,442.164,217.166Zm-5.282,4.775-2.275-1.711c-.033.187-.058.381-.083.575l2.271,1.739C436.818,222.339,436.846,222.136,436.881,221.941Zm6.2-4.677-.838-2.944c-.173-.029-.347-.063-.516-.081l.812,2.94C442.719,217.2,442.9,217.231,443.083,217.264Zm4.334,1.979c.191.138.382.28.57.429l.347-2.41c-.18-.141-.361-.276-.543-.409Zm-.991-.656q.29.174.575.365l.107-2.575q-.273-.181-.549-.349Zm-1.1-3.24.107,2.7q.285.138.575.3l-.134-2.713Q445.6,215.482,445.325,215.347Zm-7.443,3.958-2.061-2.377c-.087.134-.159.287-.239.43l2.045,2.394C437.71,219.6,437.789,219.444,437.881,219.305Zm11.655-1.026c-.175-.16-.354-.311-.532-.464l-.609,2.2c.187.159.375.318.558.486Zm-12.089,1.8-2.153-2.175c-.069.154-.127.321-.189.483l2.144,2.2C437.313,220.418,437.374,220.243,437.448,220.083Zm3.84-2.881-1.265-2.938c-.156.021-.315.034-.466.065l1.245,2.947C440.96,217.241,441.124,217.221,441.288,217.2Zm-4.174,3.764-2.226-1.953c-.051.171-.093.352-.136.532l2.219,1.979C437.015,221.334,437.06,221.145,437.115,220.966Zm3.353-3.6-1.46-2.887c-.145.045-.291.089-.43.144l1.44,2.9C440.163,217.464,440.314,217.415,440.467,217.37Zm-1.448.724-1.8-2.692c-.119.092-.23.194-.342.3l1.782,2.7A4.665,4.665,0,0,1,439.019,218.093Zm-.611.547-1.942-2.55c-.1.114-.195.244-.291.367l1.924,2.562C438.2,218.889,438.3,218.758,438.408,218.64Zm5.692-3.823.347,2.81c.188.068.378.146.57.229l-.373-2.821C444.461,214.959,444.279,214.884,444.1,214.817Zm9.033,11.069,1.62-.945q-.191-.338-.389-.67l-1.639.913Q452.935,225.531,453.133,225.886Zm2.051,5.057,2.144.277c-.062-.234-.119-.467-.189-.7l-2.153-.311C455.059,230.453,455.12,230.7,455.183,230.943Zm.279,1.256,2.219.583c-.043-.23-.086-.459-.137-.69l-2.226-.617C455.373,231.718,455.418,231.959,455.462,232.2Zm.177,1.225,2.271.883c-.024-.223-.051-.447-.083-.671l-2.274-.915C455.587,232.956,455.615,233.191,455.639,233.424Zm-2.914,7.631,1.639,2.8q.2-.1.389-.221l-1.62-2.816A4.425,4.425,0,0,1,452.725,241.055ZM439.3,232.837l-1.62.945c.127.226.256.448.389.67l1.639-.913Q439.5,233.192,439.3,232.837Zm.408-15.169-1.639-2.8q-.2.1-.389.222l1.62,2.815A4.433,4.433,0,0,1,439.708,217.668Zm11.923,5.86,1.245-1.51c-.151-.205-.31-.4-.466-.6l-1.265,1.477C451.309,223.1,451.473,223.311,451.631,223.528Zm.784,1.154,1.441-1.234c-.14-.217-.285-.428-.43-.641l-1.46,1.2C452.119,224.231,452.27,224.454,452.415,224.682Zm-2.524-3.261.812-2c-.169-.177-.343-.344-.516-.515l-.838,1.977C449.531,221.059,449.715,221.234,449.891,221.421Zm.9,1.014,1.035-1.767c-.161-.192-.33-.373-.5-.56l-1.057,1.737C450.444,222.041,450.619,222.233,450.787,222.436Zm3.548,5.958,1.924-.341c-.1-.235-.188-.47-.291-.7l-1.942.308C454.135,227.9,454.234,228.147,454.334,228.394Zm-.56-1.266,1.781-.646c-.112-.232-.223-.463-.342-.691l-1.8.614C453.539,226.644,453.658,226.885,453.775,227.128Zm1.032,2.542,2.045-.032c-.079-.235-.151-.471-.238-.706l-2.061,0C454.644,229.176,454.724,229.423,454.806,229.67ZM442.9,214.446l.583,2.891c.183.043.371.1.558.158l-.609-2.9C443.25,214.543,443.072,214.488,442.9,214.446Zm3.529,25.932.134,2.713c.184.1.367.2.549.285l-.107-2.7C446.811,240.585,446.619,240.485,446.426,240.379Zm6.988.252,1.8,2.692c.119-.092.23-.194.342-.3l-1.781-2.7A4.619,4.619,0,0,1,453.414,240.631Zm-3.144.927,1.057,2.958c.165,0,.335.019.5.012l-1.035-2.963C450.619,241.574,450.444,241.564,450.27,241.558Zm1.7-.2,1.46,2.888c.145-.045.29-.089.43-.145l-1.441-2.9A4.66,4.66,0,0,1,451.966,241.354Zm-4.549-.487.373,2.821c.182.077.364.153.543.219l-.347-2.811C447.8,241.028,447.609,240.95,447.417,240.867Zm.979.362.609,2.9c.178.053.357.108.532.15l-.583-2.891C448.771,241.344,448.583,241.287,448.4,241.229Zm.954.231.838,2.944c.173.029.347.063.516.081l-.813-2.94C449.714,241.528,449.531,241.492,449.35,241.46Zm1.795.062,1.265,2.938c.156-.021.315-.033.466-.065l-1.245-2.948C451.473,241.483,451.309,241.5,451.144,241.522Zm4.539-5.794,2.3,1.45q.021-.3.028-.614l-2.3-1.479Q455.706,235.414,455.683,235.728Zm-.131,1.055,2.274,1.711c.033-.187.059-.38.083-.575l-2.271-1.739C455.615,236.386,455.587,236.588,455.552,236.783Zm-1.527,3.3,1.942,2.55c.1-.114.195-.243.291-.367l-1.924-2.563C454.234,239.834,454.135,239.965,454.025,240.083Zm1.688-5.479,2.3,1.173q-.007-.321-.028-.646l-2.3-1.2C455.7,234.154,455.708,234.38,455.712,234.6Zm-.394,3.154,2.226,1.954c.051-.172.093-.352.137-.532l-2.219-1.98C455.418,237.39,455.373,237.579,455.319,237.758Zm-.767,1.661,2.061,2.378c.087-.134.159-.287.238-.431l-2.045-2.394C454.724,239.124,454.644,239.279,454.552,239.419Zm.434-.778,2.153,2.176c.07-.154.127-.321.189-.483l-2.144-2.2C455.12,238.306,455.059,238.481,454.986,238.641ZM440.8,235.2l-1.245,1.51c.151.206.31.4.466.6l1.265-1.477C441.124,235.622,440.96,235.413,440.8,235.2Zm-3.175-6.143-2.045.033c.079.235.152.471.239.706l2.061,0C437.789,229.548,437.71,229.3,437.627,229.053Zm.472,1.276-1.924.342c.1.235.188.47.291.7l1.942-.307C438.3,230.823,438.2,230.577,438.1,230.33Zm-.849-2.549-2.144-.277c.062.234.12.468.189.7l2.153.311C437.374,228.271,437.313,228.026,437.25,227.781Zm-.456-2.481-2.271-.883c.025.223.051.447.083.671l2.275.916C436.846,225.767,436.818,225.533,436.794,225.3Zm.177,1.225-2.219-.583c.043.23.085.459.136.69l2.226.617C437.06,227.006,437.015,226.765,436.971,226.524Zm8.354,15.823c.182.121.365.236.549.349l.134-2.559c-.194-.117-.385-.238-.575-.366ZM438.659,231.6l-1.782.647c.112.231.224.462.342.691l1.8-.614C438.894,232.081,438.775,231.839,438.659,231.6Zm-1.938-7.477-2.3-1.172q.008.321.028.646l2.3,1.2C436.734,224.569,436.725,224.344,436.721,224.119Zm3.3,9.922-1.44,1.234c.14.217.285.428.43.641l1.46-1.2C440.314,234.493,440.163,234.27,440.018,234.042Zm2.879,6.4c.175.16.354.311.532.464l.609-2.2c-.187-.159-.375-.318-.558-.487Zm1.2,1.017c.18.141.361.276.543.409l.373-2.39c-.191-.138-.382-.28-.57-.429Zm-1.557-4.159-.812,2c.169.177.343.344.516.515l.838-1.977C442.9,237.664,442.719,237.489,442.542,237.3Zm-.9-1.015-1.035,1.767c.161.193.33.373.5.56l1.057-1.737C441.99,236.683,441.814,236.49,441.646,236.288ZM436.75,223l-2.3-1.45q-.02.3-.028.614l2.3,1.479C436.725,223.42,436.734,223.205,436.75,223Z" transform="translate(-434.424 -214.195)" fill="#eca30a" opacity="0.3"/>
      <path id="Path_3313" data-name="Path 3313" d="M447.417,219.435c.191.138.382.28.57.429l.347-2.41c-.18-.141-.361-.276-.543-.409Zm-6.129-2.041-1.265-2.938c-.156.021-.315.034-.466.065l1.245,2.947C440.96,217.433,441.124,217.413,441.288,217.393Zm-4.174,3.764-2.226-1.953c-.051.171-.093.352-.136.532l2.219,1.979C437.015,221.525,437.06,221.336,437.115,221.157Zm1.294-2.325-1.942-2.55c-.1.114-.195.244-.291.367l1.924,2.562C438.2,219.081,438.3,218.95,438.408,218.832Zm5.692-3.823.347,2.81c.188.068.378.146.57.229l-.373-2.821C444.461,215.151,444.279,215.075,444.1,215.009Zm11.363,17.382,2.219.583c-.043-.23-.086-.459-.137-.69l-2.226-.617C455.373,231.91,455.418,232.151,455.462,232.391Zm-3.047-7.517,1.441-1.234c-.14-.217-.285-.428-.43-.641l-1.46,1.2C452.119,224.423,452.27,224.646,452.415,224.874Zm-2.524-3.261.812-2c-.169-.177-.343-.344-.516-.515l-.838,1.977C449.531,221.251,449.715,221.426,449.891,221.613Zm3.883,5.706,1.781-.646c-.112-.232-.223-.463-.342-.691l-1.8.614C453.539,226.835,453.658,227.077,453.775,227.319Zm-5.379,14.1.609,2.9c.178.053.357.108.532.15l-.583-2.891C448.771,241.535,448.583,241.478,448.4,241.421Zm2.749.293,1.265,2.939c.156-.021.315-.033.466-.065l-1.245-2.948C451.473,241.674,451.309,241.694,451.144,241.714Zm4.539-5.794,2.3,1.45q.021-.3.028-.614l-2.3-1.48Q455.706,235.605,455.683,235.92Zm-1.658,4.355,1.942,2.55c.1-.114.195-.244.291-.367l-1.924-2.563C454.234,240.026,454.135,240.157,454.025,240.275Zm.961-1.442,2.153,2.176c.07-.154.127-.321.189-.483l-2.144-2.2C455.12,238.5,455.059,238.673,454.986,238.833Zm-17.736-10.86-2.144-.277c.062.234.12.468.189.7l2.153.311C437.374,228.462,437.313,228.218,437.25,227.972Zm8.075,14.566c.182.121.365.236.549.349l.134-2.559c-.194-.117-.385-.238-.575-.366Zm-6.666-10.751-1.782.647c.112.231.224.462.342.691l1.8-.614C438.894,232.272,438.775,232.031,438.659,231.788Zm3.883,5.707-.812,2c.169.177.343.344.516.515l.838-1.977C442.9,237.856,442.719,237.681,442.542,237.494Zm-5.792-14.307-2.3-1.45q-.02.3-.028.614l2.3,1.48C436.725,223.612,436.734,223.4,436.75,223.188Z" transform="translate(-434.424 -214.387)" fill="#eca30a" opacity="0.5"/>
    </g>
    <g id="Group_1313" data-name="Group 1313" transform="translate(372.423 86.518)">
      <ellipse id="Ellipse_17" data-name="Ellipse 17" cx="5.686" cy="9.848" rx="5.686" ry="9.848" transform="translate(1.586 5.739) rotate(-30.311)" fill="#eca30a" style="mix-blend-mode: screen;isolation: isolate"/>
      <path id="Path_3314" data-name="Path 3314" d="M464.908,252.568c0,2.075-.716,3.544-1.88,4.255-.035.022-1.337.824-1.373.844-1.211.677-.437-.859-2.276-1.921a14.767,14.767,0,0,1-6.7-11.559c0-2.1-1.942-2.117-.752-2.818.033-.019,1.569-.858,1.6-.877,1.208-.654,2.858-.534,4.678.517A14.766,14.766,0,0,1,464.908,252.568Z" transform="translate(-447.187 -237.145)" fill="url(#linear-gradient-18)"/>
      <ellipse id="Ellipse_18" data-name="Ellipse 18" cx="5.455" cy="9.448" rx="5.455" ry="9.448" transform="translate(0 7.048) rotate(-30.311)" fill="url(#linear-gradient-19)"/>
      <path id="Path_3315" data-name="Path 3315" d="M459.4,243.815c-1.774-1.024-3.386-1.162-4.585-.563a5.274,5.274,0,0,1,4.006.788,14.767,14.767,0,0,1,6.7,11.559c0,2.211-.814,3.733-2.116,4.384,1.636-.458,2.7-2.085,2.7-4.609A14.767,14.767,0,0,0,459.4,243.815Z" transform="translate(-449.601 -239.214)" fill="url(#radial-gradient-8)" style="mix-blend-mode: color-dodge;isolation: isolate"/>
      <g id="Group_1311" data-name="Group 1311" transform="translate(2.918 4.396)" style="mix-blend-mode: multiply;isolation: isolate">
        <path id="Path_3316" data-name="Path 3316" d="M481.256,260.629l-.613.716c.065.083.131.167.195.253l.6-.731c-.05-.067-.1-.133-.153-.2Z" transform="translate(-471.555 -256.68)" fill="#9d9eb3"/>
        <path id="Path_3317" data-name="Path 3317" d="M479.532,258.172c-.049-.057-.1-.113-.15-.169l-.042-.048-.514.843.024.027c.06.067.121.135.18.2Z" transform="translate(-470.216 -254.709)" fill="#9d9eb3"/>
        <path id="Path_3318" data-name="Path 3318" d="M479.453,303.575l.1,0-.523-1.5c-.054,0-.107,0-.162,0l.534,1.492Z" transform="translate(-470.246 -287.231)" fill="#9d9eb3"/>
        <path id="Path_3319" data-name="Path 3319" d="M477.52,255.679c-.058-.06-.117-.118-.176-.176l-.02-.02-.408.963.037.036c.058.056.115.112.172.17Z" transform="translate(-468.808 -252.888)" fill="#9d9eb3"/>
        <path id="Path_3320" data-name="Path 3320" d="M483.235,302.857l-.731-1.471c-.048.018-.095.034-.138.047l.741,1.466C483.15,302.886,483.193,302.873,483.235,302.857Z" transform="translate(-472.825 -286.719)" fill="#9d9eb3"/>
        <path id="Path_3321" data-name="Path 3321" d="M481.347,303.38l.109-.014-.631-1.493c-.049.009-.1.017-.15.023l.641,1.488Z" transform="translate(-471.578 -287.077)" fill="#9d9eb3"/>
        <path id="Path_3322" data-name="Path 3322" d="M483.054,263.48l-.706.581c.061.09.123.18.181.271l.7-.6c-.056-.085-.113-.169-.169-.252Z" transform="translate(-472.811 -258.781)" fill="#9d9eb3"/>
        <path id="Path_3323" data-name="Path 3323" d="M477.423,303.409l.118.02-.408-1.478c-.057-.007-.116-.017-.173-.027l.42,1.478Z" transform="translate(-468.841 -287.115)" fill="#9d9eb3"/>
        <path id="Path_3324" data-name="Path 3324" d="M489.963,288.881c0,.076-.006.149-.011.22l1.14.718c0-.068.006-.136.008-.206Z" transform="translate(-478.416 -277.502)" fill="#9d9eb3"/>
        <path id="Path_3325" data-name="Path 3325" d="M470.928,301.132c.062.033.123.066.185.1l-.053-1.337q-.1-.047-.2-.1Z" transform="translate(-464.346 -285.542)" fill="#9d9eb3"/>
        <path id="Path_3326" data-name="Path 3326" d="M470.917,249.547l-.066,1.261c.068.042.136.084.2.128l.052-1.268C471.044,249.627,470.98,249.587,470.917,249.547Z" transform="translate(-464.338 -248.512)" fill="#9d9eb3"/>
        <path id="Path_3327" data-name="Path 3327" d="M475.45,302.983l-.291-1.447c-.059-.015-.119-.032-.182-.051l.3,1.448Z" transform="translate(-467.379 -286.792)" fill="#9d9eb3"/>
        <path id="Path_3328" data-name="Path 3328" d="M475.234,253.246l-.3,1.073c.07.059.14.119.21.181l.284-1.082C475.365,253.359,475.3,253.3,475.234,253.246Z" transform="translate(-467.349 -251.238)" fill="#9d9eb3"/>
        <path id="Path_3329" data-name="Path 3329" d="M483.925,266.915q.084.141.164.284l.783-.457c-.051-.09-.1-.18-.155-.268Z" transform="translate(-473.974 -260.988)" fill="#9d9eb3"/>
        <path id="Path_3330" data-name="Path 3330" d="M473.3,302.247l-.173-1.4c-.059-.022-.123-.047-.191-.075l.186,1.4C473.18,302.2,473.239,302.224,473.3,302.247Z" transform="translate(-465.874 -286.266)" fill="#9d9eb3"/>
        <path id="Path_3331" data-name="Path 3331" d="M473.09,251.261l-.183,1.172c.069.051.139.1.207.155l.17-1.181Q473.188,251.332,473.09,251.261Z" transform="translate(-465.853 -249.775)" fill="#9d9eb3"/>
        <path id="Path_3332" data-name="Path 3332" d="M489.262,281.353c.019.09.036.18.052.27l1.086.285c-.016-.085-.032-.169-.051-.254Z" transform="translate(-477.907 -271.954)" fill="#9d9eb3"/>
        <path id="Path_3333" data-name="Path 3333" d="M484.872,302.069l-.823-1.431c-.042.025-.083.049-.124.071l.833,1.426C484.8,302.112,484.836,302.091,484.872,302.069Z" transform="translate(-473.974 -286.167)" fill="#9d9eb3"/>
        <path id="Path_3334" data-name="Path 3334" d="M490.338,294.421c.015-.055.028-.112.042-.169l-1.11-.99c-.015.063-.03.122-.047.181Z" transform="translate(-477.879 -280.731)" fill="#9d9eb3"/>
        <path id="Path_3335" data-name="Path 3335" d="M489.685,296.287l-1.078-1.1c-.02.054-.041.109-.063.161l1.084,1.094c.015-.038.029-.077.044-.116Z" transform="translate(-477.378 -282.147)" fill="#9d9eb3"/>
        <path id="Path_3336" data-name="Path 3336" d="M489.976,286.713l1.133.579c0-.074-.006-.149-.01-.224l-1.132-.593C489.971,286.554,489.974,286.634,489.976,286.713Z" transform="translate(-478.427 -275.729)" fill="#9d9eb3"/>
        <path id="Path_3337" data-name="Path 3337" d="M490.839,284.4l-1.116-.449c.011.077.02.159.03.255l1.115.433C490.859,284.565,490.85,284.485,490.839,284.4Z" transform="translate(-478.247 -273.872)" fill="#9d9eb3"/>
        <path id="Path_3338" data-name="Path 3338" d="M489.693,291.354l1.134.853c.01-.062.018-.125.026-.187l-1.13-.865C489.713,291.229,489.7,291.294,489.693,291.354Z" transform="translate(-478.225 -279.177)" fill="#9d9eb3"/>
        <path id="Path_3339" data-name="Path 3339" d="M489.635,278.845l-1.048-.151c.024.087.047.173.069.259l.006.023,1.045.135,0-.017C489.68,279.011,489.659,278.929,489.635,278.845Z" transform="translate(-477.41 -269.994)" fill="#9d9eb3"/>
        <path id="Path_3340" data-name="Path 3340" d="M486.352,301.006l-.9-1.373c-.039.036-.075.067-.11.094l.914,1.367C486.285,301.066,486.318,301.036,486.352,301.006Z" transform="translate(-475.014 -285.427)" fill="#9d9eb3"/>
        <path id="Path_3341" data-name="Path 3341" d="M486.222,269.583l-.87.3c.05.1.1.194.145.292l.862-.313,0,0C486.312,269.764,486.268,269.673,486.222,269.583Z" transform="translate(-475.025 -263.279)" fill="#9d9eb3"/>
        <path id="Path_3342" data-name="Path 3342" d="M487.639,299.7l.018-.023-.975-1.3c-.031.04-.062.079-.095.117l.984,1.293Z" transform="translate(-475.936 -284.504)" fill="#9d9eb3"/>
        <path id="Path_3343" data-name="Path 3343" d="M487.557,272.775l-.94.149c.042.1.082.2.122.293l.932-.165-.017-.043C487.622,272.931,487.591,272.853,487.557,272.775Z" transform="translate(-475.958 -265.632)" fill="#9d9eb3"/>
        <path id="Path_3344" data-name="Path 3344" d="M488.7,276.014l-1,0c.031.088.06.175.089.263l.009.027.993-.016c-.007-.021-.013-.04-.02-.06C488.75,276.155,488.726,276.085,488.7,276.014Z" transform="translate(-476.757 -268.017)" fill="#9d9eb3"/>
        <path id="Path_3345" data-name="Path 3345" d="M488.7,298.234c.016-.027.031-.056.045-.084l.025-.049-1.032-1.208c-.025.047-.051.095-.079.14Z" transform="translate(-476.727 -283.407)" fill="#9d9eb3"/>
        <path id="Path_3346" data-name="Path 3346" d="M447.952,270.48c-.019-.09-.036-.18-.053-.27l-1.085-.285c.016.085.032.169.051.254Z" transform="translate(-446.622 -263.531)" fill="#9d9eb3"/>
        <path id="Path_3347" data-name="Path 3347" d="M448.642,276.56h1c-.03-.083-.058-.167-.085-.251l-.013-.039-.993.016.022.066C448.594,276.421,448.617,276.49,448.642,276.56Z" transform="translate(-447.901 -268.207)" fill="#9d9eb3"/>
        <path id="Path_3348" data-name="Path 3348" d="M448.514,251.53l1.032,1.208c.025-.047.051-.094.079-.14l-1.041-1.2c-.015.026-.029.054-.044.082Z" transform="translate(-447.875 -249.876)" fill="#9d9eb3"/>
        <path id="Path_3349" data-name="Path 3349" d="M449.77,249.728l-.023.029.974,1.3c.031-.039.063-.079.1-.117l-.984-1.292C449.811,249.673,449.79,249.7,449.77,249.728Z" transform="translate(-448.784 -248.585)" fill="#9d9eb3"/>
        <path id="Path_3350" data-name="Path 3350" d="M451.206,248.286l.9,1.372c.034-.031.071-.063.11-.094l-.914-1.367C451.273,248.225,451.24,248.255,451.206,248.286Z" transform="translate(-449.859 -247.517)" fill="#9d9eb3"/>
        <path id="Path_3351" data-name="Path 3351" d="M452.229,281.86c-.05-.1-.1-.194-.145-.292l-.862.312c.045.092.089.185.136.276Z" transform="translate(-449.871 -272.112)" fill="#9d9eb3"/>
        <path id="Path_3352" data-name="Path 3352" d="M447.631,273.374l1.047.151c-.024-.086-.046-.173-.069-.259l-.006-.022-1.044-.135,0,.016C447.586,273.208,447.607,273.291,447.631,273.374Z" transform="translate(-447.172 -265.878)" fill="#9d9eb3"/>
        <path id="Path_3353" data-name="Path 3353" d="M449.889,279.371l.94-.149c-.043-.1-.083-.2-.123-.294l-.932.165.023.057C449.828,279.225,449.858,279.3,449.889,279.371Z" transform="translate(-448.804 -270.167)" fill="#9d9eb3"/>
        <path id="Path_3354" data-name="Path 3354" d="M468.767,299.945l.066-1.261c-.073-.044-.14-.086-.2-.128l-.053,1.268Z" transform="translate(-462.661 -284.632)" fill="#9d9eb3"/>
        <path id="Path_3355" data-name="Path 3355" d="M447.221,261.875c0-.074.006-.148.011-.22l-1.139-.719q-.005.1-.008.206Z" transform="translate(-446.084 -256.906)" fill="#9d9eb3"/>
        <path id="Path_3356" data-name="Path 3356" d="M446.1,264.032l1.132.593c0-.079-.008-.159-.009-.238l-1.133-.578C446.093,263.882,446.1,263.957,446.1,264.032Z" transform="translate(-446.089 -259.023)" fill="#9d9eb3"/>
        <path id="Path_3357" data-name="Path 3357" d="M446.353,267.054l1.115.449c-.011-.085-.021-.17-.031-.255l-1.115-.434C446.332,266.894,446.342,266.973,446.353,267.054Z" transform="translate(-446.26 -261.238)" fill="#9d9eb3"/>
        <path id="Path_3358" data-name="Path 3358" d="M447.458,259.082l-1.133-.853c-.01.062-.018.125-.026.188l1.13.865C447.437,259.22,447.447,259.15,447.458,259.082Z" transform="translate(-446.242 -254.911)" fill="#9d9eb3"/>
        <path id="Path_3359" data-name="Path 3359" d="M447.52,253.583l1.077,1.1c.019-.054.04-.108.063-.16l-1.083-1.094c-.015.038-.029.077-.044.116Z" transform="translate(-447.142 -251.376)" fill="#9d9eb3"/>
        <path id="Path_3360" data-name="Path 3360" d="M452.874,247.125l.824,1.431c.041-.025.082-.049.124-.071l-.833-1.425C452.951,247.081,452.913,247.1,452.874,247.125Z" transform="translate(-451.088 -246.679)" fill="#9d9eb3"/>
        <path id="Path_3361" data-name="Path 3361" d="M446.821,255.719c-.015.055-.028.112-.042.169l1.11.99c.015-.061.03-.122.047-.181Z" transform="translate(-446.596 -253.061)" fill="#9d9eb3"/>
        <path id="Path_3362" data-name="Path 3362" d="M461.353,245.76l-.12-.02.408,1.478c.057.007.115.017.173.027l-.421-1.478Z" transform="translate(-457.249 -245.706)" fill="#9d9eb3"/>
        <path id="Path_3363" data-name="Path 3363" d="M463.784,296.627l.3-1.073c-.07-.06-.14-.119-.21-.181l-.284,1.083C463.653,296.514,463.719,296.571,463.784,296.627Z" transform="translate(-458.985 -282.287)" fill="#9d9eb3"/>
        <path id="Path_3364" data-name="Path 3364" d="M461.192,294.433c.057.059.116.117.174.174l.021.021.408-.963-.03-.029c-.06-.059-.119-.117-.178-.176Z" transform="translate(-457.219 -280.876)" fill="#9d9eb3"/>
        <path id="Path_3365" data-name="Path 3365" d="M463.624,246.207l.292,1.447c.061.015.122.032.182.05l-.3-1.448C463.737,246.239,463.68,246.222,463.624,246.207Z" transform="translate(-459.011 -246.05)" fill="#9d9eb3"/>
        <path id="Path_3366" data-name="Path 3366" d="M466.085,247.005l.172,1.4c.065.024.13.05.19.075l-.185-1.4Z" transform="translate(-460.825 -246.638)" fill="#9d9eb3"/>
        <path id="Path_3367" data-name="Path 3367" d="M453.822,284.439c-.056-.094-.111-.189-.165-.285l-.783.457q.077.136.156.269Z" transform="translate(-451.088 -274.018)" fill="#9d9eb3"/>
        <path id="Path_3368" data-name="Path 3368" d="M466.253,298.406l.183-1.173c-.069-.051-.138-.1-.207-.155l-.17,1.181C466.123,298.31,466.188,298.358,466.253,298.406Z" transform="translate(-460.806 -283.543)" fill="#9d9eb3"/>
        <path id="Path_3369" data-name="Path 3369" d="M468.586,248.125l.053,1.338c.065.032.131.065.2.1l-.066-1.342Q468.678,248.172,468.586,248.125Z" transform="translate(-462.669 -247.464)" fill="#9d9eb3"/>
        <path id="Path_3370" data-name="Path 3370" d="M454.887,287.52l.706-.581c-.061-.09-.123-.18-.181-.271l-.7.6c.055.085.112.168.169.251Z" transform="translate(-452.445 -275.871)" fill="#9d9eb3"/>
        <path id="Path_3371" data-name="Path 3371" d="M454.733,246.29l.731,1.471c.048-.018.094-.034.138-.047l-.741-1.465C454.818,246.261,454.775,246.275,454.733,246.29Z" transform="translate(-452.459 -246.08)" fill="#9d9eb3"/>
        <path id="Path_3372" data-name="Path 3372" d="M456.863,245.773l-.106.014.631,1.493c.05-.01.1-.017.15-.023l-.641-1.488Z" transform="translate(-453.95 -245.727)" fill="#9d9eb3"/>
        <path id="Path_3373" data-name="Path 3373" d="M458.892,292.206c.05.058.1.115.152.171l.04.045.513-.843-.017-.019c-.063-.07-.125-.14-.187-.212Z" transform="translate(-455.524 -279.321)" fill="#9d9eb3"/>
        <path id="Path_3374" data-name="Path 3374" d="M459.03,245.615l-.1,0,.523,1.5h.04l.121,0-.534-1.491Z" transform="translate(-455.553 -245.611)" fill="#9d9eb3"/>
        <path id="Path_3375" data-name="Path 3375" d="M456.911,290.043l.613-.715c-.065-.083-.131-.168-.195-.253l-.6.731c.049.065.1.129.15.193Z" transform="translate(-453.928 -277.645)" fill="#9d9eb3"/>
      </g>
      <g id="Group_1312" data-name="Group 1312" transform="translate(1.279 7.817)">
        <path id="Path_3376" data-name="Path 3376" d="M457.813,266.063a2.808,2.808,0,0,1-1.121,2.538c-.021.013-2.522.654-2.541.665-.65.347-.234-.441-1.221-.986a7.522,7.522,0,0,1-3.6-5.934c0-1.078-1.042-1.087-.4-1.447.018-.01,2.077-2.028,2.077-2.028a2.852,2.852,0,0,1,2.81.3A8.807,8.807,0,0,1,457.813,266.063Z" transform="translate(-446.389 -258.622)" fill="url(#linear-gradient-20)"/>
        <ellipse id="Ellipse_19" data-name="Ellipse 19" cx="2.893" cy="4.909" rx="2.893" ry="4.909" transform="translate(0 3.926) rotate(-32.629)" fill="url(#linear-gradient-21)"/>
        <path id="Path_3377" data-name="Path 3377" d="M452.858,266.648a2.714,2.714,0,0,0-2.474-.291,2.954,2.954,0,0,1,2.162.407,7.562,7.562,0,0,1,3.616,5.965,2.322,2.322,0,0,1-1.142,2.262,2.2,2.2,0,0,0,1.454-2.378A7.562,7.562,0,0,0,452.858,266.648Z" transform="translate(-447.614 -264.188)" fill="url(#radial-gradient-9)" style="mix-blend-mode: color-dodge;isolation: isolate"/>
      </g>
      <path id="Path_3378" data-name="Path 3378" d="M472.316,259.569l2.491-1.658-1.3,2.926Z" transform="translate(-462.5 -250.281)" fill="#25054d"/>
    </g>
    <ellipse id="Ellipse_21" data-name="Ellipse 21" cx="9.346" cy="6.909" rx="9.346" ry="6.909" transform="matrix(0.755, -0.656, 0.656, 0.755, 374.785, 96.198)" fill="url(#radial-gradient-10)" style="mix-blend-mode: color-dodge;isolation: isolate"/>
    <path id="Path_3379" data-name="Path 3379" d="M475.851,91.442s8.24-3.506,14.376,5.26c5.531,7.9,2.741,13.951,2.741,13.951a39.168,39.168,0,0,0-6.422-13.863C482.739,91.917,475.851,91.442,475.851,91.442Z" transform="translate(-92.682 -40.56)" fill="url(#linear-gradient-22)" style="mix-blend-mode: multiply;isolation: isolate"/>
    <path id="Path_3380" data-name="Path 3380" d="M466.387,102.048s-6.224-6.487-11.133.964c-3.292,5,.789,15.6.789,15.6s-.351-13.938,4.12-15.516S466.387,102.048,466.387,102.048Z" transform="translate(-76.556 -46.959)" fill="url(#linear-gradient-23)" style="mix-blend-mode: multiply;isolation: isolate"/>
  </g>
</svg>
