<svg xmlns="http://www.w3.org/2000/svg" xmlns:xlink="http://www.w3.org/1999/xlink" viewBox="0 0 41.222 73.81">
  <defs>
    <linearGradient id="linear-gradient" x1="-12.746" y1="24.054" x2="-12.771" y2="24.054" gradientUnits="objectBoundingBox">
      <stop offset="0" stop-color="#ffbb96"/>
      <stop offset="0.227" stop-color="#fffbc9"/>
      <stop offset="0.54" stop-color="#f9b673"/>
      <stop offset="0.651" stop-color="#f9b978"/>
      <stop offset="0.788" stop-color="#fbc287"/>
      <stop offset="0.939" stop-color="#fdd0a0"/>
      <stop offset="0.949" stop-color="#fed2a3"/>
    </linearGradient>
    <linearGradient id="linear-gradient-2" x1="-12.762" y1="49.911" x2="-12.738" y2="49.911" gradientUnits="objectBoundingBox">
      <stop offset="0.035" stop-color="#ffba78"/>
      <stop offset="0.395" stop-color="#fec986"/>
      <stop offset="1" stop-color="#feeca8"/>
    </linearGradient>
    <linearGradient id="linear-gradient-3" x1="-18.191" y1="29.52" x2="-18.257" y2="29.54" gradientUnits="objectBoundingBox">
      <stop offset="0.035" stop-color="#9d9eb3"/>
      <stop offset="0.581" stop-color="#d4d1d8"/>
      <stop offset="1" stop-color="#eeebf2"/>
    </linearGradient>
    <radialGradient id="radial-gradient" cx="-0.393" cy="1.057" r="0.855" gradientTransform="matrix(1.314, 0, 0, -1, 7.862, 87.764)" gradientUnits="objectBoundingBox">
      <stop offset="0" stop-color="#f49587"/>
      <stop offset="0.116" stop-color="#bc7368"/>
      <stop offset="0.236" stop-color="#8b544c"/>
      <stop offset="0.359" stop-color="#603a35"/>
      <stop offset="0.483" stop-color="#3d2522"/>
      <stop offset="0.609" stop-color="#221513"/>
      <stop offset="0.735" stop-color="#0f0908"/>
      <stop offset="0.864" stop-color="#030202"/>
      <stop offset="1"/>
    </radialGradient>
    <radialGradient id="radial-gradient-2" cx="-5.608" cy="1.102" r="0.946" gradientTransform="matrix(5.824, 0, 0, -1, 515.313, 81.075)" xlink:href="#radial-gradient"/>
    <linearGradient id="linear-gradient-4" x1="-70.545" y1="50.557" x2="-70.9" y2="50.574" xlink:href="#linear-gradient-3"/>
    <linearGradient id="linear-gradient-5" x1="-28.69" y1="31.098" x2="-28.809" y2="31.106" xlink:href="#linear-gradient-3"/>
    <linearGradient id="linear-gradient-6" x1="-81.879" y1="58.027" x2="-82.288" y2="58.045" gradientUnits="objectBoundingBox">
      <stop offset="0" stop-color="#ffe4a7"/>
      <stop offset="1"/>
    </linearGradient>
    <linearGradient id="linear-gradient-7" x1="-38.331" y1="31.132" x2="-38.561" y2="31.148" xlink:href="#linear-gradient-6"/>
    <linearGradient id="linear-gradient-8" x1="-18.192" y1="31.602" x2="-18.256" y2="31.623" xlink:href="#linear-gradient-3"/>
    <linearGradient id="linear-gradient-9" x1="-70.695" y1="57.282" x2="-71.006" y2="57.301" xlink:href="#linear-gradient-3"/>
    <linearGradient id="linear-gradient-10" x1="-28.689" y1="33.42" x2="-28.804" y2="33.429" xlink:href="#linear-gradient-3"/>
    <linearGradient id="linear-gradient-11" x1="-81.905" y1="66.326" x2="-82.25" y2="66.346" xlink:href="#linear-gradient-6"/>
    <linearGradient id="linear-gradient-12" x1="-38.335" y1="33.459" x2="-38.555" y2="33.477" xlink:href="#linear-gradient-6"/>
    <linearGradient id="linear-gradient-13" x1="-38.642" y1="81.874" x2="-38.803" y2="81.826" xlink:href="#linear-gradient-6"/>
    <linearGradient id="linear-gradient-14" x1="-53.5" y1="103.584" x2="-53.427" y2="103.488" gradientUnits="objectBoundingBox">
      <stop offset="0" stop-color="#bcbcd6"/>
      <stop offset="0.227" stop-color="#d4d1d8"/>
      <stop offset="0.54" stop-color="#9d9eb3"/>
      <stop offset="0.673" stop-color="#a1a2b8"/>
      <stop offset="0.839" stop-color="#afafc7"/>
      <stop offset="0.949" stop-color="#bcbcd6"/>
    </linearGradient>
    <radialGradient id="radial-gradient-3" cx="8.154" cy="0.098" r="0.442" gradientTransform="matrix(1.428, 0, 0, -0.952, 33.453, 234.755)" gradientUnits="objectBoundingBox">
      <stop offset="0" stop-color="#fff"/>
      <stop offset="1"/>
    </radialGradient>
    <linearGradient id="linear-gradient-15" x1="-29.366" y1="59.719" x2="-29.288" y2="59.77" gradientUnits="objectBoundingBox">
      <stop offset="0" stop-color="#fff"/>
      <stop offset="1" stop-color="#10054d"/>
    </linearGradient>
    <linearGradient id="linear-gradient-16" x1="-40.771" y1="61.874" x2="-40.39" y2="62.003" xlink:href="#linear-gradient-15"/>
  </defs>
  <g id="Security_icon" transform="translate(-367.496 -47.726)">
    <path id="Path_3282" d="M408.7,86.6,367.6,71.3v30.5a2.857,2.857,0,0,0,1.6,2.7L397,120.6c2.4,1.4,6.6,1.2,9.4-.4h0a3.96,3.96,0,0,0,2.3-3h0Z" fill="url(#linear-gradient)"/>
    <path id="Path_3283" d="M397,89.9,369.2,73.8c-2.4-1.4-2.1-3.8.7-5.4h0c2.8-1.6,7-1.8,9.4-.4l27.8,16.1c2.4,1.4,2.1,3.8-.7,5.4h0C403.6,91.1,399.4,91.3,397,89.9Z" fill="url(#linear-gradient-2)"/>
    <path id="Path_3284" d="M406.5,89.2h0c-2.8,1.6-7,1.8-9.4.4L369.3,73.5a2.624,2.624,0,0,1-1.6-2.7c-.5,1.2-.1,2.4,1.4,3.3l27.8,16.1c2.4,1.4,6.6,1.2,9.4-.4h0a4.144,4.144,0,0,0,2.3-2.7A4.29,4.29,0,0,1,406.5,89.2Z" fill="#ffffb7"/>
    <g id="Group_1305" transform="translate(373.419 47.721)" opacity="0.3">
      <path id="Path_3285" d="M17.5,1.6h0A11.625,11.625,0,0,0,1.6,5.9,10.559,10.559,0,0,0,0,11.7V27.1H0c0,1.2,1.7,2.2,3.8,2.2s3.8-1,3.8-2.2h0V13.3a4.908,4.908,0,0,1,4.9-4.9,4.514,4.514,0,0,1,2.5.7h0a12.433,12.433,0,0,1,6.2,10.7V39.4h0c0,1.2,1.7,2.2,3.8,2.2s3.8-1,3.8-2.2h0v-18A22.463,22.463,0,0,0,17.5,1.6Z" fill="url(#linear-gradient-3)"/>
      <path id="Path_3286" d="M2.4,28.1h0V13.5A10.926,10.926,0,0,1,13.3,2.6a10.226,10.226,0,0,1,5.4,1.5,21.123,21.123,0,0,1,3.1,2.1,23.462,23.462,0,0,0-4.7-3.6,10.226,10.226,0,0,0-5.4-1.5A10.926,10.926,0,0,0,.8,12V26.6h0v.9c0,.5.6,1,1.6,1.2Z" fill="url(#radial-gradient)"/>
      <path id="Path_3287" d="M23.6,40.6h0V21.8a13.172,13.172,0,0,0-5.1-10.4A12.807,12.807,0,0,1,22,20.3V39.1h0v.8c0,.5.6,1,1.6,1.2Z" fill="url(#radial-gradient-2)"/>
      <g id="Group_1303" transform="translate(3.173 2.038)">
        <path id="Path_3288" d="M6.3,3.3A6.274,6.274,0,0,0,0,9.6V27a4.219,4.219,0,0,0,2.2-.3V9.3a6.334,6.334,0,0,1,4.4-6Z" fill="url(#linear-gradient-4)"/>
        <path id="Path_3289" d="M13,1.4A10.668,10.668,0,0,0,7.8,0,8.329,8.329,0,0,0,5.6.3h.1a10.019,10.019,0,0,1,5.1,1.4A21.625,21.625,0,0,1,21.6,20.4V39.3a4.219,4.219,0,0,0,2.2-.3V20.1A21.625,21.625,0,0,0,13,1.4Z" fill="url(#linear-gradient-5)"/>
      </g>
      <path id="Path_3290" d="M5.7,13.9V28.6q1.35-.45,1.5-1.2h0V13.6a5.794,5.794,0,0,1,4-5.5A5.813,5.813,0,0,0,5.7,13.9Z" opacity="0.5" fill="url(#linear-gradient-6)"/>
      <g id="Group_1304" transform="translate(15.083 1.639)" opacity="0.5">
        <path id="Path_3291" d="M2.5,1.1A7.956,7.956,0,0,0,0,0,24.338,24.338,0,0,1,11.8,20.8V39.3c1-.3,1.7-.8,1.7-1.3V20.2A22.006,22.006,0,0,0,2.5,1.1Z" fill="url(#linear-gradient-7)"/>
      </g>
    </g>
    <ellipse id="Ellipse_15" cx="4.4" cy="2.6" rx="4.4" ry="2.6" transform="translate(373.5 69.4)" fill="#ffffb7"/>
    <ellipse id="Ellipse_16" cx="4.3" cy="2.5" rx="4.3" ry="2.5" transform="translate(394.7 81.7)" fill="#ffffb7"/>
    <g id="Group_1308" transform="translate(373.419 47.678)">
      <path id="Path_3292" d="M17.5,1.6h0A11.625,11.625,0,0,0,1.6,5.9,10.559,10.559,0,0,0,0,11.7V24.3H0c0,1.2,1.7,2.2,3.8,2.2s3.8-1,3.8-2.2h0v-11a4.908,4.908,0,0,1,4.9-4.9,4.514,4.514,0,0,1,2.5.7h0a12.433,12.433,0,0,1,6.2,10.7V36.6h0c0,1.2,1.7,2.2,3.8,2.2s3.8-1,3.8-2.2h0V21.4A22.463,22.463,0,0,0,17.5,1.6Z" fill="url(#linear-gradient-8)"/>
      <path id="Path_3293" d="M2.4,25.3h0V13.5A10.926,10.926,0,0,1,13.3,2.6a10.226,10.226,0,0,1,5.4,1.5,21.123,21.123,0,0,1,3.1,2.1,23.462,23.462,0,0,0-4.7-3.6,10.226,10.226,0,0,0-5.4-1.5A10.926,10.926,0,0,0,.8,12V23.8h0v.9c0,.5.6,1,1.6,1.2Z" fill="#f3e6ec"/>
      <path id="Path_3294" d="M23.6,37.8h0V21.7a13.172,13.172,0,0,0-5.1-10.4A12.807,12.807,0,0,1,22,20.2V36.3h0v.8c0,.5.6,1,1.6,1.2Z" fill="#f3e6ec"/>
      <g id="Group_1306" transform="translate(4.138 2.038)">
        <path id="Path_3295" d="M6.3,3.2A6.253,6.253,0,0,0,0,9.4V24a4.219,4.219,0,0,0,2.2-.3V9.2a6.334,6.334,0,0,1,4.4-6Z" fill="url(#linear-gradient-9)"/>
        <path id="Path_3296" d="M12,1.4A10.019,10.019,0,0,0,6.9,0,9.079,9.079,0,0,0,4.6.3h.1A10.019,10.019,0,0,1,9.8,1.7,21.625,21.625,0,0,1,20.6,20.4V36.5a4.219,4.219,0,0,0,2.2-.3V20.1A21.625,21.625,0,0,0,12,1.4Z" fill="url(#linear-gradient-10)"/>
      </g>
      <path id="Path_3297" d="M5.7,13.9v12q1.35-.45,1.5-1.2h0V13.6a5.794,5.794,0,0,1,4-5.5A5.813,5.813,0,0,0,5.7,13.9Z" opacity="0.5" fill="url(#linear-gradient-11)"/>
      <g id="Group_1307" transform="translate(15.083 1.639)" opacity="0.5">
        <path id="Path_3298" d="M2.5,1.1A7.956,7.956,0,0,0,0,0,24.338,24.338,0,0,1,11.8,20.8V36.5c1-.3,1.7-.8,1.7-1.3v-15A22.006,22.006,0,0,0,2.5,1.1Z" fill="url(#linear-gradient-12)"/>
      </g>
      <path id="Path_3299" d="M13.2,2.7a12.631,12.631,0,0,1,5.7,1.4c-.7-.5-1.4-1-2.1-1.4a10.3,10.3,0,0,0-5.1-1.4A10.457,10.457,0,0,0,1.3,11.7h0A12.511,12.511,0,0,1,13.2,2.7Z" fill="#f3e6ec"/>
      <path id="Path_3300" d="M22.6,20A13.476,13.476,0,0,0,19,8.9c-3.3-3.5-7.3-4.4-9.5-1.1a6.237,6.237,0,0,1,6.2,0,13.567,13.567,0,0,1,6.8,11.8V20Z" fill="url(#linear-gradient-13)"/>
    </g>
    <g id="Group_1310" transform="translate(372.275 82.652)">
      <g id="Group_1309" transform="translate(4.969 6.663)">
        <path id="Path_3301" d="M6.7,15.9A14.134,14.134,0,0,1,.4,5,4.1,4.1,0,0,1,.5,3.9L.1,3.6A4.869,4.869,0,0,0,0,4.8,15.134,15.134,0,0,0,6.7,16.4a5.838,5.838,0,0,0,2.2.8l-.1-.5A6.05,6.05,0,0,1,6.7,15.9Z" fill="#eca30a" opacity="0.6"/>
        <path id="Path_3302" d="M10.7,5.3l.3-.2A12.653,12.653,0,0,0,6.8,1v.5A11.808,11.808,0,0,1,10.7,5.3Z" fill="#eca30a" opacity="0.6"/>
        <path id="Path_3303" d="M6.6,1.3V.9C3.4-1,.7.2.1,3.4l.4.3C1.1.7,3.6-.4,6.6,1.3Z" fill="#eca30a"/>
        <path id="Path_3304" d="M11.1,5.3l-.3.2A13.383,13.383,0,0,1,13,12.3a5.533,5.533,0,0,1-.8,3.1l.4.4a6.294,6.294,0,0,0,.9-3.3A13.756,13.756,0,0,0,11.1,5.3Z" fill="#eca30a"/>
        <path id="Path_3305" d="M9,16.7l.1.5a3.642,3.642,0,0,0,3.4-1.3l-.4-.4A2.906,2.906,0,0,1,9,16.7Z" fill="#eca30a" opacity="0.3"/>
      </g>
      <path id="Path_3306" d="M20.8,19.3a18.9,18.9,0,0,0-2.5-7.7l-.4.3A18.14,18.14,0,0,1,20.3,19Z" fill="#eca30a"/>
      <path id="Path_3307" d="M19.2,25.4c1.2-1.3,1.7-3.3,1.6-5.8l-.6-.3c.2,2.8-.6,5.1-2.4,6.1a4.76,4.76,0,0,1-3.7.3l.2.8A4.694,4.694,0,0,0,19.2,25.4Z" fill="#eca30a" opacity="0.5"/>
      <path id="Path_3308" d="M5.9,18.6C2.6,13,2.6,6.8,5.9,5a4.179,4.179,0,0,1,1-.4l-.4-.9A4.59,4.59,0,0,0,3.6,6.1c-1.6,3-.9,8.1,1.8,12.7a27.96,27.96,0,0,0,2.5,3.5l.3-.5A17.194,17.194,0,0,1,5.9,18.6Z" fill="#eca30a" opacity="0.5"/>
      <path id="Path_3309" d="M8.3,21.9l-.3.5a12.289,12.289,0,0,0,6,4l-.2-.8A11.253,11.253,0,0,1,8.3,21.9Z" fill="#eca30a"/>
      <path id="Path_3310" d="M17.7,11.7l.4-.3a20.113,20.113,0,0,0-5.5-6.1A7.864,7.864,0,0,0,6.7,3.7l.4.8C10.3,3.8,14.8,6.7,17.7,11.7Z" fill="#eca30a"/>
      <path id="Path_3311" d="M8.2,4.9a5.189,5.189,0,0,1,2.7.7v.7a7.06,7.06,0,0,0-2.4-.6,3.922,3.922,0,0,0-1.8.4l-.4-.8a4.058,4.058,0,0,1,1.9-.4ZM6,5.5l.4.7a4.794,4.794,0,0,0-2,4,12.824,12.824,0,0,0,1.2,6.1l-.4.1C3.1,11.7,3.4,7.1,6,5.5Zm5.3.2a15.8,15.8,0,0,1,6.1,6.2,18.677,18.677,0,0,1,2,5.1l-.5-.1A14.978,14.978,0,0,0,17,12.2a15.117,15.117,0,0,0-5.7-5.8V5.7ZM5.8,16.8c.2.5.5,1,.7,1.4,2.3,3.9,5.7,6.5,8.6,6.5a4.136,4.136,0,0,0,1.9-.5,3.159,3.159,0,0,0,1.4-1.4l.5.6a3.758,3.758,0,0,1-3.5,2,8.45,8.45,0,0,1-4.8-1.9,18.783,18.783,0,0,1-4.5-5.2,10.93,10.93,0,0,1-.8-1.5Zm13.2.5.5.1a9.721,9.721,0,0,1-.4,5.6l-.5-.6a8.105,8.105,0,0,0,.4-5.1ZM8.2,4.8a4.552,4.552,0,0,0-2,.5l.5.9a2.972,2.972,0,0,1,1.8-.4,5.834,5.834,0,0,1,2.6.6L11,5.5a5.81,5.81,0,0,0-2.8-.7ZM6,5.4C3.3,7,3,11.7,5.1,16.5l.6-.1C3.8,12,4.1,7.7,6.5,6.3L6,5.4Zm5.2.2.1.9A14.215,14.215,0,0,1,17,12.2a17.189,17.189,0,0,1,1.9,4.7l.7.2a16.725,16.725,0,0,0-2.1-5.2,15.908,15.908,0,0,0-6.3-6.3Zm-5.4,11-.6.1a12.9,12.9,0,0,0,.9,1.6c2.5,4.4,6.3,7.1,9.4,7.1a3.983,3.983,0,0,0,3.6-2.2l-.7-.8a3.714,3.714,0,0,1-3.3,2c-2.7,0-6.2-2.5-8.5-6.5a7.378,7.378,0,0,1-.8-1.3Zm13.1.6a8.733,8.733,0,0,1-.4,5.3l.7.8a9.151,9.151,0,0,0,.5-5.9l-.8-.2Z" fill="#eca30a" opacity="0.3"/>
      <path id="Path_3312" d="M7.7,3l-1-3H6.2l1,3ZM2.5,7.7.2,6c0,.2-.1.4-.1.6L2.4,8.3a1.268,1.268,0,0,1,.1-.6ZM8.7,3.1,7.8.1A.9.9,0,0,1,7.3,0l.8,3a1.268,1.268,0,0,1,.6.1ZM13,5c.2.1.4.3.6.4L13.9,3a2.181,2.181,0,0,1-.5-.4Zm-1-.6a2.092,2.092,0,0,1,.6.4l.1-2.6a2.186,2.186,0,0,1-.5-.3ZM10.9,1.2,11,3.9l.6.3-.1-2.7a.864.864,0,0,0-.6-.3ZM3.5,5.1,1.4,2.7c-.1.2-.2.3-.2.5l2,2.4a2.186,2.186,0,0,1,.3-.5Zm11.6-1c-.2-.2-.4-.3-.5-.5L14,5.8c.2.2.4.3.6.5ZM3,5.9.9,3.7c-.1.2-.2.3-.2.5L2.8,6.4c.1-.2.1-.4.2-.5ZM6.9,3,5.6.1a.9.9,0,0,0-.5.1L6.3,3.1A1.268,1.268,0,0,1,6.9,3ZM2.7,6.8.5,4.8c-.1.2-.1.4-.2.5l2.2,2c.1-.2.1-.4.2-.5ZM6,3.2,4.6.3c-.1,0-.3.1-.4.1L5.6,3.3c.1,0,.3-.1.4-.1Zm-1.4.7L2.8,1.2l-.3.3L4.3,4.2c0-.1.2-.2.3-.3ZM4,4.4,2,1.9a.52.52,0,0,0-.2.4L3.7,4.9c.1-.2.2-.3.3-.5ZM9.7.6,10,3.4c.2.1.4.1.6.2L10.2.8C10,.8,9.9.7,9.7.6Zm9,11.1,1.6-.9a4.348,4.348,0,0,1-.4-.7l-1.6.9c.1.2.3.5.4.7Zm2.1,5,2.1.3c-.1-.2-.1-.5-.2-.7L20.6,16a1.445,1.445,0,0,0,.2.7ZM21,18l2.2.6c0-.2-.1-.5-.1-.7l-2.2-.6c0,.2.1.5.1.7Zm.2,1.2,2.3.9c0-.2-.1-.4-.1-.7l-2.3-.9a1.952,1.952,0,0,1,.1.7Zm-2.9,7.7,1.6,2.8c.1-.1.3-.1.4-.2l-1.6-2.8a.758.758,0,0,0-.4.2ZM4.9,18.6l-1.6.9a4.348,4.348,0,0,1,.4.7l1.6-.9A1.612,1.612,0,0,1,4.9,18.6ZM5.3,3.5,3.6.7c-.1,0-.2.1-.3.2L4.9,3.7a.52.52,0,0,1,.4-.2ZM17.2,9.3l1.2-1.5c-.2-.2-.3-.4-.5-.6L16.6,8.7a3.394,3.394,0,0,1,.6.6Zm.8,1.2,1.4-1.2a4.348,4.348,0,0,0-.4-.7L17.5,9.8c.2.2.3.5.5.7ZM15.5,7.2l.8-2-.5-.5-.8,2C15.1,6.9,15.3,7,15.5,7.2Zm.9,1,1-1.8c-.2-.2-.3-.4-.5-.6L15.8,7.5a4.349,4.349,0,0,0,.6.7Zm3.5,6,1.9-.3c-.1-.2-.2-.5-.3-.7l-1.9.3c.1.2.2.5.3.7Zm-.5-1.3,1.8-.6c-.1-.2-.2-.5-.3-.7l-1.9.6a2.507,2.507,0,0,0,.4.7Zm1,2.6h2a1.854,1.854,0,0,1-.2-.7H20.1a4.875,4.875,0,0,1,.3.7ZM8.5.3l.6,2.9a1.421,1.421,0,0,1,.6.2L9,.4A1.087,1.087,0,0,0,8.5.3ZM12,26.2l.1,2.7a2.186,2.186,0,0,1,.5.3l-.1-2.7a2.186,2.186,0,0,0-.5-.3Zm7,.2,1.8,2.7.3-.3-1.8-2.7-.3.3Zm-3.2,1,1.1,3h.5l-1-3Zm1.7-.2L19,30c.1,0,.3-.1.4-.1L18,27c-.2.1-.3.1-.5.2ZM13,26.7l.4,2.8a1.689,1.689,0,0,0,.5.2l-.3-2.8c-.2-.1-.4-.1-.6-.2Zm1,.3.6,2.9a1.087,1.087,0,0,0,.5.1l-.6-2.9A.9.9,0,0,1,14,27Zm.9.3.8,2.9c.2,0,.3.1.5.1l-.8-2.9a.749.749,0,0,0-.5-.1Zm1.8,0L18,30.2a.9.9,0,0,0,.5-.1l-1.2-2.9a1.486,1.486,0,0,1-.6.1Zm4.6-5.8,2.3,1.4v-.6l-2.3-1.5v.7Zm-.2,1.1,2.3,1.7c0-.2.1-.4.1-.6L21.2,22a1.268,1.268,0,0,1-.1.6Zm-1.5,3.3,1.9,2.6a1.38,1.38,0,0,0,.3-.4l-1.9-2.6c-.1.1-.2.3-.3.4Zm1.7-5.5,2.3,1.2V21l-2.3-1.2v.6Zm-.4,3.2,2.2,2a1.087,1.087,0,0,0,.1-.5L21,23c0,.2-.1.4-.1.6Zm-.8,1.6,2.1,2.4a.758.758,0,0,0,.2-.4l-2-2.4c-.1.1-.2.3-.3.4Zm.5-.8,2.2,2.2c.1-.2.1-.3.2-.5l-2.1-2.2a.914.914,0,0,0-.3.5ZM6.4,21,5.2,22.5c.2.2.3.4.5.6L7,21.6A1.7,1.7,0,0,1,6.4,21ZM3.2,14.9h-2a1.854,1.854,0,0,1,.2.7H3.5c-.1-.2-.2-.5-.3-.7Zm.5,1.2-1.9.3c.1.2.2.5.3.7L4,16.9c-.1-.3-.2-.5-.3-.8Zm-.9-2.5L.7,13.3c.1.2.1.5.2.7l2.1.3c-.1-.2-.1-.5-.2-.7Zm-.4-2.5L.1,10.2c0,.2.1.4.1.7l2.3.9a1.7,1.7,0,0,1-.1-.7Zm.1,1.2L.3,11.7c0,.2.1.5.1.7l2.2.6a1.952,1.952,0,0,0-.1-.7Zm8.4,15.9a2.186,2.186,0,0,1,.5.3l.1-2.6a2.092,2.092,0,0,1-.6-.4ZM4.2,17.4,2.4,18c.1.2.2.5.3.7l1.8-.6A1.08,1.08,0,0,0,4.2,17.4ZM2.3,9.9,0,8.8v.6l2.3,1.2V9.9Zm3.3,9.9L4.2,21c.1.2.3.4.4.6L6,20.5a4.348,4.348,0,0,1-.4-.7Zm2.9,6.4c.2.2.4.3.5.5l.6-2.2c-.2-.2-.4-.3-.6-.5Zm1.2,1.1a2.181,2.181,0,0,1,.5.4l.4-2.4c-.2-.1-.4-.3-.6-.4ZM8.1,23.1l-.8,2,.5.5.8-2-.5-.5Zm-.9-1-1,1.8c.2.2.3.4.5.6l1.1-1.7a4.349,4.349,0,0,0-.6-.7ZM2.3,8.8,0,7.4V8L2.3,9.5Z" fill="#eca30a" opacity="0.3"/>
      <path id="Path_3313" d="M13,5c.2.1.4.3.6.4L13.9,3a2.181,2.181,0,0,1-.5-.4ZM6.9,3,5.6.1a.9.9,0,0,0-.5.1L6.3,3.1A1.268,1.268,0,0,1,6.9,3ZM2.7,6.8.5,4.8c-.1.2-.1.4-.2.5l2.2,2c.1-.2.1-.4.2-.5ZM4,4.4,2,1.9a.52.52,0,0,0-.2.4L3.7,4.9c.1-.2.2-.3.3-.5ZM9.7.6,10,3.4c.2.1.4.1.6.2L10.2.8C10,.8,9.9.7,9.7.6ZM21,18l2.2.6c0-.2-.1-.5-.1-.7l-2.2-.6c0,.2.1.5.1.7Zm-3-7.5,1.4-1.2a4.348,4.348,0,0,0-.4-.7L17.5,9.8c.2.2.3.5.5.7ZM15.5,7.2l.8-2-.5-.5-.8,2c.1.2.3.3.5.5Zm3.9,5.7,1.8-.6c-.1-.2-.2-.5-.3-.7l-1.9.6a2.507,2.507,0,0,0,.4.7ZM14,27l.6,2.9a1.087,1.087,0,0,0,.5.1l-.6-2.9A.9.9,0,0,1,14,27Zm2.7.3L18,30.2a.9.9,0,0,0,.5-.1l-1.2-2.9a1.486,1.486,0,0,1-.6.1Zm4.6-5.8,2.3,1.4v-.6l-2.3-1.5v.7Zm-1.7,4.4,1.9,2.6a1.38,1.38,0,0,0,.3-.4l-1.9-2.6c-.1.1-.2.3-.3.4Zm1-1.5,2.2,2.2c.1-.2.1-.3.2-.5l-2.1-2.2a.914.914,0,0,0-.3.5ZM2.8,13.6.7,13.3c.1.2.1.5.2.7l2.1.3c-.1-.2-.1-.5-.2-.7Zm8.1,14.6a2.186,2.186,0,0,1,.5.3l.1-2.6a2.092,2.092,0,0,1-.6-.4ZM4.2,17.4,2.5,18c.1.2.2.5.3.7l1.8-.6a2.506,2.506,0,0,0-.4-.7Zm3.9,5.7-.8,2,.5.5.8-2-.5-.5ZM2.3,8.8,0,7.3V8L2.3,9.5V8.8Z" fill="#eca30a" opacity="0.5"/>
    </g>
    <g id="Group_1313" transform="translate(372.423 86.518)">
      <ellipse id="Ellipse_17" cx="5.7" cy="9.8" rx="5.7" ry="9.8" transform="matrix(0.863, -0.505, 0.505, 0.863, 1.643, 5.795)" fill="#eca30a"/>
      <path id="Ellipse_18" d="M4.7,4.3c2.6-1.5,6.8.9,9.5,5.4s2.7,9.4.1,10.9-6.8-.9-9.5-5.4S2.1,5.8,4.7,4.3Z" fill="#eeebf2"/>
      <path id="Path_3314" d="M17.7,15.4c0,2.1-.7,3.5-1.9,4.3,0,0-1.3.8-1.4.8-1.2.7-.4-.9-2.3-1.9A15.028,15.028,0,0,1,5.5,7c0-2.1-1.9-2.1-.8-2.8l1.6-.9a4.882,4.882,0,0,1,4.7.6A14.271,14.271,0,0,1,17.7,15.4Z" fill="#eeebf2"/>
      <path id="Path_3315" d="M9.8,4.6C8,3.6,6.4,3.4,5.2,4a5.171,5.171,0,0,1,4,.8,15.134,15.134,0,0,1,6.7,11.6c0,2.2-.8,3.7-2.1,4.4,1.6-.5,2.7-2.1,2.7-4.6A15.134,15.134,0,0,0,9.8,4.6Z" fill="#fff"/>
      <g id="Group_1311" transform="translate(2.918 4.396)">
        <path id="Path_3316" d="M9.7,3.9l-.6.8c.1.1.1.2.2.3l.6-.7-.2-.4Z" fill="#9d9eb3"/>
        <path id="Path_3317" d="M9.3,3.5c0-.1-.1-.1-.1-.2h0l-.6.8h0l.2.2Z" fill="#9d9eb3"/>
        <path id="Path_3318" d="M9.2,16.3h.1l-.5-1.5H8.6l.6,1.5Z" fill="#9d9eb3"/>
        <path id="Path_3319" d="M8.7,2.8c0-.1-.1-.1-.2-.2h0l-.4,1h0l.2.2Z" fill="#9d9eb3"/>
        <path id="Path_3320" d="M10.4,16.1l-.7-1.5H9.6l.7,1.5C10.3,16.2,10.4,16.2,10.4,16.1Z" fill="#9d9eb3"/>
        <path id="Path_3321" d="M9.8,16.3h.1l-.6-1.5H9.2l.6,1.5Z" fill="#9d9eb3"/>
        <path id="Path_3322" d="M10.2,4.7l-.7.6c.1.1.1.2.2.3l.7-.6c0-.1-.1-.2-.2-.3Z" fill="#9d9eb3"/>
        <path id="Path_3323" d="M8.6,16.3h.1l-.4-1.5H8.1l.5,1.5Z" fill="#9d9eb3"/>
        <path id="Path_3324" d="M11.5,11.4v.2l1.1.7v-.2Z" fill="#9d9eb3"/>
        <path id="Path_3325" d="M6.6,15.6c.1,0,.1.1.2.1l-.1-1.3c-.1,0-.1-.1-.2-.1Z" fill="#9d9eb3"/>
        <path id="Path_3326" d="M6.6,1,6.5,2.3c.1,0,.1.1.2.1l.1-1.3C6.7,1.1,6.6,1.1,6.6,1Z" fill="#9d9eb3"/>
        <path id="Path_3327" d="M8.1,16.2l-.3-1.4c-.1,0-.1,0-.2-.1l.3,1.4Z" fill="#9d9eb3"/>
        <path id="Path_3328" d="M7.9,2,7.6,3.1l.2.2.3-1.1Z" fill="#9d9eb3"/>
        <path id="Path_3329" d="M10,5.9c0,.1.1.2.1.3l.8-.5c-.1-.1-.1-.2-.2-.3Z" fill="#9d9eb3"/>
        <path id="Path_3330" d="M7.4,16l-.2-1.4c-.1,0-.1,0-.2-.1l.2,1.4A.349.349,0,0,1,7.4,16Z" fill="#9d9eb3"/>
        <path id="Path_3331" d="M7.2,1.5,7.1,2.7l.2.2.2-1.2C7.4,1.6,7.3,1.5,7.2,1.5Z" fill="#9d9eb3"/>
        <path id="Path_3332" d="M11.4,9.4a.367.367,0,0,0,.1.3l1.1.3a.367.367,0,0,0-.1-.3Z" fill="#9d9eb3"/>
        <path id="Path_3333" d="M10.9,15.9l-.8-1.4a.1.1,0,0,0-.1.1l.8,1.4A.1.1,0,0,1,10.9,15.9Z" fill="#9d9eb3"/>
        <path id="Path_3334" d="M12.5,13.7v-.2l-1.1-1v.2Z" fill="#9d9eb3"/>
        <path id="Path_3335" d="M12.3,14.1,11.2,13c0,.1,0,.1-.1.2l1.1,1.1c.1,0,.1-.1.1-.2Z" fill="#9d9eb3"/>
        <path id="Path_3336" d="M11.5,11l1.1.6v-.2l-1.1-.6Z" fill="#9d9eb3"/>
        <path id="Path_3337" d="M12.6,10.5l-1.1-.4v.3l1.1.4Z" fill="#9d9eb3"/>
        <path id="Path_3338" d="M11.5,12.2l1.1.9v-.2L11.5,12Z" fill="#9d9eb3"/>
        <path id="Path_3339" d="M12.2,8.9l-1-.2a.367.367,0,0,0,.1.3h0l1,.1h0A.349.349,0,0,0,12.2,8.9Z" fill="#9d9eb3"/>
        <path id="Path_3340" d="M11.3,15.6l-.9-1.4-.1.1,1,1.3Z" fill="#9d9eb3"/>
        <path id="Path_3341" d="M11.2,6.3l-.9.3c0,.1.1.2.1.3l.9-.3h0C11.3,6.5,11.2,6.4,11.2,6.3Z" fill="#9d9eb3"/>
        <path id="Path_3342" d="M11.7,15.2h0l-1-1.3-.1.1,1.1,1.2Z" fill="#9d9eb3"/>
        <path id="Path_3343" d="M11.6,7.1l-.9.1c0,.1.1.2.1.3l.9-.2h0A.349.349,0,0,1,11.6,7.1Z" fill="#9d9eb3"/>
        <path id="Path_3344" d="M11.9,8h-1a.367.367,0,0,1,.1.3h1V8.2C12,8.1,12,8.1,11.9,8Z" fill="#9d9eb3"/>
        <path id="Path_3345" d="M12,14.8h0l.1-.1-1-1.2-.1.1Z" fill="#9d9eb3"/>
        <path id="Path_3346" d="M1.3,6.9a.367.367,0,0,0-.1-.3l-1-.2a.367.367,0,0,0,.1.3Z" fill="#9d9eb3"/>
        <path id="Path_3347" d="M.7,8.4h1c0-.1-.1-.2-.1-.3H.6v.1C.7,8.2.7,8.3.7,8.4Z" fill="#9d9eb3"/>
        <path id="Path_3348" d="M.6,1.7l1,1.2.1-.1L.7,1.6c0-.1,0,0-.1.1Z" fill="#9d9eb3"/>
        <path id="Path_3349" d="M1,1.1H1L2,2.4H2L1,1.1Z" fill="#9d9eb3"/>
        <path id="Path_3350" d="M1.3.8l.9,1.4.1-.1L1.3.8Z" fill="#9d9eb3"/>
        <path id="Path_3351" d="M2.4,9.7c0-.1-.1-.2-.1-.3l-.9.4c0,.1.1.2.1.3Z" fill="#9d9eb3"/>
        <path id="Path_3352" d="M.5,7.5l1,.2a.367.367,0,0,0-.1-.3h0l-1-.1h0A.31.31,0,0,0,.5,7.5Z" fill="#9d9eb3"/>
        <path id="Path_3353" d="M1.1,9.2,2,9.1c0-.1-.1-.2-.1-.3L1,8.9V9C1,9.1,1.1,9.1,1.1,9.2Z" fill="#9d9eb3"/>
        <path id="Path_3354" d="M6.1,15.3,6.2,14c-.1,0-.2,0-.2-.1l-.1,1.3Z" fill="#9d9eb3"/>
        <path id="Path_3355" d="M1.1,5V4.8L0,4v.2Z" fill="#9d9eb3"/>
        <path id="Path_3356" d="M0,5l1.1.6V5.4L0,4.8Z" fill="#9d9eb3"/>
        <path id="Path_3357" d="M.1,5.8l1.1.4V5.9L.1,5.6Z" fill="#9d9eb3"/>
        <path id="Path_3358" d="M1.2,4.2.1,3.3v.2l1.1.9Z" fill="#9d9eb3"/>
        <path id="Path_3359" d="M.4,2.2,1.5,3.3c0-.1,0-.1.1-.2L.4,2.1v.1Z" fill="#9d9eb3"/>
        <path id="Path_3360" d="M1.8.4l.8,1.4a.1.1,0,0,0,.1-.1L1.9.4Z" fill="#9d9eb3"/>
        <path id="Path_3361" d="M.2,2.7v.2l1.1,1V3.7Z" fill="#9d9eb3"/>
        <path id="Path_3362" d="M4.1.1,4,0l.4,1.5h.2L4.1.1Z" fill="#9d9eb3"/>
        <path id="Path_3363" d="M4.8,14.3l.3-1.1c-.1,0-.1-.1-.2-.1l-.3,1.1C4.7,14.2,4.7,14.3,4.8,14.3Z" fill="#9d9eb3"/>
        <path id="Path_3364" d="M4,13.6l.2.2h0l.4-1h0l-.2-.2Z" fill="#9d9eb3"/>
        <path id="Path_3365" d="M4.6.2l.3,1.4c.1,0,.1,0,.2.1L4.8.2Z" fill="#9d9eb3"/>
        <path id="Path_3366" d="M5.3.4l.2,1.4c.1,0,.1.1.2.1L5.4.4Z" fill="#9d9eb3"/>
        <path id="Path_3367" d="M2.7,10.4c-.1-.1-.1-.2-.2-.3l-.8.5c.1.1.1.2.2.3Z" fill="#9d9eb3"/>
        <path id="Path_3368" d="M5.4,14.9l.2-1.2-.2-.2-.2,1.2C5.3,14.8,5.4,14.8,5.4,14.9Z" fill="#9d9eb3"/>
        <path id="Path_3369" d="M5.9.7,6,2a.349.349,0,0,0,.2.1L6.1.8C6,.7,6,.7,5.9.7Z" fill="#9d9eb3"/>
        <path id="Path_3370" d="M2.4,11.6l.7-.6a.349.349,0,0,1-.1-.2l-.7.6a.349.349,0,0,0,.1.2Z" fill="#9d9eb3"/>
        <path id="Path_3371" d="M2.3.2,3,1.7h.1L2.4.2Z" fill="#9d9eb3"/>
        <path id="Path_3372" d="M2.9,0H2.8l.6,1.5h.1L2.9,0Z" fill="#9d9eb3"/>
        <path id="Path_3373" d="M3.4,12.9c0,.1.1.1.2.2h0l.5-.8h0c-.1-.1-.2-.2-.2-.3Z" fill="#9d9eb3"/>
        <path id="Path_3374" d="M3.5,0H3.4l.5,1.5H4L3.5,0Z" fill="#9d9eb3"/>
        <path id="Path_3375" d="M3,12.4l.6-.7c-.1-.1-.1-.2-.2-.3l-.6.7c.1.1.1.2.2.3Z" fill="#9d9eb3"/>
      </g>
      <g id="Group_1312" transform="translate(1.279 7.817)">
        <path id="Path_3376" d="M11.4,7.4a2.71,2.71,0,0,1-1.1,2.5l-2.5.7c-.6.3-.2-.4-1.2-1A7.225,7.225,0,0,1,2.9,3.7c0-1.1-1-1.1-.4-1.4L4.6.3A2.819,2.819,0,0,1,7.4.6,8.349,8.349,0,0,1,11.4,7.4Z" fill="url(#linear-gradient-14)"/>
        <path id="Ellipse_19" d="M2.4,2.4C3.7,1.5,6,2.7,7.5,5s1.6,4.8.2,5.7-3.6-.3-5.1-2.6S1.1,3.2,2.4,2.4Z" fill="#eeebf2"/>
        <path id="Path_3377" d="M5.2,2.5a2.57,2.57,0,0,0-2.4-.3A3.477,3.477,0,0,1,5,2.6a7.434,7.434,0,0,1,3.6,6,2.385,2.385,0,0,1-1.1,2.3A2.221,2.221,0,0,0,9,8.5,8,8,0,0,0,5.2,2.5Z" fill="url(#radial-gradient-3)"/>
      </g>
      <path id="Path_3378" d="M9.8,9.3l2.5-1.7-1.3,3Z" fill="#25054d"/>
    </g>
    <path id="Path_3379" d="M383.2,50.9s8.2-3.5,14.4,5.3c5.5,7.9,2.7,14,2.7,14a40,40,0,0,0-6.4-13.9C390.1,51.4,383.2,50.9,383.2,50.9Z" fill="url(#linear-gradient-15)"/>
    <path id="Path_3380" d="M389.8,55.1s-6.2-6.5-11.1,1c-3.3,5,.8,15.6.8,15.6s-.4-13.9,4.1-15.5S389.8,55.1,389.8,55.1Z" fill="url(#linear-gradient-16)"/>
  </g>
</svg>
