<svg xmlns="http://www.w3.org/2000/svg" width="128" height="128" viewBox="0 0 128 128">
  <g id="BIT_logo_white" transform="translate(-79.459 -93.586)">
    <path id="Path_5519" data-name="Path 5519" d="M246.373,202.97l3.282-3.186-3.282-3.187,2.937-3.5-3.624-2.811,2.562-3.813-3.874-2.438L246.5,180l-4.094-2,1.719-4.25-4.313-1.562,1.25-4.406-4.437-1.126.811-4.5-4.53-.655.28-4.565h-4.562v-4.717l-4.719.312-.658-4.53-4.5.78-1.094-4.437-4.407,1.249-1.561-4.281-4.249,1.72-2-4.124-4.031,2.155-2.438-3.874-3.812,2.531-2.813-3.594-3.531,2.938-3.156-3.282-3.187,3.282-3.532-2.938-2.812,3.594-3.782-2.531-2.437,3.874-4.032-2.155-2,4.124-4.249-1.72-1.595,4.281-4.375-1.249-1.124,4.437-4.5-.78-.657,4.53-4.531-.312v4.563h-4.75l.313,4.72-4.531.655.78,4.5-4.438,1.126,1.25,4.406-4.281,1.562,1.688,4.25-4.094,2,2.125,4.03-3.844,2.438,2.532,3.813L122,193.095l2.937,3.5-3.28,3.187,3.28,3.186-2.937,3.5,3.593,2.812L123.06,213.1,126.9,215.5l-2.125,4.063,4.094,2-1.688,4.25,4.281,1.563-1.25,4.406,4.438,1.125-.78,4.5,4.531.625-.313,4.562h4.562v4.751l4.719-.313.657,4.532,4.5-.78,1.124,4.437,4.375-1.282,1.595,4.313,4.249-1.719,2,4.125,4.032-2.156,2.437,3.876,3.782-2.564,2.812,3.624,3.532-2.935,3.187,3.28,3.156-3.28,3.531,2.935,2.813-3.624,3.812,2.564L201.4,258.5l4.031,2.156,2-4.125,4.249,1.719,1.561-4.313,4.407,1.282,1.094-4.437,4.5.78.658-4.532,4.562.313v-4.563h4.718v-4.75l4.25-.625-.811-4.5,4.437-1.125-1.25-4.406,4.313-1.563-1.719-4.25,4.094-2-2.125-4.063,3.874-2.405-2.562-3.813,3.624-2.812Zm-60.711,55.263a58.64,58.64,0,1,1,58.576-58.64A58.673,58.673,0,0,1,185.662,258.233Zm-.466-4.546A54.486,54.486,0,1,1,239.683,199.2,54.548,54.548,0,0,1,185.2,253.687ZM185.2,147a52.2,52.2,0,1,0,52.292,52.2A52.3,52.3,0,0,0,185.2,147Zm-38.861,43.616h-1.729a39.728,39.728,0,0,1,3.933-10.051,5.522,5.522,0,0,0,1.57.64A38.043,38.043,0,0,0,146.335,190.619Zm66.026-21.626A40.552,40.552,0,0,1,225.9,190.619h-1.73A38.823,38.823,0,0,0,211.752,170.7,7.361,7.361,0,0,0,212.362,168.993Zm-52.495-1.357a42.566,42.566,0,0,1,40.351-5.705,7.414,7.414,0,0,0-1.173,1.382,40.959,40.959,0,0,0-36.477,4.485A9.678,9.678,0,0,0,159.867,167.636Zm64.082,42.5h1.705a39.782,39.782,0,0,1-3.813,9.3,4.382,4.382,0,0,0-1.363-1.041,38.077,38.077,0,0,0,3.47-8.418Zm-6.105,15.1a42.111,42.111,0,0,1-32.589,15.279,42.737,42.737,0,0,1-10.578-1.323,4.22,4.22,0,0,0,.953-1.526,41.081,41.081,0,0,0,9.625,1.142,40.449,40.449,0,0,0,30.7-13.959A5.547,5.547,0,0,0,217.843,225.239Zm-50.651,11.267a41.1,41.1,0,0,1-22.338-26.367h1.753a39.4,39.4,0,0,0,20.864,24.619,4.137,4.137,0,0,0-.292,1.518C167.18,236.354,167.188,236.429,167.192,236.506Zm-9.076-37.765c-1.442-.007-3.765-1-3.907-1.636-.333-1.227.347-7.97.783-10.54.686-4.017,1.681-9.375,2.707-12.932a41.184,41.184,0,0,0-8.41,3.45c-.029.007-.073-.042-.088-.1a5.6,5.6,0,0,1,1.372-2.732,39.342,39.342,0,0,1,7.519-2.441l.2-.055.3-.694a1,1,0,0,1,.571-.493,6.161,6.161,0,0,1,3.348.593c1.183-.046,2.343-.177,3.333-.14,3.058.089,5.015.752,5.473,2.435.907,3.339-2.965,6.567-6.946,8.721,4.389-.089,8.534,1.635,9.263,4.317,1.426,5.251-6.4,11.852-15.477,14.317a30.947,30.947,0,0,1-8.611.9,4.009,4.009,0,0,1-1.436-1.111A37.038,37.038,0,0,0,158.116,198.741Zm.146-.592q.116.429.31.467c6.779-2.117,11.344-7.648,10.233-11.851-.705-2.6-4.58-3.321-7.5-3.14-.661.271-1.3.507-1.894.7C158.308,190.537,157.809,196.372,158.262,198.149Zm1.4-15.151c3.163-1.442,8.341-5.392,7.589-8.16-.326-1.2-1.495-1.892-3.219-2.037a7.819,7.819,0,0,0-2.013.149A71.557,71.557,0,0,0,159.661,183Zm19.019,6.229c.217.8.74,1.147,1.254,1.008,1.855-.5,4.921-3.543,7.477-8.007.322-.057.352.732.321.955-.541,2.292-4.407,8.368-7.118,9.1-2.369.643-5.42-.887-5.916-2.714-1.248-4.594,1.82-14.622,6.129-15.792,2.4-.651,5.218.482,5.838,2.765.558,2.054-3.357,6.366-5.955,7.746a8.2,8.2,0,0,1-2.13.732A11.528,11.528,0,0,0,178.68,189.227Zm3.935-13.939c-1.4.38-3.073,4.481-3.792,8.262a4.565,4.565,0,0,0,1.632-.872,9,9,0,0,0,2.963-6.352C183.388,175.538,183.071,175.165,182.615,175.288Zm6.041,1.82c-.775-2.854,1.337-5.91,4.089-6.719,1.839-.561,4.414.118,5.281,1.844.261,1.186-1.933,4.05-2.183,4.148s-.386.044-.44-.156a13.364,13.364,0,0,0-.879-3.347,1.612,1.612,0,0,0-1.973-1.058c-1.085.295-1.275,1.174-.99,2.108.884,2.916,6.1,7.566,6.644,8.89a2.6,2.6,0,0,1,.189.469c.736,2.711-3,5.1-5.349,5.8-3.087.931-6.889.585-7.6-1.825-.654-2.182,2.843-6.564,4.494-7.932A6.757,6.757,0,0,1,188.656,177.108Zm3.439,10.741c.714-.194,2.732-1.11,2.332-2.472-.527-1.6-2.432-3.537-3.94-5.364-1.745,2.374-2.458,4.376-2.088,5.961C188.8,187.672,190.383,188.314,192.1,187.849Zm9.093-18.835c.232-1.289.451-2.513.628-3.327a18.814,18.814,0,0,1,.94-3.534.8.8,0,0,1,.408-.417,4.992,4.992,0,0,1,3.2.6,9.743,9.743,0,0,0-.8,2.7c-.146.591-.318,1.649-.542,2.966,1.833-.467,3.626-.863,5.048-1.157.247.117-.252.988-.512,1.273-.885.24-2.769.752-4.792,1.425-.575,3.526-1.186,8.044-1.351,10.817-.188,3.146-.338,5.3.266,6.056-1.374.129-3.873-.725-4.112-1.487-.17-.627-.013-4.562.768-10.26.131-.986.318-2.323.548-3.734a19.624,19.624,0,0,0-4,1.975c-.314-.252.264-2.186.8-2.7C198.623,169.833,199.856,169.406,201.189,169.013Zm-17.9,33.022a7.937,7.937,0,0,0,.059,3.035c-.571.051-1.684-.322-1.773-.648a12.58,12.58,0,0,1,.075-2.02,29.938,29.938,0,0,1,.384-3.129,6.911,6.911,0,0,1,.383-1.506.356.356,0,0,1,.188-.169,2.249,2.249,0,0,1,1.4.27,3.317,3.317,0,0,0-.339,1.144C183.439,200.4,183.347,201.253,183.287,202.035Zm.1-7.673a.834.834,0,0,1,1.073.747,1.218,1.218,0,0,1-.866,1.261.81.81,0,0,1-1.058-.739A1.215,1.215,0,0,1,183.385,194.362Zm4.679,2.871c-.661,1.01-2.479,5.645-2.187,6.721a.751.751,0,0,0,.074.175c-.571.051-1.572-.34-1.661-.666a22.947,22.947,0,0,1,.74-6.406.243.243,0,0,1,.182-.141,2.109,2.109,0,0,1,1.367.253,14.518,14.518,0,0,0-.712,4.023,15.28,15.28,0,0,1,1.268-3.6c.26-.525.927-1.654,1.507-1.811a2.213,2.213,0,0,1,1.548.489c-.211.992-.911,6.83-.372,7.047-.57.051-1.72-.312-1.809-.638a23.018,23.018,0,0,1,.593-5.9C188.434,196.73,188.268,196.931,188.064,197.233Zm-14.988,39.54a1.088,1.088,0,0,0,.234.443c-1.109.273-3.667-.638-3.976-1.259-.663-2.44.427-10.878.9-14.107.48-3.314,1.061-6.88,1.771-9.665a77.3,77.3,0,0,0-9.867,3.919,4.317,4.317,0,0,1,.523-2.847,56.211,56.211,0,0,1,10.012-3.282c.086-.305.263-1,.63-1.1a6.173,6.173,0,0,1,2.723.274c2.776-.67,5.345-1.17,6.962-1.44.226.107-.115,1.13-.309,1.352-1.708.351-4.017.978-6.514,1.741-.654,2.572-1.431,6.249-2.024,10.185C173.463,225.539,172.564,234.884,173.076,236.773ZM184.7,214.939c1.679-.456,3.754,1.375,4.017,2.346,1.454,5.352-1.631,13.6-5.594,14.676-2.283.62-5.112-.359-5.789-2.851-1.318-4.854,1.98-13.047,5.784-14.079a3.992,3.992,0,0,1,1.424-.049Zm.836,2.252c-.078-.289-.394-1.246-.893-1.11-2.388.649-4.7,9.362-3.637,13.271.178.656.588,1.334,1.322,1.134C184.537,229.888,186.241,220.185,185.54,217.191Zm13.588,7.694a3.412,3.412,0,0,1-.238-.668,51.544,51.544,0,0,1-1.234-7.863c-1.375,4.064-2.655,11.906-2.78,12.278a5.282,5.282,0,0,1-3.976-1.259,2.556,2.556,0,0,1-.209-.563,62.736,62.736,0,0,1-.329-12.73c.139-.629,3.623-.561,3.744.195a56.5,56.5,0,0,0-.117,11.189,107.277,107.277,0,0,1,3.455-12.179c.236-.685,3.329-.4,3.533.252-.213.565,1.1,8.717,1.6,10.132.176-1.738,2.749-14.157,3.549-15.05.289-.388,1.887-.315,2.282,0-.917.981-2.363,6.135-3.4,10.5-.869,3.646-1.563,6.9-1.518,7.174C202.355,226.6,199.466,225.61,199.128,224.885Zm16.5-15.605c-1.434,2.192-5.379,12.251-4.745,14.586a1.638,1.638,0,0,0,.159.38c-1.238.11-3.412-.736-3.6-1.445-.321-1.181.379-10.639,1.606-13.9a.526.526,0,0,1,.4-.3,4.572,4.572,0,0,1,2.966.547c-.432.174-1.2,4.721-1.546,8.731a33.184,33.184,0,0,1,2.751-7.819c.564-1.139,2.012-3.589,3.271-3.931a4.8,4.8,0,0,1,3.359,1.06c-.458,2.153-1.977,14.82-.807,15.291-1.237.111-3.733-.676-3.926-1.384-.513-1.89.612-10.2,1.285-12.8C216.427,208.189,216.067,208.625,215.625,209.28Zm-65.452,1.628,27.66-7.811m-27.542,8.228-.235-.833,27.66-7.811.235.833ZM191.7,199.348l27.66-7.811m-27.542,8.228-.235-.833,27.66-7.812.235.833ZM172.1,244.981l-2.213-.715-.7.8a.138.138,0,0,1-.1.051.147.147,0,0,1-.107-.036.138.138,0,0,1-.048-.1.14.14,0,0,1,.041-.1l2.848-3.251a.133.133,0,0,1,.155-.041.132.132,0,0,1,.1.122l.409,4.307a.159.159,0,0,1-.028.106.13.13,0,0,1-.091.055.142.142,0,0,1-.111-.031.146.146,0,0,1-.057-.1Zm-2.013-.954,1.988.642-.24-2.644Zm5.669-1.4a1.453,1.453,0,0,1,.547.249,1.548,1.548,0,0,1,.4.427,1.519,1.519,0,0,1,.207.543,1.478,1.478,0,0,1-.018.6,1.462,1.462,0,0,1-.248.545,1.48,1.48,0,0,1-.964.595,1.536,1.536,0,0,1-.608-.021l-1.05-.244-.248,1.069a.143.143,0,0,1-.172.107.141.141,0,0,1-.094-.067.144.144,0,0,1-.016-.106l.9-3.87a.135.135,0,0,1,.065-.091.144.144,0,0,1,.11-.015Zm-1.122.037-.552,2.379,1.053.244a1.177,1.177,0,0,0,.513.011,1.239,1.239,0,0,0,.771-.5,1.212,1.212,0,0,0,.186-.413,1.176,1.176,0,0,0,.013-.454,1.314,1.314,0,0,0-.156-.441,1.253,1.253,0,0,0-.31-.361,1.129,1.129,0,0,0-.456-.215Zm4.752.642a1.464,1.464,0,0,1,.565.2,1.553,1.553,0,0,1,.43.393,1.521,1.521,0,0,1,.251.524,1.526,1.526,0,0,1-.17,1.164,1.521,1.521,0,0,1-.389.426,1.494,1.494,0,0,1-.524.246,1.519,1.519,0,0,1-.608.028l-1.066-.156-.16,1.086a.146.146,0,0,1-.261.063.144.144,0,0,1-.025-.1l.576-3.931a.136.136,0,0,1,.058-.1.145.145,0,0,1,.108-.025Zm-1.115.129-.354,2.416,1.069.157a1.186,1.186,0,0,0,.513-.031,1.234,1.234,0,0,0,.423-.217,1.215,1.215,0,0,0,.3-.349,1.152,1.152,0,0,0,.127-.88,1.293,1.293,0,0,0-.191-.427,1.251,1.251,0,0,0-.34-.334,1.122,1.122,0,0,0-.472-.177Zm3.393.305a.134.134,0,0,1,.049-.1.143.143,0,0,1,.105-.034l1.225.075a1.611,1.611,0,0,1,.581.144,1.475,1.475,0,0,1,.462.329,1.422,1.422,0,0,1,.3.474,1.4,1.4,0,0,1,.084.583,1.425,1.425,0,0,1-.113.485,1.361,1.361,0,0,1-.258.393,1.446,1.446,0,0,1-.374.284,1.569,1.569,0,0,1-.46.158l1.008,1.238a.143.143,0,0,1-.026.215.136.136,0,0,1-.1.026.156.156,0,0,1-.089-.051l-1.137-1.4-1.132-.069-.076,1.235a.142.142,0,0,1-.152.134.142.142,0,0,1-.1-.048.132.132,0,0,1-.037-.1Zm.28.164L181.8,246.2l1.077.066a1.345,1.345,0,0,0,.508-.061,1.177,1.177,0,0,0,.4-.225,1.129,1.129,0,0,0,.094-1.614,1.218,1.218,0,0,0-.369-.273,1.288,1.288,0,0,0-.483-.121Zm5.48-.206a2.111,2.111,0,0,1,.58.056,2.159,2.159,0,0,1,.977.519,2.1,2.1,0,0,1,.356.425,2.219,2.219,0,0,1,.238.509,2.127,2.127,0,0,1,.1.572,2.105,2.105,0,0,1-.056.579,2.168,2.168,0,0,1-.945,1.333,2.233,2.233,0,0,1-.509.238,2.186,2.186,0,0,1-1.427-.037,2.166,2.166,0,0,1-1.391-1.947,2.137,2.137,0,0,1,.135-.849,2.16,2.16,0,0,1,1.1-1.2A2.128,2.128,0,0,1,187.425,243.7Zm.011.286a1.827,1.827,0,0,0-.726.176,1.869,1.869,0,0,0-.58.425,1.9,1.9,0,0,0-.376.612,1.844,1.844,0,0,0-.119.738,1.883,1.883,0,0,0,.985,1.587,1.811,1.811,0,0,0,.456.172,1.866,1.866,0,0,0,.5.048,1.852,1.852,0,0,0,.937-.292,1.879,1.879,0,0,0,.37-.309,1.921,1.921,0,0,0,.279-.39,1.858,1.858,0,0,0,.173-.456,1.878,1.878,0,0,0,.047-.5,1.827,1.827,0,0,0-.176-.726,1.88,1.88,0,0,0-1.037-.961A1.83,1.83,0,0,0,187.436,243.988Zm2.3-.164a.122.122,0,0,1-.019-.1.146.146,0,0,1,.067-.089.136.136,0,0,1,.108-.016.149.149,0,0,1,.09.067l2.045,3.431,1.081-3.845a.146.146,0,0,1,.068-.088.134.134,0,0,1,.107-.012.159.159,0,0,1,.09.068.129.129,0,0,1,.014.106l-1.175,4.159a.143.143,0,0,1-.071.089.149.149,0,0,1-.107.015l-.011-.006a.018.018,0,0,1-.014,0l-.014-.008-.015-.012a.116.116,0,0,1-.031-.039Zm5.367,3.3A.145.145,0,0,1,195,247.1a.152.152,0,0,1-.058-.093l-.861-3.868a.127.127,0,0,1,.023-.112.163.163,0,0,1,.1-.061l2.54-.565a.139.139,0,0,1,.108.017.133.133,0,0,1,.063.091.142.142,0,0,1-.018.11.134.134,0,0,1-.089.064l-2.407.535.358,1.611,1.816-.4a.123.123,0,0,1,.11.018.149.149,0,0,1,.061.094.133.133,0,0,1-.017.106.138.138,0,0,1-.092.061l-1.816.4.379,1.7,2.407-.536a.137.137,0,0,1,.108.019.139.139,0,0,1,.063.09.147.147,0,0,1-.018.113.125.125,0,0,1-.09.061Zm2.648-4.844a.137.137,0,0,1,.01-.111.144.144,0,0,1,.086-.07l1.182-.379a2.107,2.107,0,0,1,.565-.1,2.2,2.2,0,0,1,.554.05,2.11,2.11,0,0,1,.518.187,2.154,2.154,0,0,1,.815.731,2.1,2.1,0,0,1,.246.515,2.048,2.048,0,0,1,.091.838,2.15,2.15,0,0,1-.745,1.423,2.093,2.093,0,0,1-.743.412l-1.182.379a.145.145,0,0,1-.111-.007.139.139,0,0,1-.072-.084Zm.321.051,1.123,3.5,1.045-.335a1.8,1.8,0,0,0,.669-.378,1.869,1.869,0,0,0,.62-1.245,1.734,1.734,0,0,0-.076-.685,1.793,1.793,0,0,0-.2-.416,1.877,1.877,0,0,0-.3-.359,1.981,1.981,0,0,0-.384-.278,1.806,1.806,0,0,0-.447-.177,1.851,1.851,0,0,0-.489-.055,1.776,1.776,0,0,0-.513.088ZM186.13,199.783a.475.475,0,1,1-.475-.474A.475.475,0,0,1,186.13,199.783Zm24.236,42.431-1.525-.91-1.654.692.44-1.676-1.189-1.29,1.8-.126.919-1.49.671,1.6,1.757.369L210.2,240.5Zm7-7.257.006-1.726-1.479-.976,1.714-.537.519-1.656,1.053,1.395,1.8-.048-1.064,1.4.594,1.627-1.711-.53Zm8.16-9.5-.479-1.66-1.7-.55,1.5-.965.035-1.727,1.407,1.064,1.722-.517-.632,1.623,1.03,1.407-1.8-.061Zm5.29-11.2-.89-1.493-1.793-.132,1.213-1.287-.408-1.678,1.64.7,1.541-.905-.2,1.718,1.36,1.118-1.763.364ZM160.838,240.54l-1.4-1.094,1.751-.394.646-1.608.941,1.477,1.8.1-1.169,1.307.465,1.67-1.663-.669-1.511.932Zm-8.65-6.674-1.713.522.6-1.624-1.057-1.4,1.8.056,1.06-1.39.511,1.659,1.712.545-1.485.969,0,1.726Zm-7.783-9.751-1.8.069,1.026-1.411-.637-1.62,1.724.51,1.4-1.07.04,1.727,1.505.959-1.7.557L145.5,225.5Zm-4.9-11.441-1.766-.351,1.352-1.129-.213-1.716,1.548.894,1.634-.71-.395,1.681,1.223,1.278-1.792.145-.878,1.5ZM210.2,158.849l1.382,1.114-1.757.369-.671,1.6-.919-1.49-1.8-.126,1.189-1.29-.44-1.676,1.654.692,1.525-.91Zm8.6,6.592,1.711-.53-.594,1.627,1.064,1.4-1.8-.048-1.053,1.395-.519-1.656-1.714-.537,1.479-.976-.006-1.726Zm7.813,9.83,1.8-.061-1.03,1.407.632,1.623-1.722-.517-1.407,1.064-.035-1.727-1.5-.965,1.7-.55.479-1.66Zm4.905,11.413,1.763.364-1.36,1.119.2,1.718-1.541-.905-1.64.7.408-1.678-1.213-1.287,1.793-.132.89-1.493Zm-70.817-29.6,1.511.932,1.663-.669-.465,1.67,1.169,1.307-1.8.1-.941,1.477-.646-1.608-1.751-.394,1.4-1.094Zm-7.081,7.334,0,1.726,1.485.969-1.712.545-.511,1.659-1.06-1.39-1.8.056,1.057-1.4-.6-1.624,1.713.522Zm-8.121,9.427.474,1.662,1.7.557-1.505.959-.04,1.727-1.4-1.07-1.724.51.637-1.62-1.026-1.411,1.8.069Zm-5.275,11.232.878,1.5,1.792.145L141.667,188l.395,1.681-1.634-.71-1.548.894.213-1.716-1.352-1.129,1.766-.351Zm46.1-33.131,1.781.256-1.3,1.2.3,1.7-1.59-.81-1.6.8.312-1.7-1.284-1.211,1.784-.241.8-1.544Zm12.352,1.8,1.645.707-1.582.82-.188,1.716-1.307-1.191-1.762.354.775-1.556-.9-1.5,1.786.229,1.205-1.279Zm-25.987-1.681,1.2,1.286,1.787-.219-.91,1.492.764,1.561-1.759-.364-1.314,1.184-.178-1.717-1.577-.829,1.649-.7Zm-33.539,42.991,1.473,2.986,3.295.479-2.384,2.324.563,3.281-2.947-1.549-2.947,1.549.563-3.281-2.384-2.324,3.295-.479Zm92.1,0,1.473,2.986,3.295.479-2.384,2.324.563,3.281-2.947-1.549-2.947,1.549.563-3.281-2.384-2.324,3.295-.479Z" transform="translate(-42.196 -42.197)" fill="#fff"/>
  </g>
</svg>
