<svg class="block" width="140" height="40" viewBox="0 0 108 16" fill="none" xmlns="http://www.w3.org/2000/svg" aria-labelledby="brand">
 <desc>SanDisk Home</desc>
    <path d="M51.3294 0H47.9388C47.9388 0 47.5386 0.25184 47.5386 0.835654C47.5386 1.54539 47.9388 1.70565 47.9388 1.70565H50.9526C55.3203 1.70565 58.0634 4.54459 58.0634 10.1194C58.0634 16.1293 55.3556 18.7393 50.5524 18.7393H48.6099C48.3038 18.7393 48.0801 18.3844 48.0683 18.2127C48.0683 17.0909 48.0566 10.0508 48.0566 9.4555C48.0566 6.55932 46.0199 4.96814 42.7118 4.96814C40.4867 4.96814 38.8974 5.94117 38.0027 7.58958C38.0027 7.05156 38.0027 6.05564 38.0027 5.76946C38.0027 5.48327 37.8261 5.34591 37.5788 5.34591C37.3316 5.34591 31.9868 5.34591 31.9868 5.34591C31.9868 5.34591 31.6219 5.65498 31.6219 6.2159C31.6219 6.82261 31.9868 7.05156 31.9868 7.05156C31.9868 7.05156 32.8462 7.05156 33.2347 7.05156C33.5644 7.05156 33.9175 7.40643 33.9175 7.79563C33.9175 8.11616 33.9175 18.2127 33.9175 18.2127C33.9175 18.4302 33.6114 18.7049 33.3995 18.7049H32.1987L31.6454 20.1931C35.2832 20.1931 39.6273 20.2045 39.6273 20.2045C39.6273 20.2045 39.9098 19.9527 39.9098 19.4147C39.9098 18.911 39.6391 18.6935 39.6391 18.6935H38.6973C38.4147 18.6935 38.2028 18.4646 38.2028 18.2356V10.1309C38.9916 8.05892 40.5103 6.83406 41.7699 6.83406C42.959 6.83406 43.7124 7.70406 43.7124 9.00905C43.7124 9.68445 43.7007 16.9421 43.7007 18.1326C43.7007 18.4646 43.4534 18.7049 43.2297 18.7049H42.0996C42.0996 18.7049 41.7817 18.9224 41.7817 19.4261C41.7817 19.9527 42.0996 20.216 42.0996 20.216H51.4824C60.83 20.216 63.2434 14.7671 63.2434 10.1194C63.2787 2.81604 58.0634 0 51.3294 0Z" fill="currentColor"></path>
    <path d="M31.1257 18.5611C30.1098 18.4612 29.9917 17.8947 29.9681 17.2615V9.5417C29.9681 8.40872 29.5428 7.10912 28.5269 6.30937C27.2629 5.30967 25.4201 5.0542 23.8254 5.0542C21.7582 5.0542 20.128 5.27635 18.4387 5.82063C18.2497 5.88728 18.2025 6.05389 18.2025 6.28715C18.2025 7.0758 18.1907 7.509 18.1907 8.41983C18.1907 8.60866 18.3324 8.71974 18.4742 8.71974C18.4742 8.71974 19.2538 8.71974 19.3601 8.71974C19.5373 8.71974 19.7027 8.63087 19.8563 8.45315C20.3524 7.84223 20.9549 7.35349 21.4274 7.09801C21.8645 6.86475 22.5851 6.60928 23.3174 6.60928C25.0303 6.60928 25.7391 7.77558 25.7391 9.14183V11.2967C19.2893 10.9413 16.6432 12.7296 16.6432 15.5843C16.6432 18.8499 19.0412 20.2162 21.392 20.2162C23.5301 20.2162 25.1248 19.4498 26.0226 18.2835C26.2116 19.3054 26.8495 20.0051 27.7 20.0051C28.1135 20.0051 29.4247 20.0051 31.0667 20.0051L31.6219 18.5611H31.1257ZM25.7509 16.4174C25.1012 17.2171 24.0262 17.9058 22.8804 17.9058C21.392 17.9058 20.5651 17.2171 20.5651 15.662C20.5651 13.8737 21.4628 12.8851 25.7509 12.8851V16.4174Z" fill="currentColor"></path>
    <path d="M73.7701 18.7809L72.021 18.7919C71.7528 18.7919 71.6128 18.6373 71.6128 18.4055C71.6128 18.4055 71.6012 6.80181 71.6012 6.45956C71.6012 6.1173 71.4729 5.89648 71.0531 5.89648C70.6333 5.89648 65.6659 5.89648 65.6659 5.89648C65.6659 5.89648 65.3044 6.21666 65.3044 6.70245C65.3044 7.19928 65.6659 7.51945 65.6659 7.51945C65.6659 7.51945 67.0535 7.53049 67.1701 7.53049C67.2867 7.53049 67.3683 7.60778 67.3683 7.75131C67.3683 7.89483 67.3567 18.3724 67.3567 18.3724C67.3567 18.6042 67.1351 18.7809 66.9602 18.7809H65.2344C65.2344 18.7809 64.9079 18.9796 64.9079 19.4764C64.9079 19.9401 65.2344 20.2161 65.2344 20.2161H73.7817C73.7817 20.2161 74.0616 19.9181 74.0616 19.4543C74.0499 19.0017 73.7701 18.7809 73.7701 18.7809Z" fill="currentColor"></path>
    <path d="M6.75099 7.34295C3.89002 6.36639 3.30199 5.54698 3.30199 4.39083C3.30199 3.14489 4.46673 1.88771 6.96584 1.88771C7.83657 1.88771 8.75254 2.17956 9.60065 2.70712C10.1321 3.03264 10.6749 3.57143 11.2969 4.62655C11.3647 4.7388 11.5117 4.81738 11.5909 4.81738C11.8397 4.81738 12.4955 4.81738 12.4955 4.81738C12.6312 4.80615 12.6765 4.72758 12.6765 4.57043C12.6765 3.93062 12.6878 2.21323 12.6878 1.203C12.6878 1.02341 12.5747 0.888709 12.3825 0.821361C10.6862 0.260123 9.03524 0.00195312 6.80753 0.00195312C2.72527 0.00195312 0 2.30303 0 5.8276C0 9.28483 2.64612 10.744 6.10642 11.7992C8.2889 12.4614 10.8785 13.3706 10.8785 15.5033C10.8785 16.7717 9.70242 18.2422 7.35032 18.2422C5.54101 18.2422 4.35365 17.6136 3.66385 16.8952C2.97405 16.1881 2.30687 15.5033 1.68492 14.2125C1.61707 14.0441 1.50399 13.887 1.35698 13.887C1.00643 13.887 0.305321 13.887 0.305321 13.887C0.158315 13.887 0.0452328 13.9992 0.0452328 14.2013C0.0452328 15.0207 0.0452328 17.2095 0.0452328 18.1299C0.0452328 18.2871 0.135698 18.5116 0.294013 18.6014C2.31818 19.78 4.98691 20.229 7.19201 20.2177C11.1046 20.1953 14.1465 17.6136 14.1465 13.4717C14.1352 9.02666 10.0304 8.46542 6.75099 7.34295Z" fill="currentColor"></path>
    <path d="M82.3219 11.3845C78.9569 10.6731 78.2712 10.1506 78.2712 9.11686C78.2712 8.23871 79.1474 7.30498 80.8997 7.30498C82.6393 7.30498 84.2647 8.20536 85.0139 9.26137C85.1155 9.40587 85.2552 9.47257 85.471 9.47257C85.7504 9.47257 86.144 9.47257 86.2964 9.47257C86.4488 9.47257 86.525 9.36141 86.525 9.2836C86.525 9.20579 86.525 7.49395 86.525 6.73807C86.525 6.57134 86.4488 6.39348 86.2075 6.32679C84.925 5.99331 82.9949 5.771 80.8616 5.771C78.0172 5.771 74.9316 7.19382 74.9316 10.2618C74.9316 12.8851 77.3569 14.308 79.4394 14.8082C82.9822 15.6419 83.998 16.0865 83.998 17.4093C83.998 18.5542 82.9695 19.2434 81.1918 19.2434C79.4013 19.2434 77.7252 18.0873 76.7347 16.042C76.5823 15.8308 76.4808 15.753 76.3157 15.753C75.8204 15.7419 75.3252 15.753 75.1855 15.753C75.0459 15.753 74.8935 15.8197 74.8935 16.0198C74.8935 16.7646 74.8935 18.8432 74.8935 19.0322C74.8935 19.2656 75.2617 19.5213 75.2617 19.5213C75.2617 19.5213 76.2903 20.0771 77.4331 20.4217C78.3855 20.7107 79.5537 20.933 81.2044 20.933C85.3821 20.933 87.3757 18.6654 87.3757 16.0198C87.3757 13.5965 85.8266 12.1181 82.3219 11.3845Z" fill="currentColor"></path>
    <path d="M67.7443 3.36933H71.8258C72.0608 3.36933 72.2216 3.26477 72.2711 3.09049L73.211 0.348552C73.2853 0.116184 73.1245 0 72.8895 0H68.6101C68.3999 0 68.2762 0.127802 68.2267 0.29046L67.4351 2.82327C67.3362 3.12535 67.4846 3.36933 67.7443 3.36933Z" fill="currentColor"></path>
    <path d="M106.553 18.7418C105.642 18.7418 104.929 18.4675 104.532 17.8733C104.345 17.6104 99.5422 10.4223 99.4371 10.2508C100.652 8.60523 101.283 7.99955 102.358 7.45101C103.071 7.08531 104.38 6.81104 105.373 6.81104C105.385 6.81104 105.607 6.6282 105.607 6.10251C105.607 5.57683 105.361 5.37112 105.361 5.37112H100.547C100.372 5.37112 100.126 5.50826 99.9629 5.73682C99.8577 5.88538 96.0719 11.1994 95.067 12.6279C95.067 7.45101 95.067 0.639964 95.067 0.525685C95.067 0.228559 94.8801 0 94.5295 0C94.1673 0 88.5002 0 88.5002 0C88.5002 0 88.2081 0.228559 88.2081 0.731388C88.2081 1.23422 88.5002 1.50849 88.5002 1.50849C88.5002 1.50849 90.2179 1.50849 90.4516 1.50849C90.6853 1.50849 90.7904 1.62277 90.7904 1.86275C90.7904 2.10274 90.7904 18.3532 90.7904 18.3532C90.7904 18.5932 90.6736 18.7075 90.4983 18.7075H88.6405C88.6405 18.7075 88.3367 18.9704 88.3367 19.4389C88.3367 19.9074 88.6405 20.216 88.6405 20.216L96.7029 20.2046C96.7029 20.2046 96.9249 19.8732 96.9249 19.4275C96.9249 18.9818 96.7029 18.7075 96.7029 18.7075H95.3825C95.2189 18.7075 95.067 18.5704 95.067 18.3647C95.067 18.3647 95.067 16.7762 95.067 14.5363C95.4409 14.1478 96.1303 13.4621 96.2121 13.3707C96.4575 13.1307 96.7145 13.2221 96.8548 13.4278C97.0183 13.6792 100.08 18.2732 100.15 18.399C100.29 18.6275 100.208 18.7304 100.033 18.7304L99.0748 18.7418C99.0748 18.7418 98.8411 19.0846 98.8411 19.4732C98.8411 19.8617 99.0515 20.2046 99.0515 20.2046L107.091 20.216C107.091 20.216 107.348 19.896 107.348 19.4846C107.348 19.0732 107.055 18.7304 107.055 18.7304C107.055 18.7304 106.833 18.7418 106.553 18.7418Z" fill="currentColor"></path>
    </svg>